<svg width="76" height="79" viewBox="0 0 76 79" fill="none" xmlns="http://www.w3.org/2000/svg">
<path d="M34 3.3094C36.4752 1.88034 39.5248 1.88034 42 3.3094L66.909 17.6906C69.3842 19.1197 70.909 21.7607 70.909 24.6188V53.3812C70.909 56.2393 69.3842 58.8803 66.909 60.3094L42 74.6906C39.5248 76.1197 36.4752 76.1197 34 74.6906L9.09103 60.3094C6.61582 58.8803 5.09103 56.2393 5.09103 53.3812V24.6188C5.09103 21.7607 6.61583 19.1197 9.09103 17.6906L34 3.3094Z" fill="#162C4B"/>
<g filter="url(#filter0_d_3_88219)">
<path d="M33.9838 13.7243C36.4672 12.2828 39.5328 12.2828 42.0162 13.7243L58.0757 23.0464C60.5418 24.4779 62.0595 27.1138 62.0595 29.9652V48.6842C62.0595 51.5356 60.5418 54.1715 58.0757 55.603L42.0162 64.925C39.5328 66.3666 36.4672 66.3666 33.9838 64.925L17.9243 55.603C15.4583 54.1715 13.9405 51.5356 13.9405 48.6842V29.9652C13.9405 27.1138 15.4583 24.4779 17.9243 23.0464L33.9838 13.7243Z" fill="#0F213C" shape-rendering="crispEdges"/>
<path d="M42.7692 12.4271C39.8202 10.7152 36.1799 10.7152 33.2308 12.4271L17.1713 21.7491C14.2428 23.449 12.4405 26.5791 12.4405 29.9652V48.6842C12.4405 52.0702 14.2428 55.2004 17.1713 56.9003L33.2308 66.2223C36.1799 67.9342 39.8202 67.9342 42.7692 66.2223L58.8287 56.9003C61.7572 55.2004 63.5595 52.0702 63.5595 48.6842V29.9652C63.5595 26.5791 61.7572 23.449 58.8287 21.7491L42.7692 12.4271Z" stroke="#37F2AD" stroke-opacity="0.08" stroke-width="3" shape-rendering="crispEdges"/>
</g>
<path d="M29.9999 52.3333C29.2666 52.3333 28.6386 52.0719 28.1159 51.5493C27.5933 51.0266 27.3324 50.399 27.3333 49.6666V36.3333C27.3333 35.5999 27.5946 34.9719 28.1173 34.4493C28.6399 33.9266 29.2675 33.6657 29.9999 33.6666H41.9999V30.9999C41.9999 29.8888 41.611 28.9444 40.8333 28.1666C40.0555 27.3888 39.111 26.9999 37.9999 26.9999C37.0888 26.9999 36.283 27.2724 35.5826 27.8173C34.8821 28.3621 34.4106 29.0453 34.1679 29.8666C34.0568 30.1999 33.8844 30.4724 33.6506 30.6839C33.4168 30.8955 33.1448 31.0008 32.8346 30.9999C32.3901 30.9999 32.0346 30.8497 31.7679 30.5493C31.5013 30.2488 31.4124 29.9101 31.5013 29.5333C31.8337 28.0444 32.5999 26.8053 33.7999 25.8159C34.9999 24.8266 36.3999 24.3324 37.9999 24.3333C39.8444 24.3333 41.4168 24.9835 42.7173 26.2839C44.0177 27.5844 44.6675 29.1564 44.6666 30.9999V33.6666H45.9999C46.7333 33.6666 47.3613 33.9279 47.8839 34.4506C48.4066 34.9733 48.6675 35.6008 48.6666 36.3333V49.6666C48.6666 50.3999 48.4053 51.0279 47.8826 51.5506C47.3599 52.0732 46.7324 52.3341 45.9999 52.3333H29.9999ZM37.9999 45.6666C38.7333 45.6666 39.3613 45.4053 39.8839 44.8826C40.4066 44.3599 40.6675 43.7324 40.6666 42.9999C40.6666 42.2666 40.4053 41.6386 39.8826 41.1159C39.3599 40.5933 38.7324 40.3324 37.9999 40.3333C37.2666 40.3333 36.6386 40.5946 36.1159 41.1173C35.5933 41.6399 35.3324 42.2675 35.3333 42.9999C35.3333 43.7333 35.5946 44.3613 36.1173 44.8839C36.6399 45.4066 37.2675 45.6675 37.9999 45.6666Z" fill="#37F2AD"/>
<defs>
<filter id="filter0_d_3_88219" x="1.94043" y="0.643066" width="72.1191" height="77.363" filterUnits="userSpaceOnUse" color-interpolation-filters="sRGB">
<feFlood flood-opacity="0" result="BackgroundImageFix"/>
<feColorMatrix in="SourceAlpha" type="matrix" values="0 0 0 0 0 0 0 0 0 0 0 0 0 0 0 0 0 0 127 0" result="hardAlpha"/>
<feOffset/>
<feGaussianBlur stdDeviation="4.5"/>
<feComposite in2="hardAlpha" operator="out"/>
<feColorMatrix type="matrix" values="0 0 0 0 0.215686 0 0 0 0 0.94902 0 0 0 0 0.678431 0 0 0 1 0"/>
<feBlend mode="normal" in2="BackgroundImageFix" result="effect1_dropShadow_3_88219"/>
<feBlend mode="normal" in="SourceGraphic" in2="effect1_dropShadow_3_88219" result="shape"/>
</filter>
</defs>
</svg>
