<svg width="76" height="79" viewBox="0 0 76 79" fill="none" xmlns="http://www.w3.org/2000/svg">
<path d="M34 3.3094C36.4752 1.88034 39.5248 1.88034 42 3.3094L66.909 17.6906C69.3842 19.1197 70.909 21.7607 70.909 24.6188V53.3812C70.909 56.2393 69.3842 58.8803 66.909 60.3094L42 74.6906C39.5248 76.1197 36.4752 76.1197 34 74.6906L9.09103 60.3094C6.61582 58.8803 5.09103 56.2393 5.09103 53.3812V24.6188C5.09103 21.7607 6.61583 19.1197 9.09103 17.6906L34 3.3094Z" fill="#162C4B"/>
<g filter="url(#filter0_d_3_88209)">
<path d="M33.9838 13.7243C36.4672 12.2828 39.5328 12.2828 42.0162 13.7243L58.0757 23.0464C60.5418 24.4779 62.0595 27.1138 62.0595 29.9652V48.6842C62.0595 51.5356 60.5418 54.1715 58.0757 55.603L42.0162 64.925C39.5328 66.3666 36.4672 66.3666 33.9838 64.925L17.9243 55.603C15.4583 54.1715 13.9405 51.5356 13.9405 48.6842V29.9652C13.9405 27.1138 15.4583 24.4779 17.9243 23.0464L33.9838 13.7243Z" fill="#0F213C" shape-rendering="crispEdges"/>
<path d="M42.7692 12.4271C39.8202 10.7152 36.1799 10.7152 33.2308 12.4271L17.1713 21.7491C14.2428 23.449 12.4405 26.5791 12.4405 29.9652V48.6842C12.4405 52.0702 14.2428 55.2004 17.1713 56.9003L33.2308 66.2223C36.1799 67.9342 39.8202 67.9342 42.7692 66.2223L58.8287 56.9003C61.7572 55.2004 63.5595 52.0702 63.5595 48.6842V29.9652C63.5595 26.5791 61.7572 23.449 58.8287 21.7491L42.7692 12.4271Z" stroke="#37F2AD" stroke-opacity="0.08" stroke-width="3" shape-rendering="crispEdges"/>
</g>
<path d="M33.7667 39L35.7333 37.0333C36 36.7667 36.1333 36.4556 36.1333 36.1C36.1333 35.7444 36 35.4333 35.7333 35.1667C35.4667 34.9 35.1498 34.7667 34.7827 34.7667C34.4156 34.7667 34.0991 34.9 33.8333 35.1667L30.9333 38.0667C30.8 38.2 30.7053 38.3444 30.6493 38.5C30.5933 38.6556 30.5658 38.8222 30.5667 39C30.5667 39.1778 30.5942 39.3444 30.6493 39.5C30.7044 39.6556 30.7991 39.8 30.9333 39.9333L33.8333 42.8333C34.1 43.1 34.4169 43.2333 34.784 43.2333C35.1511 43.2333 35.4676 43.1 35.7333 42.8333C36 42.5667 36.1333 42.2556 36.1333 41.9C36.1333 41.5444 36 41.2333 35.7333 40.9667L33.7667 39ZM42.2333 39L40.2667 40.9667C40 41.2333 39.8667 41.5444 39.8667 41.9C39.8667 42.2556 40 42.5667 40.2667 42.8333C40.5333 43.1 40.8502 43.2333 41.2173 43.2333C41.5844 43.2333 41.9009 43.1 42.1667 42.8333L45.0667 39.9333C45.2 39.8 45.2947 39.6556 45.3507 39.5C45.4067 39.3444 45.4342 39.1778 45.4333 39C45.4333 38.8222 45.4053 38.6556 45.3493 38.5C45.2933 38.3444 45.1991 38.2 45.0667 38.0667L42.1667 35.1667C42.0333 35.0333 41.8831 34.9333 41.716 34.8667C41.5489 34.8 41.3822 34.7667 41.216 34.7667C41.0498 34.7667 40.8831 34.8 40.716 34.8667C40.5489 34.9333 40.3991 35.0333 40.2667 35.1667C40 35.4333 39.8667 35.7444 39.8667 36.1C39.8667 36.4556 40 36.7667 40.2667 37.0333L42.2333 39ZM28.6667 51C27.9333 51 27.3053 50.7387 26.7827 50.216C26.26 49.6933 25.9991 49.0658 26 48.3333V29.6667C26 28.9333 26.2613 28.3053 26.784 27.7827C27.3067 27.26 27.9342 26.9991 28.6667 27H47.3333C48.0667 27 48.6947 27.2613 49.2173 27.784C49.74 28.3067 50.0009 28.9342 50 29.6667V48.3333C50 49.0667 49.7387 49.6947 49.216 50.2173C48.6933 50.74 48.0658 51.0009 47.3333 51H28.6667Z" fill="#37F2AD"/>
<defs>
<filter id="filter0_d_3_88209" x="1.94043" y="0.643066" width="72.1191" height="77.363" filterUnits="userSpaceOnUse" color-interpolation-filters="sRGB">
<feFlood flood-opacity="0" result="BackgroundImageFix"/>
<feColorMatrix in="SourceAlpha" type="matrix" values="0 0 0 0 0 0 0 0 0 0 0 0 0 0 0 0 0 0 127 0" result="hardAlpha"/>
<feOffset/>
<feGaussianBlur stdDeviation="4.5"/>
<feComposite in2="hardAlpha" operator="out"/>
<feColorMatrix type="matrix" values="0 0 0 0 0.215686 0 0 0 0 0.94902 0 0 0 0 0.678431 0 0 0 1 0"/>
<feBlend mode="normal" in2="BackgroundImageFix" result="effect1_dropShadow_3_88209"/>
<feBlend mode="normal" in="SourceGraphic" in2="effect1_dropShadow_3_88209" result="shape"/>
</filter>
</defs>
</svg>
