<svg width="76" height="79" viewBox="0 0 76 79" fill="none" xmlns="http://www.w3.org/2000/svg">
<path d="M34 3.3094C36.4752 1.88034 39.5248 1.88034 42 3.3094L66.909 17.6906C69.3842 19.1197 70.909 21.7607 70.909 24.6188V53.3812C70.909 56.2393 69.3842 58.8803 66.909 60.3094L42 74.6906C39.5248 76.1197 36.4752 76.1197 34 74.6906L9.09103 60.3094C6.61582 58.8803 5.09103 56.2393 5.09103 53.3812V24.6188C5.09103 21.7607 6.61583 19.1197 9.09103 17.6906L34 3.3094Z" fill="#162C4B"/>
<g filter="url(#filter0_d_3_88202)">
<path d="M33.9838 13.7243C36.4672 12.2828 39.5328 12.2828 42.0162 13.7243L58.0757 23.0464C60.5418 24.4779 62.0595 27.1138 62.0595 29.9652V48.6842C62.0595 51.5356 60.5418 54.1715 58.0757 55.603L42.0162 64.925C39.5328 66.3666 36.4672 66.3666 33.9838 64.925L17.9243 55.603C15.4583 54.1715 13.9405 51.5356 13.9405 48.6842V29.9652C13.9405 27.1138 15.4583 24.4779 17.9243 23.0464L33.9838 13.7243Z" fill="#0F213C" shape-rendering="crispEdges"/>
<path d="M58.8287 21.7491L42.7692 12.4271C39.8202 10.7152 36.1799 10.7152 33.2308 12.4271L17.1713 21.7491C14.2428 23.449 12.4405 26.5791 12.4405 29.9652V48.6842C12.4405 52.0702 14.2428 55.2004 17.1713 56.9003L33.2308 66.2223C36.1799 67.9342 39.8202 67.9342 42.7692 66.2223L58.8287 56.9003C61.7572 55.2004 63.5595 52.0702 63.5595 48.6842V29.9652C63.5595 26.5791 61.7572 23.449 58.8287 21.7491Z" stroke="#37F2AD" stroke-opacity="0.08" stroke-width="3" shape-rendering="crispEdges"/>
</g>
<path d="M38.0001 25.6667C30.6401 25.6667 24.6667 31.6401 24.6667 39.0001C24.6667 40.7734 25.0134 42.4801 25.6534 44.0267L32.6667 37.0001L37.0667 40.7067L41.4401 36.3334H39.3334V33.6667H46.0001V40.3334H43.3334V38.2267L37.2134 44.3334L32.8267 40.6134L26.9601 46.4801C28.1818 48.2837 29.827 49.7603 31.7516 50.7807C33.6762 51.8012 35.8217 52.3343 38.0001 52.3334H48.6667C50.1334 52.3334 51.3334 51.1334 51.3334 49.6667V39.0001C51.3334 31.6401 45.3601 25.6667 38.0001 25.6667ZM48.0001 50.3334C47.2667 50.3334 46.6667 49.7334 46.6667 49.0001C46.6667 48.2667 47.2667 47.6667 48.0001 47.6667C48.7334 47.6667 49.3334 48.2667 49.3334 49.0001C49.3334 49.7334 48.7334 50.3334 48.0001 50.3334Z" fill="#37F2AD"/>
<defs>
<filter id="filter0_d_3_88202" x="1.94043" y="0.643066" width="72.1191" height="77.363" filterUnits="userSpaceOnUse" color-interpolation-filters="sRGB">
<feFlood flood-opacity="0" result="BackgroundImageFix"/>
<feColorMatrix in="SourceAlpha" type="matrix" values="0 0 0 0 0 0 0 0 0 0 0 0 0 0 0 0 0 0 127 0" result="hardAlpha"/>
<feOffset/>
<feGaussianBlur stdDeviation="4.5"/>
<feComposite in2="hardAlpha" operator="out"/>
<feColorMatrix type="matrix" values="0 0 0 0 0.215686 0 0 0 0 0.94902 0 0 0 0 0.678431 0 0 0 1 0"/>
<feBlend mode="normal" in2="BackgroundImageFix" result="effect1_dropShadow_3_88202"/>
<feBlend mode="normal" in="SourceGraphic" in2="effect1_dropShadow_3_88202" result="shape"/>
</filter>
</defs>
</svg>
