<svg width="76" height="79" viewBox="0 0 76 79" fill="none" xmlns="http://www.w3.org/2000/svg">
<path d="M34 3.3094C36.4752 1.88034 39.5248 1.88034 42 3.3094L66.909 17.6906C69.3842 19.1197 70.909 21.7607 70.909 24.6188V53.3812C70.909 56.2393 69.3842 58.8803 66.909 60.3094L42 74.6906C39.5248 76.1197 36.4752 76.1197 34 74.6906L9.09103 60.3094C6.61582 58.8803 5.09103 56.2393 5.09103 53.3812V24.6188C5.09103 21.7607 6.61583 19.1197 9.09103 17.6906L34 3.3094Z" fill="#162C4B"/>
<g filter="url(#filter0_d_3_88229)">
<path d="M33.9838 13.7243C36.4672 12.2828 39.5328 12.2828 42.0162 13.7243L58.0757 23.0464C60.5418 24.4779 62.0595 27.1138 62.0595 29.9652V48.6842C62.0595 51.5356 60.5418 54.1715 58.0757 55.603L42.0162 64.925C39.5328 66.3666 36.4672 66.3666 33.9838 64.925L17.9243 55.603C15.4583 54.1715 13.9405 51.5356 13.9405 48.6842V29.9652C13.9405 27.1138 15.4583 24.4779 17.9243 23.0464L33.9838 13.7243Z" fill="#0F213C" shape-rendering="crispEdges"/>
<path d="M42.7692 12.4271C39.8202 10.7152 36.1799 10.7152 33.2308 12.4271L17.1713 21.7491C14.2428 23.449 12.4405 26.5791 12.4405 29.9652V48.6842C12.4405 52.0702 14.2428 55.2004 17.1713 56.9003L33.2308 66.2223C36.1799 67.9342 39.8202 67.9342 42.7692 66.2223L58.8287 56.9003C61.7572 55.2004 63.5595 52.0702 63.5595 48.6842V29.9652C63.5595 26.5791 61.7572 23.449 58.8287 21.7491L42.7692 12.4271Z" stroke="#37F2AD" stroke-opacity="0.08" stroke-width="3" shape-rendering="crispEdges"/>
</g>
<g clip-path="url(#clip0_3_88229)">
<path fill-rule="evenodd" clip-rule="evenodd" d="M37.064 25.9267C37.5902 25.7298 38.1651 25.7041 38.7067 25.8533L38.936 25.9267L48.2693 29.4267C48.7426 29.6041 49.1556 29.9124 49.4604 30.3156C49.7652 30.7188 49.9491 31.2003 49.9907 31.704L50 31.924V39.0747C49.9999 41.2352 49.4166 43.3557 48.3115 45.2122C47.2064 47.0688 45.6205 48.5926 43.7213 49.6227L43.3667 49.808L38.8947 52.044C38.6484 52.1669 38.3795 52.2377 38.1046 52.252C37.8298 52.2662 37.5549 52.2235 37.2973 52.1267L37.1053 52.044L32.6333 49.808C30.7008 48.8417 29.065 47.3716 27.8987 45.5528C26.7323 43.734 26.0786 41.6341 26.0067 39.4747L26 39.0747V31.924C26 31.4188 26.1435 30.9241 26.4138 30.4973C26.6841 30.0705 27.07 29.7293 27.5267 29.5133L27.7307 29.4267L37.064 25.9267ZM42.5773 34.5053L36.4467 40.636L34.0893 38.2787C33.8391 38.0286 33.4999 37.8883 33.1462 37.8884C32.7925 37.8885 32.4533 38.0291 32.2033 38.2793C31.9533 38.5295 31.8129 38.8688 31.8131 39.2225C31.8132 39.5762 31.9538 39.9153 32.204 40.1653L35.4093 43.3707C35.5455 43.5069 35.7072 43.615 35.8852 43.6888C36.0632 43.7625 36.254 43.8005 36.4467 43.8005C36.6393 43.8005 36.8301 43.7625 37.0081 43.6888C37.1861 43.615 37.3478 43.5069 37.484 43.3707L44.4627 36.3907C44.59 36.2677 44.6916 36.1205 44.7615 35.9579C44.8313 35.7952 44.8681 35.6202 44.8697 35.4432C44.8712 35.2662 44.8375 35.0906 44.7704 34.9267C44.7034 34.7629 44.6044 34.614 44.4792 34.4888C44.354 34.3636 44.2051 34.2646 44.0413 34.1976C43.8774 34.1305 43.7018 34.0968 43.5248 34.0983C43.3478 34.0999 43.1728 34.1366 43.0101 34.2065C42.8475 34.2764 42.7003 34.378 42.5773 34.5053Z" fill="#37F2AD"/>
</g>
<defs>
<filter id="filter0_d_3_88229" x="1.94043" y="0.643066" width="72.1191" height="77.363" filterUnits="userSpaceOnUse" color-interpolation-filters="sRGB">
<feFlood flood-opacity="0" result="BackgroundImageFix"/>
<feColorMatrix in="SourceAlpha" type="matrix" values="0 0 0 0 0 0 0 0 0 0 0 0 0 0 0 0 0 0 127 0" result="hardAlpha"/>
<feOffset/>
<feGaussianBlur stdDeviation="4.5"/>
<feComposite in2="hardAlpha" operator="out"/>
<feColorMatrix type="matrix" values="0 0 0 0 0.215686 0 0 0 0 0.94902 0 0 0 0 0.678431 0 0 0 1 0"/>
<feBlend mode="normal" in2="BackgroundImageFix" result="effect1_dropShadow_3_88229"/>
<feBlend mode="normal" in="SourceGraphic" in2="effect1_dropShadow_3_88229" result="shape"/>
</filter>
<clipPath id="clip0_3_88229">
<rect width="32" height="32" fill="white" transform="translate(22 23)"/>
</clipPath>
</defs>
</svg>
