<svg width="76" height="79" viewBox="0 0 76 79" fill="none" xmlns="http://www.w3.org/2000/svg">
<path d="M34 3.3094C36.4752 1.88034 39.5248 1.88034 42 3.3094L66.909 17.6906C69.3842 19.1197 70.909 21.7607 70.909 24.6188V53.3812C70.909 56.2393 69.3842 58.8803 66.909 60.3094L42 74.6906C39.5248 76.1197 36.4752 76.1197 34 74.6906L9.09103 60.3094C6.61582 58.8803 5.09103 56.2393 5.09103 53.3812V24.6188C5.09103 21.7607 6.61583 19.1197 9.09103 17.6906L34 3.3094Z" fill="#162C4B"/>
<g filter="url(#filter0_d_3_88340)">
<path d="M33.9838 13.7245C36.4672 12.2829 39.5328 12.2829 42.0162 13.7245L58.0757 23.0465C60.5418 24.478 62.0595 27.1139 62.0595 29.9653V48.6843C62.0595 51.5357 60.5418 54.1716 58.0757 55.6031L42.0162 64.9252C39.5328 66.3667 36.4672 66.3667 33.9838 64.9252L17.9243 55.6031C15.4583 54.1716 13.9405 51.5357 13.9405 48.6843V29.9653C13.9405 27.1139 15.4583 24.478 17.9243 23.0465L33.9838 13.7245Z" fill="#0F213C" shape-rendering="crispEdges"/>
<path d="M42.7692 12.4272C39.8202 10.7153 36.1799 10.7153 33.2308 12.4272L17.1713 21.7492C14.2428 23.4491 12.4405 26.5793 12.4405 29.9653V48.6843C12.4405 52.0704 14.2428 55.2005 17.1713 56.9004L33.2308 66.2224C36.1799 67.9343 39.8202 67.9343 42.7692 66.2224L58.8287 56.9004C61.7572 55.2005 63.5595 52.0704 63.5595 48.6843V29.9653C63.5595 26.5793 61.7572 23.4491 58.8287 21.7492L42.7692 12.4272Z" stroke="#37F2AD" stroke-opacity="0.08" stroke-width="3" shape-rendering="crispEdges"/>
</g>
<path d="M47 37.5H48.5V51H47V37.5ZM32 42.75L33.5 41.25V51H32V42.75ZM29 45.75L30.5 44.25V51H29V45.75ZM35 39.75L36.5 38.25V51H35V39.75ZM38 38.25L39.5 39.75V50.9883H38V38.25ZM41.75 42L42.5 41.25V51H41V41.25L41.75 42ZM44 39.75L45.5 38.25V51H44V39.75ZM26 48.75L27.5 47.25V51H26V48.75ZM50 30V36H48.5V32.5664L41.75 39.3047L37.25 34.8047L26 46.0664V43.9336L37.25 32.6953L41.75 37.1953L47.4336 31.5H44V30H50Z" fill="#37F2AD"/>
<defs>
<filter id="filter0_d_3_88340" x="1.94043" y="0.643311" width="72.1191" height="77.363" filterUnits="userSpaceOnUse" color-interpolation-filters="sRGB">
<feFlood flood-opacity="0" result="BackgroundImageFix"/>
<feColorMatrix in="SourceAlpha" type="matrix" values="0 0 0 0 0 0 0 0 0 0 0 0 0 0 0 0 0 0 127 0" result="hardAlpha"/>
<feOffset/>
<feGaussianBlur stdDeviation="4.5"/>
<feComposite in2="hardAlpha" operator="out"/>
<feColorMatrix type="matrix" values="0 0 0 0 0.215686 0 0 0 0 0.94902 0 0 0 0 0.678431 0 0 0 1 0"/>
<feBlend mode="normal" in2="BackgroundImageFix" result="effect1_dropShadow_3_88340"/>
<feBlend mode="normal" in="SourceGraphic" in2="effect1_dropShadow_3_88340" result="shape"/>
</filter>
</defs>
</svg>
