<svg width="1440" height="445" viewBox="0 0 1440 445" fill="none" xmlns="http://www.w3.org/2000/svg">
<path d="M0.823242 41.8722C54.8867 63.7131 102.785 94.2928 141.533 131.704C198.64 187.529 195.533 221.729 250.384 253.62C303.694 284.59 376.863 293.124 436.227 281.425C517.227 265.447 520.891 221.964 624.724 153.093C685.787 112.626 800.293 36.6534 935.347 44.0111C1003.58 47.7327 1071.41 72.4151 1134.46 95.3437C1211.75 123.448 1222.85 137.886 1264.55 144.538C1314.1 152.451 1390.69 146.826 1500.84 76.094" stroke="#37F2AD" stroke-opacity="0.12" stroke-width="1.07626" stroke-miterlimit="10"/>
<path d="M-0.688965 49.8717C48.0273 69.0592 91.945 95.3052 128.87 127.298C132.401 130.4 135.932 133.587 139.49 136.859C197.181 190.93 194.897 223.59 249.057 254.689C272.665 268.298 299.396 277.989 327.695 283.2C347.966 286.918 368.755 288.471 389.528 287.82C405.062 287.326 420.478 285.425 435.484 282.152C452.206 278.689 468.102 273.024 482.529 265.383C509.078 251.267 527.662 232.21 556.256 208.297C577.794 190.301 601.227 173.841 626.292 159.103C639.566 151.19 655.071 141.65 672.991 131.876C720.939 105.653 782.294 77.1636 855.914 67.3248C880.895 63.8908 906.277 62.7427 931.579 63.9026C935.455 64.0737 939.304 64.3304 943.101 64.6298C980.694 67.5601 1016.51 75.3241 1053.09 85.6334C1080.47 93.2478 1106.35 102.744 1132.02 111.663C1142.78 115.471 1152.39 118.936 1161.07 122.187C1213.5 141.886 1227.12 152.451 1262.94 157.071C1290.15 160.579 1325.35 159.959 1370.03 147.468C1406.67 137.244 1450.05 118.829 1500.84 88.3712" stroke="#37F2AD" stroke-opacity="0.12" stroke-width="1.07626" stroke-miterlimit="10"/>
<path d="M-2.09766 57.9133C46.1141 76.3758 89.7613 101.741 126.718 132.774C130.258 135.768 133.798 138.834 137.338 141.971C195.745 194.309 194.338 225.386 247.755 255.758C271.419 269.544 298.235 279.423 326.658 284.825C347.048 288.567 367.974 290.064 388.863 289.274C404.42 288.635 419.825 286.481 434.739 282.857C451.378 278.983 467.187 273.091 481.625 265.383C509.236 250.839 528.829 232.402 557.104 210.072C578.743 193.124 602.447 177.975 627.857 164.856C641.131 157.841 656.291 149.243 674.025 140.73C721.282 118.037 778.894 94.2312 851.771 86.4671C876.949 83.6724 902.393 82.7559 927.78 83.7294C931.71 83.9005 935.586 84.1144 939.409 84.3925C977.639 87.0874 1012.55 93.7393 1049.88 102.915C1077.99 109.845 1103.64 119.17 1129.53 127.961C1140.28 131.597 1150 134.912 1158.89 138.014C1211.48 156.429 1225.58 166.14 1261.26 169.562C1288.45 172.171 1323.39 170.738 1368.31 158.098C1405 147.746 1448.94 129.672 1500.84 100.691" stroke="#37F2AD" stroke-opacity="0.12" stroke-width="1.07626" stroke-miterlimit="10"/>
<path d="M-3.76953 65.8274C44.048 83.5907 87.5172 108.128 124.568 138.271C128.099 141.18 131.657 144.131 135.188 147.147C194.366 197.731 193.702 227.269 246.402 256.828C271.358 270.816 295.942 280.89 325.544 286.472C346.07 290.245 367.151 291.685 388.173 290.75C403.76 289.961 419.155 287.545 433.97 283.564C450.534 279.281 466.278 273.162 480.749 265.383C509.369 250.411 529.945 232.637 557.927 211.912C579.687 196.003 603.683 182.199 629.424 170.781C642.831 164.664 657.539 157.007 675.061 149.756C721.867 130.378 775.496 111.407 847.63 105.674C873.006 103.527 898.541 102.848 924.038 103.642C927.994 103.792 932.002 103.985 935.719 104.241C973.23 106.716 1010.36 112.096 1046.59 120.304C1075.45 126.528 1100.88 135.768 1127.08 144.324C1137.84 147.831 1147.63 150.975 1156.77 153.927C1209.49 171.038 1224.09 179.85 1259.62 182.139C1286.8 183.893 1321.56 181.583 1366.64 168.792C1403.41 158.44 1447.82 140.495 1500.84 112.882" stroke="#37F2AD" stroke-opacity="0.12" stroke-width="1.07626" stroke-miterlimit="10"/>
<path d="M-5.30908 73.806C42.0463 90.8788 85.2863 114.556 122.418 143.747C125.949 146.57 129.533 149.393 133.038 152.302C192.852 201.218 193.118 229.023 245.074 257.919C270.588 272.057 294.349 282.409 324.482 288.12C345.127 291.93 366.348 293.306 387.483 292.205C403.141 291.29 418.565 288.62 433.307 284.27C449.76 279.613 465.422 273.312 479.927 265.512C509.555 250.091 531.246 233.044 558.83 213.73C578.291 200.127 601.309 188.235 631.07 176.685C644.583 171.424 658.973 164.686 676.203 158.719C722.823 142.57 772.204 128.561 843.462 124.861C869 123.343 894.619 122.893 920.215 123.513C924.224 123.642 928.179 123.813 931.976 124.027C969.555 126.011 1006.86 130.562 1043.48 137.63C1073.14 143.148 1098.2 152.324 1124.67 160.58C1135.29 163.959 1145.35 166.996 1154.7 169.755C1207.53 185.669 1222.63 193.475 1258.05 194.609C1285.24 195.486 1319.75 192.342 1365.02 179.423C1401.79 168.921 1446.73 151.297 1500.84 125.096" stroke="#37F2AD" stroke-opacity="0.12" stroke-width="1.07626" stroke-miterlimit="10"/>
<path d="M-6.82178 81.7831C40.0606 98.1769 83.0606 120.994 120.268 149.221C123.799 151.938 127.383 154.633 130.888 157.413C191.419 204.468 192.508 230.883 243.694 258.966C269.765 273.275 292.704 283.906 323.341 289.745C344.123 293.587 365.502 294.899 386.767 293.637C402.429 292.59 417.81 289.671 432.405 284.975C448.759 279.925 464.354 273.403 478.892 265.533C509.556 249.705 532.388 233.45 559.521 215.548C579.566 202.372 603.088 192.02 632.504 182.566C646.177 178.16 660.248 172.385 677.106 167.594C723.912 154.547 768.754 145.628 839.268 143.917C863.772 143.318 890.879 142.57 916.392 143.275C920.454 143.382 924.357 143.532 928.233 143.703C965.823 145.197 1003.22 148.914 1040.14 154.825C1070.54 159.638 1095.41 168.749 1122.17 176.834C1132.93 180.085 1142.93 182.887 1152.52 185.539C1205.46 200.362 1221.15 207.634 1256.33 207.185C1283.51 206.842 1317.81 203.185 1363.24 190.074C1400.04 179.379 1445.54 162.119 1500.74 137.351" stroke="#37F2AD" stroke-opacity="0.12" stroke-width="1.07626" stroke-miterlimit="10"/>
<path d="M-8.36133 89.7399C38.0568 105.471 80.8239 127.435 118.118 154.697C121.649 157.307 125.26 159.895 128.738 162.547C190.013 207.891 191.924 232.68 242.341 260.036C268.89 274.473 291.058 285.403 322.253 291.392C343.132 295.243 364.622 296.491 385.971 295.092C401.684 293.899 417.066 290.723 431.555 285.681C447.777 280.216 463.294 273.482 477.883 265.576C509.556 249.299 533.636 233.75 560.185 217.344C580.84 204.511 604.893 195.827 633.912 188.448C647.797 184.898 662.903 182.845 677.983 176.663C726.913 175.016 765.409 159.552 834.94 163.188C859.498 164.493 887.029 162.675 912.437 163.188C916.552 163.295 920.534 163.402 924.357 163.552C965.296 165.113 996.624 166.931 1036.77 172.107C1067.91 176.193 1092.52 185.261 1119.57 193.09C1130.19 196.212 1140.41 198.865 1150.24 201.367C1203.2 214.885 1219.45 220.617 1254.57 219.547C1281.79 218.671 1315.87 213.837 1361.46 200.619C1398.31 189.924 1444.29 172.813 1500.63 149.478" stroke="#37F2AD" stroke-opacity="0.12" stroke-width="1.07626" stroke-miterlimit="10"/>
<path d="M-9.90283 97.717C36.0457 112.785 78.5778 133.881 115.966 160.15C119.523 162.674 123.134 165.134 126.585 167.658C188.737 211.248 191.445 234.454 241.091 261.105C268.304 275.692 289.543 286.899 321.243 293.038C342.303 296.937 363.999 298.114 385.518 296.524C403.013 295.348 417.376 291.113 431.023 286.365C447.123 280.495 462.585 273.548 477.244 265.596C509.926 248.892 535.36 234.155 561.298 219.14C582.538 206.799 607.228 199.677 635.636 194.308C649.813 191.634 664.574 191.014 679.202 185.624C728.132 188.661 762.115 180.17 830.956 182.33C855.647 183.122 883.497 182.651 908.824 183.1C912.966 183.1 917.002 183.25 920.798 183.357C962.427 184.619 992.852 185.261 1033.71 189.56C1065.57 192.939 1089.94 201.944 1117.29 209.537C1127.91 212.531 1138.21 215.012 1148.27 217.365C1201.37 229.728 1218.12 234.476 1253.11 232.187C1280.32 230.455 1314.17 224.787 1359.94 211.419C1396.82 200.725 1443.33 183.785 1500.79 161.883" stroke="#37F2AD" stroke-opacity="0.12" stroke-width="1.07626" stroke-miterlimit="10"/>
<path d="M-11.417 105.675C34.0407 120.102 76.3239 140.323 113.815 165.563C117.372 168.001 121.009 170.354 124.593 172.728C187.382 214.564 190.966 236.167 239.763 262.09C267.533 276.827 287.949 288.334 320.18 294.579C341.341 298.522 363.16 299.649 384.773 297.916C402.508 296.611 416.632 292.034 430.199 287.008C446.951 280.805 460.73 273.533 476.261 265.619C509.978 248.508 540.483 238.22 562.068 220.938C586.519 212.532 609.378 196.491 637.228 200.191C651.723 202.116 666.166 199.164 680.29 194.587C729.247 202.287 758.902 197.432 826.867 201.496C851.664 202.972 879.965 202.629 905.08 202.95C909.302 202.95 913.337 202.95 917.16 203.143C959.426 204.105 988.975 203.506 1030.52 206.886C1063.21 209.517 1087.26 218.478 1114.87 225.836C1125.49 228.702 1135.9 231.034 1146.17 233.215C1199.27 244.444 1216.69 248.059 1251.54 244.701C1278.78 242.07 1312.42 235.568 1358.32 222.05C1395.25 211.228 1442.17 194.587 1500.84 174.118" stroke="#37F2AD" stroke-opacity="0.12" stroke-width="1.07626" stroke-miterlimit="10"/>
<path d="M-12.9565 113.632C32.0366 127.449 74.0816 146.831 111.664 171.081C115.222 173.413 118.859 175.552 122.47 177.883C186.187 217.965 190.356 237.964 238.436 263.181C266.79 278.046 286.357 289.852 319.091 296.248C340.386 300.208 362.353 301.271 384.083 299.392C402.057 297.959 415.942 292.975 429.456 287.735C445.889 281.318 459.509 273.704 475.359 265.641C510.085 248.059 542.183 238.99 562.97 222.714C588.272 215.228 612.564 200.213 638.874 206.052C653.263 209.239 667.786 207.335 681.352 203.549C730.335 215.912 755.689 214.736 822.752 220.66C847.655 222.799 876.169 222.628 901.337 222.799H913.47C956.426 223.441 985.152 221.666 1027.34 224.082C1060.79 225.986 1084.55 234.926 1112.45 242.027C1123.07 244.765 1133.56 246.925 1144.07 248.936C1197.17 259.074 1215.23 261.577 1249.95 257.106C1277.19 253.577 1310.62 246.241 1356.68 232.595C1393.63 221.666 1441.18 205.303 1500.87 186.246" stroke="#37F2AD" stroke-opacity="0.12" stroke-width="1.07626" stroke-miterlimit="10"/>
<path d="M-14.4951 121.566C29.9796 134.796 71.7442 153.317 109.409 176.513C112.993 178.652 116.63 180.791 120.241 182.93C184.649 221.237 189.72 239.631 237.056 264.207C265.995 279.179 284.845 291.306 317.978 297.83C339.391 301.841 361.503 302.847 383.341 300.803C401.58 299.241 415.2 293.98 428.634 288.397C444.749 281.638 458.236 273.832 474.404 265.64C510.166 247.631 543.83 239.738 563.662 224.488C589.839 217.9 614.105 215.548 640.309 211.89C655.336 214.2 669.194 215.462 682.309 212.489C731.292 229.6 752.293 232.038 818.506 239.759C843.515 242.69 872.4 242.839 897.462 242.604C901.763 242.604 905.878 242.604 909.675 242.604C953.321 242.155 981.092 239.931 1024.02 241.428C1058.27 242.604 1081.71 251.502 1109.93 258.368C1120.55 260.956 1131.17 262.988 1141.79 264.784C1194.89 273.832 1213.47 275.179 1248.15 269.597C1275.41 265.191 1308.6 257.02 1354.87 243.224C1391.86 232.209 1439.83 216.104 1500.71 198.458" stroke="#37F2AD" stroke-opacity="0.12" stroke-width="1.07626" stroke-miterlimit="10"/>
<path d="M-16.0093 129.523C28.0267 142.158 69.5837 159.82 107.39 181.968C110.948 184.107 114.612 186.096 118.222 188.106C183.48 224.617 189.294 241.428 235.781 265.255C265.304 280.398 283.171 292.804 316.941 299.477C338.539 303.536 360.859 304.47 382.863 302.236C401.447 300.546 414.854 294.964 427.996 289.103C443.925 282.066 457.2 274.003 473.633 265.576C510.377 247.139 545.661 240.423 564.59 226.199C591.617 220.531 616.255 219.783 641.981 217.644C657.193 221.066 670.839 223.504 683.477 221.323C732.459 243.032 749.132 249.278 814.469 258.796C839.585 262.453 868.815 262.71 893.798 262.346C898.152 262.346 902.267 262.346 906.09 262.346C950.373 261.555 977.294 258.068 1020.91 258.689C1055.91 259.138 1079.08 268.014 1107.6 274.623C1118.22 277.104 1128.84 278.901 1139.85 280.633C1192.95 288.633 1212.28 288.804 1246.71 282.109C1273.98 276.805 1306.95 267.822 1353.39 253.876C1390.4 242.776 1439.01 226.927 1500.89 210.714" stroke="#37F2AD" stroke-opacity="0.12" stroke-width="1.07626" stroke-miterlimit="10"/>
<path d="M-17.5474 137.457C26.0157 149.529 67.3274 166.339 105.242 187.421C108.826 189.56 112.49 191.314 116.1 193.217C182.234 227.91 188.791 243.138 234.456 266.302C264.562 281.552 281.58 294.257 315.881 301.08C337.558 305.165 359.975 306.042 382.041 303.668C400.626 301.829 414.112 295.925 427.175 289.766C442.679 282.451 455.847 274.13 472.679 265.682C510.459 246.796 547.309 241.278 565.362 228.059C593.265 223.29 618.168 224.017 643.496 223.632C658.868 228.145 672.328 231.781 684.461 230.391C733.47 256.784 745.789 266.751 810.276 278.066C835.498 282.472 865.073 282.515 889.923 282.344C894.33 282.344 898.472 282.344 902.295 282.344C947.269 281.21 973.314 277.446 1017.62 276.227C1053.36 275.243 1076.27 284.782 1105.08 291.199C1115.8 293.528 1126.68 295.385 1137.65 296.76C1190.75 303.732 1210.71 302.706 1245.02 294.899C1272.31 288.696 1305.04 278.9 1351.64 264.805C1388.81 253.619 1437.81 238.005 1500.82 223.226" stroke="#37F2AD" stroke-opacity="0.12" stroke-width="1.07626" stroke-miterlimit="10"/>
<path d="M-19.0879 140.817C24.0079 152.374 65.0729 168.362 103.091 188.385C106.675 190.31 110.365 192.064 114.002 193.839C180.985 226.713 188.339 240.359 233.127 262.839C263.818 278.239 279.986 291.243 314.792 298.194C336.6 302.32 359.17 303.139 381.35 300.611C400.306 298.622 413.501 292.419 426.484 285.96C441.59 278.217 454.546 269.662 471.776 261.106C510.564 241.857 549.034 237.429 566.184 225.259C594.937 221.388 620.132 223.655 645.061 224.895C660.592 230.521 673.84 235.333 685.495 234.756C734.531 265.812 742.523 279.672 806.107 292.505C831.462 297.66 861.382 297.766 886.179 297.446L898.604 297.253C944.268 296.611 969.41 289.981 1014.41 288.698C1050.97 287.628 1073.54 296.505 1102.63 302.6C1113.48 304.81 1124.47 306.517 1135.55 307.712C1188.52 313.658 1209.25 311.391 1243.4 302.493C1270.71 295.392 1303.24 284.784 1349.99 270.539C1387.16 259.267 1436.73 243.91 1500.84 230.563" stroke="#37F2AD" stroke-opacity="0.12" stroke-width="1.07626" stroke-miterlimit="10"/>
<path d="M-20.6816 142.164C21.9315 153.134 62.7415 168.216 100.86 187.08C104.47 188.92 108.161 190.545 111.798 192.192C179.763 223.291 187.754 235.44 231.799 257.171C263.1 272.677 278.393 286.003 313.729 293.104C335.677 297.235 358.401 297.961 380.686 295.242C399.854 293.104 412.89 286.687 425.686 279.843C440.527 271.993 453.404 263.138 470.82 254.433C510.643 234.691 550.679 231.504 566.954 220.361C596.582 217.388 622.998 217.858 646.6 224.083C663.512 228.553 675.353 236.916 686.424 236.916C735.46 272.635 739.097 290.387 801.832 304.953C827.266 310.899 857.585 311.049 882.249 310.599C886.763 310.599 890.957 310.428 894.754 310.343C941.108 309.359 965.348 301.509 1011.06 299.285C1048.37 297.467 1070.67 306.343 1100.06 312.118C1111 314.235 1122.11 315.792 1133.3 316.781C1186.24 321.743 1207.63 318.214 1241.64 308.225C1268.96 300.205 1301.27 288.783 1348.18 274.41C1385.35 263.053 1435.48 247.952 1500.71 235.91" stroke="#37F2AD" stroke-opacity="0.12" stroke-width="1.07626" stroke-miterlimit="10"/>
<path d="M-22.1416 143.469C20.0062 153.919 60.5691 168.138 98.789 185.861C102.426 187.593 106.143 189.091 109.754 190.631C178.569 219.805 187.277 230.328 230.472 251.503C262.331 267.116 276.773 280.762 312.774 287.992C334.836 292.246 357.719 292.973 380.129 290.13C399.562 287.842 412.412 281.04 425.049 274.003C439.598 265.897 452.315 256.743 470.183 247.909C510.988 227.74 552.617 225.751 568.042 215.613C598.494 213.474 625.441 215.848 648.379 223.419C665.61 229.109 677.105 238.391 687.778 239.439C736.814 279.843 736.097 301.466 798.009 317.679C823.55 324.416 854.16 324.588 878.798 324.096L891.382 323.753C938.4 322.449 961.764 313.358 1008.2 310.236C1046.3 307.648 1068.28 316.652 1097.99 322.106C1109.04 324.148 1120.25 325.578 1131.54 326.384C1184.43 330.384 1206.52 325.571 1240.4 314.492C1267.71 305.573 1299.79 293.339 1346.88 278.816C1396.74 262.836 1448.26 250.467 1500.84 241.856" stroke="#37F2AD" stroke-opacity="0.12" stroke-width="1.07626" stroke-miterlimit="10"/>
<path d="M-23.6816 143.896C18.0096 153.878 58.3257 167.265 96.6383 183.85C100.302 185.476 104.019 186.866 107.63 188.278C177.374 215.591 186.772 224.638 229.144 245.086C261.64 260.806 275.18 274.773 311.579 282.152C333.781 286.426 356.823 287.051 379.332 283.992C398.978 281.553 411.669 274.452 424.173 267.116C438.403 258.753 450.961 249.321 469.094 240.359C510.935 219.762 554.051 218.97 568.679 209.837C600.007 208.682 627.379 212.832 649.76 221.708C667.282 228.659 678.459 239.011 688.628 240.83C737.69 285.895 732.593 311.412 793.655 329.271C819.302 336.8 850.284 336.971 874.816 336.308C879.409 336.18 883.683 336.009 887.479 335.881C935.268 334.234 957.648 323.946 1004.75 319.903C1043.59 316.567 1065.3 325.486 1095.3 330.769C1106.47 332.689 1117.79 333.948 1129.18 334.533C1182.04 337.592 1204.79 331.453 1238.54 319.304C1265.86 309.466 1297.71 296.44 1344.97 281.746C1395.27 265.68 1447.51 253.888 1500.84 246.562" stroke="#37F2AD" stroke-opacity="0.12" stroke-width="1.07626" stroke-miterlimit="10"/>
<path d="M-25.2212 142.676C16.0214 152.18 56.0929 164.716 94.4881 180.128C98.1519 181.646 101.895 182.929 105.506 184.234C176.206 209.622 186.401 217.066 227.817 236.957C260.924 252.785 273.588 267.094 310.517 274.58C332.842 278.902 356.033 279.47 378.642 276.248C398.527 273.639 411.058 266.26 423.403 258.624C437.342 250.068 449.74 240.294 468.192 231.204C511.042 210.179 555.803 210.542 569.502 202.457C601.68 202.201 629.423 208.232 651.326 218.413C669.061 226.669 679.999 238.005 689.69 240.615C738.752 290.365 729.248 319.752 789.514 339.237C815.213 347.579 846.594 347.793 871.046 346.98C875.665 346.83 879.966 346.638 883.763 346.488C932.161 344.52 953.666 332.971 1001.45 328.03C1041.07 323.923 1062.52 332.864 1092.76 337.89C1104.04 339.697 1115.48 340.805 1126.98 341.205C1179.81 343.344 1203.2 335.858 1236.81 322.64C1264.13 311.946 1295.8 298.043 1343.22 283.221C1393.88 266.992 1446.77 255.711 1500.76 249.619" stroke="#37F2AD" stroke-opacity="0.12" stroke-width="1.07626" stroke-miterlimit="10"/>
<path d="M-26.7339 141.457C14.0569 150.522 53.8761 162.217 92.3383 176.428C96.0286 177.839 99.772 178.973 103.383 180.171C175.065 203.698 185.685 209.58 226.49 228.83C260.181 244.743 271.995 259.394 309.429 267.03C331.885 271.415 355.238 271.918 377.952 268.506C398.076 265.704 410.448 258.09 422.661 250.133C436.307 241.257 448.519 231.268 467.29 222.05C511.175 200.661 557.556 202.116 570.326 195.057C599.634 195.338 628.247 202.285 652.867 215.098C670.788 224.681 681.54 236.979 690.726 240.401C739.815 294.814 725.877 328.094 785.373 349.205C811.125 358.381 842.905 358.552 867.25 357.654C871.949 357.482 876.25 357.269 880.073 357.076C929.109 354.723 949.817 342.104 998.296 336.158C1038.62 331.303 1059.86 340.243 1090.39 345.013C1101.01 346.66 1112.22 346.916 1124.91 347.858C1177.53 351.772 1201.77 340.265 1235.25 325.956C1262.56 314.277 1294.02 299.648 1341.6 284.676C1392.68 268.286 1446.25 257.495 1500.89 252.593" stroke="#37F2AD" stroke-opacity="0.12" stroke-width="1.07626" stroke-miterlimit="10"/>
<path d="M-28.2744 140.238C12.0842 148.876 51.6635 159.723 90.1871 172.706C93.904 173.989 97.6474 175.037 101.285 176.107C173.869 197.496 185.312 202.094 225.162 220.702C259.49 236.722 270.295 251.694 308.367 259.48C330.99 263.922 354.54 264.36 377.394 260.763C397.73 257.769 409.943 249.898 422.023 241.642C435.297 232.509 447.404 222.242 466.492 212.895C511.413 190.993 559.414 193.646 571.255 187.678C601.346 188.95 630.292 197.383 654.433 211.911C672.459 222.798 683.079 236.081 691.76 240.294C740.876 299.37 722.478 336.543 781.204 359.3C807.036 369.289 839.187 369.439 863.506 368.433C868.231 368.241 872.585 367.984 876.382 367.792C926.108 365.075 945.914 351.151 995.109 344.393C1036.23 338.767 1057.07 347.772 1088.03 352.242C1099.59 353.538 1111.23 354.338 1122.89 354.638C1175.59 357.397 1200.36 344.778 1233.73 329.399C1261.02 316.801 1292.3 301.38 1339.93 286.258C1391.38 269.742 1445.61 259.491 1500.81 255.844" stroke="#37F2AD" stroke-opacity="0.12" stroke-width="1.07626" stroke-miterlimit="10"/>
<path d="M-29.8149 139.019C10.1297 147.25 49.4817 157.247 88.0625 168.963C91.7794 170.139 95.5228 171.102 99.16 172.022C172.701 191.528 184.834 194.565 223.94 212.66C258.772 228.659 268.702 243.994 307.277 251.908C329.996 256.414 353.674 256.794 376.597 253.02C397.172 249.833 409.252 241.706 421.146 233.15C434.208 223.782 446.075 213.216 465.509 203.741C511.413 181.411 561.086 185.304 571.971 180.213C602.931 182.427 632.282 192.304 655.998 208.489C674.078 220.724 684.591 234.947 692.795 239.952C741.911 303.711 719.052 344.906 777.062 369.161C802.947 379.983 835.469 380.112 859.682 378.999C864.461 378.785 868.841 378.507 872.638 378.272C923.081 375.192 941.957 360.07 991.869 352.413C1033.76 345.997 1054.31 355.065 1085.51 359.258C1097.17 360.482 1108.92 361.132 1120.68 361.204C1173.46 362.808 1198.77 349.077 1232 332.607C1259.32 319.111 1290.41 302.877 1338.2 287.691C1390.07 271.027 1444.97 261.296 1500.73 258.881" stroke="#37F2AD" stroke-opacity="0.12" stroke-width="1.07626" stroke-miterlimit="10"/>
<path d="M-31.3008 137.8C14.1776 147.104 54.9834 156.579 85.9395 165.263C89.7095 166.332 93.4529 167.145 97.0635 168.001C171.587 185.454 184.383 187.079 222.534 204.361C258.083 220.531 267.242 236.209 306.243 244.272C329.086 248.833 352.918 249.148 375.934 245.192C396.748 241.791 408.695 233.45 420.43 224.573C433.174 214.949 444.882 204.105 464.634 194.501C511.573 171.744 562.865 176.813 572.821 172.834C604.63 176.013 634.338 187.317 657.592 205.088C675.699 218.67 687.3 233.001 693.885 239.652C754.947 301.53 715.628 353.247 772.947 379.042C798.859 390.72 831.833 390.806 855.94 389.587C860.771 389.351 865.152 389.031 868.975 388.774C920.029 385.33 938.002 369.011 988.658 360.477C1031.32 353.269 1051.58 362.38 1083.09 366.273C1094.84 367.677 1106.72 368.185 1118.59 367.792C1171.39 366.337 1197.28 353.376 1230.41 335.858C1257.71 321.421 1288.56 304.396 1336.61 288.996C1388.92 272.193 1444.51 262.975 1500.81 261.768" stroke="#37F2AD" stroke-opacity="0.12" stroke-width="1.07626" stroke-miterlimit="10"/>
<path d="M-32.8677 136.582C13.1152 145.608 53.6554 154.163 83.762 161.542C87.5585 162.483 91.3019 163.189 94.9126 163.938C170.471 179.337 183.878 179.573 221.179 196.299C257.366 212.554 265.622 228.617 305.127 236.809C328.113 241.429 352.118 241.678 375.243 237.536C396.27 233.9 408.058 225.344 419.633 216.147C432.111 206.266 443.527 195.144 463.704 185.412C511.652 162.205 564.405 168.472 573.644 165.499C610.122 169.777 638.795 185.091 659.131 201.86C677.211 216.832 688.654 232.296 694.893 239.504C753.964 307.669 712.15 361.74 768.752 389.096C794.69 401.608 828.116 401.651 852.116 400.325C857.001 400.047 861.435 399.726 865.231 399.448C916.975 395.619 934.073 378.059 985.418 368.67C1028.83 360.692 1048.79 369.867 1080.6 373.461C1092.46 374.756 1104.46 375.107 1116.41 374.509C1169.24 372.22 1195.74 357.847 1228.77 339.239C1256.03 323.882 1286.7 306.065 1334.96 290.516C1372.37 278.474 1426.74 265.405 1500.84 264.849" stroke="#37F2AD" stroke-opacity="0.12" stroke-width="1.07626" stroke-miterlimit="10"/>
<path d="M-34.4072 135.361C12.0535 144.174 52.3283 151.702 81.6118 157.841C85.4349 158.632 89.1783 159.231 92.7889 159.98C169.223 173.177 183.401 172.043 219.852 188.17C256.304 204.297 264.03 220.916 304.066 229.236C327.172 233.935 351.337 234.126 374.553 229.792C395.792 225.899 407.474 217.173 418.89 207.676C431.076 197.56 442.412 186.138 462.802 176.278C511.785 152.75 566.131 160.087 574.467 158.14C611.822 163.316 640.521 180.427 660.698 198.565C678.725 214.777 689.902 231.482 695.929 239.203C752.717 313.529 708.646 370.102 764.611 398.976C790.549 412.366 824.399 412.344 848.346 410.911C853.258 410.612 857.718 410.248 861.621 409.949C914.029 405.671 930.25 387.02 982.286 376.711C1026.46 367.963 1046.16 377.203 1078.26 380.496C1090.25 381.691 1102.36 381.892 1114.39 381.095C1167.25 377.951 1194.31 362.166 1227.25 342.489C1254.49 326.212 1284.97 307.604 1333.45 291.905C1370.91 279.777 1425.79 266.944 1501 267.864" stroke="#37F2AD" stroke-opacity="0.12" stroke-width="1.07626" stroke-miterlimit="10"/>
<path d="M-35.9204 134.143C10.9916 142.699 51.001 149.244 79.4615 154.163C83.3111 154.826 87.0545 155.339 90.6651 155.853C168.029 166.996 182.923 164.515 218.525 180.065C255.986 196.406 262.411 213.217 302.977 221.687C326.215 226.468 350.552 226.593 373.863 222.05C395.315 217.88 406.89 208.982 418.147 199.207C430.041 188.813 441.191 177.134 461.926 167.125C511.891 143.062 568.255 148.559 575.29 150.762C611.609 162.077 642.22 175.723 662.265 195.272C680.212 212.789 691.283 230.649 696.991 239.097C751.283 319.412 705.115 378.679 760.469 409.073C786.408 423.317 820.709 423.21 844.55 421.692C849.541 421.371 854.001 420.986 857.824 420.665C910.922 416.088 926.215 396.154 978.967 384.946C1023.89 375.407 1043.3 384.732 1075.71 387.727C1087.82 388.817 1100.04 388.867 1112.16 387.876C1165.05 383.898 1192.69 366.68 1225.5 345.933C1252.74 328.823 1283.03 309.316 1331.7 293.467C1369.18 281.254 1424.62 268.699 1500.92 271.03" stroke="#37F2AD" stroke-opacity="0.12" stroke-width="1.07626" stroke-miterlimit="10"/>
<path d="M-37.46 132.923C9.92996 141.329 49.6472 146.719 77.3113 150.398C81.1874 150.911 84.9308 151.339 88.568 151.745C166.834 160.771 182.472 156.985 217.198 171.915C255.428 188.384 260.738 205.495 301.916 214.05C325.288 218.893 349.792 218.952 373.2 214.221C394.81 209.751 406.306 200.725 417.377 190.694C429.006 179.999 439.97 168.086 461.024 157.969C512.024 133.479 569.582 142.74 576.113 143.361C615.937 147.189 643.893 170.995 663.725 191.956C677.139 206.578 688.601 222.301 697.92 238.861C749.691 325.014 701.478 387.127 756.328 419.039C782.24 434.139 817.019 434.011 840.78 432.364C845.798 432.022 850.311 431.594 854.055 431.252C907.79 426.225 922.206 405.115 975.702 393.073C1021.34 382.721 1040.51 392.196 1073.22 394.848C1085.45 395.833 1097.78 395.725 1109.99 394.527C1162.93 389.715 1191.07 371 1223.83 349.248C1251.01 331.089 1281.12 310.919 1330.02 294.942C1367.56 282.643 1423.48 270.324 1500.92 274.088" stroke="#37F2AD" stroke-opacity="0.12" stroke-width="1.07626" stroke-miterlimit="10"/>
<path d="M-39 131.705C8.78816 139.747 48.2665 144.153 75.1606 146.677C164.153 155.018 180.454 148.816 215.87 163.788C254.632 180.193 259.225 197.817 300.827 206.565C324.33 211.489 349.006 211.489 372.509 206.565C417.058 196.726 418.28 168.878 460.121 148.816C512.13 123.877 571.255 134.849 576.936 135.983C652.654 150.955 687.964 217.922 699.062 238.648C748.257 330.448 698 395.576 752.16 429.007C783.594 448.406 828.833 443.979 850.391 441.84C904.79 436.493 918.33 414.163 972.516 401.201C1033.58 386.572 1047.04 407.618 1107.92 401.201C1205.03 390.871 1220.62 331.902 1328.27 296.397C1365.84 284.013 1422.28 271.95 1500.84 277.148" stroke="#37F2AD" stroke-opacity="0.12" stroke-width="1.07626" stroke-miterlimit="10"/>
<path d="M-37.5654 134.378C9.37317 142.42 48.1878 147.211 75.0819 149.864C161.711 158.676 178.623 152.858 213.827 167.851C251.872 184.107 256.942 201.218 297.509 210.03C320.521 214.928 344.677 215.177 367.837 210.757C411.803 202.394 413.502 175.23 454.706 155.938C505.6 131.94 562.946 141.928 569.583 142.805C631.681 150.912 665.929 200.212 682.788 226.52C686.239 231.889 688.735 236.509 690.753 239.845C741.196 326.747 693.567 389.331 746.93 420.9C778.789 439.701 824.4 434.974 846.861 432.942C867.443 431.121 887.394 426.11 905.614 418.184C924.198 410.676 941.587 402.206 970.181 396.581C978.942 394.87 986.747 393.929 993.756 393.116C1036.23 388.176 1052.62 400.346 1103.8 393.009C1123.6 390.209 1142.67 384.719 1160.19 376.775C1207.74 355.387 1237.48 316.887 1311.1 288.783C1315.41 287.129 1319.93 285.517 1324.64 283.949C1362.55 271.244 1419.84 258.603 1499.59 263.458" stroke="#37F2AD" stroke-opacity="0.12" stroke-width="1.07626" stroke-miterlimit="10"/>
<path d="M-36.1333 137.052C9.84953 145.095 48.1066 150.078 75.0273 153.03C159.241 162.291 176.683 156.901 211.781 171.937C249.135 187.85 254.658 204.812 294.083 213.474C316.622 218.359 340.277 218.872 363.11 214.971C406.412 207.977 408.721 181.69 449.262 163.04C499.068 140.132 554.9 147.511 562.174 149.629C619.626 166.205 656.901 203.635 674.264 228.425C677.795 233.472 680.238 237.9 682.229 241.023C733.84 323.133 689.025 383.022 741.539 412.795C773.664 430.975 819.779 425.97 843.142 424.024C863.886 422.308 884.105 417.713 902.904 410.442C921.78 403.662 939.435 396.325 967.684 391.983C976.471 390.615 984.33 390.101 991.339 389.288C1033.68 384.348 1049.35 393.951 1099.5 384.797C1119.07 381.163 1137.82 375.071 1155.04 366.745C1200.81 345.356 1232.03 305.509 1307.14 276.463C1311.52 274.795 1316.09 273.127 1320.84 271.501C1359.07 258.476 1417.21 245.257 1498.19 249.749" stroke="#37F2AD" stroke-opacity="0.12" stroke-width="1.07626" stroke-miterlimit="10"/>
<path d="M-34.6982 139.726C10.3288 147.746 48.0018 153.029 74.8959 156.302C156.72 165.948 174.747 161.05 209.685 176.086C246.323 191.743 252.323 208.383 290.792 217.003C312.847 221.845 335.981 222.577 358.439 219.142C400.917 213.474 403.971 188.064 443.847 170.14C492.564 148.238 546.618 153.842 554.822 156.409C600.441 171.139 639.224 196.963 665.77 230.285C669.381 235.012 671.797 239.247 673.735 242.177C726.461 319.326 684.514 376.754 736.098 404.731C768.594 422.312 815.135 416.986 839.4 415.168C860.312 413.525 880.793 409.335 900.144 402.742C919.366 396.689 937.313 390.507 965.136 387.406C974.004 386.422 981.889 386.315 988.898 385.502C1031.19 380.54 1046 387.641 1095.09 376.626C1114.4 372.139 1132.82 365.455 1149.78 356.777C1193.78 335.239 1226.62 294.259 1303.05 264.186C1307.46 262.475 1312.08 260.771 1316.91 259.074C1355.46 245.749 1414.48 231.953 1496.65 236.103" stroke="#37F2AD" stroke-opacity="0.12" stroke-width="1.07626" stroke-miterlimit="10"/>
<path d="M-33.2646 142.377C10.8067 150.419 47.9221 155.98 74.8694 159.488C154.304 169.519 172.941 165.113 207.614 180.171C243.508 195.592 250.093 211.869 287.394 220.467C308.986 225.334 331.635 226.356 353.766 223.461C395.634 219.184 399.218 194.587 438.458 177.369C486.087 156.301 537.724 164.685 547.468 163.252C603.619 172.385 638.929 210.307 657.301 232.209C660.991 236.594 663.354 240.615 665.425 243.374C719.319 315.625 680.239 370.444 730.868 396.581C763.789 413.563 810.674 407.938 835.869 406.206C856.966 404.642 877.718 400.86 897.596 394.955C917.189 389.63 935.348 384.625 962.827 382.742C971.747 382.122 979.659 382.443 986.721 381.63C1028.96 376.668 1042.92 381.181 1091.11 368.391C1111.53 362.958 1128.28 355.172 1144.95 346.703C1187.22 325.121 1221.52 282.772 1299.41 251.823C1303.84 250.069 1308.51 248.322 1313.43 246.582C1352.33 232.915 1412.19 218.542 1495.56 222.349" stroke="#37F2AD" stroke-opacity="0.12" stroke-width="1.07626" stroke-miterlimit="10"/>
<path d="M-31.8584 145.05C11.1775 153.071 47.8151 158.91 74.895 162.546C151.887 172.941 171.002 169.133 205.675 184.106C240.826 199.334 247.809 215.226 284.181 223.781C305.27 228.646 327.387 229.914 349.119 227.503C390.191 224.338 394.492 200.831 433.067 184.341C479.581 164.471 529.334 172.107 540.166 170.032C594.644 178.331 629.928 213.622 648.857 234.069C652.627 238.133 654.964 241.962 657.088 244.528C712.124 311.838 675.99 364.069 725.611 388.431C758.956 404.815 806.213 398.869 832.284 397.265C858.833 395.639 877.55 391.212 895.02 387.19C914.984 382.592 933.569 375.919 960.463 378.079C968.413 378.769 976.439 378.661 984.357 377.758C1026.57 372.796 1039.63 374.828 1086.89 360.134C1106.67 353.995 1123.13 345.547 1139.99 336.606C1180.53 315.047 1216.29 271.392 1295.62 239.438C1300.09 237.641 1304.82 235.845 1309.79 234.048C1349.01 220.081 1409.72 205.131 1494.31 208.574" stroke="#37F2AD" stroke-opacity="0.12" stroke-width="1.07626" stroke-miterlimit="10"/>
<path d="M-30.4253 147.746C11.761 155.766 47.7349 161.883 74.7087 165.755C149.391 176.449 169.117 173.198 203.631 188.213C238.144 203.228 245.551 218.713 280.835 227.29C311.579 234.754 337.198 233.15 344.553 231.76C383.765 224.274 389.819 207.27 427.757 191.507C473.156 172.642 521.077 179.593 532.918 176.898C585.697 184.384 620.927 216.959 640.494 235.995C644.317 239.738 646.627 243.374 648.777 245.77C704.955 308.139 671.848 357.718 720.46 380.39C754.283 396.174 801.832 389.907 828.833 388.41C855.833 386.913 874.762 382.892 892.55 379.491C912.86 375.62 932.082 369.824 958.206 373.524C966.09 374.699 974.156 374.85 982.1 373.973C1024.26 369.011 1036.45 368.562 1082.75 351.985C1101.92 345.141 1118 336.008 1134.89 326.683C1173.73 305.294 1210.98 260.164 1291.71 227.204C1296.23 225.365 1301.01 223.525 1306.05 221.686C1345.61 207.398 1407.18 191.87 1492.96 194.95" stroke="#37F2AD" stroke-opacity="0.12" stroke-width="1.07626" stroke-miterlimit="10"/>
<path d="M-28.9907 150.356C12.2398 158.441 47.6296 164.857 74.6299 168.878C146.923 179.829 167.233 177.198 201.587 192.213C235.304 206.971 243.269 222.157 277.517 230.713C307.411 238.177 332.314 237.258 339.775 235.932C378.217 229.044 384.908 213.645 422.236 198.608C466.519 180.728 512.502 187.037 525.458 183.636C576.565 190.288 611.663 219.997 631.893 237.814C634.879 240.712 637.679 243.732 640.282 246.861C697.549 304.29 667.548 351.195 714.991 372.199C749.319 387.363 797.16 380.754 825.063 379.406C851.904 378.08 871.63 374.423 889.763 371.664C910.445 368.52 930.303 363.75 955.631 368.819C963.472 370.492 971.643 370.913 979.684 370.06C1021.82 365.076 1033.1 362.189 1078.47 343.687C1097.06 336.137 1112.72 326.363 1129.74 316.567C1166.91 295.178 1205.62 248.765 1287.76 214.8C1292.31 212.917 1297.14 211.035 1302.25 209.153C1342.08 194.545 1404.55 178.439 1491.55 181.177" stroke="#37F2AD" stroke-opacity="0.12" stroke-width="1.07626" stroke-miterlimit="10"/>
<path d="M-27.5581 152.987C12.7167 161.029 47.5224 167.66 74.5758 172.023C144.453 183.274 165.347 181.242 199.675 196.257C232.675 210.779 241.118 225.58 274.304 234.093C303.508 241.558 327.561 241.322 335.234 240.06C372.933 233.836 380.367 219.977 416.951 205.646C460.12 188.771 504.324 194.417 518.236 190.439C567.643 196.257 602.555 223.313 623.556 239.633C626.569 242.292 629.396 245.084 632.025 247.996C690.432 300.462 663.538 344.651 709.813 364.029C744.645 378.594 792.752 371.686 821.558 370.445C848.638 369.248 868.815 365.975 887.267 363.858C909.198 361.428 931.448 361.521 953.347 364.136C962.692 365.098 970.551 366.98 977.48 366.275C1019.56 361.27 1029.94 355.987 1074.38 335.539C1092.28 327.305 1107.65 316.824 1124.83 306.6C1160.38 285.383 1200.46 237.494 1284.12 202.523C1288.69 200.62 1293.6 198.673 1298.8 196.727C1339 181.755 1402.34 165.115 1490.46 167.51" stroke="#37F2AD" stroke-opacity="0.12" stroke-width="1.07626" stroke-miterlimit="10"/>
<path d="M-25.9893 156.665C13.3298 164.686 47.578 171.637 74.6314 176.193C142.013 187.679 163.491 186.246 197.5 201.325C229.81 215.612 238.704 230.05 270.855 238.541C299.103 246.006 322.519 246.433 330.404 245.257C367.413 239.76 375.405 227.355 411.432 213.752C453.459 197.881 495.831 202.865 510.751 198.266C558.54 203.25 593.053 227.483 614.93 242.583C617.971 244.999 620.834 247.556 623.505 250.241C682.842 297.745 659.32 339.196 704.373 356.97C739.763 370.937 788.082 363.729 817.817 362.595C845.083 361.547 865.738 358.659 884.508 357.184C905.906 355.494 925.845 356.927 950.88 360.584C960.358 361.975 968.19 364.221 975.093 363.408C1017.12 358.403 1026.62 350.724 1070.14 328.288C1087.4 319.369 1102.4 308.225 1119.71 297.531C1153.66 276.527 1195.13 227.162 1280.09 191.165C1284.71 189.197 1289.65 187.23 1294.93 185.219C1335.44 169.99 1399.56 152.73 1488.98 154.762" stroke="#37F2AD" stroke-opacity="0.12" stroke-width="1.07626" stroke-miterlimit="10"/>
<path d="M-24.6914 165.926C13.6719 173.947 47.336 181.112 74.4159 185.967C139.541 197.667 161.603 196.939 195.453 211.912C227.046 225.964 236.418 240.059 267.533 248.507C294.932 255.972 317.605 257.063 325.729 255.972C362.048 251.245 370.623 240.251 406.013 227.375C446.898 212.403 487.438 216.852 503.394 211.591C549.43 215.868 581.05 240.594 606.458 251.01C609.829 253.919 612.75 256.271 615.086 257.94C675.432 300.46 655.281 339.217 699.06 355.386C735.034 368.711 783.566 361.204 814.203 360.199C841.655 359.3 862.788 356.798 881.877 355.921C903.647 354.959 923.957 357.803 948.382 362.445C957.993 364.263 965.798 366.872 972.674 366.038C1014.67 361.033 1023.28 351.066 1065.83 326.555C1082.48 316.994 1097.11 305.166 1114.55 293.98C1146.94 273.211 1189.77 222.328 1276.13 185.325C1280.78 183.343 1285.78 181.319 1291.13 179.251C1331.99 163.808 1397.03 145.97 1487.57 147.746" stroke="#37F2AD" stroke-opacity="0.12" stroke-width="1.07626" stroke-miterlimit="10"/>
<path d="M-23.3354 174.267C14.1517 182.288 47.2317 189.689 74.3382 194.8C137.1 206.692 159.853 206.692 193.41 221.75C224.287 235.546 234.137 249.299 264.19 257.726C290.739 265.169 312.668 266.837 321.058 265.918C356.713 262.003 365.846 252.4 400.705 240.251C440.528 226.349 479.157 230.049 496.148 224.167C540.485 227.504 571.786 249.983 598.07 258.645C600.825 260.859 603.741 262.937 606.805 264.87C668.08 302.449 651.38 338.297 693.859 353.033C730.443 365.717 779.134 357.91 810.674 357.054C838.338 356.284 859.949 354.167 879.33 353.975C901.472 353.739 922.18 358.038 946.074 363.621C955.791 365.888 963.596 368.84 970.472 367.898C1012.39 362.872 1020.15 350.531 1061.75 324.03C1077.68 313.828 1092.04 301.337 1109.54 289.659C1140.36 269.169 1184.51 216.724 1272.28 178.695C1276.95 176.556 1282.02 174.588 1287.44 172.492C1328.62 156.6 1394.43 138.27 1486.27 139.532" stroke="#37F2AD" stroke-opacity="0.12" stroke-width="1.07626" stroke-miterlimit="10"/>
<path d="M-21.8486 182.609C14.6562 190.63 47.1787 198.266 74.2587 203.677C134.658 215.697 157.835 216.403 191.366 231.482C221.526 245.043 231.853 258.453 260.871 266.838C286.624 274.281 307.757 274.901 316.385 275.778C351.297 279.371 361.067 264.442 395.183 253.042C433.812 240.209 470.661 243.182 488.688 236.658C531.352 239.161 562.282 259.309 589.574 266.217C592.356 268.214 595.301 270.057 598.389 271.736C660.566 304.353 647.371 337.313 688.655 350.595C725.824 362.616 774.7 354.552 807.17 353.804C835.046 353.183 857.108 351.472 876.808 351.9C899.321 352.392 920.375 358.188 943.764 364.733C953.614 367.45 961.366 370.722 968.242 369.909C1010.14 364.862 1017.04 350.21 1057.63 321.657C1073.06 310.813 1086.97 297.637 1104.65 285.467C1133.85 265.276 1179.41 211.249 1268.59 172.107C1273.32 170.054 1278.42 167.915 1283.91 165.691C1325.41 149.478 1392.1 130.485 1485.12 131.469" stroke="#37F2AD" stroke-opacity="0.12" stroke-width="1.07626" stroke-miterlimit="10"/>
<path d="M-20.4155 190.974C15.1336 199.08 47.0454 206.844 74.1785 212.533C132.215 224.682 155.949 226.136 189.321 241.237C218.764 254.541 229.57 267.523 257.526 276.079C282.455 283.522 302.871 284.634 311.686 285.768C345.721 290.046 356.261 276.614 389.766 265.941C427.253 253.984 462.298 256.423 481.334 249.258C522.299 250.947 553.016 268.721 580.998 273.897C583.807 275.681 586.78 277.29 589.892 278.71C652.92 306.387 643.389 336.459 683.132 348.287C721.018 359.601 769.974 351.281 803.32 350.682C831.408 350.19 853.949 348.886 873.966 349.955C896.852 351.174 918.25 358.511 941.135 365.847C951.091 369.055 958.844 372.648 965.693 371.814C1007.53 366.767 1013.64 349.827 1053.3 319.198C1068.12 307.713 1081.66 293.874 1099.45 281.191C1127.27 261.321 1174 205.689 1264.58 165.692C1269.34 163.568 1274.5 161.429 1280.06 159.276C1321.9 142.764 1389.41 123.193 1483.66 123.835" stroke="#37F2AD" stroke-opacity="0.12" stroke-width="1.07626" stroke-miterlimit="10"/>
<path d="M-18.9814 199.313C15.5322 207.313 46.9397 215.398 74.0993 221.387C129.852 233.621 154.065 235.888 187.278 250.967C216.03 264.035 227.287 276.783 254.208 285.189C278.287 292.632 297.987 294.236 307.013 295.626C340.147 300.696 351.483 288.632 384.351 278.708C420.696 267.736 453.909 269.532 473.98 261.725C513.272 262.581 543.538 278.024 572.53 281.446C575.372 283.01 578.374 284.376 581.503 285.531C645.221 308.353 639.486 335.302 677.823 345.826C716.16 356.349 765.435 347.964 799.709 347.43C827.984 347.066 851.002 346.146 871.392 347.857C894.622 349.804 916.366 358.552 938.773 366.893C948.835 370.594 956.587 374.465 963.41 373.652C1005.2 368.583 1010.53 349.397 1049.06 316.651C1063.31 304.545 1076.48 290.044 1094.38 276.826C1120.71 257.341 1168.71 200.062 1260.68 158.953C1265.46 156.814 1270.69 154.675 1276.32 152.344C1318.42 135.426 1386.81 115.278 1482.26 115.663" stroke="#37F2AD" stroke-opacity="0.12" stroke-width="1.07626" stroke-miterlimit="10"/>
<path d="M-17.5474 207.635C16.0902 215.634 46.8605 223.933 74.0466 230.2C127.357 242.52 152.18 245.578 185.234 260.679C213.269 273.512 225.057 285.896 250.863 294.195C274.146 301.638 293.129 303.734 302.341 305.381C334.598 311.134 346.678 300.568 378.962 291.371C414.139 281.361 445.52 282.559 466.573 274.111C504.167 274.111 534.087 287.222 563.981 288.89C566.88 290.234 569.918 291.372 573.061 292.291C637.734 310.3 635.611 334.084 672.514 343.324C711.78 353.142 760.895 344.436 796.099 344.137C824.56 343.88 848.055 343.367 868.711 345.72C892.313 348.393 914.348 358.788 936.304 367.878C946.473 372.156 954.198 376.241 961.021 375.407C1002.78 370.359 1007.35 348.907 1044.81 314.043C1058.48 301.317 1071.36 286.238 1089.25 272.4C1114.16 253.3 1163.38 194.374 1256.75 152.238C1261.58 150.057 1266.85 147.804 1272.55 145.48C1315.03 128.369 1384.27 107.622 1480.93 107.557" stroke="#37F2AD" stroke-opacity="0.12" stroke-width="1.07626" stroke-miterlimit="10"/>
<path d="M-16.1147 216.018C16.5671 224.017 46.7532 232.508 73.9659 239.096C124.94 251.458 150.321 255.351 183.188 270.494C210.507 283.049 222.72 295.113 247.543 303.369C263.794 308.502 280.564 312.495 297.668 315.304C329.049 321.72 341.872 312.651 373.545 304.203C407.554 295.155 437.262 295.647 459.271 286.643C495.166 285.851 524.768 296.588 555.564 296.524C558.509 297.641 561.575 298.536 564.724 299.198C629.981 312.373 631.787 332.928 667.203 340.906C707.212 349.91 756.381 341.59 792.461 340.906C821.134 340.371 845.081 340.692 866.081 343.665C889.975 347.066 912.383 359.043 933.887 368.946C944.135 373.652 951.888 378.101 958.684 377.266C1000.39 372.197 1004.24 348.52 1040.61 311.518C1053.7 298.193 1066.18 282.408 1084.21 268.056C1107.65 249.362 1158.09 188.768 1252.87 145.606C1257.73 143.467 1263.04 141.093 1268.8 138.719C1311.63 121.245 1381.72 99.9415 1479.58 99.5351" stroke="#37F2AD" stroke-opacity="0.12" stroke-width="1.07626" stroke-miterlimit="10"/>
<path d="M-14.6802 224.382C17.1786 232.382 46.6745 241.044 73.8872 247.91C122.525 260.272 148.437 265.021 181.172 280.185C207.721 292.484 220.438 304.226 244.199 312.439C260.036 317.711 276.349 322.001 292.996 325.272C323.554 332.309 337.067 324.759 368.13 317.102C400.971 308.974 428.767 308.953 451.918 299.242C486.14 297.596 515.397 306.001 547.07 304.183C550.068 305.065 553.161 305.724 556.309 306.151C622.31 314.599 627.991 331.817 661.894 338.576C702.673 346.704 751.842 338.277 788.851 337.763C817.737 337.378 842.135 338.084 863.454 341.699C887.773 345.827 910.366 359.387 931.499 370.103C941.773 375.322 949.579 380.049 956.349 379.215C998.031 374.124 1001.16 348.222 1036.39 309.081C1048.95 295.136 1061.08 278.731 1079.14 263.823C1101.23 245.557 1152.84 183.273 1249.05 139.063C1253.94 136.817 1259.33 134.465 1265.17 132.026C1308.34 114.252 1379.33 92.3717 1478.33 91.6017" stroke="#37F2AD" stroke-opacity="0.12" stroke-width="1.07626" stroke-miterlimit="10"/>
<path d="M-13.2739 232.744C17.5229 240.722 46.594 249.577 73.8067 256.828C120.028 269.212 146.577 274.816 179.127 290.001C205.012 302.065 218.154 313.529 240.879 321.635C256.302 326.946 272.142 331.433 288.296 335.067C318.057 342.703 332.261 336.714 362.633 329.806C394.333 322.641 420.297 322.02 444.484 311.647C477.006 309.187 505.918 315.24 538.52 311.647C541.57 312.301 544.69 312.724 547.839 312.909C614.583 316.673 624.061 330.405 656.504 336.03C698.053 343.259 747.222 334.746 785.16 334.447C814.231 334.19 839.108 335.281 860.745 339.538C885.436 344.393 908.268 359.536 929.002 371.064C939.33 376.818 947.162 381.759 953.932 380.967C995.561 375.877 998.056 347.729 1032.12 306.449C1044.12 291.905 1056.01 274.901 1073.99 259.394C1094.8 241.578 1147.47 177.69 1245.12 132.346C1250.03 130.057 1255.48 127.662 1261.4 125.181C1304.88 107.107 1376.67 84.6279 1476.95 83.5799" stroke="#37F2AD" stroke-opacity="0.12" stroke-width="1.07626" stroke-miterlimit="10"/>
<path d="M-11.8394 241.108C18.0017 249.107 46.5684 258.091 73.728 265.726C117.746 278.068 144.693 284.591 177.083 299.777C202.278 311.584 215.871 322.684 237.535 330.79C252.55 336.222 267.938 340.957 283.624 344.971C312.589 353.206 327.43 348.757 357.298 342.618C387.829 336.373 411.989 335.175 437.21 324.181C468.06 320.888 496.627 324.588 530.132 319.283C533.247 319.618 536.386 319.797 539.53 319.818C606.964 322.235 620.345 329.122 651.275 333.657C693.594 339.859 742.789 330.962 781.603 331.261C810.807 331.496 836.241 332.63 858.197 337.528C883.26 343.11 906.277 359.858 926.667 372.177C937.048 378.466 944.933 383.685 951.676 382.872C993.278 377.781 995.137 347.431 1027.98 304.012C1039.45 288.847 1051 271.245 1069.02 255.096C1088.4 237.729 1142.32 172.044 1241.25 125.759C1246.22 123.421 1251.7 120.99 1257.68 118.466C1301.49 100.029 1374.15 76.9932 1475.62 75.5387" stroke="#37F2AD" stroke-opacity="0.12" stroke-width="1.07626" stroke-miterlimit="10"/>
<path d="M-10.4067 249.449C18.4786 257.426 46.4877 266.559 73.6473 274.559C115.382 286.836 142.807 294.279 175.038 309.508C199.516 321.058 213.56 331.837 234.216 339.901C253.331 347.387 268.729 351.665 278.951 354.873C307.146 363.664 322.624 360.776 351.881 355.45C378.346 350.555 404.391 344.289 429.855 336.693C457.785 328.779 486.935 320.908 521.635 326.875C524.785 327.228 527.985 327.171 531.113 326.704C599.45 321.271 616.521 327.774 645.964 331.26C689.079 336.35 738.248 327.581 777.992 328.052C807.488 328.394 833.293 329.955 855.568 335.474C880.975 341.89 904.206 360.156 924.25 373.267C934.657 380.09 942.622 385.566 949.365 384.732C990.888 379.62 992.162 347.045 1023.7 301.487C1034.64 285.702 1045.92 267.543 1063.87 250.775C1081.82 234.006 1137.07 166.589 1237.29 119.106C1242.28 116.775 1247.91 114.272 1253.88 111.684C1298.03 92.9479 1371.52 69.3349 1474.24 67.5169" stroke="#37F2AD" stroke-opacity="0.12" stroke-width="1.07626" stroke-miterlimit="10"/>
<path d="M-8.97217 257.812C18.9574 265.79 46.4355 274.923 73.5951 283.479C113.02 295.692 140.95 304.076 172.995 319.326C196.889 330.619 211.278 341.078 230.871 349.099C249.164 356.606 264.031 361.291 274.279 364.777C301.731 374.124 317.793 372.776 346.466 368.263C374.634 363.836 393.324 358.189 422.502 349.227C448.785 341.143 476.768 339.581 513.167 334.469C516.512 333.999 519.724 334.041 522.724 333.614C591.911 323.604 612.699 326.384 640.655 328.865C684.54 332.737 733.735 324.224 774.355 324.844C804.064 325.315 830.347 327.283 852.94 333.4C878.719 340.458 902.109 360.392 921.835 374.316C932.269 381.674 940.419 387.406 947.03 386.572C988.499 381.46 989.216 346.639 1019.56 298.879C1030 282.474 1041.04 263.801 1058.88 246.348C1075.69 229.922 1131.89 160.901 1233.49 112.391C1238.54 110.017 1244.11 107.472 1250.25 104.82C1294.72 85.7838 1369.08 61.5933 1472.97 59.4117" stroke="#37F2AD" stroke-opacity="0.12" stroke-width="1.07626" stroke-miterlimit="10"/>
<path d="M-7.40625 266.154C19.5675 274.132 46.5413 283.436 73.6478 292.269C110.816 304.396 139.197 313.658 171.083 329.015C194.154 340.051 209.127 350.19 227.685 358.189C245.128 365.675 259.358 370.744 269.739 374.594C296.473 384.497 313.12 384.689 341.208 381.011C368.182 377.46 385.253 371.706 415.28 361.761C439.997 353.505 467.475 349.633 504.803 342.083C508.122 341.42 511.414 341.142 514.467 340.522C584.556 325.956 609.088 328.908 635.477 326.47C680.432 322.492 725.662 320.892 770.877 321.679C800.798 322.256 827.533 324.63 850.524 331.432C876.675 339.217 900.197 360.755 919.551 375.471C929.985 383.363 938.136 389.331 944.826 388.518C986.269 383.385 986.402 346.34 1015.5 296.547C1025.43 279.543 1036.29 260.357 1053.97 242.198C1069.5 226.264 1126.74 155.468 1229.75 105.953C1234.82 103.536 1240.37 100.948 1246.66 98.253C1291.48 78.8749 1366.66 54.1068 1471.77 51.6044" stroke="#37F2AD" stroke-opacity="0.12" stroke-width="1.07626" stroke-miterlimit="10"/>
<path d="M-6.10547 272.163C19.9125 280.141 46.3819 289.509 73.5415 298.792C108.48 310.791 137.259 321.122 169.118 336.414C191.499 347.109 206.924 357.033 224.446 364.968C241.039 372.476 254.659 377.93 265.119 382.079C291.217 392.517 308.367 394.249 335.872 391.405C361.678 388.731 377.209 382.977 408.006 371.77C431.209 363.321 458.289 357.226 496.414 347.173C499.732 346.296 503.024 345.718 506.157 344.884C577.202 325.806 605.371 324.009 630.247 321.571C675.722 317.063 721.538 315.183 767.346 315.946C797.453 316.651 824.665 319.432 847.869 326.875C874.418 335.431 898.047 358.509 917.215 373.93C927.622 382.357 935.799 388.603 942.569 387.768C983.959 382.614 983.588 343.344 1011.36 291.391C1020.78 273.746 1031.53 254.09 1048.98 235.225C1063.29 219.761 1121.54 147.211 1225.95 96.6693C1231.05 94.2097 1236.76 91.5789 1243.02 88.8411C1288.16 69.1422 1364.22 43.7967 1470.52 40.9306" stroke="#37F2AD" stroke-opacity="0.12" stroke-width="1.07626" stroke-miterlimit="10"/>
<path d="M-4.75098 275.393C20.3113 283.371 46.3293 292.739 73.2765 302.513C105.985 314.384 135.295 325.656 166.782 341.013C188.472 351.515 204.322 361.075 220.809 368.947C236.579 376.475 249.588 382.272 260.155 386.849C285.615 397.821 303.27 401.072 330.164 399.083C354.802 397.265 368.899 391.661 400.36 379.149C422.077 370.593 448.838 362.209 487.626 349.633C490.972 348.563 494.29 347.686 497.45 346.638C569.557 323.004 601.15 316.395 624.646 314.021C670.39 309.422 720.063 306.47 763.417 307.604C793.736 308.395 821.4 311.604 844.949 319.689C871.843 328.928 895.578 353.632 914.507 369.973C924.915 378.956 933.278 385.416 939.941 384.582C981.305 379.448 980.402 337.912 1006.87 283.841C1015.79 265.575 1026.49 245.47 1043.62 225.857C1056.73 210.885 1115.96 136.581 1221.79 85.0126C1226.94 82.5315 1232.67 79.8366 1239.02 77.0346C1284.49 57.0363 1361.38 31.1133 1468.9 27.8408" stroke="#37F2AD" stroke-opacity="0.12" stroke-width="1.07626" stroke-miterlimit="10"/>
<path d="M-3.26416 278.473C20.8689 286.43 46.4621 295.798 73.2765 306.107C104.625 317.941 135.18 331.092 164.817 345.505C185.818 355.772 201.986 365.033 217.57 372.819C232.464 380.411 244.889 386.529 255.562 391.469C280.412 402.998 298.545 407.746 324.828 406.634C348.324 405.65 361.068 400.324 393.086 386.4C413.422 377.567 439.891 367.044 479.237 351.965C482.582 350.681 485.927 349.505 489.14 348.264C562.282 320.074 597.061 307.519 619.416 306.343C666.115 303.947 715.603 297.787 759.886 299.135C790.418 300.012 818.533 303.691 842.401 312.396C869.666 322.363 893.481 348.756 912.171 365.867C922.525 375.385 931.021 382.101 937.685 381.288C978.995 376.112 977.508 332.33 1002.73 276.142C1011.64 255.094 1023.69 234.998 1038.62 216.297C1050.57 201.774 1110.76 125.737 1217.96 73.1426C1223.14 70.6188 1228.93 67.881 1235.35 65.0364C1281.15 44.7172 1358.91 18.2167 1467.63 14.6448" stroke="#37F2AD" stroke-opacity="0.12" stroke-width="1.07626" stroke-miterlimit="10"/>
<path d="M-1.83203 281.425C55.0424 300.961 110.058 323.837 162.772 349.869C247.569 391.769 270.746 414.398 319.411 414.035C354.853 413.757 363.216 401.608 470.74 354.146C551.608 318.449 592.042 300.675 614.104 298.536C693.379 291.071 780.035 281.832 839.771 304.953C882.833 321.614 916.763 379.984 935.347 377.674C990.436 370.787 968.692 291.05 1033.58 206.565C1044.38 192.491 1105.5 114.744 1214.11 61.1223C1256.27 40.3112 1340.91 5.70441 1466.33 1.23419" stroke="#37F2AD" stroke-opacity="0.12" stroke-width="1.07626" stroke-miterlimit="10"/>
</svg>
