<svg width="242" height="242" viewBox="0 0 242 242" fill="none" xmlns="http://www.w3.org/2000/svg">
<path d="M141.698 172.873C153.017 160.277 156.026 135.525 147.839 110.197C139.653 84.8679 122.669 66.6003 106.087 63.0356L104.963 59.566L92.806 63.523C72.8858 69.988 65.198 101.358 75.6325 133.626C86.0664 165.894 110.719 186.81 130.639 180.346L142.796 176.388L141.672 172.918L141.698 172.873Z" fill="black"/>
<path d="M74.6892 133.879C64.0922 101.15 72.0791 69.1549 92.507 62.5539L105.633 58.2982L106.9 62.157C124.027 66.1587 140.843 85.2489 148.789 109.826C156.781 134.429 154.383 159.717 142.83 173.037L144.097 176.895L130.971 181.15C110.543 187.752 85.3393 166.516 74.7155 133.833L74.6892 133.879ZM104.318 60.7886L93.0849 64.4204C73.6992 70.7033 66.2768 101.614 76.5554 133.302C86.8342 164.989 110.954 185.659 130.34 179.377L141.573 175.745L140.593 172.664L140.95 172.257C152.322 159.57 154.738 134.782 146.889 110.568C139.04 86.354 122.558 67.6407 105.884 64.023L105.345 63.8954L104.364 60.8151L104.318 60.7886Z" fill="#17273F"/>
<path d="M142.822 176.343C122.903 182.807 98.2497 161.891 87.8156 129.623C77.3813 97.3556 85.0691 65.9853 104.989 59.5204C124.909 53.0555 149.562 73.9722 159.996 106.24C170.43 138.508 162.742 169.878 142.822 176.343Z" fill="black"/>
<path d="M139.958 177.267C120.038 183.733 95.3853 162.816 84.9511 130.548C74.5168 98.2802 82.2046 66.9099 102.125 60.4449C122.045 53.9801 146.697 74.8967 157.131 107.164C167.566 139.432 159.878 170.803 139.958 177.267Z" fill="#1BF3A4"/>
<path d="M86.8446 129.923C76.2477 97.1931 84.2346 65.1984 104.662 58.5975C125.09 51.9965 150.295 73.2317 160.918 105.915C171.515 138.645 163.527 170.639 143.1 177.24C122.672 183.842 97.468 162.606 86.8446 129.923ZM159.025 106.539C148.746 74.8517 124.626 54.1812 105.24 60.464C85.8546 66.7469 78.4324 97.6573 88.7111 129.345C98.9898 161.032 123.11 181.703 142.496 175.42C161.882 169.137 169.304 138.227 159.025 106.539Z" fill="#17273F"/>
<path d="M140.61 164.031C125.618 168.864 106.698 151.931 98.3222 126.187C89.9468 100.443 95.3859 75.6226 110.332 70.7625C125.325 65.9288 144.245 82.8614 152.621 108.606C160.996 134.35 155.557 159.171 140.61 164.031Z" fill="black"/>
<path d="M97.3986 126.511C88.8871 100.259 94.5988 74.8605 110.08 69.8183C125.561 64.776 145.079 82.0538 153.59 108.306C162.102 134.558 156.39 159.957 140.909 164.999C125.428 170.042 105.91 152.764 97.3986 126.511ZM151.697 108.93C143.55 83.7464 125.116 67.0333 110.704 71.7114C96.2187 76.409 91.1443 100.704 99.2917 125.887C107.439 151.071 125.873 167.784 140.331 163.133C154.816 158.435 159.89 134.14 151.743 108.956L151.697 108.93Z" fill="#17273F"/>
<path d="M152.666 108.632C144.291 82.8878 125.397 65.9092 110.378 70.7889C109.019 71.2308 107.791 71.8708 106.629 72.6098C120.794 71.652 137.149 87.717 144.758 111.179C152.366 134.641 148.511 157.249 136.496 164.783C137.906 164.677 139.297 164.499 140.61 164.031C155.603 159.197 160.996 134.35 152.62 108.606L152.666 108.632Z" fill="black"/>
<path d="M134.376 164.845L136 163.943C147.79 156.586 151.144 133.996 143.861 111.457C136.578 88.9186 120.592 72.6378 106.737 73.5905L104.49 73.7649L106.178 71.7965C107.611 70.9071 108.885 70.2936 110.172 69.8712C125.653 64.829 145.171 82.1068 153.682 108.359C162.194 134.611 156.482 160.01 141.001 165.052C139.715 165.475 138.344 165.725 136.624 165.836L134.441 164.944L134.376 164.845ZM151.724 108.884C143.576 83.7002 125.142 66.987 110.704 71.7112C110.704 71.7112 110.604 71.7767 110.559 71.7502C124.389 73.6032 138.678 89.211 145.682 110.853C152.685 132.494 150.28 153.547 140.14 163.145C140.14 163.145 140.239 163.079 140.285 163.106C154.77 158.408 159.844 134.113 151.697 108.93L151.724 108.884Z" fill="#17273F"/>
<path d="M149.552 101.07L141.861 103.558L135.171 91.3565L125.531 80.3339L114.462 73.6981L106.629 72.6092L113.241 69.8658L122.608 71.1656L131.425 76.0722L140.906 85.7769L148.804 98.86L149.552 101.07Z" fill="#191410"/>
<path d="M90.1364 136.116L77.7625 140.131L84.5141 153.288L92.7595 165.345L105.996 176.298L119.37 181.383L127.293 181.36L136.892 178.01L122.459 175.502L109.364 165.366L95.958 148.123L90.1364 136.116Z" fill="#17273F"/>
<path d="M87.0058 127.626L74.8297 131.51L73.4393 125.741L86.2028 121.582L87.0058 127.626Z" fill="#17273F"/>
<g clip-path="url(#clip0_3_89073)">
<path d="M126.109 132.537L131.7 126.147C131.844 125.983 131.934 125.743 131.96 125.453C131.985 125.163 131.947 124.833 131.847 124.498L128.004 111.467C127.909 111.142 127.76 110.824 127.572 110.543C127.384 110.263 127.164 110.03 126.933 109.867L117.764 103.413C117.293 103.082 116.832 103.079 116.549 103.403L110.958 109.794C110.813 109.956 110.723 110.195 110.696 110.485C110.67 110.776 110.71 111.106 110.81 111.441L114.653 124.473C114.748 124.798 114.898 125.116 115.085 125.396C115.273 125.677 115.493 125.91 115.724 126.072L124.893 132.527C125.124 132.689 125.358 132.776 125.571 132.778C125.784 132.78 125.97 132.697 126.109 132.537ZM116.773 123.368L113.571 112.509L118.23 107.183L125.884 112.571L129.086 123.431L124.427 128.756L116.773 123.368Z" fill="#37F2AD"/>
<path d="M118.554 98.8063L130.665 107.332L134.631 120.794L137.067 120.759L132.787 106.228C132.691 105.903 132.542 105.585 132.354 105.304C132.165 105.023 131.945 104.79 131.714 104.628L118.846 95.5693C118.657 94.433 118.225 93.2587 117.607 92.2075C116.989 91.1563 116.217 90.2798 115.395 89.6981C113.197 88.1509 111.212 89.0704 110.972 91.7474C110.731 94.4244 112.323 97.862 114.521 99.4092C115.343 99.9844 116.172 100.235 116.894 100.127C117.616 100.019 118.196 99.558 118.554 98.8063ZM113.629 93.6182C113.682 93.2123 113.864 92.922 114.138 92.808C114.411 92.6939 114.755 92.7648 115.097 93.0059C115.44 93.247 115.755 93.6397 115.976 94.1023C116.198 94.5648 116.309 95.0616 116.287 95.4891C116.234 95.895 116.052 96.1853 115.778 96.2993C115.505 96.4134 115.161 96.3425 114.819 96.1014C114.476 95.8603 114.161 95.4676 113.94 95.005C113.718 94.5425 113.607 94.0457 113.629 93.6182ZM115.74 132.967C115.981 130.29 114.388 126.853 112.19 125.305C111.721 124.975 111.267 124.779 110.832 124.668L105.598 106.896L111.559 100.071L109.419 96.8142L102.985 104.181C102.841 104.345 102.751 104.584 102.725 104.874C102.698 105.163 102.737 105.493 102.835 105.828L108.566 125.283C108.143 125.759 107.848 126.447 107.767 127.355C107.526 130.032 109.118 133.469 111.316 135.016C113.514 136.564 115.499 135.644 115.74 132.967ZM110.424 129.226C110.477 128.82 110.659 128.529 110.933 128.415C111.206 128.301 111.55 128.372 111.892 128.613C112.235 128.854 112.55 129.247 112.771 129.71C112.993 130.172 113.104 130.669 113.082 131.096C113.029 131.502 112.847 131.793 112.573 131.907C112.3 132.021 111.956 131.95 111.614 131.709C111.271 131.468 110.956 131.075 110.735 130.612C110.513 130.15 110.402 129.653 110.424 129.226ZM134.617 127.324C134.51 128.507 134.777 129.832 135.279 131.083L127.75 139.701L118.543 133.22L118.252 136.457L128.218 143.472C128.449 143.635 128.682 143.721 128.896 143.723C129.109 143.725 129.294 143.642 129.433 143.483L137.408 134.352C137.651 134.585 137.903 134.801 138.166 134.986C140.364 136.533 142.349 135.614 142.59 132.937C142.831 130.26 141.238 126.822 139.04 125.275C136.843 123.728 134.858 124.647 134.617 127.324ZM139.932 131.066C139.904 131.386 139.798 131.645 139.628 131.809C139.457 131.973 139.231 132.035 138.977 131.986C138.723 131.938 138.452 131.782 138.2 131.538C137.947 131.293 137.724 130.972 137.558 130.614C137.393 130.257 137.292 129.879 137.269 129.528C137.246 129.178 137.302 128.87 137.429 128.645C137.557 128.42 137.75 128.287 137.985 128.264C138.22 128.24 138.486 128.326 138.749 128.512C139.483 129.028 140.012 130.174 139.932 131.066Z" fill="#37F2AD"/>
</g>
<defs>
<clipPath id="clip0_3_89073">
<rect width="52.0018" height="52.0018" fill="white" transform="matrix(-0.0896464 0.995974 -0.817715 -0.575623 146.25 107.976)"/>
</clipPath>
</defs>
</svg>
