<svg width="857" height="564" viewBox="0 0 857 564" fill="none" xmlns="http://www.w3.org/2000/svg">
<path d="M196.614 145.768C205.538 135.837 207.91 116.322 201.455 96.3515C195.001 76.3816 181.61 61.9788 168.536 59.1682L167.65 56.4327L158.065 59.5526C142.36 64.6498 136.298 89.3832 144.525 114.824C152.752 140.265 172.189 156.756 187.894 151.66L197.479 148.539L196.593 145.804L196.614 145.768Z" fill="black"/>
<path d="M143.781 115.023C135.426 89.2184 141.724 63.9928 157.83 58.7883L168.179 55.433L169.178 58.4754C182.681 61.6305 195.94 76.6819 202.204 96.0591C208.505 115.457 206.615 135.395 197.506 145.897L198.505 148.939L188.156 152.294C172.05 157.499 152.178 140.756 143.802 114.987L143.781 115.023ZM167.142 57.3965L158.285 60.26C143.001 65.2136 137.149 89.5845 145.253 114.568C153.357 139.552 172.374 155.849 187.658 150.895L196.515 148.032L195.742 145.603L196.024 145.282C204.99 135.279 206.894 115.736 200.706 96.6443C194.518 77.5532 181.523 62.799 168.377 59.9466L167.951 59.846L167.178 57.4174L167.142 57.3965Z" fill="#17273F"/>
<path d="M197.5 148.504C181.795 153.6 162.357 137.11 154.131 111.668C145.904 86.2274 151.965 61.4939 167.671 56.3968C183.377 51.2997 202.814 67.791 211.04 93.232C219.267 118.673 213.205 143.406 197.5 148.504Z" fill="black"/>
<path d="M195.242 149.232C179.536 154.33 160.099 137.838 151.872 112.397C143.646 86.9561 149.707 62.2227 165.413 57.1255C181.118 52.0284 200.555 68.5198 208.782 93.9607C217.009 119.402 210.947 144.135 195.242 149.232Z" fill="#1BF3A4"/>
<path d="M153.365 111.904C145.01 86.0992 151.307 60.8734 167.413 55.6691C183.519 50.4646 203.391 67.2071 211.767 92.9759C220.122 118.781 213.824 144.007 197.719 149.211C181.613 154.416 161.741 137.673 153.365 111.904ZM210.275 93.4678C202.17 68.4845 183.153 52.1871 167.869 57.1407C152.585 62.0943 146.733 86.4652 154.837 111.449C162.941 136.432 181.958 152.729 197.242 147.776C212.527 142.822 218.379 118.451 210.275 93.4678Z" fill="#17273F"/>
<path d="M195.756 138.796C183.935 142.607 169.018 129.256 162.414 108.959C155.811 88.6611 160.099 69.0921 171.884 65.2602C183.705 61.4492 198.622 74.7994 205.225 95.0972C211.829 115.395 207.54 134.964 195.756 138.796Z" fill="black"/>
<path d="M161.686 109.215C154.976 88.5164 159.479 68.4913 171.685 64.5159C183.89 60.5404 199.279 74.1627 205.99 94.8609C212.7 115.559 208.197 135.584 195.991 139.56C183.785 143.535 168.397 129.913 161.686 109.215ZM204.497 95.3528C198.073 75.4972 183.54 62.3201 172.176 66.0084C160.756 69.7122 156.755 88.867 163.179 108.723C169.602 128.579 184.136 141.755 195.536 138.088C206.956 134.384 210.957 115.229 204.533 95.3737L204.497 95.3528Z" fill="#17273F"/>
<path d="M205.261 95.1181C198.658 74.8203 183.761 61.4338 171.92 65.2811C170.848 65.6294 169.88 66.134 168.964 66.7167C180.132 65.9615 193.027 78.6277 199.026 97.126C205.024 115.624 201.985 133.449 192.512 139.389C193.624 139.306 194.721 139.165 195.756 138.796C207.576 134.985 211.828 115.395 205.225 95.0971L205.261 95.1181Z" fill="black"/>
<path d="M190.84 139.438L192.121 138.727C201.417 132.926 204.061 115.115 198.319 97.3453C192.577 79.5752 179.973 66.7389 169.049 67.49L167.277 67.6275L168.608 66.0755C169.739 65.3743 170.743 64.8906 171.757 64.5576C183.963 60.5821 199.351 74.2045 206.062 94.9027C212.773 115.601 208.27 135.626 196.064 139.601C195.05 139.934 193.969 140.132 192.613 140.22L190.892 139.516L190.84 139.438ZM204.518 95.3165C198.094 75.4608 183.561 62.2836 172.176 66.0083C172.176 66.0083 172.098 66.0599 172.062 66.039C182.966 67.5 194.232 79.8057 199.754 96.8687C205.276 113.932 203.38 130.531 195.385 138.098C195.385 138.098 195.463 138.046 195.5 138.067C206.92 134.363 210.921 115.208 204.497 95.3527L204.518 95.3165Z" fill="#17273F"/>
<path d="M202.806 89.1555L196.742 91.1175L191.467 81.4972L183.867 72.8066L175.14 67.5747L168.964 66.7162L174.177 64.5532L181.562 65.578L188.514 69.4466L195.989 77.0981L202.216 87.4132L202.806 89.1555Z" fill="#191410"/>
<path d="M155.961 116.787L146.205 119.952L151.528 130.326L158.029 139.832L168.465 148.468L179.009 152.478L185.257 152.459L192.824 149.818L181.445 147.84L171.12 139.849L160.551 126.254L155.961 116.787Z" fill="#17273F"/>
<path d="M153.492 110.093L143.892 113.156L142.796 108.607L152.859 105.328L153.492 110.093Z" fill="#17273F"/>
<g clip-path="url(#clip0_0_1)">
<path d="M184.322 113.966L188.731 108.927C188.844 108.798 188.915 108.609 188.935 108.38C188.955 108.152 188.925 107.892 188.847 107.628L185.816 97.353C185.741 97.097 185.624 96.846 185.475 96.6249C185.327 96.4038 185.154 96.2201 184.972 96.0921L177.743 91.0033C177.372 90.7422 177.008 90.7397 176.785 90.9956L172.377 96.0339C172.262 96.1621 172.191 96.3506 172.171 96.5794C172.15 96.8083 172.181 97.0687 172.26 97.333L175.29 107.608C175.365 107.864 175.483 108.115 175.631 108.336C175.779 108.557 175.953 108.741 176.135 108.869L183.364 113.957C183.546 114.086 183.73 114.154 183.898 114.155C184.066 114.157 184.212 114.092 184.322 113.966ZM176.962 106.737L174.437 98.1747L178.11 93.9758L184.145 98.2239L186.67 106.786L182.996 110.985L176.962 106.737Z" fill="#37F2AD"/>
<path d="M178.366 87.3711L187.915 94.0929L191.041 104.707L192.962 104.679L189.587 93.2226C189.512 92.9665 189.394 92.7154 189.246 92.4942C189.098 92.2729 188.924 92.0892 188.742 91.9611L178.596 84.8189C178.447 83.9231 178.106 82.9972 177.619 82.1684C177.132 81.3396 176.523 80.6485 175.875 80.1899C174.142 78.9701 172.578 79.695 172.388 81.8056C172.198 83.9163 173.453 86.6266 175.186 87.8465C175.834 88.3 176.488 88.4978 177.057 88.4127C177.626 88.3276 178.084 87.9638 178.366 87.3711ZM174.483 83.2807C174.525 82.9606 174.668 82.7318 174.884 82.6419C175.099 82.5519 175.37 82.6078 175.64 82.7979C175.911 82.988 176.159 83.2976 176.333 83.6623C176.508 84.027 176.596 84.4186 176.578 84.7557C176.537 85.0758 176.393 85.3046 176.178 85.3945C175.962 85.4845 175.691 85.4286 175.421 85.2385C175.151 85.0484 174.903 84.7388 174.728 84.3741C174.553 84.0094 174.465 83.6177 174.483 83.2807ZM176.147 114.305C176.337 112.194 175.081 109.484 173.348 108.264C172.978 108.004 172.62 107.849 172.277 107.761L168.151 93.7496L172.851 88.3682L171.163 85.8005L166.091 91.6088C165.977 91.7377 165.906 91.9263 165.885 92.1547C165.865 92.3832 165.895 92.6431 165.973 92.9071L170.491 108.246C170.158 108.622 169.925 109.164 169.861 109.88C169.671 111.99 170.926 114.701 172.659 115.92C174.392 117.14 175.957 116.415 176.147 114.305ZM171.956 111.355C171.998 111.035 172.141 110.806 172.357 110.716C172.572 110.626 172.844 110.682 173.114 110.872C173.384 111.062 173.632 111.372 173.807 111.736C173.981 112.101 174.069 112.493 174.051 112.83C174.01 113.15 173.866 113.379 173.651 113.469C173.435 113.558 173.164 113.503 172.894 113.312C172.624 113.122 172.376 112.813 172.201 112.448C172.026 112.083 171.939 111.692 171.956 111.355ZM191.03 109.855C190.946 110.788 191.156 111.833 191.552 112.819L185.617 119.614L178.357 114.504L178.127 117.056L185.985 122.587C186.167 122.715 186.351 122.784 186.519 122.785C186.688 122.787 186.834 122.721 186.944 122.596L193.231 115.397C193.423 115.581 193.621 115.75 193.829 115.896C195.562 117.116 197.127 116.391 197.317 114.281C197.507 112.17 196.251 109.46 194.518 108.24C192.785 107.02 191.22 107.745 191.03 109.855ZM195.221 112.806C195.199 113.058 195.115 113.262 194.981 113.392C194.847 113.521 194.668 113.569 194.468 113.531C194.268 113.493 194.054 113.37 193.855 113.178C193.656 112.985 193.48 112.732 193.349 112.45C193.219 112.168 193.139 111.87 193.121 111.593C193.103 111.317 193.147 111.075 193.248 110.897C193.348 110.72 193.501 110.615 193.686 110.596C193.871 110.577 194.081 110.646 194.288 110.792C194.867 111.199 195.284 112.102 195.221 112.806Z" fill="#37F2AD"/>
</g>
<path d="M756.698 172.873C768.017 160.277 771.026 135.525 762.839 110.197C754.653 84.8679 737.669 66.6003 721.087 63.0356L719.963 59.566L707.806 63.523C687.886 69.988 680.198 101.358 690.632 133.626C701.066 165.894 725.719 186.81 745.639 180.346L757.796 176.388L756.672 172.918L756.698 172.873Z" fill="black"/>
<path d="M689.689 133.879C679.092 101.15 687.079 69.1549 707.507 62.5539L720.633 58.2982L721.9 62.157C739.027 66.1587 755.843 85.2489 763.789 109.826C771.781 134.429 769.383 159.717 757.83 173.037L759.097 176.895L745.971 181.15C725.543 187.752 700.339 166.516 689.716 133.833L689.689 133.879ZM719.318 60.7886L708.085 64.4204C688.699 70.7033 681.277 101.614 691.555 133.302C701.834 164.989 725.954 185.659 745.34 179.377L756.573 175.745L755.593 172.664L755.95 172.257C767.322 159.57 769.738 134.782 761.889 110.568C754.04 86.354 737.558 67.6407 720.884 64.023L720.345 63.8954L719.364 60.8151L719.318 60.7886Z" fill="#17273F"/>
<path d="M757.822 176.343C737.903 182.807 713.25 161.891 702.816 129.623C692.381 97.3556 700.069 65.9853 719.989 59.5204C739.909 53.0555 764.562 73.9722 774.996 106.24C785.43 138.508 777.742 169.878 757.822 176.343Z" fill="black"/>
<path d="M754.958 177.267C735.038 183.733 710.385 162.816 699.951 130.548C689.517 98.2802 697.205 66.9099 717.125 60.4449C737.045 53.9801 761.697 74.8967 772.131 107.164C782.566 139.432 774.878 170.803 754.958 177.267Z" fill="#1BF3A4"/>
<path d="M701.845 129.923C691.248 97.1931 699.235 65.1984 719.662 58.5975C740.09 51.9965 765.295 73.2317 775.918 105.915C786.515 138.645 778.527 170.639 758.1 177.24C737.672 183.842 712.468 162.606 701.845 129.923ZM774.025 106.539C763.746 74.8517 739.626 54.1812 720.24 60.464C700.855 66.7469 693.432 97.6573 703.711 129.345C713.99 161.032 738.11 181.703 757.496 175.42C776.882 169.137 784.304 138.227 774.025 106.539Z" fill="#17273F"/>
<path d="M755.61 164.031C740.618 168.864 721.698 151.931 713.322 126.187C704.947 100.443 710.386 75.6226 725.332 70.7625C740.325 65.9288 759.245 82.8614 767.621 108.606C775.996 134.35 770.557 159.171 755.61 164.031Z" fill="black"/>
<path d="M712.399 126.511C703.887 100.259 709.599 74.8605 725.08 69.8183C740.561 64.776 760.079 82.0538 768.59 108.306C777.102 134.558 771.39 159.957 755.909 164.999C740.428 170.042 720.91 152.764 712.399 126.511ZM766.697 108.93C758.55 83.7464 740.116 67.0333 725.704 71.7114C711.219 76.409 706.144 100.704 714.292 125.887C722.439 151.071 740.873 167.784 755.331 163.133C769.816 158.435 774.89 134.14 766.743 108.956L766.697 108.93Z" fill="#17273F"/>
<path d="M767.666 108.632C759.291 82.8878 740.397 65.9092 725.378 70.7889C724.019 71.2308 722.791 71.8708 721.629 72.6098C735.794 71.652 752.149 87.717 759.758 111.179C767.366 134.641 763.511 157.249 751.496 164.783C752.906 164.677 754.297 164.499 755.61 164.031C770.603 159.197 775.996 134.35 767.62 108.606L767.666 108.632Z" fill="black"/>
<path d="M749.376 164.845L751 163.943C762.79 156.586 766.144 133.996 758.861 111.457C751.578 88.9186 735.592 72.6378 721.737 73.5905L719.49 73.7649L721.178 71.7965C722.611 70.9071 723.885 70.2936 725.172 69.8712C740.653 64.829 760.171 82.1068 768.682 108.359C777.194 134.611 771.482 160.01 756.001 165.052C754.715 165.475 753.344 165.725 751.624 165.836L749.441 164.944L749.376 164.845ZM766.724 108.884C758.576 83.7002 740.142 66.987 725.704 71.7112C725.704 71.7112 725.604 71.7767 725.559 71.7502C739.389 73.6032 753.678 89.211 760.682 110.853C767.685 132.494 765.28 153.547 755.14 163.145C755.14 163.145 755.239 163.079 755.285 163.106C769.77 158.408 774.844 134.113 766.697 108.93L766.724 108.884Z" fill="#17273F"/>
<path d="M764.552 101.07L756.861 103.558L750.171 91.3565L740.531 80.3339L729.462 73.6981L721.629 72.6092L728.241 69.8658L737.608 71.1656L746.425 76.0722L755.906 85.7769L763.804 98.86L764.552 101.07Z" fill="#191410"/>
<path d="M705.136 136.116L692.762 140.131L699.514 153.288L707.759 165.345L720.996 176.298L734.37 181.383L742.293 181.36L751.892 178.01L737.459 175.502L724.364 165.366L710.958 148.123L705.136 136.116Z" fill="#17273F"/>
<path d="M702.006 127.626L689.83 131.51L688.439 125.741L701.203 121.582L702.006 127.626Z" fill="#17273F"/>
<g clip-path="url(#clip1_0_1)">
<path d="M741.109 132.537L746.7 126.147C746.844 125.983 746.934 125.743 746.96 125.453C746.985 125.163 746.947 124.833 746.847 124.498L743.004 111.467C742.909 111.142 742.76 110.824 742.572 110.543C742.384 110.263 742.164 110.03 741.933 109.867L732.764 103.413C732.293 103.082 731.832 103.079 731.549 103.403L725.958 109.794C725.813 109.956 725.723 110.195 725.696 110.485C725.67 110.776 725.71 111.106 725.81 111.441L729.653 124.473C729.748 124.798 729.898 125.116 730.085 125.396C730.273 125.677 730.493 125.91 730.724 126.072L739.893 132.527C740.124 132.689 740.358 132.776 740.571 132.778C740.784 132.78 740.97 132.697 741.109 132.537ZM731.773 123.368L728.571 112.509L733.23 107.183L740.884 112.571L744.086 123.431L739.427 128.756L731.773 123.368Z" fill="#37F2AD"/>
<path d="M733.554 98.8063L745.665 107.332L749.631 120.794L752.067 120.759L747.787 106.228C747.691 105.903 747.542 105.585 747.354 105.304C747.165 105.023 746.945 104.79 746.714 104.628L733.846 95.5693C733.657 94.433 733.225 93.2587 732.607 92.2075C731.989 91.1563 731.217 90.2798 730.395 89.6981C728.197 88.1509 726.212 89.0704 725.972 91.7474C725.731 94.4244 727.323 97.862 729.521 99.4092C730.343 99.9844 731.172 100.235 731.894 100.127C732.616 100.019 733.196 99.558 733.554 98.8063ZM728.629 93.6182C728.682 93.2123 728.864 92.922 729.138 92.808C729.411 92.6939 729.755 92.7648 730.097 93.0059C730.44 93.247 730.755 93.6397 730.976 94.1023C731.198 94.5648 731.309 95.0616 731.287 95.4891C731.234 95.895 731.052 96.1853 730.778 96.2993C730.505 96.4134 730.161 96.3425 729.819 96.1014C729.476 95.8603 729.161 95.4676 728.94 95.005C728.718 94.5425 728.607 94.0457 728.629 93.6182ZM730.74 132.967C730.981 130.29 729.388 126.853 727.19 125.305C726.721 124.975 726.267 124.779 725.832 124.668L720.598 106.896L726.559 100.071L724.419 96.8142L717.985 104.181C717.841 104.345 717.751 104.584 717.725 104.874C717.698 105.163 717.737 105.493 717.835 105.828L723.566 125.283C723.143 125.759 722.848 126.447 722.767 127.355C722.526 130.032 724.118 133.469 726.316 135.016C728.514 136.564 730.499 135.644 730.74 132.967ZM725.424 129.226C725.477 128.82 725.659 128.529 725.933 128.415C726.206 128.301 726.55 128.372 726.892 128.613C727.235 128.854 727.55 129.247 727.771 129.71C727.993 130.172 728.104 130.669 728.082 131.096C728.029 131.502 727.847 131.793 727.573 131.907C727.3 132.021 726.956 131.95 726.614 131.709C726.271 131.468 725.956 131.075 725.735 130.612C725.513 130.15 725.402 129.653 725.424 129.226ZM749.617 127.324C749.51 128.507 749.777 129.832 750.279 131.083L742.75 139.701L733.543 133.22L733.252 136.457L743.218 143.472C743.449 143.635 743.682 143.721 743.896 143.723C744.109 143.725 744.294 143.642 744.433 143.483L752.408 134.352C752.651 134.585 752.903 134.801 753.166 134.986C755.364 136.533 757.349 135.614 757.59 132.937C757.831 130.26 756.238 126.822 754.04 125.275C751.843 123.728 749.858 124.647 749.617 127.324ZM754.932 131.066C754.904 131.386 754.798 131.645 754.628 131.809C754.457 131.973 754.231 132.035 753.977 131.986C753.723 131.938 753.452 131.782 753.2 131.538C752.947 131.293 752.724 130.972 752.558 130.614C752.393 130.257 752.292 129.879 752.269 129.528C752.246 129.178 752.302 128.87 752.429 128.645C752.557 128.42 752.75 128.287 752.985 128.264C753.22 128.24 753.486 128.326 753.749 128.512C754.483 129.028 755.012 130.174 754.932 131.066Z" fill="#37F2AD"/>
</g>
<path d="M184.804 474.462C199.566 458.035 203.49 425.753 192.813 392.719C182.137 359.685 159.985 335.861 138.359 331.211L136.893 326.686L121.038 331.847C95.0582 340.279 85.0317 381.192 98.6404 423.276C112.248 465.36 144.401 492.639 170.38 484.208L186.235 479.047L184.77 474.522L184.804 474.462Z" fill="black"/>
<path d="M97.4103 423.606C83.5896 380.92 94.0062 339.192 120.648 330.583L137.768 325.033L139.42 330.066C161.757 335.285 183.689 360.182 194.052 392.236C204.475 424.323 201.347 457.304 186.28 474.675L187.933 479.708L170.814 485.258C144.171 493.867 111.3 466.172 97.4446 423.546L97.4103 423.606ZM136.052 328.281L121.402 333.018C96.1191 341.212 86.4388 381.525 99.8442 422.853C113.25 464.18 144.707 491.138 169.99 482.944L184.641 478.207L183.362 474.189L183.828 473.659C198.66 457.112 201.81 424.784 191.574 393.204C181.337 361.624 159.842 337.218 138.095 332.499L137.391 332.333L136.112 328.316L136.052 328.281Z" fill="#17273F"/>
<path d="M186.27 478.988C160.29 487.419 128.138 460.14 114.53 418.056C100.921 375.972 110.948 335.059 136.928 326.627C162.908 318.196 195.06 345.475 208.668 387.559C222.277 429.643 212.249 470.556 186.27 478.988Z" fill="black"/>
<path d="M182.534 480.193C156.554 488.626 124.402 461.346 110.794 419.262C97.1855 377.178 107.212 336.264 133.192 327.833C159.172 319.401 191.324 346.681 204.932 388.765C218.541 430.848 208.514 471.762 182.534 480.193Z" fill="#1BF3A4"/>
<path d="M113.263 418.446C99.4425 375.76 109.859 334.032 136.501 325.423C163.143 316.814 196.015 344.509 209.87 387.135C223.691 429.821 213.273 471.549 186.632 480.158C159.99 488.768 127.118 461.072 113.263 418.446ZM207.401 387.949C193.996 346.622 162.538 319.663 137.255 327.858C111.972 336.052 102.292 376.365 115.697 417.692C129.103 459.02 160.561 485.978 185.844 477.784C211.127 469.59 220.807 429.276 207.401 387.949Z" fill="#17273F"/>
<path d="M183.385 462.93C163.832 469.233 139.156 447.15 128.232 413.574C117.309 379.998 124.403 347.627 143.896 341.289C163.45 334.985 188.126 357.068 199.049 390.644C209.972 424.221 202.879 456.591 183.385 462.93Z" fill="black"/>
<path d="M127.028 413.997C115.927 379.759 123.376 346.634 143.567 340.058C163.757 333.481 189.213 356.015 200.313 390.254C211.414 424.492 203.965 457.617 183.774 464.193C163.584 470.77 138.128 448.236 127.028 413.997ZM197.844 391.067C187.219 358.223 163.177 336.425 144.38 342.527C125.489 348.653 118.871 380.339 129.497 413.183C140.122 446.029 164.164 467.825 183.021 461.759C201.912 455.632 208.53 423.946 197.904 391.102L197.844 391.067Z" fill="#17273F"/>
<path d="M199.108 390.679C188.185 357.103 163.544 334.959 143.955 341.323C142.183 341.9 140.582 342.734 139.066 343.698C157.54 342.449 178.871 363.401 188.794 394C198.716 424.6 193.689 454.085 178.019 463.911C179.858 463.773 181.672 463.541 183.384 462.93C202.938 456.626 209.971 424.22 199.048 390.644L199.108 390.679Z" fill="black"/>
<path d="M175.254 463.992L177.372 462.816C192.748 453.22 197.123 423.758 187.624 394.363C178.126 364.968 157.277 343.735 139.207 344.977L136.276 345.205L138.478 342.638C140.347 341.478 142.009 340.678 143.686 340.127C163.877 333.551 189.332 356.084 200.433 390.323C211.534 424.561 204.085 457.686 183.894 464.262C182.217 464.813 180.429 465.14 178.186 465.285L175.339 464.121L175.254 463.992ZM197.879 391.007C187.253 358.163 163.211 336.365 144.38 342.526C144.38 342.526 144.251 342.612 144.191 342.577C162.228 344.994 180.864 365.35 189.999 393.575C199.133 421.8 195.996 449.257 182.771 461.775C182.771 461.775 182.901 461.689 182.961 461.724C201.852 455.597 208.47 423.912 197.844 391.067L197.879 391.007Z" fill="#17273F"/>
<path d="M195.047 380.816L185.016 384.061L176.291 368.148L163.718 353.772L149.282 345.118L139.066 343.697L147.69 340.119L159.906 341.815L171.406 348.214L183.771 360.871L194.072 377.934L195.047 380.816Z" fill="#191410"/>
<path d="M117.556 426.523L101.418 431.759L110.224 448.919L120.977 464.644L138.24 478.929L155.683 485.562L166.017 485.53L178.535 481.162L159.712 477.891L142.633 464.672L125.149 442.183L117.556 426.523Z" fill="#17273F"/>
<path d="M113.474 415.45L97.5936 420.517L95.7802 412.992L112.426 407.568L113.474 415.45Z" fill="#17273F"/>
<g clip-path="url(#clip2_0_1)">
<path d="M164.472 421.856L171.764 413.522C171.952 413.308 172.068 412.995 172.102 412.617C172.136 412.239 172.085 411.808 171.956 411.372L166.943 394.376C166.819 393.952 166.625 393.537 166.38 393.171C166.134 392.805 165.847 392.502 165.546 392.29L153.588 383.872C152.975 383.44 152.372 383.436 152.004 383.859L144.712 392.194C144.523 392.406 144.405 392.717 144.371 393.096C144.337 393.474 144.388 393.905 144.518 394.342L149.531 411.339C149.655 411.762 149.85 412.177 150.095 412.543C150.34 412.909 150.627 413.213 150.928 413.424L162.886 421.842C163.188 422.054 163.492 422.167 163.77 422.17C164.048 422.172 164.29 422.064 164.472 421.856ZM152.296 409.898L148.119 395.735L154.196 388.789L164.178 395.816L168.355 409.979L162.278 416.925L152.296 409.898Z" fill="#37F2AD"/>
<path d="M154.619 377.864L170.414 388.983L175.586 406.54L178.764 406.494L173.181 387.543C173.056 387.12 172.862 386.704 172.616 386.338C172.371 385.972 172.083 385.668 171.782 385.456L154.999 373.642C154.754 372.16 154.189 370.629 153.384 369.258C152.578 367.887 151.57 366.744 150.499 365.985C147.632 363.967 145.044 365.166 144.73 368.658C144.415 372.149 146.492 376.632 149.359 378.65C150.431 379.4 151.512 379.728 152.454 379.587C153.396 379.446 154.152 378.844 154.619 377.864ZM148.196 371.098C148.265 370.568 148.502 370.19 148.859 370.041C149.216 369.892 149.664 369.985 150.111 370.299C150.557 370.613 150.968 371.126 151.257 371.729C151.546 372.332 151.691 372.98 151.662 373.537C151.593 374.067 151.356 374.445 150.999 374.594C150.642 374.743 150.194 374.651 149.747 374.336C149.3 374.022 148.89 373.509 148.601 372.906C148.312 372.303 148.167 371.655 148.196 371.098ZM150.948 422.417C151.262 418.925 149.185 414.442 146.319 412.424C145.707 411.994 145.115 411.738 144.547 411.592L137.721 388.415L145.496 379.513L142.705 375.266L134.314 384.874C134.126 385.087 134.008 385.399 133.974 385.777C133.94 386.155 133.99 386.585 134.118 387.021L141.593 412.395C141.041 413.016 140.656 413.913 140.55 415.097C140.235 418.588 142.312 423.072 145.179 425.089C148.045 427.107 150.634 425.908 150.948 422.417ZM144.016 417.537C144.085 417.007 144.322 416.629 144.679 416.48C145.036 416.331 145.484 416.424 145.931 416.738C146.377 417.053 146.788 417.565 147.077 418.168C147.366 418.771 147.511 419.419 147.482 419.977C147.413 420.506 147.176 420.885 146.819 421.034C146.462 421.182 146.014 421.09 145.567 420.775C145.121 420.461 144.71 419.949 144.421 419.345C144.132 418.742 143.987 418.094 144.016 417.537ZM175.568 415.057C175.429 416.6 175.777 418.328 176.432 419.959L166.613 431.199L154.604 422.746L154.224 426.968L167.222 436.117C167.524 436.33 167.828 436.442 168.106 436.445C168.384 436.447 168.626 436.339 168.808 436.131L179.208 424.223C179.526 424.527 179.854 424.808 180.197 425.049C183.064 427.067 185.652 425.868 185.967 422.377C186.281 418.885 184.204 414.402 181.337 412.384C178.471 410.366 175.882 411.565 175.568 415.057ZM182.5 419.937C182.463 420.355 182.325 420.692 182.103 420.906C181.881 421.12 181.586 421.2 181.254 421.137C180.923 421.074 180.57 420.871 180.241 420.552C179.911 420.234 179.62 419.815 179.404 419.348C179.188 418.882 179.057 418.389 179.027 417.932C178.997 417.474 179.07 417.074 179.236 416.78C179.402 416.486 179.654 416.313 179.961 416.282C180.267 416.251 180.614 416.364 180.957 416.606C181.914 417.279 182.605 418.774 182.5 419.937Z" fill="#37F2AD"/>
</g>
<defs>
<clipPath id="clip0_0_1">
<rect width="41" height="41" fill="white" transform="matrix(-0.0896464 0.995974 -0.817715 -0.575623 200.202 94.6006)"/>
</clipPath>
<clipPath id="clip1_0_1">
<rect width="52.0018" height="52.0018" fill="white" transform="matrix(-0.0896464 0.995974 -0.817715 -0.575623 761.25 107.976)"/>
</clipPath>
<clipPath id="clip2_0_1">
<rect width="67.8212" height="67.8212" fill="white" transform="matrix(-0.0896464 0.995974 -0.817715 -0.575623 190.74 389.823)"/>
</clipPath>
</defs>
</svg>
