<svg width="196" height="191" viewBox="0 0 196 191" fill="none" xmlns="http://www.w3.org/2000/svg">
<path d="M112.614 136.768C121.538 126.837 123.91 107.322 117.455 87.3515C111.001 67.3816 97.6101 52.9788 84.5361 50.1682L83.6499 47.4327L74.0652 50.5526C58.3595 55.6498 52.2982 80.3832 60.5251 105.824C68.7515 131.265 88.1887 147.756 103.894 142.66L113.479 139.539L112.593 136.804L112.614 136.768Z" fill="black"/>
<path d="M59.7815 106.023C51.4264 80.2184 57.7236 54.9928 73.8296 49.7883L84.1788 46.433L85.1778 49.4754C98.6813 52.6305 111.94 67.6819 118.204 87.0591C124.505 106.457 122.615 126.395 113.506 136.897L114.505 139.939L104.156 143.294C88.05 148.499 68.1783 131.756 59.8022 105.987L59.7815 106.023ZM83.1418 48.3965L74.2853 51.26C59.0009 56.2136 53.1489 80.5845 61.2528 105.568C69.357 130.552 88.3741 146.849 103.658 141.895L112.515 139.032L111.742 136.603L112.024 136.282C120.99 126.279 122.894 106.736 116.706 87.6443C110.518 68.5532 97.5232 53.799 84.3767 50.9466L83.9513 50.846L83.178 48.4174L83.1418 48.3965Z" fill="#17273F"/>
<path d="M113.5 139.504C97.7945 144.6 78.3573 128.11 70.1307 102.668C61.904 77.2274 67.9653 52.4939 83.6711 47.3968C99.3767 42.2997 118.814 58.791 127.04 84.232C135.267 109.673 129.205 134.406 113.5 139.504Z" fill="black"/>
<path d="M111.242 140.232C95.5358 145.33 76.0991 128.838 67.8725 103.397C59.6457 77.9561 65.7071 53.2227 81.4128 48.1255C97.1184 43.0284 116.555 59.5198 124.782 84.9607C133.009 110.402 126.947 135.135 111.242 140.232Z" fill="#1BF3A4"/>
<path d="M69.3651 102.904C61.0101 77.0992 67.3073 51.8734 83.4133 46.6691C99.5193 41.4646 119.391 58.2071 127.767 83.9759C136.122 109.781 129.824 135.007 113.719 140.211C97.6127 145.416 77.7409 128.673 69.3651 102.904ZM126.275 84.4678C118.17 59.4845 99.1534 43.1871 83.869 48.1407C68.5846 53.0943 62.7326 77.4652 70.8367 102.449C78.9408 127.432 97.9579 143.729 113.242 138.776C128.527 133.822 134.379 109.451 126.275 84.4678Z" fill="#17273F"/>
<path d="M111.756 129.796C99.9354 133.607 85.018 120.256 78.4145 99.959C71.811 79.6611 76.0993 60.0921 87.8838 56.2602C99.7046 52.4492 114.622 65.7994 121.225 86.0972C127.829 106.395 123.54 125.964 111.756 129.796Z" fill="black"/>
<path d="M77.6863 100.215C70.9756 79.5164 75.4788 59.4913 87.6846 55.5159C99.8903 51.5404 115.279 65.1627 121.99 85.8609C128.7 106.559 124.197 126.584 111.991 130.56C99.7855 134.535 84.3968 120.913 77.6863 100.215ZM120.497 86.3528C114.073 66.4972 99.5396 53.3201 88.1765 57.0084C76.756 60.7122 72.7552 79.867 79.1789 99.7227C85.6024 119.579 100.136 132.755 111.536 129.088C122.956 125.384 126.957 106.229 120.533 86.3737L120.497 86.3528Z" fill="#17273F"/>
<path d="M121.261 86.1181C114.658 65.8203 99.7613 52.4338 87.9197 56.2811C86.8484 56.6294 85.8802 57.134 84.9636 57.7167C96.132 56.9615 109.027 69.6277 115.026 88.126C121.024 106.624 117.985 124.449 108.512 130.389C109.624 130.306 110.721 130.165 111.756 129.796C123.576 125.985 127.828 106.395 121.225 86.0971L121.261 86.1181Z" fill="black"/>
<path d="M106.84 130.438L108.121 129.727C117.417 123.926 120.061 106.115 114.319 88.3453C108.577 70.5752 95.9731 57.7389 85.0488 58.49L83.2774 58.6275L84.6084 57.0755C85.7385 56.3743 86.7429 55.8906 87.7571 55.5576C99.9628 51.5821 115.351 65.2045 122.062 85.9027C128.773 106.601 124.27 126.626 112.064 130.601C111.05 130.934 109.969 131.132 108.613 131.22L106.892 130.516L106.84 130.438ZM120.518 86.3165C114.094 66.4608 99.5605 53.2836 88.1764 57.0083C88.1764 57.0083 88.0983 57.0599 88.062 57.039C98.9661 58.5 110.232 70.8057 115.754 87.8687C121.276 104.932 119.38 121.531 111.385 129.098C111.385 129.098 111.463 129.046 111.5 129.067C122.92 125.363 126.921 106.208 120.497 86.3527L120.518 86.3165Z" fill="#17273F"/>
<path d="M118.806 80.1555L112.742 82.1175L107.467 72.4972L99.8668 63.8066L91.1399 58.5747L84.964 57.7162L90.177 55.5532L97.5622 56.578L104.514 60.4466L111.989 68.0981L118.216 78.4132L118.806 80.1555Z" fill="#191410"/>
<path d="M71.9607 107.787L62.2047 110.952L67.5279 121.326L74.0288 130.832L84.4648 139.468L95.0093 143.478L101.257 143.459L108.824 140.818L97.445 138.84L87.1205 130.849L76.5507 117.254L71.9607 107.787Z" fill="#17273F"/>
<path d="M69.4924 101.093L59.8924 104.156L58.7961 99.6071L68.8593 96.3283L69.4924 101.093Z" fill="#17273F"/>
<g clip-path="url(#clip0_3_89057)">
<path d="M100.322 104.966L104.731 99.9275C104.844 99.7981 104.915 99.6092 104.935 99.3805C104.955 99.1517 104.925 98.8917 104.847 98.6277L101.816 88.353C101.741 88.097 101.624 87.846 101.475 87.6249C101.327 87.4038 101.154 87.2201 100.972 87.0921L93.7426 82.0033C93.3718 81.7422 93.0077 81.7397 92.7852 81.9956L88.3768 87.0339C88.2624 87.1621 88.1911 87.3506 88.1705 87.5794C88.1499 87.8083 88.1808 88.0687 88.2598 88.333L91.29 98.6077C91.3653 98.8637 91.4828 99.1146 91.6309 99.3358C91.779 99.5569 91.9526 99.7405 92.1346 99.8685L99.3637 104.957C99.5458 105.086 99.73 105.154 99.8981 105.155C100.066 105.157 100.212 105.092 100.322 104.966ZM92.9615 97.7367L90.4367 89.1747L94.1101 84.9758L100.145 89.2239L102.67 97.786L98.9963 101.985L92.9615 97.7367Z" fill="#37F2AD"/>
<path d="M94.3661 78.3711L103.915 85.0929L107.041 95.7069L108.962 95.6791L105.587 84.2226C105.512 83.9665 105.394 83.7154 105.246 83.4942C105.098 83.2729 104.924 83.0892 104.742 82.9611L94.5958 75.8189C94.4474 74.9231 94.1063 73.9972 93.6192 73.1684C93.1321 72.3396 92.5229 71.6485 91.8752 71.1899C90.1423 69.9701 88.5775 70.695 88.3876 72.8056C88.1976 74.9163 89.4532 77.6266 91.1861 78.8465C91.8342 79.3 92.4878 79.4978 93.0571 79.4127C93.6265 79.3276 94.0837 78.9638 94.3661 78.3711ZM90.4829 74.2807C90.5246 73.9606 90.6682 73.7318 90.8838 73.6419C91.0994 73.5519 91.3704 73.6078 91.6405 73.7979C91.9105 73.988 92.1587 74.2976 92.3334 74.6623C92.5081 75.027 92.5958 75.4186 92.5783 75.7557C92.5367 76.0758 92.3931 76.3046 92.1775 76.3945C91.9619 76.4845 91.6908 76.4286 91.4208 76.2385C91.1508 76.0484 90.9026 75.7388 90.7279 75.3741C90.5532 75.0094 90.4654 74.6177 90.4829 74.2807ZM92.1468 105.305C92.3368 103.194 91.0812 100.484 89.3483 99.2639C88.9785 99.0036 88.6203 98.8491 88.2773 98.761L84.1507 84.7496L88.8508 79.3682L87.1635 76.8005L82.0908 82.6088C81.9771 82.7377 81.9062 82.9263 81.8854 83.1547C81.8646 83.3832 81.8948 83.6431 81.9728 83.9071L86.4912 99.246C86.1577 99.6219 85.9251 100.164 85.8606 100.88C85.6707 102.99 86.9263 105.701 88.6592 106.92C90.3921 108.14 91.9569 107.415 92.1468 105.305ZM87.956 102.355C87.9977 102.035 88.1413 101.806 88.3569 101.716C88.5725 101.626 88.8435 101.682 89.1136 101.872C89.3836 102.062 89.6318 102.372 89.8065 102.736C89.9812 103.101 90.0689 103.493 90.0514 103.83C90.0098 104.15 89.8662 104.379 89.6506 104.469C89.435 104.558 89.1639 104.503 88.8939 104.312C88.6239 104.122 88.3757 103.813 88.201 103.448C88.0263 103.083 87.9385 102.692 87.956 102.355ZM107.03 100.855C106.946 101.788 107.156 102.833 107.552 103.819L101.617 110.614L94.3571 105.504L94.1274 108.056L101.985 113.587C102.167 113.715 102.351 113.784 102.519 113.785C102.688 113.787 102.834 113.721 102.944 113.596L109.231 106.397C109.423 106.581 109.621 106.75 109.829 106.896C111.562 108.116 113.127 107.391 113.317 105.281C113.507 103.17 112.251 100.46 110.518 99.2397C108.785 98.0199 107.22 98.7448 107.03 100.855ZM111.221 103.806C111.199 104.058 111.115 104.262 110.981 104.392C110.847 104.521 110.668 104.569 110.468 104.531C110.268 104.493 110.054 104.37 109.855 104.178C109.656 103.985 109.48 103.732 109.349 103.45C109.219 103.168 109.139 102.87 109.121 102.593C109.103 102.317 109.147 102.075 109.248 101.897C109.348 101.72 109.501 101.615 109.686 101.596C109.871 101.577 110.081 101.646 110.288 101.792C110.867 102.199 111.284 103.102 111.221 103.806Z" fill="#37F2AD"/>
</g>
<defs>
<clipPath id="clip0_3_89057">
<rect width="41" height="41" fill="white" transform="matrix(-0.0896464 0.995974 -0.817715 -0.575623 116.202 85.6006)"/>
</clipPath>
</defs>
</svg>
