<svg width="322" height="315" viewBox="0 0 322 315" fill="none" xmlns="http://www.w3.org/2000/svg">
<path d="M184.804 225.462C199.566 209.035 203.49 176.753 192.813 143.719C182.137 110.685 159.985 86.8606 138.359 82.2115L136.893 77.6863L121.038 82.8472C95.0582 91.2789 85.0317 132.192 98.6404 174.276C112.248 216.36 144.401 243.639 170.38 235.208L186.235 230.047L184.77 225.522L184.804 225.462Z" fill="black"/>
<path d="M97.4103 174.606C83.5896 131.92 94.0062 90.1923 120.648 81.5833L137.768 76.0329L139.42 81.0656C161.757 86.2847 183.689 111.182 194.052 143.236C204.475 175.323 201.347 208.304 186.28 225.675L187.933 230.708L170.814 236.258C144.171 244.867 111.3 217.172 97.4446 174.546L97.4103 174.606ZM136.052 79.2809L121.402 84.0176C96.1191 92.2118 86.4388 132.525 99.8442 173.853C113.25 215.18 144.707 242.138 169.99 233.944L184.641 229.207L183.362 225.189L183.828 224.659C198.66 208.112 201.81 175.784 191.574 144.204C181.337 112.624 159.842 88.2176 138.095 83.4992L137.391 83.3329L136.112 79.3155L136.052 79.2809Z" fill="#17273F"/>
<path d="M186.27 229.988C160.29 238.419 128.138 211.14 114.53 169.056C100.921 126.972 110.948 86.0586 136.928 77.627C162.908 69.1955 195.06 96.4751 208.668 138.559C222.277 180.643 212.249 221.556 186.27 229.988Z" fill="black"/>
<path d="M182.534 231.193C156.554 239.626 124.402 212.346 110.794 170.262C97.1855 128.178 107.212 87.2645 133.192 78.8328C159.172 70.4013 191.324 97.6809 204.932 139.765C218.541 181.848 208.514 222.762 182.534 231.193Z" fill="#1BF3A4"/>
<path d="M113.263 169.446C99.4425 126.76 109.859 85.0322 136.501 76.4232C163.143 67.8141 196.015 95.5092 209.87 138.135C223.691 180.821 213.273 222.549 186.632 231.158C159.99 239.768 127.118 212.072 113.263 169.446ZM207.401 138.949C193.996 97.6221 162.538 70.6635 137.255 78.8576C111.972 87.0517 102.292 127.365 115.697 168.692C129.103 210.02 160.561 236.978 185.844 228.784C211.127 220.59 220.807 180.276 207.401 138.949Z" fill="#17273F"/>
<path d="M183.385 213.93C163.832 220.233 139.156 198.15 128.232 164.574C117.309 130.998 124.403 98.6275 143.896 92.2889C163.45 85.9848 188.126 108.068 199.049 141.644C209.972 175.221 202.879 207.591 183.385 213.93Z" fill="black"/>
<path d="M127.028 164.997C115.927 130.759 123.376 97.6336 143.567 91.0575C163.757 84.4814 189.213 107.015 200.313 141.254C211.414 175.492 203.965 208.617 183.774 215.193C163.584 221.77 138.128 199.236 127.028 164.997ZM197.844 142.067C187.219 109.223 163.177 87.4253 144.38 93.5265C125.489 99.6531 118.871 131.339 129.497 164.183C140.122 197.029 164.164 218.825 183.021 212.759C201.912 206.632 208.53 174.946 197.904 142.102L197.844 142.067Z" fill="#17273F"/>
<path d="M199.108 141.679C188.185 108.103 163.544 85.9592 143.955 92.3233C142.183 92.8996 140.582 93.7342 139.066 94.6981C157.54 93.4489 178.871 114.401 188.794 145C198.716 175.6 193.689 205.085 178.019 214.911C179.858 214.773 181.672 214.541 183.384 213.93C202.938 207.626 209.971 175.22 199.048 141.644L199.108 141.679Z" fill="black"/>
<path d="M175.254 214.992L177.372 213.816C192.748 204.22 197.123 174.758 187.624 145.363C178.126 115.968 157.277 94.7349 139.207 95.9773L136.276 96.2048L138.478 93.6376C140.347 92.4777 142.009 91.6775 143.686 91.1267C163.877 84.5506 189.332 107.084 200.433 141.323C211.534 175.561 204.085 208.686 183.894 215.262C182.217 215.813 180.429 216.14 178.186 216.285L175.339 215.121L175.254 214.992ZM197.879 142.007C187.253 109.163 163.211 87.3651 144.38 93.5264C144.38 93.5264 144.251 93.6118 144.191 93.5772C162.228 95.994 180.864 116.35 189.999 144.575C199.133 172.8 195.996 200.257 182.771 212.775C182.771 212.775 182.901 212.689 182.961 212.724C201.852 206.597 208.47 174.912 197.844 142.067L197.879 142.007Z" fill="#17273F"/>
<path d="M195.047 131.816L185.016 135.061L176.291 119.148L163.718 104.772L149.282 96.1176L139.066 94.6974L147.69 91.1195L159.906 92.8146L171.406 99.214L183.771 111.871L194.072 128.934L195.047 131.816Z" fill="#191410"/>
<path d="M117.556 177.523L101.418 182.759L110.224 199.919L120.977 215.644L138.24 229.929L155.683 236.562L166.017 236.53L178.535 232.162L159.712 228.891L142.633 215.672L125.149 193.183L117.556 177.523Z" fill="#17273F"/>
<path d="M113.474 166.45L97.5936 171.517L95.7802 163.992L112.426 158.568L113.474 166.45Z" fill="#17273F"/>
<g clip-path="url(#clip0_3_89089)">
<path d="M164.472 172.856L171.764 164.522C171.952 164.308 172.068 163.995 172.102 163.617C172.136 163.239 172.085 162.808 171.956 162.372L166.943 145.376C166.819 144.952 166.625 144.537 166.38 144.171C166.134 143.805 165.847 143.502 165.546 143.29L153.588 134.872C152.975 134.44 152.372 134.436 152.004 134.859L144.712 143.194C144.523 143.406 144.405 143.717 144.371 144.096C144.337 144.474 144.388 144.905 144.518 145.342L149.531 162.339C149.655 162.762 149.85 163.177 150.095 163.543C150.34 163.909 150.627 164.213 150.928 164.424L162.886 172.842C163.188 173.054 163.492 173.167 163.77 173.17C164.048 173.172 164.29 173.064 164.472 172.856ZM152.296 160.898L148.119 146.735L154.196 139.789L164.178 146.816L168.355 160.979L162.278 167.925L152.296 160.898Z" fill="#37F2AD"/>
<path d="M154.619 128.864L170.414 139.983L175.586 157.54L178.764 157.494L173.181 138.543C173.056 138.12 172.862 137.704 172.616 137.338C172.371 136.972 172.083 136.668 171.782 136.456L154.999 124.642C154.754 123.16 154.189 121.629 153.384 120.258C152.578 118.887 151.57 117.744 150.499 116.985C147.632 114.967 145.044 116.166 144.73 119.658C144.415 123.149 146.492 127.632 149.359 129.65C150.431 130.4 151.512 130.728 152.454 130.587C153.396 130.446 154.152 129.844 154.619 128.864ZM148.196 122.098C148.265 121.568 148.502 121.19 148.859 121.041C149.216 120.892 149.664 120.985 150.111 121.299C150.557 121.613 150.968 122.126 151.257 122.729C151.546 123.332 151.691 123.98 151.662 124.537C151.593 125.067 151.356 125.445 150.999 125.594C150.642 125.743 150.194 125.651 149.747 125.336C149.3 125.022 148.89 124.509 148.601 123.906C148.312 123.303 148.167 122.655 148.196 122.098ZM150.948 173.417C151.262 169.925 149.185 165.442 146.319 163.424C145.707 162.994 145.115 162.738 144.547 162.592L137.721 139.415L145.496 130.513L142.705 126.266L134.314 135.874C134.126 136.087 134.008 136.399 133.974 136.777C133.94 137.155 133.99 137.585 134.118 138.021L141.593 163.395C141.041 164.016 140.656 164.913 140.55 166.097C140.235 169.588 142.312 174.072 145.179 176.089C148.045 178.107 150.634 176.908 150.948 173.417ZM144.016 168.537C144.085 168.007 144.322 167.629 144.679 167.48C145.036 167.331 145.484 167.424 145.931 167.738C146.377 168.053 146.788 168.565 147.077 169.168C147.366 169.771 147.511 170.419 147.482 170.977C147.413 171.506 147.176 171.885 146.819 172.034C146.462 172.182 146.014 172.09 145.567 171.775C145.121 171.461 144.71 170.949 144.421 170.345C144.132 169.742 143.987 169.094 144.016 168.537ZM175.568 166.057C175.429 167.6 175.777 169.328 176.432 170.959L166.613 182.199L154.604 173.746L154.224 177.968L167.222 187.117C167.524 187.33 167.828 187.442 168.106 187.445C168.384 187.447 168.626 187.339 168.808 187.131L179.208 175.223C179.526 175.527 179.854 175.808 180.197 176.049C183.064 178.067 185.652 176.868 185.967 173.377C186.281 169.885 184.204 165.402 181.337 163.384C178.471 161.366 175.882 162.565 175.568 166.057ZM182.5 170.937C182.463 171.355 182.325 171.692 182.103 171.906C181.881 172.12 181.586 172.2 181.254 172.137C180.923 172.074 180.57 171.871 180.241 171.552C179.911 171.234 179.62 170.815 179.404 170.348C179.188 169.882 179.057 169.389 179.027 168.932C178.997 168.474 179.07 168.074 179.236 167.78C179.402 167.486 179.654 167.313 179.961 167.282C180.267 167.251 180.614 167.364 180.957 167.606C181.914 168.279 182.605 169.774 182.5 170.937Z" fill="#37F2AD"/>
</g>
<defs>
<clipPath id="clip0_3_89089">
<rect width="67.8212" height="67.8212" fill="white" transform="matrix(-0.0896464 0.995974 -0.817715 -0.575623 190.74 140.823)"/>
</clipPath>
</defs>
</svg>
