<svg width="357" height="325" viewBox="0 0 357 325" fill="none" xmlns="http://www.w3.org/2000/svg">
<path d="M173.382 2.68987C176.586 1.00584 180.414 1.00585 183.618 2.68988L327.203 78.1583C330.82 80.0594 333.086 83.809 333.086 87.8953V237.105C333.086 241.191 330.82 244.941 327.203 246.842L183.618 322.31C180.414 323.994 176.586 323.994 173.382 322.31L29.7967 246.842C26.1796 244.941 23.9145 241.191 23.9145 237.105V87.8953C23.9145 83.809 26.1796 80.0594 29.7967 78.1583L173.382 2.68987Z" fill="#162C4B"/>
<g filter="url(#filter0_d_3_88434)">
<path d="M173.361 44.3825C176.576 42.6832 180.424 42.6832 183.639 44.3825L285.656 98.2919C289.261 100.197 291.516 103.94 291.516 108.017V214.205C291.516 218.282 289.261 222.025 285.656 223.93L183.639 277.84C180.424 279.539 176.576 279.539 173.361 277.84L71.3443 223.93C67.7392 222.025 65.4837 218.282 65.4837 214.205V108.017C65.4837 103.94 67.7392 100.197 71.3443 98.2919L173.361 44.3825Z" fill="#0F213C"/>
</g>
<path d="M119.428 145.778V136.748H117.426V135.348H121.066V145.778H119.428ZM132.83 145.946C132.092 145.946 131.406 145.81 130.772 145.54C130.146 145.269 129.6 144.896 129.134 144.42C128.676 143.934 128.317 143.365 128.056 142.712C127.794 142.058 127.664 141.34 127.664 140.556C127.664 139.781 127.79 139.067 128.042 138.414C128.303 137.751 128.667 137.182 129.134 136.706C129.6 136.22 130.146 135.847 130.772 135.586C131.397 135.315 132.083 135.18 132.83 135.18C133.567 135.18 134.225 135.306 134.804 135.558C135.392 135.81 135.886 136.141 136.288 136.552C136.689 136.953 136.978 137.392 137.156 137.868L135.672 138.568C135.448 138.008 135.088 137.555 134.594 137.21C134.108 136.855 133.52 136.678 132.83 136.678C132.139 136.678 131.528 136.841 130.996 137.168C130.464 137.494 130.048 137.947 129.75 138.526C129.46 139.104 129.316 139.781 129.316 140.556C129.316 141.33 129.46 142.012 129.75 142.6C130.048 143.178 130.464 143.631 130.996 143.958C131.528 144.275 132.139 144.434 132.83 144.434C133.52 144.434 134.108 144.261 134.594 143.916C135.088 143.57 135.448 143.118 135.672 142.558L137.156 143.258C136.978 143.724 136.689 144.163 136.288 144.574C135.886 144.984 135.392 145.316 134.804 145.568C134.225 145.82 133.567 145.946 132.83 145.946ZM139.854 145.778V135.348H144.25C144.904 135.348 145.468 135.464 145.944 135.698C146.42 135.922 146.784 136.248 147.036 136.678C147.288 137.098 147.414 137.597 147.414 138.176C147.414 138.68 147.284 139.142 147.022 139.562C146.77 139.972 146.374 140.299 145.832 140.542V139.842C146.308 140.028 146.696 140.266 146.994 140.556C147.293 140.836 147.508 141.153 147.638 141.508C147.778 141.862 147.848 142.236 147.848 142.628C147.848 143.608 147.526 144.378 146.882 144.938C146.248 145.498 145.375 145.778 144.264 145.778H139.854ZM141.506 144.308H144.39C144.941 144.308 145.38 144.158 145.706 143.86C146.033 143.552 146.196 143.146 146.196 142.642C146.196 142.128 146.033 141.722 145.706 141.424C145.38 141.116 144.941 140.962 144.39 140.962H141.506V144.308ZM141.506 139.506H144.292C144.74 139.506 145.1 139.38 145.37 139.128C145.641 138.866 145.776 138.526 145.776 138.106C145.776 137.686 145.641 137.359 145.37 137.126C145.1 136.892 144.74 136.776 144.292 136.776H141.506V139.506ZM152.122 145.778V136.818H149.35V135.348H156.49V136.818H153.76V145.778H152.122ZM162.439 141.424V140.024H168.739V141.424H162.439ZM162.439 144.784V143.384H168.739V144.784H162.439ZM176.988 145.778V136.748H174.986V135.348H178.626V145.778H176.988ZM187.38 145.778V136.818H184.608V135.348H191.748V136.818H189.018V145.778H187.38ZM198.627 145.946C197.871 145.946 197.167 145.81 196.513 145.54C195.869 145.269 195.3 144.891 194.805 144.406C194.32 143.92 193.937 143.351 193.657 142.698C193.387 142.044 193.251 141.33 193.251 140.556C193.251 139.781 193.387 139.067 193.657 138.414C193.937 137.751 194.32 137.182 194.805 136.706C195.291 136.22 195.86 135.847 196.513 135.586C197.167 135.315 197.871 135.18 198.627 135.18C199.393 135.18 200.097 135.315 200.741 135.586C201.395 135.847 201.964 136.22 202.449 136.706C202.944 137.191 203.327 137.76 203.597 138.414C203.868 139.067 204.003 139.781 204.003 140.556C204.003 141.33 203.863 142.044 203.583 142.698C203.313 143.351 202.935 143.92 202.449 144.406C201.964 144.891 201.395 145.269 200.741 145.54C200.088 145.81 199.383 145.946 198.627 145.946ZM198.627 144.434C199.169 144.434 199.663 144.336 200.111 144.14C200.569 143.944 200.965 143.673 201.301 143.328C201.637 142.973 201.899 142.562 202.085 142.096C202.272 141.62 202.365 141.106 202.365 140.556C202.365 140.005 202.272 139.496 202.085 139.03C201.899 138.563 201.637 138.152 201.301 137.798C200.965 137.443 200.569 137.168 200.111 136.972C199.663 136.776 199.169 136.678 198.627 136.678C198.086 136.678 197.587 136.776 197.129 136.972C196.681 137.168 196.289 137.443 195.953 137.798C195.617 138.152 195.356 138.563 195.169 139.03C194.992 139.496 194.903 140.005 194.903 140.556C194.903 141.106 194.992 141.62 195.169 142.096C195.356 142.562 195.617 142.973 195.953 143.328C196.289 143.673 196.686 143.944 197.143 144.14C197.601 144.336 198.095 144.434 198.627 144.434ZM206.85 145.778V135.348H208.18L214.032 143.426L213.402 143.524V135.348H215.04V145.778H213.71L207.9 137.644L208.502 137.532V145.778H206.85ZM226.715 145.946C225.959 145.946 225.255 145.81 224.601 145.54C223.957 145.269 223.388 144.891 222.893 144.406C222.408 143.92 222.025 143.351 221.745 142.698C221.475 142.044 221.339 141.33 221.339 140.556C221.339 139.781 221.475 139.067 221.745 138.414C222.025 137.751 222.408 137.182 222.893 136.706C223.379 136.22 223.948 135.847 224.601 135.586C225.255 135.315 225.959 135.18 226.715 135.18C227.481 135.18 228.185 135.315 228.829 135.586C229.483 135.847 230.052 136.22 230.537 136.706C231.032 137.191 231.415 137.76 231.685 138.414C231.956 139.067 232.091 139.781 232.091 140.556C232.091 141.33 231.951 142.044 231.671 142.698C231.401 143.351 231.023 143.92 230.537 144.406C230.052 144.891 229.483 145.269 228.829 145.54C228.176 145.81 227.471 145.946 226.715 145.946ZM226.715 144.434C227.257 144.434 227.751 144.336 228.199 144.14C228.657 143.944 229.053 143.673 229.389 143.328C229.725 142.973 229.987 142.562 230.173 142.096C230.36 141.62 230.453 141.106 230.453 140.556C230.453 140.005 230.36 139.496 230.173 139.03C229.987 138.563 229.725 138.152 229.389 137.798C229.053 137.443 228.657 137.168 228.199 136.972C227.751 136.776 227.257 136.678 226.715 136.678C226.174 136.678 225.675 136.776 225.217 136.972C224.769 137.168 224.377 137.443 224.041 137.798C223.705 138.152 223.444 138.563 223.257 139.03C223.08 139.496 222.991 140.005 222.991 140.556C222.991 141.106 223.08 141.62 223.257 142.096C223.444 142.562 223.705 142.973 224.041 143.328C224.377 143.673 224.774 143.944 225.231 144.14C225.689 144.336 226.183 144.434 226.715 144.434ZM234.938 145.778V135.348H241.728V136.818H236.59V139.954H241.168V141.424H236.59V145.778H234.938ZM100.926 169.778L97.2302 159.348H99.0082L102.032 168.252H101.682L104.692 159.348H106.47L102.774 169.778H100.926ZM108.697 169.778V159.348H115.571V160.818H110.349V163.814H115.291V165.284H110.349V168.308H115.571V169.778H108.697ZM118.105 169.778V159.348H121.899C122.599 159.348 123.215 159.478 123.747 159.74C124.279 159.992 124.695 160.365 124.993 160.86C125.301 161.345 125.455 161.928 125.455 162.61C125.455 163.328 125.273 163.944 124.909 164.458C124.555 164.971 124.074 165.344 123.467 165.578L125.875 169.778H123.999L121.437 165.228L122.515 165.858H119.757V169.778H118.105ZM119.757 164.388H121.927C122.31 164.388 122.641 164.313 122.921 164.164C123.201 164.014 123.416 163.809 123.565 163.548C123.724 163.277 123.803 162.96 123.803 162.596C123.803 162.232 123.724 161.919 123.565 161.658C123.416 161.387 123.201 161.182 122.921 161.042C122.641 160.892 122.31 160.818 121.927 160.818H119.757V164.388ZM128.266 169.778V159.348H129.918V169.778H128.266ZM133.08 169.778V159.348H139.87V160.818H134.732V163.954H139.31V165.424H134.732V169.778H133.08ZM142.256 169.778V159.348H143.908V169.778H142.256ZM147.07 169.778V159.348H153.944V160.818H148.722V163.814H153.664V165.284H148.722V168.308H153.944V169.778H147.07ZM156.478 169.778V159.348H159.894C160.977 159.348 161.915 159.567 162.708 160.006C163.511 160.435 164.132 161.042 164.57 161.826C165.009 162.61 165.228 163.52 165.228 164.556C165.228 165.582 165.009 166.492 164.57 167.286C164.132 168.07 163.511 168.681 162.708 169.12C161.915 169.558 160.977 169.778 159.894 169.778H156.478ZM158.13 168.308H159.922C160.66 168.308 161.299 168.154 161.84 167.846C162.391 167.538 162.816 167.104 163.114 166.544C163.413 165.984 163.562 165.321 163.562 164.556C163.562 163.79 163.408 163.132 163.1 162.582C162.802 162.022 162.382 161.588 161.84 161.28C161.299 160.972 160.66 160.818 159.922 160.818H158.13V168.308ZM174.075 169.778L170.379 159.348H172.157L175.181 168.252H174.831L177.841 159.348H179.619L175.923 169.778H174.075ZM186.64 169.946C185.884 169.946 185.179 169.81 184.526 169.54C183.882 169.269 183.313 168.891 182.818 168.406C182.333 167.92 181.95 167.351 181.67 166.698C181.399 166.044 181.264 165.33 181.264 164.556C181.264 163.781 181.399 163.067 181.67 162.414C181.95 161.751 182.333 161.182 182.818 160.706C183.303 160.22 183.873 159.847 184.526 159.586C185.179 159.315 185.884 159.18 186.64 159.18C187.405 159.18 188.11 159.315 188.754 159.586C189.407 159.847 189.977 160.22 190.462 160.706C190.957 161.191 191.339 161.76 191.61 162.414C191.881 163.067 192.016 163.781 192.016 164.556C192.016 165.33 191.876 166.044 191.596 166.698C191.325 167.351 190.947 167.92 190.462 168.406C189.977 168.891 189.407 169.269 188.754 169.54C188.101 169.81 187.396 169.946 186.64 169.946ZM186.64 168.434C187.181 168.434 187.676 168.336 188.124 168.14C188.581 167.944 188.978 167.673 189.314 167.328C189.65 166.973 189.911 166.562 190.098 166.096C190.285 165.62 190.378 165.106 190.378 164.556C190.378 164.005 190.285 163.496 190.098 163.03C189.911 162.563 189.65 162.152 189.314 161.798C188.978 161.443 188.581 161.168 188.124 160.972C187.676 160.776 187.181 160.678 186.64 160.678C186.099 160.678 185.599 160.776 185.142 160.972C184.694 161.168 184.302 161.443 183.966 161.798C183.63 162.152 183.369 162.563 183.182 163.03C183.005 163.496 182.916 164.005 182.916 164.556C182.916 165.106 183.005 165.62 183.182 166.096C183.369 166.562 183.63 166.973 183.966 167.328C184.302 167.673 184.699 167.944 185.156 168.14C185.613 168.336 186.108 168.434 186.64 168.434ZM194.863 169.778V159.348H196.515V168.308H201.023V169.778H194.863ZM207.043 169.946C206.268 169.946 205.577 169.782 204.971 169.456C204.373 169.129 203.902 168.681 203.557 168.112C203.221 167.542 203.053 166.894 203.053 166.166V159.348H204.705V166.096C204.705 166.553 204.803 166.959 204.999 167.314C205.204 167.668 205.479 167.944 205.825 168.14C206.179 168.336 206.585 168.434 207.043 168.434C207.509 168.434 207.915 168.336 208.261 168.14C208.615 167.944 208.891 167.668 209.087 167.314C209.292 166.959 209.395 166.553 209.395 166.096V159.348H211.033V166.166C211.033 166.894 210.865 167.542 210.529 168.112C210.193 168.681 209.721 169.129 209.115 169.456C208.517 169.782 207.827 169.946 207.043 169.946ZM214.103 169.778V159.348H215.433L221.285 167.426L220.655 167.524V159.348H222.293V169.778H220.963L215.153 161.644L215.755 161.532V169.778H214.103ZM227.301 169.778V160.818H224.529V159.348H231.669V160.818H228.939V169.778H227.301ZM232.283 169.778L235.951 159.348H237.995L241.663 169.778H239.899L239.101 167.44H234.859L234.047 169.778H232.283ZM235.335 165.97H238.597L236.749 160.51H237.211L235.335 165.97ZM243.9 169.778V159.348H247.694C248.394 159.348 249.01 159.478 249.542 159.74C250.074 159.992 250.49 160.365 250.788 160.86C251.096 161.345 251.25 161.928 251.25 162.61C251.25 163.328 251.068 163.944 250.704 164.458C250.35 164.971 249.869 165.344 249.262 165.578L251.67 169.778H249.794L247.232 165.228L248.31 165.858H245.552V169.778H243.9ZM245.552 164.388H247.722C248.105 164.388 248.436 164.313 248.716 164.164C248.996 164.014 249.211 163.809 249.36 163.548C249.519 163.277 249.598 162.96 249.598 162.596C249.598 162.232 249.519 161.919 249.36 161.658C249.211 161.387 248.996 161.182 248.716 161.042C248.436 160.892 248.105 160.818 247.722 160.818H245.552V164.388ZM256.57 169.778V165.074L253 159.348H254.862L257.718 163.982H257.06L259.902 159.348H261.764L258.208 165.074V169.778H256.57ZM152.401 193.946C151.664 193.946 150.978 193.81 150.343 193.54C149.718 193.269 149.172 192.896 148.705 192.42C148.248 191.934 147.888 191.365 147.627 190.712C147.366 190.058 147.235 189.34 147.235 188.556C147.235 187.781 147.361 187.067 147.613 186.414C147.874 185.751 148.238 185.182 148.705 184.706C149.172 184.22 149.718 183.847 150.343 183.586C150.968 183.315 151.654 183.18 152.401 183.18C153.138 183.18 153.796 183.306 154.375 183.558C154.963 183.81 155.458 184.141 155.859 184.552C156.26 184.953 156.55 185.392 156.727 185.868L155.243 186.568C155.019 186.008 154.66 185.555 154.165 185.21C153.68 184.855 153.092 184.678 152.401 184.678C151.71 184.678 151.099 184.841 150.567 185.168C150.035 185.494 149.62 185.947 149.321 186.526C149.032 187.104 148.887 187.781 148.887 188.556C148.887 189.33 149.032 190.012 149.321 190.6C149.62 191.178 150.035 191.631 150.567 191.958C151.099 192.275 151.71 192.434 152.401 192.434C153.092 192.434 153.68 192.261 154.165 191.916C154.66 191.57 155.019 191.118 155.243 190.558L156.727 191.258C156.55 191.724 156.26 192.163 155.859 192.574C155.458 192.984 154.963 193.316 154.375 193.568C153.796 193.82 153.138 193.946 152.401 193.946ZM158.502 193.778L162.17 183.348H164.214L167.882 193.778H166.118L165.32 191.44H161.078L160.266 193.778H158.502ZM161.554 189.97H164.816L162.968 184.51H163.43L161.554 189.97ZM170.119 193.778V183.348H173.913C174.613 183.348 175.229 183.478 175.761 183.74C176.293 183.992 176.708 184.365 177.007 184.86C177.315 185.345 177.469 185.928 177.469 186.61C177.469 187.328 177.287 187.944 176.923 188.458C176.568 188.971 176.088 189.344 175.481 189.578L177.889 193.778H176.013L173.451 189.228L174.529 189.858H171.771V193.778H170.119ZM171.771 188.388H173.941C174.324 188.388 174.655 188.313 174.935 188.164C175.215 188.014 175.43 187.809 175.579 187.548C175.738 187.277 175.817 186.96 175.817 186.596C175.817 186.232 175.738 185.919 175.579 185.658C175.43 185.387 175.215 185.182 174.935 185.042C174.655 184.892 174.324 184.818 173.941 184.818H171.771V188.388ZM180.279 193.778V183.348H184.675C185.329 183.348 185.893 183.464 186.369 183.698C186.845 183.922 187.209 184.248 187.461 184.678C187.713 185.098 187.839 185.597 187.839 186.176C187.839 186.68 187.709 187.142 187.447 187.562C187.195 187.972 186.799 188.299 186.257 188.542V187.842C186.733 188.028 187.121 188.266 187.419 188.556C187.718 188.836 187.933 189.153 188.063 189.508C188.203 189.862 188.273 190.236 188.273 190.628C188.273 191.608 187.951 192.378 187.307 192.938C186.673 193.498 185.8 193.778 184.689 193.778H180.279ZM181.931 192.308H184.815C185.366 192.308 185.805 192.158 186.131 191.86C186.458 191.552 186.621 191.146 186.621 190.642C186.621 190.128 186.458 189.722 186.131 189.424C185.805 189.116 185.366 188.962 184.815 188.962H181.931V192.308ZM181.931 187.506H184.717C185.165 187.506 185.525 187.38 185.795 187.128C186.066 186.866 186.201 186.526 186.201 186.106C186.201 185.686 186.066 185.359 185.795 185.126C185.525 184.892 185.165 184.776 184.717 184.776H181.931V187.506ZM196.041 193.946C195.285 193.946 194.58 193.81 193.927 193.54C193.283 193.269 192.713 192.891 192.219 192.406C191.733 191.92 191.351 191.351 191.071 190.698C190.8 190.044 190.665 189.33 190.665 188.556C190.665 187.781 190.8 187.067 191.071 186.414C191.351 185.751 191.733 185.182 192.219 184.706C192.704 184.22 193.273 183.847 193.927 183.586C194.58 183.315 195.285 183.18 196.041 183.18C196.806 183.18 197.511 183.315 198.155 183.586C198.808 183.847 199.377 184.22 199.863 184.706C200.357 185.191 200.74 185.76 201.011 186.414C201.281 187.067 201.417 187.781 201.417 188.556C201.417 189.33 201.277 190.044 200.997 190.698C200.726 191.351 200.348 191.92 199.863 192.406C199.377 192.891 198.808 193.269 198.155 193.54C197.501 193.81 196.797 193.946 196.041 193.946ZM196.041 192.434C196.582 192.434 197.077 192.336 197.525 192.14C197.982 191.944 198.379 191.673 198.715 191.328C199.051 190.973 199.312 190.562 199.499 190.096C199.685 189.62 199.779 189.106 199.779 188.556C199.779 188.005 199.685 187.496 199.499 187.03C199.312 186.563 199.051 186.152 198.715 185.798C198.379 185.443 197.982 185.168 197.525 184.972C197.077 184.776 196.582 184.678 196.041 184.678C195.499 184.678 195 184.776 194.543 184.972C194.095 185.168 193.703 185.443 193.367 185.798C193.031 186.152 192.769 186.563 192.583 187.03C192.405 187.496 192.317 188.005 192.317 188.556C192.317 189.106 192.405 189.62 192.583 190.096C192.769 190.562 193.031 190.973 193.367 191.328C193.703 191.673 194.099 191.944 194.557 192.14C195.014 192.336 195.509 192.434 196.041 192.434ZM204.264 193.778V183.348H205.594L211.446 191.426L210.816 191.524V183.348H212.454V193.778H211.124L205.314 185.644L205.916 185.532V193.778H204.264Z" fill="white"/>
<defs>
<filter id="filter0_d_3_88434" x="56.4836" y="34.108" width="244.033" height="254.006" filterUnits="userSpaceOnUse" color-interpolation-filters="sRGB">
<feFlood flood-opacity="0" result="BackgroundImageFix"/>
<feColorMatrix in="SourceAlpha" type="matrix" values="0 0 0 0 0 0 0 0 0 0 0 0 0 0 0 0 0 0 127 0" result="hardAlpha"/>
<feOffset/>
<feGaussianBlur stdDeviation="4.5"/>
<feComposite in2="hardAlpha" operator="out"/>
<feColorMatrix type="matrix" values="0 0 0 0 0.215686 0 0 0 0 0.94902 0 0 0 0 0.678431 0 0 0 1 0"/>
<feBlend mode="normal" in2="BackgroundImageFix" result="effect1_dropShadow_3_88434"/>
<feBlend mode="normal" in="SourceGraphic" in2="effect1_dropShadow_3_88434" result="shape"/>
</filter>
</defs>
</svg>
