<svg width="388" height="356" viewBox="0 0 388 356" fill="none" xmlns="http://www.w3.org/2000/svg">
<rect x="11.3653" y="0.365306" width="363.269" height="354.568" rx="14.2469" fill="#16263E"/>
<path d="M28.2397 34.615C27.5383 34.615 26.8895 34.4878 26.2933 34.2336C25.7059 33.9793 25.1886 33.6243 24.7415 33.1684C24.3031 32.7125 23.9612 32.1776 23.7157 31.5639C23.4702 30.9502 23.3475 30.2795 23.3475 29.5518C23.3475 28.8241 23.4659 28.1534 23.7026 27.5397C23.9481 26.9172 24.29 26.3824 24.7283 25.9353C25.1755 25.4794 25.6971 25.1287 26.2933 24.8832C26.8895 24.629 27.5383 24.5018 28.2397 24.5018C28.9411 24.5018 29.5679 24.6202 30.1203 24.8569C30.6814 25.0936 31.1548 25.4093 31.5406 25.8038C31.9263 26.1895 32.2025 26.6148 32.3691 27.0794L30.7647 27.829C30.5806 27.3381 30.2693 26.9348 29.8309 26.6191C29.3926 26.2948 28.8622 26.1326 28.2397 26.1326C27.626 26.1326 27.0824 26.2772 26.6089 26.5665C26.1443 26.8559 25.7804 27.2548 25.5174 27.7633C25.2632 28.2718 25.136 28.868 25.136 29.5518C25.136 30.2357 25.2632 30.8362 25.5174 31.3535C25.7804 31.862 26.1443 32.2609 26.6089 32.5503C27.0824 32.8396 27.626 32.9842 28.2397 32.9842C28.8622 32.9842 29.3926 32.8264 29.8309 32.5108C30.2693 32.1864 30.5806 31.7787 30.7647 31.2878L32.3691 32.0374C32.2025 32.502 31.9263 32.9316 31.5406 33.3262C31.1548 33.7119 30.6814 34.0232 30.1203 34.2599C29.5679 34.4966 28.9411 34.615 28.2397 34.615ZM35.718 34.615C35.2182 34.615 34.7843 34.5317 34.416 34.3651C34.0478 34.1985 33.7629 33.9618 33.5612 33.6549C33.3596 33.3393 33.2587 32.9755 33.2587 32.5634C33.2587 32.1689 33.3464 31.8182 33.5218 31.5113C33.6971 31.1957 33.9689 30.9327 34.3371 30.7223C34.7054 30.5118 35.17 30.3628 35.7311 30.2751L38.072 29.8937V31.2089L36.0599 31.5508C35.718 31.6121 35.4637 31.7217 35.2971 31.8796C35.1306 32.0374 35.0473 32.2434 35.0473 32.4977C35.0473 32.7431 35.1393 32.9404 35.3234 33.0894C35.5163 33.2297 35.753 33.2999 36.0336 33.2999C36.3931 33.2999 36.7087 33.2253 36.9805 33.0763C37.261 32.9185 37.4758 32.7037 37.6249 32.4319C37.7827 32.1601 37.8616 31.862 37.8616 31.5376V29.6965C37.8616 29.3896 37.7389 29.1354 37.4934 28.9337C37.2566 28.7233 36.941 28.6181 36.5465 28.6181C36.1783 28.6181 35.8495 28.7189 35.5602 28.9206C35.2796 29.1135 35.0736 29.3721 34.9421 29.6965L33.5349 29.0126C33.6752 28.6356 33.8944 28.3112 34.1925 28.0395C34.4993 27.7589 34.8588 27.5397 35.2708 27.3819C35.6829 27.2241 36.13 27.1452 36.6122 27.1452C37.1997 27.1452 37.7169 27.2548 38.1641 27.474C38.6112 27.6844 38.9575 27.9825 39.203 28.3682C39.4573 28.7452 39.5844 29.188 39.5844 29.6965V34.4572H37.9537V33.2341L38.3219 33.2078C38.1378 33.5147 37.9186 33.7733 37.6643 33.9837C37.4101 34.1854 37.1208 34.3432 36.7964 34.4572C36.472 34.5624 36.1125 34.615 35.718 34.615ZM41.1767 34.4572V27.303H42.7943V28.8943L42.6627 28.6576C42.8293 28.1227 43.088 27.7501 43.4387 27.5397C43.7981 27.3293 44.2277 27.2241 44.7275 27.2241H45.1483V28.7496H44.5302C44.0392 28.7496 43.6447 28.903 43.3466 29.2099C43.0485 29.508 42.8995 29.9288 42.8995 30.4724V34.4572H41.1767ZM50.0013 34.615C49.4841 34.615 49.0062 34.5141 48.5679 34.3125C48.1383 34.1021 47.7963 33.804 47.5421 33.4182L47.713 33.0763V34.4572H46.0955V24.5018H47.8183V28.7233L47.5552 28.3682C47.8007 27.9825 48.1339 27.6844 48.5547 27.474C48.9755 27.2548 49.4621 27.1452 50.0145 27.1452C50.6896 27.1452 51.2989 27.3118 51.8425 27.6449C52.386 27.9781 52.8156 28.4252 53.1313 28.9863C53.4557 29.5474 53.6179 30.1787 53.6179 30.8801C53.6179 31.5727 53.46 32.2039 53.1444 32.7738C52.8288 33.3437 52.3992 33.7952 51.8556 34.1284C51.312 34.4528 50.6939 34.615 50.0013 34.615ZM49.8041 33.0368C50.1986 33.0368 50.5493 32.9448 50.8561 32.7607C51.163 32.5766 51.3997 32.3223 51.5663 31.9979C51.7416 31.6735 51.8293 31.3009 51.8293 30.8801C51.8293 30.4592 51.7416 30.091 51.5663 29.7754C51.3997 29.451 51.163 29.1967 50.8561 29.0126C50.5493 28.8197 50.1986 28.7233 49.8041 28.7233C49.4271 28.7233 49.0851 28.8154 48.7783 28.9995C48.4802 29.1836 48.2435 29.4422 48.0681 29.7754C47.9015 30.0998 47.8183 30.468 47.8183 30.8801C47.8183 31.3009 47.9015 31.6735 48.0681 31.9979C48.2435 32.3223 48.4802 32.5766 48.7783 32.7607C49.0851 32.9448 49.4271 33.0368 49.8041 33.0368ZM58.4295 34.615C57.7281 34.615 57.0881 34.4528 56.5094 34.1284C55.9396 33.804 55.4837 33.3612 55.1417 32.8001C54.8086 32.239 54.642 31.599 54.642 30.8801C54.642 30.1612 54.8086 29.5211 55.1417 28.96C55.4837 28.3989 55.9396 27.9562 56.5094 27.6318C57.0793 27.3074 57.7193 27.1452 58.4295 27.1452C59.1309 27.1452 59.7665 27.3074 60.3364 27.6318C60.9063 27.9562 61.3578 28.3989 61.6909 28.96C62.0329 29.5124 62.2038 30.1524 62.2038 30.8801C62.2038 31.599 62.0329 32.239 61.6909 32.8001C61.349 33.3612 60.8931 33.804 60.3232 34.1284C59.7534 34.4528 59.1221 34.615 58.4295 34.615ZM58.4295 33.0368C58.8152 33.0368 59.1528 32.9448 59.4421 32.7607C59.7402 32.5766 59.9725 32.3223 60.1391 31.9979C60.3145 31.6648 60.4021 31.2921 60.4021 30.8801C60.4021 30.4592 60.3145 30.091 60.1391 29.7754C59.9725 29.451 59.7402 29.1967 59.4421 29.0126C59.1528 28.8197 58.8152 28.7233 58.4295 28.7233C58.035 28.7233 57.6886 28.8197 57.3906 29.0126C57.0925 29.1967 56.8557 29.451 56.6804 29.7754C56.5138 30.091 56.4305 30.4592 56.4305 30.8801C56.4305 31.2921 56.5138 31.6648 56.6804 31.9979C56.8557 32.3223 57.0925 32.5766 57.3906 32.7607C57.6886 32.9448 58.035 33.0368 58.4295 33.0368ZM63.5103 34.4572V27.303H65.1279V28.7102L64.9964 28.4603C65.1629 28.0307 65.4347 27.7063 65.8117 27.4871C66.1975 27.2592 66.6446 27.1452 67.1531 27.1452C67.6792 27.1452 68.1438 27.2592 68.5471 27.4871C68.9592 27.7151 69.2792 28.0351 69.5072 28.4471C69.7351 28.8504 69.8491 29.3195 69.8491 29.8543V34.4572H68.1263V30.262C68.1263 29.9464 68.0649 29.6746 67.9422 29.4466C67.8194 29.2187 67.6485 29.0433 67.4293 28.9206C67.2189 28.7891 66.969 28.7233 66.6797 28.7233C66.3991 28.7233 66.1493 28.7891 65.9301 28.9206C65.7109 29.0433 65.5399 29.2187 65.4172 29.4466C65.2945 29.6746 65.2331 29.9464 65.2331 30.262V34.4572H63.5103ZM78.3908 34.615C77.6894 34.615 77.0406 34.4878 76.4444 34.2336C75.857 33.9793 75.3397 33.6243 74.8926 33.1684C74.4542 32.7125 74.1123 32.1776 73.8668 31.5639C73.6213 30.9502 73.4986 30.2795 73.4986 29.5518C73.4986 28.8241 73.617 28.1534 73.8537 27.5397C74.0992 26.9172 74.4411 26.3824 74.8795 25.9353C75.3266 25.4794 75.8482 25.1287 76.4444 24.8832C77.0406 24.629 77.6894 24.5018 78.3908 24.5018C79.0922 24.5018 79.719 24.6202 80.2714 24.8569C80.8325 25.0936 81.3059 25.4093 81.6917 25.8038C82.0774 26.1895 82.3536 26.6148 82.5202 27.0794L80.9158 27.829C80.7317 27.3381 80.4204 26.9348 79.9821 26.6191C79.5437 26.2948 79.0133 26.1326 78.3908 26.1326C77.7771 26.1326 77.2335 26.2772 76.7601 26.5665C76.2954 26.8559 75.9315 27.2548 75.6685 27.7633C75.4143 28.2718 75.2871 28.868 75.2871 29.5518C75.2871 30.2357 75.4143 30.8362 75.6685 31.3535C75.9315 31.862 76.2954 32.2609 76.7601 32.5503C77.2335 32.8396 77.7771 32.9842 78.3908 32.9842C79.0133 32.9842 79.5437 32.8264 79.9821 32.5108C80.4204 32.1864 80.7317 31.7787 80.9158 31.2878L82.5202 32.0374C82.3536 32.502 82.0774 32.9316 81.6917 33.3262C81.3059 33.7119 80.8325 34.0232 80.2714 34.2599C79.719 34.4966 79.0922 34.615 78.3908 34.615ZM85.8691 34.615C85.3693 34.615 84.9354 34.5317 84.5671 34.3651C84.1989 34.1985 83.914 33.9618 83.7123 33.6549C83.5107 33.3393 83.4098 32.9755 83.4098 32.5634C83.4098 32.1689 83.4975 31.8182 83.6729 31.5113C83.8482 31.1957 84.12 30.9327 84.4882 30.7223C84.8565 30.5118 85.3211 30.3628 85.8822 30.2751L88.2231 29.8937V31.2089L86.211 31.5508C85.8691 31.6121 85.6148 31.7217 85.4483 31.8796C85.2817 32.0374 85.1984 32.2434 85.1984 32.4977C85.1984 32.7431 85.2904 32.9404 85.4746 33.0894C85.6674 33.2297 85.9042 33.2999 86.1847 33.2999C86.5442 33.2999 86.8598 33.2253 87.1316 33.0763C87.4121 32.9185 87.6269 32.7037 87.776 32.4319C87.9338 32.1601 88.0127 31.862 88.0127 31.5376V29.6965C88.0127 29.3896 87.89 29.1354 87.6445 28.9337C87.4078 28.7233 87.0921 28.6181 86.6976 28.6181C86.3294 28.6181 86.0006 28.7189 85.7113 28.9206C85.4307 29.1135 85.2247 29.3721 85.0932 29.6965L83.686 29.0126C83.8263 28.6356 84.0455 28.3112 84.3436 28.0395C84.6504 27.7589 85.0099 27.5397 85.422 27.3819C85.834 27.2241 86.2812 27.1452 86.7634 27.1452C87.3508 27.1452 87.868 27.2548 88.3152 27.474C88.7623 27.6844 89.1086 27.9825 89.3541 28.3682C89.6084 28.7452 89.7355 29.188 89.7355 29.6965V34.4572H88.1048V33.2341L88.473 33.2078C88.2889 33.5147 88.0697 33.7733 87.8154 33.9837C87.5612 34.1854 87.2719 34.3432 86.9475 34.4572C86.6231 34.5624 86.2636 34.615 85.8691 34.615ZM91.3278 34.4572V24.5018H93.0506V34.4572H91.3278ZM98.0868 34.615C97.3766 34.615 96.7366 34.4528 96.1667 34.1284C95.6056 33.7952 95.1629 33.3481 94.8385 32.787C94.5141 32.2171 94.3519 31.5771 94.3519 30.8669C94.3519 30.1568 94.5141 29.5211 94.8385 28.96C95.1629 28.3989 95.6056 27.9562 96.1667 27.6318C96.7366 27.3074 97.3766 27.1452 98.0868 27.1452C98.5953 27.1452 99.0687 27.2372 99.5071 27.4214C99.9455 27.5967 100.322 27.8422 100.638 28.1578C100.962 28.4647 101.195 28.8329 101.335 29.2625L99.8227 29.9201C99.6912 29.5606 99.4676 29.2713 99.152 29.0521C98.8452 28.8329 98.4901 28.7233 98.0868 28.7233C97.7098 28.7233 97.3723 28.8154 97.0742 28.9995C96.7848 29.1836 96.5569 29.4378 96.3903 29.7622C96.2237 30.0866 96.1404 30.4592 96.1404 30.8801C96.1404 31.3009 96.2237 31.6735 96.3903 31.9979C96.5569 32.3223 96.7848 32.5766 97.0742 32.7607C97.3723 32.9448 97.7098 33.0368 98.0868 33.0368C98.4989 33.0368 98.8583 32.9273 99.1652 32.7081C99.472 32.4889 99.6912 32.1952 99.8227 31.8269L101.335 32.5108C101.195 32.9141 100.967 33.2779 100.651 33.6023C100.336 33.918 99.9586 34.1678 99.5203 34.3519C99.0819 34.5273 98.6041 34.615 98.0868 34.615ZM105.194 34.615C104.641 34.615 104.159 34.4922 103.747 34.2467C103.344 34.0013 103.032 33.6593 102.813 33.221C102.603 32.7826 102.498 32.2697 102.498 31.6823V27.303H104.22V31.5376C104.22 31.8357 104.277 32.0987 104.391 32.3267C104.514 32.5459 104.685 32.7212 104.904 32.8527C105.132 32.9755 105.386 33.0368 105.667 33.0368C105.948 33.0368 106.197 32.9755 106.417 32.8527C106.636 32.7212 106.807 32.5415 106.93 32.3135C107.052 32.0856 107.114 31.8138 107.114 31.4982V27.303H108.836V34.4572H107.206V33.05L107.35 33.2999C107.184 33.7382 106.908 34.067 106.522 34.2862C106.145 34.5054 105.702 34.615 105.194 34.615ZM110.438 34.4572V24.5018H112.161V34.4572H110.438ZM115.921 34.615C115.421 34.615 114.987 34.5317 114.619 34.3651C114.251 34.1985 113.966 33.9618 113.764 33.6549C113.563 33.3393 113.462 32.9755 113.462 32.5634C113.462 32.1689 113.55 31.8182 113.725 31.5113C113.9 31.1957 114.172 30.9327 114.54 30.7223C114.909 30.5118 115.373 30.3628 115.934 30.2751L118.275 29.8937V31.2089L116.263 31.5508C115.921 31.6121 115.667 31.7217 115.5 31.8796C115.334 32.0374 115.251 32.2434 115.251 32.4977C115.251 32.7431 115.343 32.9404 115.527 33.0894C115.72 33.2297 115.956 33.2999 116.237 33.2999C116.596 33.2999 116.912 33.2253 117.184 33.0763C117.464 32.9185 117.679 32.7037 117.828 32.4319C117.986 32.1601 118.065 31.862 118.065 31.5376V29.6965C118.065 29.3896 117.942 29.1354 117.697 28.9337C117.46 28.7233 117.144 28.6181 116.75 28.6181C116.382 28.6181 116.053 28.7189 115.763 28.9206C115.483 29.1135 115.277 29.3721 115.145 29.6965L113.738 29.0126C113.878 28.6356 114.098 28.3112 114.396 28.0395C114.703 27.7589 115.062 27.5397 115.474 27.3819C115.886 27.2241 116.333 27.1452 116.815 27.1452C117.403 27.1452 117.92 27.2548 118.367 27.474C118.814 27.6844 119.161 27.9825 119.406 28.3682C119.66 28.7452 119.788 29.188 119.788 29.6965V34.4572H118.157V33.2341L118.525 33.2078C118.341 33.5147 118.122 33.7733 117.868 33.9837C117.613 34.1854 117.324 34.3432 117 34.4572C116.675 34.5624 116.316 34.615 115.921 34.615ZM124.513 34.5361C123.706 34.5361 123.079 34.3169 122.632 33.8785C122.194 33.4314 121.975 32.8045 121.975 31.9979V28.8417H120.739V27.303H120.87C121.221 27.303 121.493 27.2109 121.685 27.0268C121.878 26.8427 121.975 26.5753 121.975 26.2246V25.6723H123.698V27.303H125.341V28.8417H123.698V31.9059C123.698 32.1426 123.737 32.3442 123.816 32.5108C123.904 32.6774 124.035 32.8045 124.21 32.8922C124.395 32.9799 124.627 33.0237 124.907 33.0237C124.969 33.0237 125.039 33.0193 125.118 33.0105C125.206 33.0018 125.289 32.993 125.368 32.9842V34.4572C125.245 34.4747 125.105 34.4922 124.947 34.5098C124.789 34.5273 124.644 34.5361 124.513 34.5361ZM130.118 34.615C129.417 34.615 128.777 34.4528 128.198 34.1284C127.628 33.804 127.172 33.3612 126.83 32.8001C126.497 32.239 126.33 31.599 126.33 30.8801C126.33 30.1612 126.497 29.5211 126.83 28.96C127.172 28.3989 127.628 27.9562 128.198 27.6318C128.768 27.3074 129.408 27.1452 130.118 27.1452C130.819 27.1452 131.455 27.3074 132.025 27.6318C132.595 27.9562 133.046 28.3989 133.379 28.96C133.721 29.5124 133.892 30.1524 133.892 30.8801C133.892 31.599 133.721 32.239 133.379 32.8001C133.037 33.3612 132.582 33.804 132.012 34.1284C131.442 34.4528 130.811 34.615 130.118 34.615ZM130.118 33.0368C130.504 33.0368 130.841 32.9448 131.131 32.7607C131.429 32.5766 131.661 32.3223 131.828 31.9979C132.003 31.6648 132.091 31.2921 132.091 30.8801C132.091 30.4592 132.003 30.091 131.828 29.7754C131.661 29.451 131.429 29.1967 131.131 29.0126C130.841 28.8197 130.504 28.7233 130.118 28.7233C129.723 28.7233 129.377 28.8197 129.079 29.0126C128.781 29.1967 128.544 29.451 128.369 29.7754C128.202 30.091 128.119 30.4592 128.119 30.8801C128.119 31.2921 128.202 31.6648 128.369 31.9979C128.544 32.3223 128.781 32.5766 129.079 32.7607C129.377 32.9448 129.723 33.0368 130.118 33.0368ZM135.199 34.4572V27.303H136.816V28.8943L136.685 28.6576C136.851 28.1227 137.11 27.7501 137.461 27.5397C137.82 27.3293 138.25 27.2241 138.75 27.2241H139.17V28.7496H138.552C138.061 28.7496 137.667 28.903 137.369 29.2099C137.071 29.508 136.922 29.9288 136.922 30.4724V34.4572H135.199Z" fill="white"/>
<path d="M342.789 34.1148H354.296M342.789 29.7311H354.296M342.789 25.3474H354.296" stroke="#FBFBFB" stroke-width="1.09592" stroke-linecap="round" stroke-linejoin="round"/>
<g filter="url(#filter0_d_3_88350)">
<rect x="24.8818" y="55.5265" width="338.273" height="198.727" rx="14.6122" fill="#0E1A2C" shape-rendering="crispEdges"/>
<path opacity="0.8" d="M41.0122 111.824V104.204H43.7842C44.2956 104.204 44.7456 104.3 45.1343 104.491C45.5298 104.675 45.8367 104.947 46.0549 105.309C46.2731 105.663 46.3822 106.09 46.3822 106.587C46.3822 107.078 46.2697 107.501 46.0447 107.856C45.8265 108.21 45.523 108.483 45.1343 108.674C44.7456 108.865 44.2956 108.96 43.7842 108.96H42.2192V111.824H41.0122ZM42.2192 107.886H43.8148C44.0876 107.886 44.3263 107.832 44.5308 107.723C44.7354 107.614 44.8957 107.464 45.0116 107.273C45.1275 107.075 45.1855 106.843 45.1855 106.577C45.1855 106.311 45.1275 106.083 45.0116 105.892C44.8957 105.694 44.7354 105.544 44.5308 105.442C44.3263 105.333 44.0876 105.278 43.8148 105.278H42.2192V107.886ZM47.5123 111.824V106.291H48.617V107.406L48.5147 107.242C48.6374 106.881 48.8352 106.622 49.108 106.465C49.3807 106.301 49.708 106.219 50.0899 106.219H50.4274V107.273H49.9467C49.5648 107.273 49.2546 107.392 49.0159 107.631C48.7841 107.863 48.6681 108.197 48.6681 108.633V111.824H47.5123ZM53.8878 111.947C53.3559 111.947 52.8684 111.821 52.4251 111.569C51.9887 111.316 51.6409 110.972 51.3818 110.536C51.1227 110.099 50.9931 109.605 50.9931 109.053C50.9931 108.493 51.1227 107.999 51.3818 107.569C51.6409 107.133 51.9887 106.792 52.4251 106.547C52.8616 106.294 53.3491 106.168 53.8878 106.168C54.4333 106.168 54.9209 106.294 55.3505 106.547C55.7869 106.792 56.1313 107.133 56.3836 107.569C56.6427 107.999 56.7723 108.493 56.7723 109.053C56.7723 109.612 56.6427 110.109 56.3836 110.546C56.1245 110.982 55.7767 111.327 55.3403 111.579C54.9039 111.824 54.4197 111.947 53.8878 111.947ZM53.8878 110.873C54.2151 110.873 54.5049 110.795 54.7573 110.638C55.0096 110.481 55.2073 110.266 55.3505 109.994C55.5005 109.714 55.5755 109.4 55.5755 109.053C55.5755 108.705 55.5005 108.394 55.3505 108.122C55.2073 107.849 55.0096 107.634 54.7573 107.477C54.5049 107.32 54.2151 107.242 53.8878 107.242C53.5673 107.242 53.2775 107.32 53.0184 107.477C52.7661 107.634 52.5649 107.849 52.4149 108.122C52.2717 108.394 52.2001 108.705 52.2001 109.053C52.2001 109.4 52.2717 109.714 52.4149 109.994C52.5649 110.266 52.7661 110.481 53.0184 110.638C53.2775 110.795 53.5673 110.873 53.8878 110.873ZM59.4067 111.824L57.2382 106.291H58.4964L60.1636 110.802H59.7033L61.3706 106.291H62.6389L60.4602 111.824H59.4067ZM63.4245 111.824V106.291H64.5804V111.824H63.4245ZM63.4245 105.534V104.204H64.5804V105.534H63.4245ZM68.4889 111.947C67.957 111.947 67.4796 111.821 67.0569 111.569C66.6409 111.31 66.3102 110.962 66.0647 110.525C65.826 110.089 65.7067 109.598 65.7067 109.053C65.7067 108.507 65.8294 108.016 66.0749 107.58C66.3204 107.143 66.6511 106.799 67.0671 106.547C67.4831 106.294 67.9536 106.168 68.4786 106.168C68.9219 106.168 69.314 106.257 69.6549 106.434C69.9959 106.611 70.2652 106.857 70.463 107.17L70.2891 107.436V104.081H71.4347V111.824H70.3402V110.699L70.4732 110.914C70.2823 111.248 70.0095 111.504 69.6549 111.681C69.3003 111.859 68.9116 111.947 68.4889 111.947ZM68.6014 110.873C68.9219 110.873 69.2083 110.795 69.4606 110.638C69.7197 110.481 69.9209 110.266 70.0641 109.994C70.2141 109.714 70.2891 109.4 70.2891 109.053C70.2891 108.705 70.2141 108.394 70.0641 108.122C69.9209 107.849 69.7197 107.634 69.4606 107.477C69.2083 107.32 68.9219 107.242 68.6014 107.242C68.2809 107.242 67.9911 107.32 67.732 107.477C67.4728 107.634 67.2717 107.849 67.1285 108.122C66.9853 108.394 66.9137 108.705 66.9137 109.053C66.9137 109.4 66.9853 109.714 67.1285 109.994C67.2717 110.266 67.4694 110.481 67.7217 110.638C67.9808 110.795 68.2741 110.873 68.6014 110.873ZM75.3821 111.947C74.8298 111.947 74.3388 111.821 73.9092 111.569C73.4864 111.31 73.1557 110.962 72.917 110.525C72.6784 110.082 72.559 109.588 72.559 109.042C72.559 108.483 72.6784 107.989 72.917 107.559C73.1625 107.13 73.4898 106.792 73.899 106.547C74.3081 106.294 74.7718 106.168 75.2901 106.168C75.706 106.168 76.0777 106.24 76.405 106.383C76.7323 106.526 77.0085 106.724 77.2335 106.976C77.4585 107.222 77.629 107.505 77.7449 107.825C77.8677 108.146 77.929 108.487 77.929 108.848C77.929 108.937 77.9256 109.029 77.9188 109.124C77.912 109.22 77.8984 109.308 77.8779 109.39H73.4694V108.469H77.2233L76.6709 108.889C76.7391 108.555 76.7153 108.258 76.5993 107.999C76.4902 107.733 76.3197 107.525 76.0879 107.375C75.8629 107.218 75.5969 107.14 75.2901 107.14C74.9832 107.14 74.7105 107.218 74.4718 107.375C74.2331 107.525 74.049 107.743 73.9194 108.03C73.7899 108.309 73.7387 108.65 73.766 109.053C73.7319 109.428 73.7831 109.755 73.9194 110.034C74.0626 110.314 74.2604 110.532 74.5127 110.689C74.7718 110.846 75.065 110.924 75.3924 110.924C75.7265 110.924 76.0095 110.849 76.2413 110.699C76.48 110.549 76.6675 110.355 76.8039 110.116L77.7449 110.577C77.6358 110.836 77.4653 111.071 77.2335 111.282C77.0085 111.487 76.7357 111.651 76.4152 111.773C76.1015 111.889 75.7572 111.947 75.3821 111.947ZM79.0571 111.824V106.291H80.1617V107.406L80.0595 107.242C80.1822 106.881 80.38 106.622 80.6527 106.465C80.9255 106.301 81.2528 106.219 81.6347 106.219H81.9722V107.273H81.4915C81.1096 107.273 80.7993 107.392 80.5607 107.631C80.3288 107.863 80.2129 108.197 80.2129 108.633V111.824H79.0571Z" fill="#718CAF"/>
<path opacity="0.8" d="M40.3371 184.886L43.017 177.265H44.5104L47.1903 184.886H45.9015L45.3184 183.177H42.2192L41.6259 184.886H40.3371ZM42.567 182.103H44.9502L43.6 178.114H43.9376L42.567 182.103ZM50.4107 185.008C49.8584 185.008 49.3674 184.882 48.9378 184.63C48.5151 184.371 48.1775 184.023 47.9252 183.587C47.6797 183.15 47.557 182.656 47.557 182.103C47.557 181.558 47.6797 181.067 47.9252 180.631C48.1707 180.194 48.5082 179.853 48.9378 179.608C49.3674 179.355 49.8584 179.229 50.4107 179.229C50.7858 179.229 51.137 179.297 51.4643 179.434C51.7916 179.563 52.0746 179.744 52.3133 179.976C52.5587 180.208 52.7395 180.477 52.8554 180.784L51.8427 181.254C51.7268 180.968 51.5393 180.74 51.2802 180.569C51.0279 180.392 50.7381 180.303 50.4107 180.303C50.0971 180.303 49.8141 180.382 49.5618 180.538C49.3163 180.688 49.1219 180.903 48.9787 181.183C48.8355 181.456 48.7639 181.766 48.7639 182.114C48.7639 182.461 48.8355 182.775 48.9787 183.055C49.1219 183.327 49.3163 183.542 49.5618 183.699C49.8141 183.856 50.0971 183.934 50.4107 183.934C50.7449 183.934 51.0347 183.849 51.2802 183.679C51.5325 183.501 51.72 183.266 51.8427 182.973L52.8554 183.454C52.7463 183.747 52.569 184.013 52.3235 184.251C52.0848 184.483 51.8018 184.667 51.4745 184.804C51.1472 184.94 50.7926 185.008 50.4107 185.008ZM56.6138 185.008C56.0615 185.008 55.5705 184.882 55.1409 184.63C54.7181 184.371 54.3806 184.023 54.1283 183.587C53.8828 183.15 53.76 182.656 53.76 182.103C53.76 181.558 53.8828 181.067 54.1283 180.631C54.3738 180.194 54.7113 179.853 55.1409 179.608C55.5705 179.355 56.0615 179.229 56.6138 179.229C56.9889 179.229 57.34 179.297 57.6674 179.434C57.9947 179.563 58.2777 179.744 58.5163 179.976C58.7618 180.208 58.9425 180.477 59.0584 180.784L58.0458 181.254C57.9299 180.968 57.7424 180.74 57.4832 180.569C57.2309 180.392 56.9411 180.303 56.6138 180.303C56.3001 180.303 56.0171 180.382 55.7648 180.538C55.5194 180.688 55.325 180.903 55.1818 181.183C55.0386 181.456 54.967 181.766 54.967 182.114C54.967 182.461 55.0386 182.775 55.1818 183.055C55.325 183.327 55.5194 183.542 55.7648 183.699C56.0171 183.856 56.3001 183.934 56.6138 183.934C56.9479 183.934 57.2378 183.849 57.4832 183.679C57.7355 183.501 57.9231 183.266 58.0458 182.973L59.0584 183.454C58.9493 183.747 58.772 184.013 58.5266 184.251C58.2879 184.483 58.0049 184.667 57.6776 184.804C57.3503 184.94 56.9957 185.008 56.6138 185.008ZM62.7862 185.008C62.2339 185.008 61.7429 184.882 61.3133 184.63C60.8905 184.371 60.5598 184.023 60.3211 183.587C60.0824 183.143 59.9631 182.649 59.9631 182.103C59.9631 181.544 60.0824 181.05 60.3211 180.62C60.5666 180.191 60.8939 179.853 61.3031 179.608C61.7122 179.355 62.1759 179.229 62.6941 179.229C63.1101 179.229 63.4817 179.301 63.8091 179.444C64.1364 179.587 64.4125 179.785 64.6376 180.037C64.8626 180.283 65.0331 180.566 65.149 180.886C65.2717 181.207 65.3331 181.548 65.3331 181.909C65.3331 181.998 65.3297 182.09 65.3229 182.185C65.3161 182.281 65.3024 182.369 65.282 182.451H60.8735V181.531H64.6273L64.075 181.95C64.1432 181.616 64.1193 181.319 64.0034 181.06C63.8943 180.794 63.7238 180.586 63.492 180.436C63.2669 180.279 63.001 180.201 62.6941 180.201C62.3873 180.201 62.1145 180.279 61.8759 180.436C61.6372 180.586 61.4531 180.804 61.3235 181.091C61.194 181.37 61.1428 181.711 61.1701 182.114C61.136 182.489 61.1871 182.816 61.3235 183.096C61.4667 183.375 61.6645 183.593 61.9168 183.75C62.1759 183.907 62.4691 183.986 62.7964 183.986C63.1306 183.986 63.4136 183.91 63.6454 183.76C63.8841 183.61 64.0716 183.416 64.208 183.177L65.149 183.638C65.0399 183.897 64.8694 184.132 64.6376 184.344C64.4125 184.548 64.1398 184.712 63.8193 184.834C63.5056 184.95 63.1612 185.008 62.7862 185.008ZM68.5068 185.008C67.9409 185.008 67.4431 184.869 67.0135 184.589C66.5907 184.309 66.2941 183.934 66.1236 183.464L67.0135 183.044C67.1635 183.358 67.3681 183.607 67.6272 183.791C67.8931 183.975 68.1864 184.067 68.5068 184.067C68.7796 184.067 69.0012 184.006 69.1717 183.883C69.3422 183.76 69.4274 183.593 69.4274 183.382C69.4274 183.246 69.3899 183.137 69.3149 183.055C69.2399 182.966 69.1444 182.894 69.0285 182.84C68.9194 182.785 68.8069 182.744 68.691 182.717L67.8215 182.472C67.3442 182.335 66.9862 182.131 66.7475 181.858C66.5157 181.578 66.3998 181.254 66.3998 180.886C66.3998 180.552 66.485 180.262 66.6555 180.017C66.826 179.765 67.0612 179.57 67.3612 179.434C67.6613 179.297 67.9988 179.229 68.3739 179.229C68.8785 179.229 69.3285 179.355 69.724 179.608C70.1196 179.853 70.3991 180.198 70.5628 180.641L69.6729 181.06C69.5638 180.794 69.3899 180.583 69.1512 180.426C68.9194 180.269 68.6569 180.191 68.3636 180.191C68.1113 180.191 67.9102 180.252 67.7602 180.375C67.6101 180.491 67.5351 180.644 67.5351 180.835C67.5351 180.965 67.5692 181.074 67.6374 181.162C67.7056 181.244 67.7943 181.312 67.9034 181.367C68.0125 181.415 68.125 181.456 68.2409 181.49L69.141 181.756C69.5979 181.885 69.9491 182.09 70.1946 182.369C70.44 182.642 70.5628 182.969 70.5628 183.351C70.5628 183.679 70.4741 183.968 70.2968 184.221C70.1264 184.466 69.8877 184.661 69.5808 184.804C69.274 184.94 68.916 185.008 68.5068 185.008ZM73.741 185.008C73.175 185.008 72.6772 184.869 72.2476 184.589C71.8248 184.309 71.5282 183.934 71.3577 183.464L72.2476 183.044C72.3976 183.358 72.6022 183.607 72.8613 183.791C73.1273 183.975 73.4205 184.067 73.741 184.067C74.0138 184.067 74.2354 184.006 74.4059 183.883C74.5763 183.76 74.6616 183.593 74.6616 183.382C74.6616 183.246 74.6241 183.137 74.5491 183.055C74.474 182.966 74.3786 182.894 74.2627 182.84C74.1536 182.785 74.041 182.744 73.9251 182.717L73.0557 182.472C72.5784 182.335 72.2204 182.131 71.9817 181.858C71.7498 181.578 71.6339 181.254 71.6339 180.886C71.6339 180.552 71.7192 180.262 71.8896 180.017C72.0601 179.765 72.2954 179.57 72.5954 179.434C72.8954 179.297 73.233 179.229 73.608 179.229C74.1126 179.229 74.5627 179.355 74.9582 179.608C75.3537 179.853 75.6333 180.198 75.7969 180.641L74.9071 181.06C74.798 180.794 74.6241 180.583 74.3854 180.426C74.1536 180.269 73.891 180.191 73.5978 180.191C73.3455 180.191 73.1443 180.252 72.9943 180.375C72.8443 180.491 72.7693 180.644 72.7693 180.835C72.7693 180.965 72.8034 181.074 72.8716 181.162C72.9398 181.244 73.0284 181.312 73.1375 181.367C73.2466 181.415 73.3591 181.456 73.4751 181.49L74.3752 181.756C74.832 181.885 75.1832 182.09 75.4287 182.369C75.6742 182.642 75.7969 182.969 75.7969 183.351C75.7969 183.679 75.7083 183.968 75.531 184.221C75.3605 184.466 75.1219 184.661 74.815 184.804C74.5081 184.94 74.1501 185.008 73.741 185.008ZM81.1109 184.947C80.5313 184.947 80.0812 184.783 79.7608 184.456C79.4403 184.129 79.28 183.668 79.28 183.075V180.395H78.3083V179.352H78.4617C78.7208 179.352 78.922 179.277 79.0652 179.127C79.2084 178.977 79.28 178.772 79.28 178.513V178.084H80.4358V179.352H81.694V180.395H80.4358V183.024C80.4358 183.215 80.4665 183.379 80.5279 183.515C80.5893 183.645 80.6881 183.747 80.8245 183.822C80.9609 183.89 81.1382 183.924 81.3564 183.924C81.411 183.924 81.4723 183.921 81.5405 183.914C81.6087 183.907 81.6735 183.9 81.7349 183.893V184.886C81.6394 184.899 81.5337 184.913 81.4178 184.927C81.3019 184.94 81.1996 184.947 81.1109 184.947ZM85.4326 185.008C84.9007 185.008 84.4131 184.882 83.9699 184.63C83.5335 184.378 83.1857 184.033 82.9266 183.597C82.6675 183.16 82.5379 182.666 82.5379 182.114C82.5379 181.555 82.6675 181.06 82.9266 180.631C83.1857 180.194 83.5335 179.853 83.9699 179.608C84.4063 179.355 84.8939 179.229 85.4326 179.229C85.9781 179.229 86.4657 179.355 86.8953 179.608C87.3317 179.853 87.676 180.194 87.9283 180.631C88.1875 181.06 88.317 181.555 88.317 182.114C88.317 182.673 88.1875 183.171 87.9283 183.607C87.6692 184.043 87.3215 184.388 86.885 184.64C86.4486 184.886 85.9645 185.008 85.4326 185.008ZM85.4326 183.934C85.7599 183.934 86.0497 183.856 86.302 183.699C86.5543 183.542 86.7521 183.327 86.8953 183.055C87.0453 182.775 87.1203 182.461 87.1203 182.114C87.1203 181.766 87.0453 181.456 86.8953 181.183C86.7521 180.91 86.5543 180.695 86.302 180.538C86.0497 180.382 85.7599 180.303 85.4326 180.303C85.1121 180.303 84.8223 180.382 84.5631 180.538C84.3108 180.695 84.1097 180.91 83.9597 181.183C83.8165 181.456 83.7449 181.766 83.7449 182.114C83.7449 182.461 83.8165 182.775 83.9597 183.055C84.1097 183.327 84.3108 183.542 84.5631 183.699C84.8223 183.856 85.1121 183.934 85.4326 183.934ZM91.2335 184.886V179.352H92.3381V180.467L92.2359 180.303C92.3586 179.942 92.5563 179.683 92.8291 179.526C93.1019 179.362 93.4292 179.28 93.8111 179.28H94.1486V180.334H93.6679C93.286 180.334 92.9757 180.453 92.7371 180.692C92.5052 180.924 92.3893 181.258 92.3893 181.694V184.886H91.2335ZM97.5374 185.008C96.985 185.008 96.4941 184.882 96.0645 184.63C95.6417 184.371 95.3109 184.023 95.0723 183.587C94.8336 183.143 94.7143 182.649 94.7143 182.103C94.7143 181.544 94.8336 181.05 95.0723 180.62C95.3178 180.191 95.6451 179.853 96.0542 179.608C96.4634 179.355 96.9271 179.229 97.4453 179.229C97.8613 179.229 98.2329 179.301 98.5602 179.444C98.8875 179.587 99.1637 179.785 99.3887 180.037C99.6138 180.283 99.7842 180.566 99.9002 180.886C100.023 181.207 100.084 181.548 100.084 181.909C100.084 181.998 100.081 182.09 100.074 182.185C100.067 182.281 100.054 182.369 100.033 182.451H95.6246V181.531H99.3785L98.8262 181.95C98.8944 181.616 98.8705 181.319 98.7546 181.06C98.6455 180.794 98.475 180.586 98.2431 180.436C98.0181 180.279 97.7522 180.201 97.4453 180.201C97.1385 180.201 96.8657 180.279 96.627 180.436C96.3884 180.586 96.2042 180.804 96.0747 181.091C95.9451 181.37 95.894 181.711 95.9213 182.114C95.8872 182.489 95.9383 182.816 96.0747 183.096C96.2179 183.375 96.4156 183.593 96.6679 183.75C96.9271 183.907 97.2203 183.986 97.5476 183.986C97.8817 183.986 98.1647 183.91 98.3966 183.76C98.6352 183.61 98.8228 183.416 98.9591 183.177L99.9002 183.638C99.7911 183.897 99.6206 184.132 99.3887 184.344C99.1637 184.548 98.8909 184.712 98.5705 184.834C98.2568 184.95 97.9124 185.008 97.5374 185.008ZM103.882 187.136C103.48 187.136 103.108 187.071 102.767 186.942C102.426 186.812 102.133 186.631 101.887 186.399C101.642 186.174 101.458 185.908 101.335 185.602L102.399 185.162C102.494 185.421 102.668 185.636 102.92 185.806C103.18 185.977 103.497 186.062 103.872 186.062C104.165 186.062 104.427 186.004 104.659 185.888C104.891 185.779 105.075 185.615 105.212 185.397C105.348 185.186 105.416 184.93 105.416 184.63V183.382L105.621 183.617C105.43 183.972 105.164 184.241 104.823 184.425C104.489 184.609 104.11 184.702 103.688 184.702C103.176 184.702 102.716 184.582 102.307 184.344C101.898 184.105 101.574 183.778 101.335 183.362C101.103 182.946 100.987 182.478 100.987 181.96C100.987 181.435 101.103 180.968 101.335 180.559C101.574 180.15 101.894 179.826 102.297 179.587C102.699 179.349 103.159 179.229 103.677 179.229C104.1 179.229 104.475 179.321 104.803 179.505C105.137 179.683 105.409 179.942 105.621 180.283L105.467 180.569V179.352H106.562V184.63C106.562 185.107 106.446 185.533 106.214 185.908C105.989 186.29 105.675 186.59 105.273 186.809C104.871 187.027 104.407 187.136 103.882 187.136ZM103.821 183.628C104.127 183.628 104.4 183.556 104.639 183.413C104.878 183.263 105.065 183.065 105.201 182.819C105.345 182.567 105.416 182.284 105.416 181.97C105.416 181.657 105.345 181.374 105.201 181.122C105.058 180.869 104.867 180.671 104.629 180.528C104.39 180.378 104.121 180.303 103.821 180.303C103.507 180.303 103.227 180.378 102.982 180.528C102.736 180.671 102.542 180.869 102.399 181.122C102.262 181.367 102.194 181.65 102.194 181.97C102.194 182.277 102.262 182.557 102.399 182.809C102.542 183.062 102.736 183.263 102.982 183.413C103.227 183.556 103.507 183.628 103.821 183.628ZM107.915 184.886V179.352H109.071V184.886H107.915ZM107.915 178.595V177.265H109.071V178.595H107.915ZM112.468 185.008C111.902 185.008 111.404 184.869 110.974 184.589C110.552 184.309 110.255 183.934 110.084 183.464L110.974 183.044C111.124 183.358 111.329 183.607 111.588 183.791C111.854 183.975 112.147 184.067 112.468 184.067C112.74 184.067 112.962 184.006 113.133 183.883C113.303 183.76 113.388 183.593 113.388 183.382C113.388 183.246 113.351 183.137 113.276 183.055C113.201 182.966 113.105 182.894 112.989 182.84C112.88 182.785 112.768 182.744 112.652 182.717L111.782 182.472C111.305 182.335 110.947 182.131 110.708 181.858C110.477 181.578 110.361 181.254 110.361 180.886C110.361 180.552 110.446 180.262 110.616 180.017C110.787 179.765 111.022 179.57 111.322 179.434C111.622 179.297 111.96 179.229 112.335 179.229C112.839 179.229 113.289 179.355 113.685 179.608C114.08 179.853 114.36 180.198 114.524 180.641L113.634 181.06C113.525 180.794 113.351 180.583 113.112 180.426C112.88 180.269 112.618 180.191 112.325 180.191C112.072 180.191 111.871 180.252 111.721 180.375C111.571 180.491 111.496 180.644 111.496 180.835C111.496 180.965 111.53 181.074 111.598 181.162C111.666 181.244 111.755 181.312 111.864 181.367C111.973 181.415 112.086 181.456 112.202 181.49L113.102 181.756C113.559 181.885 113.91 182.09 114.155 182.369C114.401 182.642 114.524 182.969 114.524 183.351C114.524 183.679 114.435 183.968 114.258 184.221C114.087 184.466 113.849 184.661 113.542 184.804C113.235 184.94 112.877 185.008 112.468 185.008ZM118.05 184.947C117.47 184.947 117.02 184.783 116.699 184.456C116.379 184.129 116.219 183.668 116.219 183.075V180.395H115.247V179.352H115.4C115.66 179.352 115.861 179.277 116.004 179.127C116.147 178.977 116.219 178.772 116.219 178.513V178.084H117.375V179.352H118.633V180.395H117.375V183.024C117.375 183.215 117.405 183.379 117.467 183.515C117.528 183.645 117.627 183.747 117.763 183.822C117.9 183.89 118.077 183.924 118.295 183.924C118.35 183.924 118.411 183.921 118.479 183.914C118.547 183.907 118.612 183.9 118.674 183.893V184.886C118.578 184.899 118.472 184.913 118.357 184.927C118.241 184.94 118.138 184.947 118.05 184.947ZM119.802 184.886V179.352H120.906V180.467L120.804 180.303C120.927 179.942 121.124 179.683 121.397 179.526C121.67 179.362 121.997 179.28 122.379 179.28H122.717V180.334H122.236C121.854 180.334 121.544 180.453 121.305 180.692C121.073 180.924 120.957 181.258 120.957 181.694V184.886H119.802ZM123.998 187.146C123.862 187.146 123.726 187.132 123.589 187.105C123.46 187.085 123.34 187.051 123.231 187.003V186.011C123.313 186.031 123.412 186.048 123.528 186.062C123.644 186.082 123.756 186.093 123.865 186.093C124.186 186.093 124.421 186.021 124.571 185.878C124.728 185.741 124.868 185.527 124.991 185.233L125.359 184.395L125.338 185.366L122.945 179.352H124.182L125.952 183.965H125.533L127.292 179.352H128.54L126.095 185.489C125.966 185.816 125.802 186.103 125.604 186.348C125.413 186.601 125.185 186.795 124.919 186.931C124.66 187.075 124.353 187.146 123.998 187.146Z" fill="#718CAF"/>
<g filter="url(#filter1_d_3_88350)">
<rect x="40.9551" y="192.882" width="306.857" height="39.4531" rx="14.6122" fill="#0E1A2C" shape-rendering="crispEdges"/>
<path d="M56.3547 216.841V209.22H59.1267C59.6381 209.22 60.0882 209.316 60.4769 209.507C60.8724 209.691 61.1792 209.964 61.3974 210.325C61.6156 210.68 61.7247 211.106 61.7247 211.604C61.7247 212.095 61.6122 212.517 61.3872 212.872C61.169 213.227 60.8655 213.499 60.4769 213.69C60.0882 213.881 59.6381 213.977 59.1267 213.977H57.5617V216.841H56.3547ZM57.5617 212.903H59.1574C59.4301 212.903 59.6688 212.848 59.8734 212.739C60.0779 212.63 60.2382 212.48 60.3541 212.289C60.47 212.091 60.528 211.859 60.528 211.593C60.528 211.327 60.47 211.099 60.3541 210.908C60.2382 210.71 60.0779 210.56 59.8734 210.458C59.6688 210.349 59.4301 210.294 59.1574 210.294H57.5617V212.903ZM62.8548 216.841V209.098H64.0107V216.841H62.8548ZM67.9601 216.963C67.4077 216.963 66.9168 216.837 66.4872 216.585C66.0644 216.326 65.7337 215.978 65.495 215.542C65.2563 215.098 65.137 214.604 65.137 214.059C65.137 213.499 65.2563 213.005 65.495 212.575C65.7405 212.146 66.0678 211.808 66.4769 211.563C66.8861 211.31 67.3498 211.184 67.868 211.184C68.284 211.184 68.6556 211.256 68.9829 211.399C69.3103 211.542 69.5864 211.74 69.8115 211.992C70.0365 212.238 70.207 212.521 70.3229 212.841C70.4456 213.162 70.507 213.503 70.507 213.864C70.507 213.953 70.5036 214.045 70.4968 214.14C70.49 214.236 70.4763 214.324 70.4559 214.406H66.0473V213.486H69.8012L69.2489 213.905C69.3171 213.571 69.2932 213.274 69.1773 213.015C69.0682 212.749 68.8977 212.541 68.6659 212.391C68.4408 212.234 68.1749 212.156 67.868 212.156C67.5612 212.156 67.2884 212.234 67.0497 212.391C66.8111 212.541 66.627 212.759 66.4974 213.046C66.3678 213.325 66.3167 213.666 66.344 214.069C66.3099 214.444 66.361 214.771 66.4974 215.051C66.6406 215.33 66.8384 215.548 67.0907 215.705C67.3498 215.862 67.643 215.941 67.9703 215.941C68.3045 215.941 68.5874 215.866 68.8193 215.716C69.058 215.566 69.2455 215.371 69.3819 215.133L70.3229 215.593C70.2138 215.852 70.0433 216.087 69.8115 216.299C69.5864 216.503 69.3137 216.667 68.9932 216.79C68.6795 216.905 68.3351 216.963 67.9601 216.963ZM73.2421 216.963C72.8671 216.963 72.5363 216.899 72.2499 216.769C71.9704 216.633 71.7521 216.449 71.5953 216.217C71.4385 215.978 71.3601 215.699 71.3601 215.378C71.3601 215.078 71.4248 214.809 71.5544 214.57C71.6908 214.331 71.8988 214.13 72.1783 213.966C72.4579 213.803 72.8091 213.687 73.2319 213.619L75.1549 213.302V214.212L73.4569 214.509C73.1501 214.563 72.925 214.662 72.7818 214.805C72.6386 214.942 72.567 215.119 72.567 215.337C72.567 215.548 72.6454 215.722 72.8023 215.859C72.9659 215.988 73.1739 216.053 73.4262 216.053C73.7399 216.053 74.0127 215.985 74.2445 215.849C74.4832 215.712 74.6673 215.531 74.7969 215.306C74.9264 215.075 74.9912 214.819 74.9912 214.539V213.117C74.9912 212.845 74.8889 212.623 74.6843 212.453C74.4866 212.275 74.2206 212.187 73.8865 212.187C73.5797 212.187 73.3103 212.269 73.0785 212.432C72.8534 212.589 72.6864 212.794 72.5773 213.046L71.6158 212.565C71.7181 212.292 71.8851 212.054 72.117 211.849C72.3488 211.638 72.6182 211.474 72.925 211.358C73.2387 211.242 73.5694 211.184 73.9172 211.184C74.3536 211.184 74.7389 211.266 75.073 211.43C75.414 211.593 75.6765 211.822 75.8606 212.115C76.0516 212.401 76.147 212.736 76.147 213.117V216.841H75.0423V215.838L75.2776 215.869C75.148 216.094 74.981 216.288 74.7764 216.452C74.5786 216.616 74.3502 216.742 74.0911 216.83C73.8388 216.919 73.5558 216.963 73.2421 216.963ZM79.5442 216.963C78.9782 216.963 78.4804 216.824 78.0508 216.544C77.628 216.264 77.3314 215.889 77.1609 215.419L78.0508 215C78.2008 215.313 78.4054 215.562 78.6645 215.746C78.9305 215.93 79.2237 216.022 79.5442 216.022C79.8169 216.022 80.0386 215.961 80.209 215.838C80.3795 215.716 80.4648 215.548 80.4648 215.337C80.4648 215.201 80.4273 215.092 80.3522 215.01C80.2772 214.921 80.1818 214.85 80.0658 214.795C79.9567 214.74 79.8442 214.7 79.7283 214.672L78.8589 214.427C78.3815 214.29 78.0235 214.086 77.7849 213.813C77.553 213.533 77.4371 213.21 77.4371 212.841C77.4371 212.507 77.5223 212.217 77.6928 211.972C77.8633 211.72 78.0985 211.525 78.3986 211.389C78.6986 211.252 79.0362 211.184 79.4112 211.184C79.9158 211.184 80.3659 211.31 80.7614 211.563C81.1569 211.808 81.4365 212.153 81.6001 212.596L80.7102 213.015C80.6011 212.749 80.4273 212.538 80.1886 212.381C79.9567 212.224 79.6942 212.146 79.401 212.146C79.1487 212.146 78.9475 212.207 78.7975 212.33C78.6475 212.446 78.5725 212.599 78.5725 212.79C78.5725 212.92 78.6066 213.029 78.6748 213.117C78.7429 213.199 78.8316 213.268 78.9407 213.322C79.0498 213.37 79.1623 213.411 79.2782 213.445L80.1784 213.711C80.6352 213.84 80.9864 214.045 81.2319 214.324C81.4774 214.597 81.6001 214.925 81.6001 215.306C81.6001 215.634 81.5115 215.924 81.3342 216.176C81.1637 216.421 80.925 216.616 80.6182 216.759C80.3113 216.895 79.9533 216.963 79.5442 216.963ZM85.3307 216.963C84.7783 216.963 84.2874 216.837 83.8578 216.585C83.435 216.326 83.1043 215.978 82.8656 215.542C82.6269 215.098 82.5076 214.604 82.5076 214.059C82.5076 213.499 82.6269 213.005 82.8656 212.575C83.1111 212.146 83.4384 211.808 83.8475 211.563C84.2567 211.31 84.7204 211.184 85.2386 211.184C85.6546 211.184 86.0262 211.256 86.3535 211.399C86.6809 211.542 86.957 211.74 87.1821 211.992C87.4071 212.238 87.5776 212.521 87.6935 212.841C87.8162 213.162 87.8776 213.503 87.8776 213.864C87.8776 213.953 87.8742 214.045 87.8674 214.14C87.8605 214.236 87.8469 214.324 87.8265 214.406H83.4179V213.486H87.1718L86.6195 213.905C86.6877 213.571 86.6638 213.274 86.5479 213.015C86.4388 212.749 86.2683 212.541 86.0365 212.391C85.8114 212.234 85.5455 212.156 85.2386 212.156C84.9318 212.156 84.659 212.234 84.4203 212.391C84.1817 212.541 83.9976 212.759 83.868 213.046C83.7384 213.325 83.6873 213.666 83.7146 214.069C83.6805 214.444 83.7316 214.771 83.868 215.051C84.0112 215.33 84.2089 215.548 84.4613 215.705C84.7204 215.862 85.0136 215.941 85.3409 215.941C85.675 215.941 85.958 215.866 86.1899 215.716C86.4285 215.566 86.6161 215.371 86.7525 215.133L87.6935 215.593C87.5844 215.852 87.4139 216.087 87.1821 216.299C86.957 216.503 86.6843 216.667 86.3638 216.79C86.0501 216.905 85.7057 216.963 85.3307 216.963ZM92.8393 216.963C92.2733 216.963 91.7756 216.824 91.346 216.544C90.9232 216.264 90.6265 215.889 90.4561 215.419L91.346 215C91.496 215.313 91.7005 215.562 91.9597 215.746C92.2256 215.93 92.5188 216.022 92.8393 216.022C93.1121 216.022 93.3337 215.961 93.5042 215.838C93.6747 215.716 93.7599 215.548 93.7599 215.337C93.7599 215.201 93.7224 215.092 93.6474 215.01C93.5724 214.921 93.4769 214.85 93.361 214.795C93.2519 214.74 93.1394 214.7 93.0234 214.672L92.154 214.427C91.6767 214.29 91.3187 214.086 91.08 213.813C90.8482 213.533 90.7322 213.21 90.7322 212.841C90.7322 212.507 90.8175 212.217 90.988 211.972C91.1584 211.72 91.3937 211.525 91.6937 211.389C91.9938 211.252 92.3313 211.184 92.7064 211.184C93.211 211.184 93.661 211.31 94.0565 211.563C94.452 211.808 94.7316 212.153 94.8953 212.596L94.0054 213.015C93.8963 212.749 93.7224 212.538 93.4837 212.381C93.2519 212.224 92.9893 212.146 92.6961 212.146C92.4438 212.146 92.2427 212.207 92.0926 212.33C91.9426 212.446 91.8676 212.599 91.8676 212.79C91.8676 212.92 91.9017 213.029 91.9699 213.117C92.0381 213.199 92.1267 213.268 92.2358 213.322C92.3449 213.37 92.4575 213.411 92.5734 213.445L93.4735 213.711C93.9304 213.84 94.2816 214.045 94.527 214.324C94.7725 214.597 94.8953 214.925 94.8953 215.306C94.8953 215.634 94.8066 215.924 94.6293 216.176C94.4589 216.421 94.2202 216.616 93.9133 216.759C93.6065 216.895 93.2485 216.963 92.8393 216.963ZM98.6258 216.963C98.0735 216.963 97.5825 216.837 97.1529 216.585C96.7301 216.326 96.3994 215.978 96.1607 215.542C95.9221 215.098 95.8027 214.604 95.8027 214.059C95.8027 213.499 95.9221 213.005 96.1607 212.575C96.4062 212.146 96.7335 211.808 97.1427 211.563C97.5518 211.31 98.0155 211.184 98.5338 211.184C98.9497 211.184 99.3214 211.256 99.6487 211.399C99.976 211.542 100.252 211.74 100.477 211.992C100.702 212.238 100.873 212.521 100.989 212.841C101.111 213.162 101.173 213.503 101.173 213.864C101.173 213.953 101.169 214.045 101.163 214.14C101.156 214.236 101.142 214.324 101.122 214.406H96.7131V213.486H100.467L99.9146 213.905C99.9828 213.571 99.959 213.274 99.843 213.015C99.7339 212.749 99.5634 212.541 99.3316 212.391C99.1066 212.234 98.8406 212.156 98.5338 212.156C98.2269 212.156 97.9542 212.234 97.7155 212.391C97.4768 212.541 97.2927 212.759 97.1631 213.046C97.0336 213.325 96.9824 213.666 97.0097 214.069C96.9756 214.444 97.0268 214.771 97.1631 215.051C97.3063 215.33 97.5041 215.548 97.7564 215.705C98.0155 215.862 98.3087 215.941 98.6361 215.941C98.9702 215.941 99.2532 215.866 99.485 215.716C99.7237 215.566 99.9112 215.371 100.048 215.133L100.989 215.593C100.88 215.852 100.709 216.087 100.477 216.299C100.252 216.503 99.9794 216.667 99.6589 216.79C99.3452 216.905 99.0009 216.963 98.6258 216.963ZM102.301 216.841V209.098H103.457V216.841H102.301ZM107.406 216.963C106.854 216.963 106.363 216.837 105.933 216.585C105.51 216.326 105.18 215.978 104.941 215.542C104.702 215.098 104.583 214.604 104.583 214.059C104.583 213.499 104.702 213.005 104.941 212.575C105.186 212.146 105.514 211.808 105.923 211.563C106.332 211.31 106.796 211.184 107.314 211.184C107.73 211.184 108.102 211.256 108.429 211.399C108.756 211.542 109.032 211.74 109.257 211.992C109.482 212.238 109.653 212.521 109.769 212.841C109.892 213.162 109.953 213.503 109.953 213.864C109.953 213.953 109.95 214.045 109.943 214.14C109.936 214.236 109.922 214.324 109.902 214.406H105.493V213.486H109.247L108.695 213.905C108.763 213.571 108.739 213.274 108.623 213.015C108.514 212.749 108.344 212.541 108.112 212.391C107.887 212.234 107.621 212.156 107.314 212.156C107.007 212.156 106.734 212.234 106.496 212.391C106.257 212.541 106.073 212.759 105.943 213.046C105.814 213.325 105.763 213.666 105.79 214.069C105.756 214.444 105.807 214.771 105.943 215.051C106.087 215.33 106.284 215.548 106.537 215.705C106.796 215.862 107.089 215.941 107.416 215.941C107.75 215.941 108.033 215.866 108.265 215.716C108.504 215.566 108.691 215.371 108.828 215.133L109.769 215.593C109.66 215.852 109.489 216.087 109.257 216.299C109.032 216.503 108.76 216.667 108.439 216.79C108.125 216.905 107.781 216.963 107.406 216.963ZM113.71 216.963C113.157 216.963 112.666 216.837 112.237 216.585C111.814 216.326 111.476 215.978 111.224 215.542C110.979 215.105 110.856 214.611 110.856 214.059C110.856 213.513 110.979 213.022 111.224 212.586C111.47 212.149 111.807 211.808 112.237 211.563C112.666 211.31 113.157 211.184 113.71 211.184C114.085 211.184 114.436 211.252 114.763 211.389C115.091 211.518 115.374 211.699 115.612 211.931C115.858 212.163 116.038 212.432 116.154 212.739L115.142 213.21C115.026 212.923 114.838 212.695 114.579 212.524C114.327 212.347 114.037 212.258 113.71 212.258C113.396 212.258 113.113 212.337 112.861 212.494C112.615 212.644 112.421 212.858 112.278 213.138C112.134 213.411 112.063 213.721 112.063 214.069C112.063 214.417 112.134 214.73 112.278 215.01C112.421 215.283 112.615 215.497 112.861 215.654C113.113 215.811 113.396 215.889 113.71 215.889C114.044 215.889 114.334 215.804 114.579 215.634C114.831 215.456 115.019 215.221 115.142 214.928L116.154 215.409C116.045 215.702 115.868 215.968 115.622 216.207C115.384 216.438 115.101 216.622 114.773 216.759C114.446 216.895 114.092 216.963 113.71 216.963ZM119.678 216.902C119.098 216.902 118.648 216.738 118.327 216.411C118.007 216.084 117.847 215.623 117.847 215.03V212.35H116.875V211.307H117.028C117.287 211.307 117.489 211.232 117.632 211.082C117.775 210.932 117.847 210.727 117.847 210.468V210.039H119.002V211.307H120.261V212.35H119.002V214.979C119.002 215.17 119.033 215.334 119.094 215.47C119.156 215.6 119.255 215.702 119.391 215.777C119.527 215.845 119.705 215.879 119.923 215.879C119.978 215.879 120.039 215.876 120.107 215.869C120.175 215.862 120.24 215.855 120.301 215.849V216.841C120.206 216.854 120.1 216.868 119.984 216.882C119.868 216.895 119.766 216.902 119.678 216.902Z" fill="#B5B2B2" fill-opacity="0.41"/>
<g clip-path="url(#clip0_3_88350)">
<path d="M326.924 210.117L330.277 213.463L333.631 210.117L334.661 211.147L330.277 215.531L325.894 211.147L326.924 210.117Z" fill="white"/>
</g>
<rect x="41.3204" y="193.247" width="306.127" height="38.7224" rx="14.2469" stroke="#91B0D8" stroke-opacity="0.18" stroke-width="0.730612" shape-rendering="crispEdges"/>
</g>
<rect x="41.3204" y="67.5816" width="64.2939" height="22.649" rx="11.3245" fill="url(#paint0_linear_3_88350)" fill-opacity="0.5"/>
<path d="M58.6713 81.9061V74.8301H59.792V81.9061H58.6713ZM61.1546 81.9061V76.7677H62.1804V77.7745L62.0569 77.6415C62.1836 77.3186 62.3862 77.0748 62.6648 76.9102C62.9434 76.7392 63.2663 76.6538 63.6336 76.6538C64.0135 76.6538 64.3491 76.7361 64.6404 76.9007C64.9316 77.0653 65.1596 77.2933 65.3242 77.5846C65.4888 77.8758 65.5712 78.2114 65.5712 78.5913V81.9061H64.5074V78.8763C64.5074 78.6167 64.4599 78.3982 64.3649 78.2209C64.2699 78.0373 64.1338 77.898 63.9565 77.803C63.7855 77.7017 63.5893 77.651 63.3676 77.651C63.146 77.651 62.9466 77.7017 62.7693 77.803C62.5983 77.898 62.4653 78.0373 62.3703 78.2209C62.2754 78.4045 62.2279 78.623 62.2279 78.8763V81.9061H61.1546ZM66.7198 81.9061V76.7677H67.7931V81.9061H66.7198ZM66.7198 76.0649V74.8301H67.7931V76.0649H66.7198ZM71.2705 81.9631C70.7322 81.9631 70.3143 81.8111 70.0167 81.5072C69.7191 81.2033 69.5703 80.7759 69.5703 80.225V77.7365H68.668V76.7677H68.8105C69.0511 76.7677 69.2379 76.6981 69.3709 76.5588C69.5038 76.4195 69.5703 76.2295 69.5703 75.9889V75.59H70.6436V76.7677H71.8118V77.7365H70.6436V80.1775C70.6436 80.3548 70.6721 80.5068 70.7291 80.6334C70.7861 80.7537 70.8779 80.8487 71.0045 80.9183C71.1312 80.9817 71.2958 81.0133 71.4984 81.0133C71.5491 81.0133 71.6061 81.0102 71.6694 81.0038C71.7327 80.9975 71.7928 80.9912 71.8498 80.9848V81.9061C71.7612 81.9188 71.663 81.9315 71.5554 81.9441C71.4478 81.9568 71.3528 81.9631 71.2705 81.9631ZM72.8972 81.9061V76.7677H73.9705V81.9061H72.8972ZM72.8972 76.0649V74.8301H73.9705V76.0649H72.8972ZM76.764 82.0201C76.4157 82.0201 76.1086 81.9599 75.8427 81.8396C75.5831 81.713 75.3805 81.542 75.2348 81.3268C75.0892 81.1051 75.0164 80.8455 75.0164 80.5479C75.0164 80.2693 75.0765 80.0192 75.1968 79.7976C75.3235 79.576 75.5166 79.3892 75.7762 79.2372C76.0358 79.0852 76.3619 78.9776 76.7545 78.9143L78.5401 78.6198V79.4652L76.9634 79.7406C76.6785 79.7912 76.4695 79.8831 76.3366 80.016C76.2036 80.1427 76.1371 80.3073 76.1371 80.5099C76.1371 80.7062 76.2099 80.8677 76.3556 80.9943C76.5075 81.1146 76.7007 81.1748 76.9349 81.1748C77.2262 81.1748 77.4795 81.1115 77.6948 80.9848C77.9164 80.8582 78.0874 80.6904 78.2077 80.4814C78.328 80.2661 78.3881 80.0287 78.3881 79.7691V78.4489C78.3881 78.1956 78.2932 77.9898 78.1032 77.8315C77.9196 77.6669 77.6726 77.5846 77.3624 77.5846C77.0774 77.5846 76.8273 77.6605 76.612 77.8125C76.4031 77.9581 76.2479 78.1481 76.1466 78.3824L75.2538 77.936C75.3488 77.6827 75.5039 77.4611 75.7192 77.2711C75.9345 77.0748 76.1846 76.9229 76.4695 76.8152C76.7608 76.7076 77.0679 76.6538 77.3909 76.6538C77.7961 76.6538 78.1539 76.7297 78.4641 76.8817C78.7807 77.0337 79.0245 77.2458 79.1955 77.5181C79.3728 77.784 79.4614 78.0943 79.4614 78.4489V81.9061H78.4356V80.9753L78.6541 81.0038C78.5338 81.2128 78.3786 81.3932 78.1887 81.5452C78.0051 81.6972 77.7929 81.8143 77.5523 81.8966C77.318 81.9789 77.0553 82.0201 76.764 82.0201ZM82.8461 81.9631C82.3079 81.9631 81.89 81.8111 81.5924 81.5072C81.2948 81.2033 81.146 80.7759 81.146 80.225V77.7365H80.2437V76.7677H80.3861C80.6267 76.7677 80.8135 76.6981 80.9465 76.5588C81.0795 76.4195 81.146 76.2295 81.146 75.9889V75.59H82.2192V76.7677H83.3875V77.7365H82.2192V80.1775C82.2192 80.3548 82.2477 80.5068 82.3047 80.6334C82.3617 80.7537 82.4535 80.8487 82.5802 80.9183C82.7068 80.9817 82.8714 81.0133 83.074 81.0133C83.1247 81.0133 83.1817 81.0102 83.245 81.0038C83.3083 80.9975 83.3685 80.9912 83.4255 80.9848V81.9061C83.3368 81.9188 83.2387 81.9315 83.131 81.9441C83.0234 81.9568 82.9284 81.9631 82.8461 81.9631ZM86.7926 82.0201C86.2797 82.0201 85.8238 81.903 85.4249 81.6687C85.0323 81.4281 84.7252 81.1051 84.5036 80.6999C84.2819 80.2883 84.1711 79.8292 84.1711 79.3227C84.1711 78.8035 84.2819 78.3444 84.5036 77.9455C84.7315 77.5466 85.0354 77.2331 85.4154 77.0052C85.7953 76.7709 86.2259 76.6538 86.7071 76.6538C87.0933 76.6538 87.4384 76.7202 87.7424 76.8532C88.0463 76.9862 88.3027 77.1698 88.5117 77.4041C88.7207 77.632 88.879 77.8948 88.9866 78.1924C89.1006 78.49 89.1576 78.8066 89.1576 79.1422C89.1576 79.2245 89.1544 79.31 89.1481 79.3987C89.1417 79.4873 89.1291 79.5696 89.1101 79.6456H85.0165V78.7908H88.5022L87.9893 79.1802C88.0526 78.8699 88.0305 78.5945 87.9228 78.3539C87.8215 78.1069 87.6632 77.9138 87.4479 77.7745C87.239 77.6289 86.992 77.5561 86.7071 77.5561C86.4222 77.5561 86.1689 77.6289 85.9473 77.7745C85.7256 77.9138 85.5547 78.1164 85.4344 78.3824C85.3141 78.642 85.2666 78.9586 85.2919 79.3322C85.2602 79.6804 85.3077 79.9844 85.4344 80.244C85.5673 80.5036 85.751 80.7062 85.9852 80.8519C86.2259 80.9975 86.4981 81.0703 86.8021 81.0703C87.1123 81.0703 87.3751 81.0007 87.5904 80.8614C87.812 80.722 87.9861 80.5416 88.1128 80.32L88.9866 80.7474C88.8853 80.988 88.727 81.2064 88.5117 81.4027C88.3027 81.5927 88.0495 81.7447 87.7519 81.8586C87.4606 81.9663 87.1408 82.0201 86.7926 82.0201Z" fill="white"/>
<rect x="41.3204" y="67.5816" width="64.2939" height="22.649" rx="11.3245" stroke="#1BF3A4" stroke-width="0.730612"/>
<g opacity="0.8">
<path d="M137.182 83.9057C136.669 83.9057 136.191 83.8139 135.748 83.6303C135.311 83.4467 134.925 83.1902 134.589 82.8609C134.26 82.5317 134 82.1454 133.81 81.7022C133.627 81.259 133.535 80.7746 133.535 80.249C133.535 79.7235 133.627 79.2391 133.81 78.7958C134 78.3463 134.26 77.96 134.589 77.6371C134.918 77.3078 135.305 77.0545 135.748 76.8772C136.191 76.6936 136.669 76.6018 137.182 76.6018C137.701 76.6018 138.179 76.6936 138.616 76.8772C139.059 77.0545 139.446 77.3078 139.775 77.6371C140.111 77.9663 140.37 78.3526 140.554 78.7958C140.737 79.2391 140.829 79.7235 140.829 80.249C140.829 80.7746 140.734 81.259 140.544 81.7022C140.361 82.1454 140.104 82.5317 139.775 82.8609C139.446 83.1902 139.059 83.4467 138.616 83.6303C138.173 83.8139 137.695 83.9057 137.182 83.9057ZM137.182 82.8799C137.549 82.8799 137.885 82.8135 138.189 82.6805C138.499 82.5475 138.768 82.3639 138.996 82.1296C139.224 81.889 139.401 81.6104 139.528 81.2938C139.655 80.9709 139.718 80.6226 139.718 80.249C139.718 79.8754 139.655 79.5303 139.528 79.2137C139.401 78.8971 139.224 78.6185 138.996 78.3779C138.768 78.1373 138.499 77.9505 138.189 77.8175C137.885 77.6846 137.549 77.6181 137.182 77.6181C136.815 77.6181 136.476 77.6846 136.166 77.8175C135.862 77.9505 135.596 78.1373 135.368 78.3779C135.14 78.6185 134.963 78.8971 134.836 79.2137C134.716 79.5303 134.656 79.8754 134.656 80.249C134.656 80.6226 134.716 80.9709 134.836 81.2938C134.963 81.6104 135.14 81.889 135.368 82.1296C135.596 82.3639 135.865 82.5475 136.175 82.6805C136.486 82.8135 136.821 82.8799 137.182 82.8799ZM142.557 83.7917V79.6221H141.607V78.6534H142.557V78.3874C142.557 78.0012 142.636 77.6782 142.795 77.4186C142.953 77.1527 143.171 76.9501 143.45 76.8107C143.735 76.6714 144.061 76.6018 144.428 76.6018C144.498 76.6018 144.577 76.6081 144.666 76.6208C144.754 76.6271 144.827 76.6366 144.884 76.6493V77.5801C144.834 77.5674 144.777 77.5611 144.713 77.5611C144.65 77.5548 144.599 77.5516 144.561 77.5516C144.276 77.5516 144.048 77.6181 143.877 77.751C143.706 77.8777 143.621 78.0898 143.621 78.3874V78.6534H146.081V79.6221H143.621V83.7917H142.557ZM146.271 83.7917V79.6221H145.331V78.6534H146.271V78.3874C146.271 78.0012 146.35 77.6782 146.508 77.4186C146.673 77.1527 146.895 76.9501 147.173 76.8107C147.458 76.6714 147.781 76.6018 148.142 76.6018C148.218 76.6018 148.3 76.6081 148.389 76.6208C148.478 76.6271 148.55 76.6366 148.607 76.6493V77.5801C148.55 77.5674 148.49 77.5611 148.427 77.5611C148.37 77.5548 148.319 77.5516 148.275 77.5516C147.99 77.5516 147.762 77.6181 147.591 77.751C147.427 77.8777 147.344 78.0898 147.344 78.3874V78.6534H148.522V79.6221H147.344V83.7917H146.271ZM151.409 83.9057C150.883 83.9057 150.421 83.7759 150.022 83.5163C149.63 83.2567 149.354 82.9084 149.196 82.4715L150.022 82.0821C150.162 82.3734 150.352 82.6045 150.592 82.7755C150.839 82.9464 151.111 83.0319 151.409 83.0319C151.662 83.0319 151.868 82.9749 152.026 82.8609C152.185 82.747 152.264 82.5918 152.264 82.3955C152.264 82.2689 152.229 82.1676 152.159 82.0916C152.09 82.0093 152.001 81.9428 151.893 81.8922C151.792 81.8415 151.688 81.8035 151.58 81.7782L150.773 81.5502C150.329 81.4236 149.997 81.2336 149.775 80.9804C149.56 80.7207 149.452 80.42 149.452 80.078C149.452 79.7678 149.532 79.4987 149.69 79.2707C149.848 79.0364 150.067 78.856 150.345 78.7293C150.624 78.6027 150.937 78.5394 151.286 78.5394C151.754 78.5394 152.172 78.6565 152.539 78.8908C152.907 79.1188 153.166 79.4385 153.318 79.8501L152.492 80.2395C152.39 79.9926 152.229 79.7963 152.007 79.6506C151.792 79.505 151.548 79.4322 151.276 79.4322C151.042 79.4322 150.855 79.4892 150.716 79.6031C150.576 79.7108 150.507 79.8533 150.507 80.0306C150.507 80.1509 150.538 80.2522 150.602 80.3345C150.665 80.4105 150.747 80.4738 150.849 80.5244C150.95 80.5688 151.054 80.6068 151.162 80.6384L151.998 80.8854C152.422 81.0057 152.748 81.1956 152.976 81.4553C153.204 81.7085 153.318 82.0125 153.318 82.3671C153.318 82.671 153.236 82.9401 153.071 83.1744C152.913 83.4023 152.691 83.5828 152.406 83.7158C152.121 83.8424 151.789 83.9057 151.409 83.9057ZM156.782 83.9057C156.269 83.9057 155.813 83.7886 155.414 83.5543C155.022 83.3137 154.715 82.9908 154.493 82.5855C154.272 82.1739 154.161 81.7149 154.161 81.2083C154.161 80.6891 154.272 80.23 154.493 79.8311C154.721 79.4322 155.025 79.1188 155.405 78.8908C155.785 78.6565 156.215 78.5394 156.697 78.5394C157.083 78.5394 157.428 78.6059 157.732 78.7388C158.036 78.8718 158.292 79.0554 158.501 79.2897C158.71 79.5177 158.869 79.7804 158.976 80.078C159.09 80.3756 159.147 80.6922 159.147 81.0278C159.147 81.1102 159.144 81.1956 159.138 81.2843C159.131 81.3729 159.119 81.4553 159.1 81.5312H155.006V80.6764H158.492L157.979 81.0658C158.042 80.7556 158.02 80.4801 157.912 80.2395C157.811 79.9926 157.653 79.7994 157.438 79.6601C157.229 79.5145 156.982 79.4417 156.697 79.4417C156.412 79.4417 156.159 79.5145 155.937 79.6601C155.715 79.7994 155.544 80.0021 155.424 80.268C155.304 80.5276 155.256 80.8442 155.282 81.2178C155.25 81.5661 155.297 81.87 155.424 82.1296C155.557 82.3892 155.741 82.5918 155.975 82.7375C156.215 82.8831 156.488 82.9559 156.792 82.9559C157.102 82.9559 157.365 82.8863 157.58 82.747C157.802 82.6077 157.976 82.4272 158.102 82.2056L158.976 82.633C158.875 82.8736 158.717 83.0921 158.501 83.2884C158.292 83.4783 158.039 83.6303 157.742 83.7443C157.45 83.8519 157.13 83.9057 156.782 83.9057ZM162.417 83.8487C161.879 83.8487 161.461 83.6968 161.163 83.3928C160.866 83.0889 160.717 82.6615 160.717 82.1106V79.6221H159.815V78.6534H159.957C160.198 78.6534 160.385 78.5837 160.518 78.4444C160.651 78.3051 160.717 78.1151 160.717 77.8745V77.4756H161.79V78.6534H162.959V79.6221H161.79V82.0631C161.79 82.2404 161.819 82.3924 161.876 82.519C161.933 82.6393 162.025 82.7343 162.151 82.804C162.278 82.8673 162.442 82.8989 162.645 82.8989C162.696 82.8989 162.753 82.8958 162.816 82.8894C162.879 82.8831 162.94 82.8768 162.997 82.8704V83.7917C162.908 83.8044 162.81 83.8171 162.702 83.8297C162.594 83.8424 162.499 83.8487 162.417 83.8487Z" fill="#718CAF"/>
</g>
<g opacity="0.8">
<path d="M198.768 83.7917V76.7158H199.889V82.7945H202.947V83.7917H198.768ZM203.784 83.7917V78.6534H204.857V83.7917H203.784ZM203.784 77.9505V76.7158H204.857V77.9505H203.784ZM206.112 83.7917V78.6534H207.138V79.6601L207.014 79.5272C207.141 79.2042 207.343 78.9605 207.622 78.7958C207.901 78.6249 208.224 78.5394 208.591 78.5394C208.971 78.5394 209.306 78.6217 209.598 78.7863C209.889 78.951 210.117 79.1789 210.281 79.4702C210.446 79.7614 210.528 80.097 210.528 80.477V83.7917H209.465V80.7619C209.465 80.5023 209.417 80.2838 209.322 80.1065C209.227 79.9229 209.091 79.7836 208.914 79.6886C208.743 79.5873 208.546 79.5367 208.325 79.5367C208.103 79.5367 207.904 79.5873 207.726 79.6886C207.556 79.7836 207.423 79.9229 207.328 80.1065C207.233 80.2902 207.185 80.5086 207.185 80.7619V83.7917H206.112ZM211.677 83.7917V76.6018H212.75V81.4173L212.332 81.3128L214.906 78.6534H216.246L214.308 80.7144L216.331 83.7917H215.096L213.292 81.0658L213.928 80.9804L212.408 82.595L212.75 81.8827V83.7917H211.677Z" fill="#718CAF"/>
</g>
<g opacity="0.8">
<path d="M258.235 83.9057C257.792 83.9057 257.38 83.8234 257 83.6588C256.62 83.4878 256.297 83.2567 256.031 82.9654C255.765 82.6742 255.569 82.3386 255.443 81.9586L256.392 81.5597C256.563 81.9966 256.813 82.3322 257.143 82.5665C257.472 82.8008 257.852 82.9179 258.282 82.9179C258.536 82.9179 258.757 82.8799 258.947 82.804C259.137 82.7216 259.283 82.6077 259.384 82.462C259.492 82.3164 259.546 82.1486 259.546 81.9586C259.546 81.699 259.473 81.4932 259.327 81.3413C259.182 81.1893 258.966 81.069 258.681 80.9804L257.352 80.5624C256.82 80.3978 256.415 80.1477 256.136 79.8121C255.857 79.4702 255.718 79.0713 255.718 78.6154C255.718 78.2164 255.816 77.8682 256.012 77.5706C256.209 77.2666 256.478 77.0292 256.82 76.8582C257.168 76.6873 257.564 76.6018 258.007 76.6018C258.431 76.6018 258.818 76.6778 259.166 76.8297C259.514 76.9754 259.812 77.178 260.059 77.4376C260.312 77.6972 260.495 77.998 260.609 78.3399L259.679 78.7483C259.539 78.3747 259.321 78.0866 259.023 77.884C258.732 77.6814 258.393 77.5801 258.007 77.5801C257.773 77.5801 257.567 77.6212 257.39 77.7036C257.212 77.7795 257.073 77.8935 256.972 78.0455C256.877 78.1911 256.829 78.3621 256.829 78.5584C256.829 78.7863 256.902 78.9889 257.048 79.1662C257.193 79.3435 257.415 79.4765 257.713 79.5652L258.947 79.9546C259.511 80.1255 259.935 80.3725 260.22 80.6954C260.505 81.012 260.647 81.4078 260.647 81.8827C260.647 82.2752 260.543 82.6235 260.334 82.9274C260.131 83.2314 259.85 83.472 259.489 83.6493C259.128 83.8202 258.71 83.9057 258.235 83.9057ZM263.634 83.9057C263.248 83.9057 262.909 83.8202 262.618 83.6493C262.327 83.472 262.099 83.2282 261.934 82.9179C261.776 82.6013 261.697 82.2372 261.697 81.8257V78.6534H262.77V81.7307C262.77 81.965 262.817 82.1708 262.912 82.3481C263.007 82.5254 263.14 82.6647 263.311 82.766C263.482 82.8609 263.679 82.9084 263.9 82.9084C264.128 82.9084 264.328 82.8578 264.499 82.7565C264.669 82.6552 264.802 82.5127 264.897 82.3291C264.999 82.1454 265.049 81.9301 265.049 81.6832V78.6534H266.113V83.7917H265.097V82.785L265.211 82.9179C265.091 83.2345 264.891 83.4783 264.612 83.6493C264.334 83.8202 264.008 83.9057 263.634 83.9057ZM270.111 83.9057C269.712 83.9057 269.348 83.8234 269.019 83.6588C268.696 83.4941 268.446 83.2567 268.269 82.9464L268.392 82.747V83.7917H267.366V76.6018H268.44V79.7171L268.269 79.4702C268.459 79.1789 268.712 78.951 269.028 78.7863C269.345 78.6217 269.706 78.5394 270.111 78.5394C270.599 78.5394 271.036 78.6565 271.422 78.8908C271.815 79.1251 272.122 79.4448 272.343 79.8501C272.571 80.2553 272.685 80.7112 272.685 81.2178C272.685 81.7244 272.571 82.1803 272.343 82.5855C272.122 82.9908 271.818 83.3137 271.431 83.5543C271.045 83.7886 270.605 83.9057 270.111 83.9057ZM270.007 82.9084C270.311 82.9084 270.58 82.8356 270.814 82.69C271.048 82.5443 271.232 82.3449 271.365 82.0916C271.504 81.832 271.574 81.5407 271.574 81.2178C271.574 80.8949 271.504 80.6068 271.365 80.3535C271.232 80.1002 271.048 79.9008 270.814 79.7551C270.58 79.6095 270.311 79.5367 270.007 79.5367C269.709 79.5367 269.44 79.6095 269.199 79.7551C268.965 79.9008 268.778 80.1002 268.639 80.3535C268.506 80.6068 268.44 80.8949 268.44 81.2178C268.44 81.5407 268.506 81.832 268.639 82.0916C268.778 82.3449 268.965 82.5443 269.199 82.69C269.44 82.8356 269.709 82.9084 270.007 82.9084ZM273.729 83.7917V78.6534H274.755V79.7646L274.622 79.5936C274.73 79.2454 274.926 78.9826 275.211 78.8053C275.496 78.628 275.822 78.5394 276.189 78.5394C276.601 78.5394 276.965 78.6502 277.281 78.8718C277.604 79.0871 277.82 79.3752 277.927 79.7361L277.623 79.7646C277.775 79.353 278.006 79.0459 278.317 78.8433C278.633 78.6407 278.994 78.5394 279.399 78.5394C279.754 78.5394 280.074 78.6217 280.359 78.7863C280.65 78.951 280.881 79.1789 281.052 79.4702C281.223 79.7614 281.309 80.0939 281.309 80.4675V83.7917H280.235V80.7619C280.235 80.5023 280.188 80.2838 280.093 80.1065C280.004 79.9229 279.878 79.7836 279.713 79.6886C279.555 79.5873 279.368 79.5367 279.153 79.5367C278.937 79.5367 278.747 79.5873 278.583 79.6886C278.418 79.7836 278.288 79.9229 278.193 80.1065C278.098 80.2902 278.051 80.5086 278.051 80.7619V83.7917H276.987V80.7619C276.987 80.5023 276.939 80.2838 276.845 80.1065C276.756 79.9229 276.629 79.7836 276.465 79.6886C276.306 79.5873 276.116 79.5367 275.895 79.5367C275.679 79.5367 275.489 79.5873 275.325 79.6886C275.16 79.7836 275.03 79.9229 274.935 80.1065C274.847 80.2902 274.802 80.5086 274.802 80.7619V83.7917H273.729ZM282.457 83.7917V78.6534H283.531V83.7917H282.457ZM282.457 77.9505V76.7158H283.531V77.9505H282.457ZM287.008 83.8487C286.47 83.8487 286.052 83.6968 285.754 83.3928C285.457 83.0889 285.308 82.6615 285.308 82.1106V79.6221H284.405V78.6534H284.548C284.789 78.6534 284.975 78.5837 285.108 78.4444C285.241 78.3051 285.308 78.1151 285.308 77.8745V77.4756H286.381V78.6534H287.549V79.6221H286.381V82.0631C286.381 82.2404 286.41 82.3924 286.467 82.519C286.524 82.6393 286.615 82.7343 286.742 82.804C286.869 82.8673 287.033 82.8989 287.236 82.8989C287.287 82.8989 287.344 82.8958 287.407 82.8894C287.47 82.8831 287.53 82.8768 287.587 82.8704V83.7917C287.499 83.8044 287.401 83.8171 287.293 83.8297C287.185 83.8424 287.09 83.8487 287.008 83.8487Z" fill="#718CAF"/>
</g>
<rect x="25.2471" y="55.8918" width="337.543" height="197.996" rx="14.2469" stroke="#91B0D8" stroke-opacity="0.18" stroke-width="0.730612" shape-rendering="crispEdges"/>
</g>
<g filter="url(#filter2_d_3_88350)">
<rect x="40.9551" y="120.551" width="306.857" height="39.4531" rx="14.6122" fill="#0E1A2C" shape-rendering="crispEdges"/>
<path d="M59.0244 144.633C58.5471 144.633 58.1038 144.544 57.6947 144.367C57.2855 144.183 56.9378 143.934 56.6514 143.62C56.365 143.307 56.1536 142.945 56.0172 142.536L57.0401 142.107C57.2242 142.577 57.4935 142.938 57.8481 143.191C58.2027 143.443 58.6118 143.569 59.0755 143.569C59.3483 143.569 59.587 143.528 59.7915 143.446C59.9961 143.358 60.1529 143.235 60.2621 143.078C60.378 142.921 60.4359 142.741 60.4359 142.536C60.4359 142.257 60.3575 142.035 60.2007 141.871C60.0438 141.708 59.812 141.578 59.5051 141.483L58.0731 141.033C57.5003 140.855 57.0639 140.586 56.7639 140.224C56.4638 139.856 56.3138 139.427 56.3138 138.936C56.3138 138.506 56.4195 138.131 56.6309 137.811C56.8423 137.483 57.1321 137.228 57.5003 137.043C57.8754 136.859 58.3016 136.767 58.7789 136.767C59.2358 136.767 59.6517 136.849 60.0268 137.013C60.4018 137.17 60.7223 137.388 60.9883 137.667C61.261 137.947 61.4588 138.271 61.5815 138.639L60.5791 139.079C60.4291 138.677 60.1939 138.366 59.8734 138.148C59.5597 137.93 59.1949 137.821 58.7789 137.821C58.5266 137.821 58.305 137.865 58.1141 137.954C57.9231 138.036 57.7731 138.158 57.664 138.322C57.5617 138.479 57.5106 138.663 57.5106 138.874C57.5106 139.12 57.589 139.338 57.7458 139.529C57.9027 139.72 58.1413 139.863 58.4618 139.959L59.7915 140.378C60.3984 140.562 60.8553 140.828 61.1622 141.176C61.469 141.517 61.6225 141.943 61.6225 142.454C61.6225 142.877 61.5099 143.252 61.2849 143.579C61.0667 143.907 60.7633 144.166 60.3746 144.357C59.9859 144.541 59.5358 144.633 59.0244 144.633ZM65.4629 144.633C64.9105 144.633 64.4196 144.507 63.99 144.255C63.5672 143.995 63.2365 143.648 62.9978 143.211C62.7591 142.768 62.6398 142.274 62.6398 141.728C62.6398 141.169 62.7591 140.675 62.9978 140.245C63.2433 139.815 63.5706 139.478 63.9797 139.232C64.3889 138.98 64.8526 138.854 65.3708 138.854C65.7868 138.854 66.1584 138.925 66.4857 139.069C66.8131 139.212 67.0892 139.41 67.3143 139.662C67.5393 139.907 67.7098 140.19 67.8257 140.511C67.9484 140.831 68.0098 141.172 68.0098 141.534C68.0098 141.622 68.0064 141.714 67.9996 141.81C67.9927 141.905 67.9791 141.994 67.9587 142.076H63.5501V141.155H67.304L66.7517 141.575C66.8199 141.241 66.796 140.944 66.6801 140.685C66.571 140.419 66.4005 140.211 66.1687 140.061C65.9436 139.904 65.6777 139.826 65.3708 139.826C65.064 139.826 64.7912 139.904 64.5525 140.061C64.3139 140.211 64.1298 140.429 64.0002 140.715C63.8706 140.995 63.8195 141.336 63.8468 141.738C63.8127 142.113 63.8638 142.441 64.0002 142.72C64.1434 143 64.3411 143.218 64.5935 143.375C64.8526 143.532 65.1458 143.61 65.4731 143.61C65.8072 143.61 66.0902 143.535 66.3221 143.385C66.5607 143.235 66.7483 143.041 66.8847 142.802L67.8257 143.262C67.7166 143.521 67.5461 143.757 67.3143 143.968C67.0892 144.173 66.8165 144.336 66.496 144.459C66.1823 144.575 65.8379 144.633 65.4629 144.633ZM69.1378 144.51V136.767H70.2936V144.51H69.1378ZM74.2431 144.633C73.6907 144.633 73.1998 144.507 72.7702 144.255C72.3474 143.995 72.0167 143.648 71.778 143.211C71.5393 142.768 71.42 142.274 71.42 141.728C71.42 141.169 71.5393 140.675 71.778 140.245C72.0235 139.815 72.3508 139.478 72.7599 139.232C73.1691 138.98 73.6328 138.854 74.151 138.854C74.567 138.854 74.9386 138.925 75.2659 139.069C75.5932 139.212 75.8694 139.41 76.0944 139.662C76.3195 139.907 76.4899 140.19 76.6059 140.511C76.7286 140.831 76.79 141.172 76.79 141.534C76.79 141.622 76.7866 141.714 76.7798 141.81C76.7729 141.905 76.7593 141.994 76.7388 142.076H72.3303V141.155H76.0842L75.5319 141.575C75.6001 141.241 75.5762 140.944 75.4603 140.685C75.3512 140.419 75.1807 140.211 74.9488 140.061C74.7238 139.904 74.4579 139.826 74.151 139.826C73.8442 139.826 73.5714 139.904 73.3327 140.061C73.0941 140.211 72.9099 140.429 72.7804 140.715C72.6508 140.995 72.5997 141.336 72.627 141.738C72.5929 142.113 72.644 142.441 72.7804 142.72C72.9236 143 73.1213 143.218 73.3736 143.375C73.6328 143.532 73.926 143.61 74.2533 143.61C74.5874 143.61 74.8704 143.535 75.1023 143.385C75.3409 143.235 75.5285 143.041 75.6648 142.802L76.6059 143.262C76.4968 143.521 76.3263 143.757 76.0944 143.968C75.8694 144.173 75.5967 144.336 75.2762 144.459C74.9625 144.575 74.6181 144.633 74.2431 144.633ZM80.5467 144.633C79.9944 144.633 79.5034 144.507 79.0738 144.255C78.6511 143.995 78.3135 143.648 78.0612 143.211C77.8157 142.775 77.693 142.28 77.693 141.728C77.693 141.183 77.8157 140.692 78.0612 140.255C78.3067 139.819 78.6442 139.478 79.0738 139.232C79.5034 138.98 79.9944 138.854 80.5467 138.854C80.9218 138.854 81.273 138.922 81.6003 139.058C81.9276 139.188 82.2106 139.369 82.4493 139.601C82.6947 139.832 82.8755 140.102 82.9914 140.409L81.9787 140.879C81.8628 140.593 81.6753 140.364 81.4162 140.194C81.1639 140.017 80.8741 139.928 80.5467 139.928C80.2331 139.928 79.9501 140.006 79.6978 140.163C79.4523 140.313 79.2579 140.528 79.1147 140.808C78.9715 141.08 78.8999 141.391 78.8999 141.738C78.8999 142.086 78.9715 142.4 79.1147 142.679C79.2579 142.952 79.4523 143.167 79.6978 143.324C79.9501 143.481 80.2331 143.559 80.5467 143.559C80.8809 143.559 81.1707 143.474 81.4162 143.303C81.6685 143.126 81.856 142.891 81.9787 142.598L82.9914 143.078C82.8823 143.371 82.705 143.637 82.4595 143.876C82.2208 144.108 81.9378 144.292 81.6105 144.428C81.2832 144.565 80.9286 144.633 80.5467 144.633ZM86.5146 144.572C85.9349 144.572 85.4849 144.408 85.1644 144.081C84.8439 143.753 84.6836 143.293 84.6836 142.7V140.02H83.7119V138.977H83.8654C84.1245 138.977 84.3256 138.902 84.4688 138.752C84.612 138.602 84.6836 138.397 84.6836 138.138V137.708H85.8395V138.977H87.0976V140.02H85.8395V142.649C85.8395 142.84 85.8702 143.003 85.9315 143.14C85.9929 143.269 86.0918 143.371 86.2282 143.446C86.3645 143.515 86.5418 143.549 86.76 143.549C86.8146 143.549 86.876 143.545 86.9442 143.539C87.0123 143.532 87.0771 143.525 87.1385 143.518V144.51C87.043 144.524 86.9373 144.538 86.8214 144.551C86.7055 144.565 86.6032 144.572 86.5146 144.572ZM92.4479 144.572C91.8683 144.572 91.4183 144.408 91.0978 144.081C90.7773 143.753 90.617 143.293 90.617 142.7V140.02H89.6453V138.977H89.7987C90.0579 138.977 90.259 138.902 90.4022 138.752C90.5454 138.602 90.617 138.397 90.617 138.138V137.708H91.7728V138.977H93.031V140.02H91.7728V142.649C91.7728 142.84 91.8035 143.003 91.8649 143.14C91.9263 143.269 92.0251 143.371 92.1615 143.446C92.2979 143.515 92.4752 143.549 92.6934 143.549C92.748 143.549 92.8093 143.545 92.8775 143.539C92.9457 143.532 93.0105 143.525 93.0719 143.518V144.51C92.9764 144.524 92.8707 144.538 92.7548 144.551C92.6389 144.565 92.5366 144.572 92.4479 144.572ZM94.1998 144.51V136.767H95.3556V140.061L95.1715 139.918C95.3079 139.57 95.5261 139.307 95.8262 139.13C96.1262 138.946 96.474 138.854 96.8695 138.854C97.2786 138.854 97.64 138.943 97.9537 139.12C98.2674 139.297 98.5129 139.543 98.6902 139.856C98.8675 140.17 98.9561 140.528 98.9561 140.93V144.51H97.8105V141.247C97.8105 140.968 97.7559 140.733 97.6468 140.542C97.5446 140.344 97.4014 140.194 97.2172 140.092C97.0331 139.982 96.8217 139.928 96.5831 139.928C96.3512 139.928 96.1398 139.982 95.9489 140.092C95.7648 140.194 95.6182 140.344 95.5091 140.542C95.4068 140.739 95.3556 140.975 95.3556 141.247V144.51H94.1998ZM102.791 144.633C102.239 144.633 101.748 144.507 101.318 144.255C100.895 143.995 100.565 143.648 100.326 143.211C100.087 142.768 99.9681 142.274 99.9681 141.728C99.9681 141.169 100.087 140.675 100.326 140.245C100.572 139.815 100.899 139.478 101.308 139.232C101.717 138.98 102.181 138.854 102.699 138.854C103.115 138.854 103.487 138.925 103.814 139.069C104.141 139.212 104.418 139.41 104.643 139.662C104.868 139.907 105.038 140.19 105.154 140.511C105.277 140.831 105.338 141.172 105.338 141.534C105.338 141.622 105.335 141.714 105.328 141.81C105.321 141.905 105.307 141.994 105.287 142.076H100.878V141.155H104.632L104.08 141.575C104.148 141.241 104.124 140.944 104.008 140.685C103.899 140.419 103.729 140.211 103.497 140.061C103.272 139.904 103.006 139.826 102.699 139.826C102.392 139.826 102.119 139.904 101.881 140.061C101.642 140.211 101.458 140.429 101.328 140.715C101.199 140.995 101.148 141.336 101.175 141.738C101.141 142.113 101.192 142.441 101.328 142.72C101.472 143 101.669 143.218 101.922 143.375C102.181 143.532 102.474 143.61 102.801 143.61C103.136 143.61 103.419 143.535 103.65 143.385C103.889 143.235 104.077 143.041 104.213 142.802L105.154 143.262C105.045 143.521 104.874 143.757 104.643 143.968C104.418 144.173 104.145 144.336 103.824 144.459C103.511 144.575 103.166 144.633 102.791 144.633ZM108.254 144.51V138.977H109.359V140.092L109.257 139.928C109.379 139.566 109.577 139.307 109.85 139.15C110.123 138.987 110.45 138.905 110.832 138.905H111.169V139.959H110.689C110.307 139.959 109.996 140.078 109.758 140.317C109.526 140.548 109.41 140.883 109.41 141.319V144.51H108.254ZM114.558 144.633C114.006 144.633 113.515 144.507 113.085 144.255C112.662 143.995 112.332 143.648 112.093 143.211C111.854 142.768 111.735 142.274 111.735 141.728C111.735 141.169 111.854 140.675 112.093 140.245C112.338 139.815 112.666 139.478 113.075 139.232C113.484 138.98 113.948 138.854 114.466 138.854C114.882 138.854 115.254 138.925 115.581 139.069C115.908 139.212 116.184 139.41 116.409 139.662C116.634 139.907 116.805 140.19 116.921 140.511C117.044 140.831 117.105 141.172 117.105 141.534C117.105 141.622 117.102 141.714 117.095 141.81C117.088 141.905 117.074 141.994 117.054 142.076H112.645V141.155H116.399L115.847 141.575C115.915 141.241 115.891 140.944 115.775 140.685C115.666 140.419 115.496 140.211 115.264 140.061C115.039 139.904 114.773 139.826 114.466 139.826C114.159 139.826 113.886 139.904 113.648 140.061C113.409 140.211 113.225 140.429 113.095 140.715C112.966 140.995 112.915 141.336 112.942 141.738C112.908 142.113 112.959 142.441 113.095 142.72C113.239 143 113.436 143.218 113.689 143.375C113.948 143.532 114.241 143.61 114.568 143.61C114.902 143.61 115.185 143.535 115.417 143.385C115.656 143.235 115.843 143.041 115.98 142.802L116.921 143.262C116.812 143.521 116.641 143.757 116.409 143.968C116.184 144.173 115.912 144.336 115.591 144.459C115.277 144.575 114.933 144.633 114.558 144.633ZM120.903 146.761C120.5 146.761 120.129 146.696 119.788 146.566C119.447 146.437 119.154 146.256 118.908 146.024C118.663 145.799 118.478 145.533 118.356 145.226L119.419 144.786C119.515 145.046 119.689 145.26 119.941 145.431C120.2 145.601 120.517 145.687 120.892 145.687C121.186 145.687 121.448 145.629 121.68 145.513C121.912 145.404 122.096 145.24 122.232 145.022C122.369 144.81 122.437 144.555 122.437 144.255V143.007L122.641 143.242C122.451 143.597 122.185 143.866 121.844 144.05C121.51 144.234 121.131 144.326 120.708 144.326C120.197 144.326 119.737 144.207 119.327 143.968C118.918 143.729 118.594 143.402 118.356 142.986C118.124 142.57 118.008 142.103 118.008 141.585C118.008 141.06 118.124 140.593 118.356 140.184C118.594 139.774 118.915 139.451 119.317 139.212C119.72 138.973 120.18 138.854 120.698 138.854C121.121 138.854 121.496 138.946 121.823 139.13C122.157 139.307 122.43 139.566 122.641 139.907L122.488 140.194V138.977H123.583V144.255C123.583 144.732 123.467 145.158 123.235 145.533C123.01 145.915 122.696 146.215 122.294 146.433C121.891 146.651 121.428 146.761 120.903 146.761ZM120.841 143.252C121.148 143.252 121.421 143.181 121.66 143.037C121.898 142.887 122.086 142.69 122.222 142.444C122.365 142.192 122.437 141.909 122.437 141.595C122.437 141.281 122.365 140.998 122.222 140.746C122.079 140.494 121.888 140.296 121.649 140.153C121.411 140.003 121.141 139.928 120.841 139.928C120.528 139.928 120.248 140.003 120.003 140.153C119.757 140.296 119.563 140.494 119.419 140.746C119.283 140.992 119.215 141.275 119.215 141.595C119.215 141.902 119.283 142.182 119.419 142.434C119.563 142.686 119.757 142.887 120.003 143.037C120.248 143.181 120.528 143.252 120.841 143.252ZM124.935 144.51V138.977H126.091V144.51H124.935ZM124.935 138.22V136.89H126.091V138.22H124.935ZM129.488 144.633C128.922 144.633 128.425 144.493 127.995 144.214C127.572 143.934 127.276 143.559 127.105 143.088L127.995 142.669C128.145 142.983 128.35 143.232 128.609 143.416C128.875 143.6 129.168 143.692 129.488 143.692C129.761 143.692 129.983 143.631 130.153 143.508C130.324 143.385 130.409 143.218 130.409 143.007C130.409 142.87 130.371 142.761 130.296 142.679C130.221 142.591 130.126 142.519 130.01 142.465C129.901 142.41 129.788 142.369 129.672 142.342L128.803 142.096C128.326 141.96 127.968 141.755 127.729 141.483C127.497 141.203 127.381 140.879 127.381 140.511C127.381 140.177 127.467 139.887 127.637 139.641C127.807 139.389 128.043 139.195 128.343 139.058C128.643 138.922 128.98 138.854 129.355 138.854C129.86 138.854 130.31 138.98 130.706 139.232C131.101 139.478 131.381 139.822 131.544 140.265L130.654 140.685C130.545 140.419 130.371 140.207 130.133 140.051C129.901 139.894 129.638 139.815 129.345 139.815C129.093 139.815 128.892 139.877 128.742 139.999C128.592 140.115 128.517 140.269 128.517 140.46C128.517 140.589 128.551 140.698 128.619 140.787C128.687 140.869 128.776 140.937 128.885 140.992C128.994 141.039 129.107 141.08 129.222 141.114L130.123 141.38C130.579 141.51 130.931 141.714 131.176 141.994C131.422 142.267 131.544 142.594 131.544 142.976C131.544 143.303 131.456 143.593 131.278 143.845C131.108 144.091 130.869 144.285 130.562 144.428C130.256 144.565 129.898 144.633 129.488 144.633ZM135.07 144.572C134.491 144.572 134.041 144.408 133.72 144.081C133.4 143.753 133.239 143.293 133.239 142.7V140.02H132.268V138.977H132.421C132.68 138.977 132.881 138.902 133.025 138.752C133.168 138.602 133.239 138.397 133.239 138.138V137.708H134.395V138.977H135.653V140.02H134.395V142.649C134.395 142.84 134.426 143.003 134.487 143.14C134.549 143.269 134.648 143.371 134.784 143.446C134.92 143.515 135.098 143.549 135.316 143.549C135.37 143.549 135.432 143.545 135.5 143.539C135.568 143.532 135.633 143.525 135.694 143.518V144.51C135.599 144.524 135.493 144.538 135.377 144.551C135.261 144.565 135.159 144.572 135.07 144.572ZM136.822 144.51V138.977H137.927V140.092L137.825 139.928C137.947 139.566 138.145 139.307 138.418 139.15C138.691 138.987 139.018 138.905 139.4 138.905H139.737V139.959H139.257C138.875 139.959 138.564 140.078 138.326 140.317C138.094 140.548 137.978 140.883 137.978 141.319V144.51H136.822ZM141.019 146.771C140.883 146.771 140.746 146.757 140.61 146.73C140.48 146.709 140.361 146.675 140.252 146.628V145.635C140.334 145.656 140.433 145.673 140.549 145.687C140.664 145.707 140.777 145.717 140.886 145.717C141.207 145.717 141.442 145.646 141.592 145.502C141.749 145.366 141.888 145.151 142.011 144.858L142.379 144.019L142.359 144.991L139.965 138.977H141.203L142.973 143.59H142.553L144.313 138.977H145.561L143.116 145.114C142.986 145.441 142.823 145.727 142.625 145.973C142.434 146.225 142.206 146.42 141.94 146.556C141.68 146.699 141.374 146.771 141.019 146.771Z" fill="#B5B2B2" fill-opacity="0.41"/>
<g clip-path="url(#clip1_3_88350)">
<path d="M326.924 137.786L330.277 141.132L333.631 137.786L334.661 138.816L330.277 143.2L325.894 138.816L326.924 137.786Z" fill="white"/>
</g>
<rect x="41.3204" y="120.916" width="306.127" height="38.7224" rx="14.2469" stroke="#91B0D8" stroke-opacity="0.18" stroke-width="0.730612" shape-rendering="crispEdges"/>
</g>
<rect x="23.0552" y="287.496" width="342.657" height="43.1061" rx="10.5939" fill="url(#paint1_linear_3_88350)" fill-opacity="0.5"/>
<path d="M178.466 313.282V305.662H179.673V313.282H178.466ZM181.14 313.282V307.748H182.245V308.832L182.112 308.689C182.248 308.341 182.467 308.079 182.767 307.902C183.067 307.718 183.415 307.625 183.81 307.625C184.219 307.625 184.581 307.714 184.894 307.891C185.208 308.069 185.453 308.314 185.631 308.628C185.808 308.942 185.897 309.303 185.897 309.712V313.282H184.751V310.019C184.751 309.739 184.7 309.504 184.598 309.313C184.495 309.115 184.349 308.965 184.158 308.863C183.974 308.754 183.762 308.699 183.524 308.699C183.285 308.699 183.07 308.754 182.879 308.863C182.695 308.965 182.552 309.115 182.45 309.313C182.347 309.511 182.296 309.746 182.296 310.019V313.282H181.14ZM187.134 313.282V307.748H188.289V313.282H187.134ZM187.134 306.991V305.662H188.289V306.991H187.134ZM192.034 313.343C191.455 313.343 191.005 313.18 190.684 312.852C190.364 312.525 190.203 312.065 190.203 311.471V308.792H189.232V307.748H189.385C189.644 307.748 189.845 307.673 189.989 307.523C190.132 307.373 190.203 307.169 190.203 306.909V306.48H191.359V307.748H192.617V308.792H191.359V311.42C191.359 311.611 191.39 311.775 191.451 311.911C191.513 312.041 191.612 312.143 191.748 312.218C191.884 312.286 192.062 312.32 192.28 312.32C192.334 312.32 192.396 312.317 192.464 312.31C192.532 312.303 192.597 312.297 192.658 312.29V313.282C192.563 313.295 192.457 313.309 192.341 313.323C192.225 313.336 192.123 313.343 192.034 313.343ZM193.786 313.282V307.748H194.942V313.282H193.786ZM193.786 306.991V305.662H194.942V306.991H193.786ZM197.95 313.405C197.575 313.405 197.245 313.34 196.958 313.21C196.679 313.074 196.46 312.89 196.304 312.658C196.147 312.419 196.068 312.14 196.068 311.819C196.068 311.519 196.133 311.25 196.263 311.011C196.399 310.772 196.607 310.571 196.887 310.408C197.166 310.244 197.517 310.128 197.94 310.06L199.863 309.743V310.653L198.165 310.95C197.858 311.004 197.633 311.103 197.49 311.246C197.347 311.383 197.275 311.56 197.275 311.778C197.275 311.99 197.354 312.164 197.511 312.3C197.674 312.429 197.882 312.494 198.135 312.494C198.448 312.494 198.721 312.426 198.953 312.29C199.192 312.153 199.376 311.973 199.505 311.748C199.635 311.516 199.7 311.26 199.7 310.98V309.559C199.7 309.286 199.597 309.064 199.393 308.894C199.195 308.717 198.929 308.628 198.595 308.628C198.288 308.628 198.019 308.71 197.787 308.873C197.562 309.03 197.395 309.235 197.286 309.487L196.324 309.006C196.426 308.734 196.593 308.495 196.825 308.29C197.057 308.079 197.327 307.915 197.633 307.799C197.947 307.683 198.278 307.625 198.626 307.625C199.062 307.625 199.447 307.707 199.781 307.871C200.122 308.035 200.385 308.263 200.569 308.556C200.76 308.843 200.855 309.177 200.855 309.559V313.282H199.751V312.279L199.986 312.31C199.856 312.535 199.689 312.73 199.485 312.893C199.287 313.057 199.059 313.183 198.799 313.272C198.547 313.36 198.264 313.405 197.95 313.405ZM204.5 313.343C203.921 313.343 203.471 313.18 203.15 312.852C202.83 312.525 202.67 312.065 202.67 311.471V308.792H201.698V307.748H201.851C202.11 307.748 202.312 307.673 202.455 307.523C202.598 307.373 202.67 307.169 202.67 306.909V306.48H203.825V307.748H205.083V308.792H203.825V311.42C203.825 311.611 203.856 311.775 203.917 311.911C203.979 312.041 204.078 312.143 204.214 312.218C204.35 312.286 204.528 312.32 204.746 312.32C204.8 312.32 204.862 312.317 204.93 312.31C204.998 312.303 205.063 312.297 205.124 312.29V313.282C205.029 313.295 204.923 313.309 204.807 313.323C204.691 313.336 204.589 313.343 204.5 313.343ZM208.75 313.405C208.198 313.405 207.707 313.278 207.278 313.026C206.855 312.767 206.524 312.419 206.285 311.983C206.047 311.54 205.927 311.045 205.927 310.5C205.927 309.941 206.047 309.446 206.285 309.017C206.531 308.587 206.858 308.249 207.267 308.004C207.676 307.752 208.14 307.625 208.658 307.625C209.074 307.625 209.446 307.697 209.773 307.84C210.101 307.983 210.377 308.181 210.602 308.434C210.827 308.679 210.997 308.962 211.113 309.282C211.236 309.603 211.297 309.944 211.297 310.305C211.297 310.394 211.294 310.486 211.287 310.582C211.28 310.677 211.267 310.766 211.246 310.847H206.838V309.927H210.592L210.039 310.346C210.107 310.012 210.084 309.715 209.968 309.456C209.859 309.19 209.688 308.982 209.456 308.832C209.231 308.676 208.965 308.597 208.658 308.597C208.352 308.597 208.079 308.676 207.84 308.832C207.601 308.982 207.417 309.201 207.288 309.487C207.158 309.767 207.107 310.108 207.134 310.51C207.1 310.885 207.151 311.212 207.288 311.492C207.431 311.771 207.629 311.99 207.881 312.146C208.14 312.303 208.433 312.382 208.761 312.382C209.095 312.382 209.378 312.307 209.61 312.157C209.848 312.007 210.036 311.812 210.172 311.574L211.113 312.034C211.004 312.293 210.834 312.528 210.602 312.74C210.377 312.944 210.104 313.108 209.784 313.231C209.47 313.347 209.126 313.405 208.75 313.405Z" fill="white"/>
<rect x="23.0552" y="287.496" width="342.657" height="43.1061" rx="10.5939" stroke="url(#paint2_linear_3_88350)" stroke-width="0.730612"/>
<rect x="11.3653" y="0.365306" width="363.269" height="354.568" rx="14.2469" stroke="url(#paint3_linear_3_88350)" stroke-width="0.730612"/>
<defs>
<filter id="filter0_d_3_88350" x="0.0410213" y="33.6081" width="387.955" height="248.408" filterUnits="userSpaceOnUse" color-interpolation-filters="sRGB">
<feFlood flood-opacity="0" result="BackgroundImageFix"/>
<feColorMatrix in="SourceAlpha" type="matrix" values="0 0 0 0 0 0 0 0 0 0 0 0 0 0 0 0 0 0 127 0" result="hardAlpha"/>
<feOffset dy="2.92245"/>
<feGaussianBlur stdDeviation="12.4204"/>
<feComposite in2="hardAlpha" operator="out"/>
<feColorMatrix type="matrix" values="0 0 0 0 0 0 0 0 0 0 0 0 0 0 0 0 0 0 0.05 0"/>
<feBlend mode="normal" in2="BackgroundImageFix" result="effect1_dropShadow_3_88350"/>
<feBlend mode="normal" in="SourceGraphic" in2="effect1_dropShadow_3_88350" result="shape"/>
</filter>
<filter id="filter1_d_3_88350" x="16.1143" y="170.963" width="356.539" height="89.1346" filterUnits="userSpaceOnUse" color-interpolation-filters="sRGB">
<feFlood flood-opacity="0" result="BackgroundImageFix"/>
<feColorMatrix in="SourceAlpha" type="matrix" values="0 0 0 0 0 0 0 0 0 0 0 0 0 0 0 0 0 0 127 0" result="hardAlpha"/>
<feOffset dy="2.92245"/>
<feGaussianBlur stdDeviation="12.4204"/>
<feComposite in2="hardAlpha" operator="out"/>
<feColorMatrix type="matrix" values="0 0 0 0 0 0 0 0 0 0 0 0 0 0 0 0 0 0 0.05 0"/>
<feBlend mode="normal" in2="BackgroundImageFix" result="effect1_dropShadow_3_88350"/>
<feBlend mode="normal" in="SourceGraphic" in2="effect1_dropShadow_3_88350" result="shape"/>
</filter>
<filter id="filter2_d_3_88350" x="16.1143" y="98.6327" width="356.539" height="89.1346" filterUnits="userSpaceOnUse" color-interpolation-filters="sRGB">
<feFlood flood-opacity="0" result="BackgroundImageFix"/>
<feColorMatrix in="SourceAlpha" type="matrix" values="0 0 0 0 0 0 0 0 0 0 0 0 0 0 0 0 0 0 127 0" result="hardAlpha"/>
<feOffset dy="2.92245"/>
<feGaussianBlur stdDeviation="12.4204"/>
<feComposite in2="hardAlpha" operator="out"/>
<feColorMatrix type="matrix" values="0 0 0 0 0 0 0 0 0 0 0 0 0 0 0 0 0 0 0.05 0"/>
<feBlend mode="normal" in2="BackgroundImageFix" result="effect1_dropShadow_3_88350"/>
<feBlend mode="normal" in="SourceGraphic" in2="effect1_dropShadow_3_88350" result="shape"/>
</filter>
<linearGradient id="paint0_linear_3_88350" x1="99.8041" y1="22.7951" x2="7.80928" y2="100.404" gradientUnits="userSpaceOnUse">
<stop stop-color="#37F2AD"/>
<stop offset="1" stop-color="#3798F2"/>
</linearGradient>
<linearGradient id="paint1_linear_3_88350" x1="333.465" y1="203.841" x2="208.334" y2="501.158" gradientUnits="userSpaceOnUse">
<stop stop-color="#37F2AD"/>
<stop offset="1" stop-color="#3798F2"/>
</linearGradient>
<linearGradient id="paint2_linear_3_88350" x1="110.808" y1="219.732" x2="48.3602" y2="391.84" gradientUnits="userSpaceOnUse">
<stop stop-color="#37F2AD"/>
<stop offset="1" stop-color="#2E71FF" stop-opacity="0.47"/>
</linearGradient>
<linearGradient id="paint3_linear_3_88350" x1="245.338" y1="-15.7677" x2="109.556" y2="355.632" gradientUnits="userSpaceOnUse">
<stop stop-color="#6F7987" stop-opacity="0.48"/>
<stop offset="1" stop-color="#DEEBFE" stop-opacity="0.1"/>
</linearGradient>
<clipPath id="clip0_3_88350">
<rect width="17.5347" height="17.5347" fill="white" transform="translate(321.51 203.841)"/>
</clipPath>
<clipPath id="clip1_3_88350">
<rect width="17.5347" height="17.5347" fill="white" transform="translate(321.51 131.51)"/>
</clipPath>
</defs>
</svg>
