<svg width="73" height="18" viewBox="0 0 73 18" fill="none" xmlns="http://www.w3.org/2000/svg">
<path d="M7.03392 9.20107H5.24494V17.4168H1.24008V9.20107H0V5.83636H1.24008V5.73314C1.24008 4.24689 1.667 3.11156 2.52083 2.32714C3.38821 1.52897 4.62829 1.12988 6.24108 1.12988C6.56634 1.12988 6.81707 1.13676 6.99326 1.15053V4.59781C6.88483 4.58405 6.73575 4.57717 6.54601 4.57717C6.11232 4.57717 5.79383 4.68038 5.59054 4.88681C5.38725 5.07947 5.27205 5.39598 5.24494 5.83636H7.03392V9.20107ZM12.4424 7.87996C12.8897 7.2194 13.4318 6.69646 14.0688 6.31113C14.7057 5.92581 15.3902 5.73314 16.122 5.73314V10.0474H15.0039C14.1365 10.0474 13.4928 10.2194 13.0726 10.5635C12.6525 10.9075 12.4424 11.5061 12.4424 12.3594V17.4168H8.45789V5.83636H12.4424V7.87996ZM16.8999 11.6162C16.8999 10.419 17.11 9.37309 17.5302 8.47859C17.9638 7.58408 18.5466 6.896 19.2785 6.41434C20.0239 5.93269 20.8506 5.69186 21.7586 5.69186C22.5447 5.69186 23.2223 5.85012 23.7916 6.16664C24.3608 6.48315 24.8012 6.90976 25.113 7.44647V5.83636H29.0975V17.4168H25.113V15.8067C24.8012 16.3434 24.354 16.77 23.7712 17.0865C23.202 17.403 22.5311 17.5613 21.7586 17.5613C20.8506 17.5613 20.0239 17.3204 19.2785 16.8388C18.5466 16.3571 17.9638 15.669 17.5302 14.7745C17.11 13.8663 16.8999 12.8135 16.8999 11.6162ZM25.113 11.6162C25.113 10.8731 24.9097 10.2882 24.5031 9.86163C24.11 9.43502 23.6221 9.22171 23.0394 9.22171C22.4431 9.22171 21.9484 9.43502 21.5553 9.86163C21.1623 10.2745 20.9658 10.8593 20.9658 11.6162C20.9658 12.3594 21.1623 12.9511 21.5553 13.3915C21.9484 13.8181 22.4431 14.0314 23.0394 14.0314C23.6221 14.0314 24.11 13.8181 24.5031 13.3915C24.9097 12.9649 25.113 12.3731 25.113 11.6162ZM30.7175 11.6162C30.7175 10.419 30.9614 9.37309 31.4493 8.47859C31.9372 7.58408 32.6149 6.896 33.4823 6.41434C34.3632 5.93269 35.3661 5.69186 36.491 5.69186C37.9411 5.69186 39.1609 6.09783 40.1502 6.90976C41.1396 7.70794 41.7766 8.82951 42.0612 10.2745H37.8327C37.5888 9.51759 37.1144 9.13915 36.4097 9.13915C35.9082 9.13915 35.5084 9.35245 35.2102 9.77906C34.9256 10.1919 34.7833 10.8043 34.7833 11.6162C34.7833 12.4282 34.9256 13.0474 35.2102 13.4741C35.5084 13.9007 35.9082 14.114 36.4097 14.114C37.128 14.114 37.6023 13.7355 37.8327 12.9786H42.0612C41.7766 14.4098 41.1396 15.5314 40.1502 16.3434C39.1609 17.1553 37.9411 17.5613 36.491 17.5613C35.3661 17.5613 34.3632 17.3204 33.4823 16.8388C32.6149 16.3571 31.9372 15.669 31.4493 14.7745C30.9614 13.88 30.7175 12.8273 30.7175 11.6162ZM68.7105 5.73314C70.0252 5.73314 71.0687 6.1804 71.8412 7.0749C72.6137 7.95565 73 9.15291 73 10.6667V17.4168H69.0155V11.2034C69.0155 10.5428 68.8461 10.0268 68.5072 9.65521C68.1684 9.26988 67.7144 9.07722 67.1452 9.07722C66.5489 9.07722 66.0813 9.26988 65.7425 9.65521C65.4036 10.0268 65.2342 10.5428 65.2342 11.2034V17.4168H61.2497V5.83636H65.2342V7.48775C65.5866 6.96481 66.061 6.54508 66.6573 6.22856C67.2536 5.89828 67.938 5.73314 68.7105 5.73314Z" fill="#999999"/>
<path d="M54.3656 17.4164L51.1163 12.6239L48.3414 17.4164H43.0524L48.4837 8.72248L42.8627 0.437988H48.3414L51.4958 5.11006L54.1996 0.437988H59.4886L54.1285 8.9874L59.8444 17.4164H54.3656Z" fill="#37F2AD"/>
</svg>
