<svg width="509" height="432" viewBox="0 0 509 432" fill="none" xmlns="http://www.w3.org/2000/svg">
<g filter="url(#filter0_b_3_88561)">
<rect y="344" width="205" height="44" rx="18" fill="url(#paint0_linear_3_88561)" fill-opacity="0.4"/>
</g>
<path d="M39.8934 373.192C39.0507 373.192 38.2667 373.037 37.5414 372.728C36.8267 372.419 36.2027 371.992 35.6694 371.448C35.1467 370.893 34.736 370.243 34.4374 369.496C34.1387 368.749 33.9894 367.928 33.9894 367.032C33.9894 366.147 34.1334 365.331 34.4214 364.584C34.72 363.827 35.136 363.176 35.6694 362.632C36.2027 362.077 36.8267 361.651 37.5414 361.352C38.256 361.043 39.04 360.888 39.8934 360.888C40.736 360.888 41.488 361.032 42.1494 361.32C42.8214 361.608 43.3867 361.987 43.8454 362.456C44.304 362.915 44.6347 363.416 44.8374 363.96L43.1414 364.76C42.8854 364.12 42.4747 363.603 41.9094 363.208C41.3547 362.803 40.6827 362.6 39.8934 362.6C39.104 362.6 38.4054 362.787 37.7974 363.16C37.1894 363.533 36.7147 364.051 36.3734 364.712C36.0427 365.373 35.8774 366.147 35.8774 367.032C35.8774 367.917 36.0427 368.696 36.3734 369.368C36.7147 370.029 37.1894 370.547 37.7974 370.92C38.4054 371.283 39.104 371.464 39.8934 371.464C40.6827 371.464 41.3547 371.267 41.9094 370.872C42.4747 370.477 42.8854 369.96 43.1414 369.32L44.8374 370.12C44.6347 370.653 44.304 371.155 43.8454 371.624C43.3867 372.093 42.8214 372.472 42.1494 372.76C41.488 373.048 40.736 373.192 39.8934 373.192ZM47.6029 373V364.344H49.3309V366.088L49.1709 365.832C49.3629 365.267 49.6722 364.861 50.0989 364.616C50.5255 364.36 51.0375 364.232 51.6349 364.232H52.1629V365.88H51.4109C50.8135 365.88 50.3282 366.067 49.9549 366.44C49.5922 366.803 49.4109 367.325 49.4109 368.008V373H47.6029ZM58.4638 373.192C57.5998 373.192 56.8318 372.995 56.1598 372.6C55.4984 372.195 54.9811 371.651 54.6078 370.968C54.2344 370.275 54.0478 369.501 54.0478 368.648C54.0478 367.773 54.2344 367 54.6078 366.328C54.9918 365.656 55.5038 365.128 56.1438 364.744C56.7838 364.349 57.5091 364.152 58.3198 364.152C58.9704 364.152 59.5518 364.264 60.0638 364.488C60.5758 364.712 61.0078 365.021 61.3598 365.416C61.7118 365.8 61.9784 366.243 62.1597 366.744C62.3518 367.245 62.4478 367.779 62.4478 368.344C62.4478 368.483 62.4424 368.627 62.4318 368.776C62.4211 368.925 62.3998 369.064 62.3678 369.192H55.4718V367.752H61.3438L60.4798 368.408C60.5864 367.885 60.5491 367.421 60.3678 367.016C60.1971 366.6 59.9304 366.275 59.5678 366.04C59.2158 365.795 58.7998 365.672 58.3198 365.672C57.8398 365.672 57.4131 365.795 57.0398 366.04C56.6664 366.275 56.3784 366.616 56.1758 367.064C55.9731 367.501 55.8931 368.035 55.9358 368.664C55.8824 369.251 55.9624 369.763 56.1758 370.2C56.3998 370.637 56.7091 370.979 57.1038 371.224C57.5091 371.469 57.9678 371.592 58.4798 371.592C59.0024 371.592 59.4451 371.475 59.8078 371.24C60.1811 371.005 60.4744 370.701 60.6878 370.328L62.1597 371.048C61.9891 371.453 61.7224 371.821 61.3598 372.152C61.0078 372.472 60.5811 372.728 60.0798 372.92C59.5891 373.101 59.0504 373.192 58.4638 373.192ZM69.2123 373.192C68.3803 373.192 67.6336 372.995 66.9723 372.6C66.3216 372.195 65.8043 371.651 65.4203 370.968C65.0469 370.285 64.8603 369.517 64.8603 368.664C64.8603 367.811 65.0523 367.043 65.4363 366.36C65.8203 365.677 66.3376 365.139 66.9883 364.744C67.6389 364.349 68.3749 364.152 69.1963 364.152C69.8896 364.152 70.5029 364.291 71.0363 364.568C71.5696 364.845 71.9909 365.229 72.3003 365.72L72.0283 366.136V360.888H73.8203V373H72.1083V371.24L72.3163 371.576C72.0176 372.099 71.5909 372.499 71.0363 372.776C70.4816 373.053 69.8736 373.192 69.2123 373.192ZM69.3883 371.512C69.8896 371.512 70.3376 371.389 70.7323 371.144C71.1376 370.899 71.4523 370.563 71.6763 370.136C71.9109 369.699 72.0283 369.208 72.0283 368.664C72.0283 368.12 71.9109 367.635 71.6763 367.208C71.4523 366.781 71.1376 366.445 70.7323 366.2C70.3376 365.955 69.8896 365.832 69.3883 365.832C68.8869 365.832 68.4336 365.955 68.0283 366.2C67.6229 366.445 67.3083 366.781 67.0843 367.208C66.8603 367.635 66.7483 368.12 66.7483 368.664C66.7483 369.208 66.8603 369.699 67.0843 370.136C67.3083 370.563 67.6176 370.899 68.0123 371.144C68.4176 371.389 68.8763 371.512 69.3883 371.512ZM76.931 373V364.344H78.739V373H76.931ZM76.931 363.16V361.08H78.739V363.16H76.931ZM85.5969 373.096C84.6902 373.096 83.9862 372.84 83.4849 372.328C82.9835 371.816 82.7329 371.096 82.7329 370.168V365.976H81.2129V364.344H81.4529C81.8582 364.344 82.1729 364.227 82.3969 363.992C82.6209 363.757 82.7329 363.437 82.7329 363.032V362.36H84.5409V364.344H86.5089V365.976H84.5409V370.088C84.5409 370.387 84.5889 370.643 84.6849 370.856C84.7809 371.059 84.9355 371.219 85.1489 371.336C85.3622 371.443 85.6395 371.496 85.9809 371.496C86.0662 371.496 86.1622 371.491 86.2689 371.48C86.3755 371.469 86.4769 371.459 86.5729 371.448V373C86.4235 373.021 86.2582 373.043 86.0769 373.064C85.8955 373.085 85.7355 373.096 85.5969 373.096ZM97.4861 373.192C96.7395 373.192 96.0461 373.053 95.4061 372.776C94.7661 372.488 94.2221 372.099 93.7741 371.608C93.3261 371.117 92.9955 370.552 92.7821 369.912L94.3821 369.24C94.6701 369.976 95.0915 370.541 95.6461 370.936C96.2008 371.331 96.8408 371.528 97.5661 371.528C97.9928 371.528 98.3661 371.464 98.6861 371.336C99.0061 371.197 99.2515 371.005 99.4221 370.76C99.6035 370.515 99.6941 370.232 99.6941 369.912C99.6941 369.475 99.5715 369.128 99.3261 368.872C99.0808 368.616 98.7181 368.413 98.2381 368.264L95.9981 367.56C95.1021 367.283 94.4195 366.861 93.9501 366.296C93.4808 365.72 93.2461 365.048 93.2461 364.28C93.2461 363.608 93.4115 363.021 93.7421 362.52C94.0728 362.008 94.5261 361.608 95.1021 361.32C95.6888 361.032 96.3555 360.888 97.1021 360.888C97.8168 360.888 98.4675 361.016 99.0541 361.272C99.6408 361.517 100.142 361.859 100.558 362.296C100.985 362.733 101.294 363.24 101.486 363.816L99.9181 364.504C99.6835 363.875 99.3155 363.389 98.8141 363.048C98.3235 362.707 97.7528 362.536 97.1021 362.536C96.7075 362.536 96.3608 362.605 96.0621 362.744C95.7635 362.872 95.5288 363.064 95.3581 363.32C95.1981 363.565 95.1181 363.853 95.1181 364.184C95.1181 364.568 95.2408 364.909 95.4861 365.208C95.7315 365.507 96.1048 365.731 96.6061 365.88L98.6861 366.536C99.6355 366.824 100.35 367.24 100.83 367.784C101.31 368.317 101.55 368.984 101.55 369.784C101.55 370.445 101.374 371.032 101.022 371.544C100.681 372.056 100.206 372.461 99.5981 372.76C98.9901 373.048 98.2861 373.192 97.4861 373.192ZM107.582 373.192C106.931 373.192 106.36 373.048 105.87 372.76C105.379 372.461 104.995 372.051 104.718 371.528C104.451 370.995 104.318 370.381 104.318 369.688V364.344H106.126V369.528C106.126 369.923 106.206 370.269 106.366 370.568C106.526 370.867 106.75 371.101 107.038 371.272C107.326 371.432 107.656 371.512 108.03 371.512C108.414 371.512 108.75 371.427 109.038 371.256C109.326 371.085 109.55 370.845 109.71 370.536C109.88 370.227 109.966 369.864 109.966 369.448V364.344H111.758V373H110.046V371.304L110.238 371.528C110.035 372.061 109.699 372.472 109.23 372.76C108.76 373.048 108.211 373.192 107.582 373.192ZM114.868 376.2V364.344H116.597V366.136L116.389 365.72C116.709 365.229 117.135 364.845 117.669 364.568C118.202 364.291 118.81 364.152 119.493 364.152C120.314 364.152 121.05 364.349 121.701 364.744C122.362 365.139 122.879 365.677 123.253 366.36C123.637 367.043 123.829 367.811 123.829 368.664C123.829 369.517 123.637 370.285 123.253 370.968C122.879 371.651 122.367 372.195 121.717 372.6C121.066 372.995 120.325 373.192 119.493 373.192C118.821 373.192 118.207 373.053 117.653 372.776C117.109 372.499 116.687 372.099 116.389 371.576L116.677 371.24V376.2H114.868ZM119.317 371.512C119.829 371.512 120.282 371.389 120.677 371.144C121.071 370.899 121.381 370.563 121.605 370.136C121.839 369.699 121.957 369.208 121.957 368.664C121.957 368.12 121.839 367.635 121.605 367.208C121.381 366.781 121.071 366.445 120.677 366.2C120.282 365.955 119.829 365.832 119.317 365.832C118.815 365.832 118.362 365.955 117.957 366.2C117.562 366.445 117.247 366.781 117.013 367.208C116.789 367.635 116.677 368.12 116.677 368.664C116.677 369.208 116.789 369.699 117.013 370.136C117.247 370.563 117.562 370.899 117.957 371.144C118.362 371.389 118.815 371.512 119.317 371.512ZM126.587 376.2V364.344H128.315V366.136L128.107 365.72C128.427 365.229 128.854 364.845 129.387 364.568C129.921 364.291 130.529 364.152 131.211 364.152C132.033 364.152 132.769 364.349 133.419 364.744C134.081 365.139 134.598 365.677 134.971 366.36C135.355 367.043 135.547 367.811 135.547 368.664C135.547 369.517 135.355 370.285 134.971 370.968C134.598 371.651 134.086 372.195 133.435 372.6C132.785 372.995 132.043 373.192 131.211 373.192C130.539 373.192 129.926 373.053 129.371 372.776C128.827 372.499 128.406 372.099 128.107 371.576L128.395 371.24V376.2H126.587ZM131.035 371.512C131.547 371.512 132.001 371.389 132.395 371.144C132.79 370.899 133.099 370.563 133.323 370.136C133.558 369.699 133.675 369.208 133.675 368.664C133.675 368.12 133.558 367.635 133.323 367.208C133.099 366.781 132.79 366.445 132.395 366.2C132.001 365.955 131.547 365.832 131.035 365.832C130.534 365.832 130.081 365.955 129.675 366.2C129.281 366.445 128.966 366.781 128.731 367.208C128.507 367.635 128.395 368.12 128.395 368.664C128.395 369.208 128.507 369.699 128.731 370.136C128.966 370.563 129.281 370.899 129.675 371.144C130.081 371.389 130.534 371.512 131.035 371.512ZM138.306 373V360.888H140.114V373H138.306ZM143.228 373V364.344H145.036V373H143.228ZM143.228 363.16V361.08H145.036V363.16H143.228ZM152.214 373.192C151.35 373.192 150.582 372.995 149.91 372.6C149.248 372.195 148.731 371.651 148.358 370.968C147.984 370.275 147.798 369.501 147.798 368.648C147.798 367.773 147.984 367 148.358 366.328C148.742 365.656 149.254 365.128 149.894 364.744C150.534 364.349 151.259 364.152 152.07 364.152C152.72 364.152 153.302 364.264 153.814 364.488C154.326 364.712 154.758 365.021 155.11 365.416C155.462 365.8 155.728 366.243 155.91 366.744C156.102 367.245 156.198 367.779 156.198 368.344C156.198 368.483 156.192 368.627 156.182 368.776C156.171 368.925 156.15 369.064 156.118 369.192H149.222V367.752H155.094L154.23 368.408C154.336 367.885 154.299 367.421 154.118 367.016C153.947 366.6 153.68 366.275 153.318 366.04C152.966 365.795 152.55 365.672 152.07 365.672C151.59 365.672 151.163 365.795 150.79 366.04C150.416 366.275 150.128 366.616 149.926 367.064C149.723 367.501 149.643 368.035 149.686 368.664C149.632 369.251 149.712 369.763 149.926 370.2C150.15 370.637 150.459 370.979 150.854 371.224C151.259 371.469 151.718 371.592 152.23 371.592C152.752 371.592 153.195 371.475 153.558 371.24C153.931 371.005 154.224 370.701 154.438 370.328L155.91 371.048C155.739 371.453 155.472 371.821 155.11 372.152C154.758 372.472 154.331 372.728 153.83 372.92C153.339 373.101 152.8 373.192 152.214 373.192ZM158.962 373V364.344H160.69V366.088L160.53 365.832C160.722 365.267 161.032 364.861 161.458 364.616C161.885 364.36 162.397 364.232 162.994 364.232H163.522V365.88H162.77C162.173 365.88 161.688 366.067 161.314 366.44C160.952 366.803 160.77 367.325 160.77 368.008V373H158.962ZM168.959 373.192C168.074 373.192 167.295 372.973 166.623 372.536C165.962 372.099 165.498 371.512 165.231 370.776L166.623 370.12C166.858 370.611 167.178 371 167.583 371.288C167.999 371.576 168.458 371.72 168.959 371.72C169.386 371.72 169.732 371.624 169.999 371.432C170.266 371.24 170.399 370.979 170.399 370.648C170.399 370.435 170.34 370.264 170.223 370.136C170.106 369.997 169.956 369.885 169.775 369.8C169.604 369.715 169.428 369.651 169.247 369.608L167.887 369.224C167.14 369.011 166.58 368.691 166.207 368.264C165.844 367.827 165.663 367.32 165.663 366.744C165.663 366.221 165.796 365.768 166.063 365.384C166.33 364.989 166.698 364.685 167.167 364.472C167.636 364.259 168.164 364.152 168.751 364.152C169.54 364.152 170.244 364.349 170.863 364.744C171.482 365.128 171.919 365.667 172.175 366.36L170.783 367.016C170.612 366.6 170.34 366.269 169.967 366.024C169.604 365.779 169.194 365.656 168.735 365.656C168.34 365.656 168.026 365.752 167.791 365.944C167.556 366.125 167.439 366.365 167.439 366.664C167.439 366.867 167.492 367.037 167.599 367.176C167.706 367.304 167.844 367.411 168.015 367.496C168.186 367.571 168.362 367.635 168.543 367.688L169.951 368.104C170.666 368.307 171.215 368.627 171.599 369.064C171.983 369.491 172.175 370.003 172.175 370.6C172.175 371.112 172.036 371.565 171.759 371.96C171.492 372.344 171.119 372.648 170.639 372.872C170.159 373.085 169.599 373.192 168.959 373.192Z" fill="#37F2AD"/>
<circle cx="255" cy="216" r="216" fill="url(#paint1_linear_3_88561)" fill-opacity="0.25"/>
<g opacity="0.8" filter="url(#filter1_d_3_88561)">
<circle cx="255" cy="216" r="142" fill="url(#paint2_linear_3_88561)" fill-opacity="0.35" shape-rendering="crispEdges"/>
<circle cx="255" cy="216" r="142.5" stroke="#37F2AD" shape-rendering="crispEdges"/>
</g>
<path d="M274.637 205.257L256.075 194.274C255.598 193.991 255.054 193.843 254.5 193.843C253.945 193.844 253.402 193.993 252.925 194.277L234.363 205.26C233.9 205.533 233.516 205.922 233.25 206.388C232.984 206.855 232.844 207.383 232.844 207.92V229.267C232.844 230.362 233.422 231.374 234.363 231.928L252.925 242.911C253.401 243.196 253.945 243.347 254.5 243.347C255.055 243.347 255.599 243.196 256.075 242.911L274.637 231.928C275.1 231.655 275.484 231.266 275.75 230.799C276.016 230.333 276.156 229.805 276.156 229.267V207.92C276.156 207.383 276.016 206.854 275.75 206.387C275.484 205.92 275.1 205.53 274.637 205.257ZM269.969 227.504L254.5 236.655L239.031 227.504V209.684L254.5 200.532L269.969 209.684V227.504Z" fill="#37F2AD"/>
<path d="M223.562 228.444V200.248L242.744 188.912L239.597 183.585L218.894 195.821C218.431 196.094 218.048 196.484 217.781 196.951C217.515 197.418 217.375 197.947 217.375 198.484V228.444C215.571 229.08 214.007 230.259 212.899 231.819C211.792 233.379 211.194 235.243 211.188 237.156C211.188 242.273 215.352 246.438 220.469 246.438C225.586 246.438 229.75 242.273 229.75 237.156C229.744 235.243 229.146 233.379 228.038 231.819C226.93 230.259 225.367 229.08 223.562 228.444ZM220.469 240.25C219.672 240.214 218.92 239.873 218.369 239.297C217.818 238.72 217.51 237.954 217.51 237.156C217.51 236.359 217.818 235.592 218.369 235.016C218.92 234.44 219.672 234.098 220.469 234.062C221.265 234.098 222.017 234.44 222.569 235.016C223.12 235.592 223.427 236.359 223.427 237.156C223.427 237.954 223.12 238.72 222.569 239.297C222.017 239.873 221.265 240.214 220.469 240.25ZM288.531 227.875C283.414 227.875 279.25 232.039 279.25 237.156C279.25 238.248 279.473 239.282 279.822 240.256L254.5 255.218L234.688 243.511L231.541 248.838L252.925 261.473C253.402 261.757 253.945 261.906 254.5 261.907C255.054 261.907 255.598 261.759 256.075 261.476L283.795 245.095C285.187 245.927 286.796 246.438 288.531 246.438C293.648 246.438 297.812 242.273 297.812 237.156C297.812 232.039 293.648 227.875 288.531 227.875ZM288.531 240.25C287.735 240.214 286.983 239.873 286.431 239.297C285.88 238.72 285.573 237.954 285.573 237.156C285.573 236.359 285.88 235.592 286.431 235.016C286.983 234.44 287.735 234.098 288.531 234.062C289.328 234.098 290.08 234.44 290.631 235.016C291.182 235.592 291.49 236.359 291.49 237.156C291.49 237.954 291.182 238.72 290.631 239.297C290.08 239.873 289.328 240.214 288.531 240.25ZM254.5 187.656C256.762 187.656 258.806 186.812 260.418 185.466L285.438 200.251V221.688H291.625V198.484C291.625 197.947 291.485 197.418 291.219 196.951C290.952 196.484 290.569 196.094 290.106 195.821L263.602 180.16C263.713 179.582 263.781 178.988 263.781 178.375C263.781 173.258 259.617 169.094 254.5 169.094C249.383 169.094 245.219 173.258 245.219 178.375C245.219 183.492 249.383 187.656 254.5 187.656ZM254.5 175.281C255.113 175.281 255.712 175.462 256.222 175.802C256.731 176.142 257.129 176.626 257.364 177.192C257.598 177.758 257.66 178.38 257.541 178.981C257.421 179.583 257.126 180.135 256.693 180.568C256.26 181.001 255.708 181.296 255.106 181.416C254.505 181.535 253.883 181.473 253.317 181.239C252.751 181.004 252.267 180.606 251.927 180.097C251.587 179.587 251.406 178.988 251.406 178.375C251.406 176.667 252.795 175.281 254.5 175.281Z" fill="#37F2AD"/>
<g filter="url(#filter2_b_3_88561)">
<rect x="304" y="74" width="205" height="44" rx="18" fill="url(#paint3_linear_3_88561)" fill-opacity="0.4"/>
</g>
<path d="M359.792 103.192C358.949 103.192 358.165 103.037 357.44 102.728C356.725 102.419 356.101 101.992 355.568 101.448C355.045 100.893 354.634 100.243 354.336 99.496C354.037 98.7493 353.888 97.928 353.888 97.032C353.888 96.1467 354.032 95.3307 354.32 94.584C354.618 93.8267 355.034 93.176 355.568 92.632C356.101 92.0773 356.725 91.6507 357.44 91.352C358.154 91.0427 358.938 90.888 359.792 90.888C360.634 90.888 361.386 91.032 362.048 91.32C362.72 91.608 363.285 91.9867 363.744 92.456C364.202 92.9147 364.533 93.416 364.736 93.96L363.04 94.76C362.784 94.12 362.373 93.6027 361.808 93.208C361.253 92.8027 360.581 92.6 359.792 92.6C359.002 92.6 358.304 92.7867 357.696 93.16C357.088 93.5333 356.613 94.0507 356.272 94.712C355.941 95.3733 355.776 96.1467 355.776 97.032C355.776 97.9173 355.941 98.696 356.272 99.368C356.613 100.029 357.088 100.547 357.696 100.92C358.304 101.283 359.002 101.464 359.792 101.464C360.581 101.464 361.253 101.267 361.808 100.872C362.373 100.477 362.784 99.96 363.04 99.32L364.736 100.12C364.533 100.653 364.202 101.155 363.744 101.624C363.285 102.093 362.72 102.472 362.048 102.76C361.386 103.048 360.634 103.192 359.792 103.192ZM367.501 103V94.344H369.229V96.088L369.069 95.832C369.261 95.2667 369.571 94.8613 369.997 94.616C370.424 94.36 370.936 94.232 371.533 94.232H372.061V95.88H371.309C370.712 95.88 370.227 96.0667 369.853 96.44C369.491 96.8027 369.309 97.3253 369.309 98.008V103H367.501ZM378.362 103.192C377.498 103.192 376.73 102.995 376.058 102.6C375.397 102.195 374.88 101.651 374.506 100.968C374.133 100.275 373.946 99.5013 373.946 98.648C373.946 97.7733 374.133 97 374.506 96.328C374.89 95.656 375.402 95.128 376.042 94.744C376.682 94.3493 377.408 94.152 378.218 94.152C378.869 94.152 379.45 94.264 379.962 94.488C380.474 94.712 380.906 95.0213 381.258 95.416C381.61 95.8 381.877 96.2427 382.058 96.744C382.25 97.2453 382.346 97.7787 382.346 98.344C382.346 98.4827 382.341 98.6267 382.33 98.776C382.32 98.9253 382.298 99.064 382.266 99.192H375.37V97.752H381.242L380.378 98.408C380.485 97.8853 380.448 97.4213 380.266 97.016C380.096 96.6 379.829 96.2747 379.466 96.04C379.114 95.7947 378.698 95.672 378.218 95.672C377.738 95.672 377.312 95.7947 376.938 96.04C376.565 96.2747 376.277 96.616 376.074 97.064C375.872 97.5013 375.792 98.0347 375.834 98.664C375.781 99.2507 375.861 99.7627 376.074 100.2C376.298 100.637 376.608 100.979 377.002 101.224C377.408 101.469 377.866 101.592 378.378 101.592C378.901 101.592 379.344 101.475 379.706 101.24C380.08 101.005 380.373 100.701 380.586 100.328L382.058 101.048C381.888 101.453 381.621 101.821 381.258 102.152C380.906 102.472 380.48 102.728 379.978 102.92C379.488 103.101 378.949 103.192 378.362 103.192ZM389.111 103.192C388.279 103.192 387.532 102.995 386.871 102.6C386.22 102.195 385.703 101.651 385.319 100.968C384.945 100.285 384.759 99.5173 384.759 98.664C384.759 97.8107 384.951 97.0427 385.335 96.36C385.719 95.6773 386.236 95.1387 386.887 94.744C387.537 94.3493 388.273 94.152 389.095 94.152C389.788 94.152 390.401 94.2907 390.935 94.568C391.468 94.8453 391.889 95.2293 392.199 95.72L391.927 96.136V90.888H393.719V103H392.007V101.24L392.215 101.576C391.916 102.099 391.489 102.499 390.935 102.776C390.38 103.053 389.772 103.192 389.111 103.192ZM389.287 101.512C389.788 101.512 390.236 101.389 390.631 101.144C391.036 100.899 391.351 100.563 391.575 100.136C391.809 99.6987 391.927 99.208 391.927 98.664C391.927 98.12 391.809 97.6347 391.575 97.208C391.351 96.7813 391.036 96.4453 390.631 96.2C390.236 95.9547 389.788 95.832 389.287 95.832C388.785 95.832 388.332 95.9547 387.927 96.2C387.521 96.4453 387.207 96.7813 386.983 97.208C386.759 97.6347 386.647 98.12 386.647 98.664C386.647 99.208 386.759 99.6987 386.983 100.136C387.207 100.563 387.516 100.899 387.911 101.144C388.316 101.389 388.775 101.512 389.287 101.512ZM396.829 103V94.344H398.637V103H396.829ZM396.829 93.16V91.08H398.637V93.16H396.829ZM405.495 103.096C404.589 103.096 403.885 102.84 403.383 102.328C402.882 101.816 402.631 101.096 402.631 100.168V95.976H401.111V94.344H401.351C401.757 94.344 402.071 94.2267 402.295 93.992C402.519 93.7573 402.631 93.4373 402.631 93.032V92.36H404.439V94.344H406.407V95.976H404.439V100.088C404.439 100.387 404.487 100.643 404.583 100.856C404.679 101.059 404.834 101.219 405.047 101.336C405.261 101.443 405.538 101.496 405.879 101.496C405.965 101.496 406.061 101.491 406.167 101.48C406.274 101.469 406.375 101.459 406.471 101.448V103C406.322 103.021 406.157 103.043 405.975 103.064C405.794 103.085 405.634 103.096 405.495 103.096ZM413.209 103V91.08H418.233C418.979 91.08 419.625 91.2133 420.169 91.48C420.713 91.736 421.129 92.1093 421.417 92.6C421.705 93.08 421.849 93.6507 421.849 94.312C421.849 94.888 421.699 95.416 421.401 95.896C421.113 96.3653 420.659 96.7387 420.041 97.016V96.216C420.585 96.4293 421.027 96.7013 421.369 97.032C421.71 97.352 421.955 97.7147 422.105 98.12C422.265 98.5253 422.345 98.952 422.345 99.4C422.345 100.52 421.977 101.4 421.241 102.04C420.515 102.68 419.518 103 418.249 103H413.209ZM415.097 101.32H418.393C419.022 101.32 419.523 101.149 419.897 100.808C420.27 100.456 420.457 99.992 420.457 99.416C420.457 98.8293 420.27 98.3653 419.897 98.024C419.523 97.672 419.022 97.496 418.393 97.496H415.097V101.32ZM415.097 95.832H418.281C418.793 95.832 419.203 95.688 419.513 95.4C419.822 95.1013 419.977 94.712 419.977 94.232C419.977 93.752 419.822 93.3787 419.513 93.112C419.203 92.8453 418.793 92.712 418.281 92.712H415.097V95.832ZM428.199 103.192C427.548 103.192 426.977 103.048 426.487 102.76C425.996 102.461 425.612 102.051 425.335 101.528C425.068 100.995 424.935 100.381 424.935 99.688V94.344H426.743V99.528C426.743 99.9227 426.823 100.269 426.983 100.568C427.143 100.867 427.367 101.101 427.655 101.272C427.943 101.432 428.273 101.512 428.647 101.512C429.031 101.512 429.367 101.427 429.655 101.256C429.943 101.085 430.167 100.845 430.327 100.536C430.497 100.227 430.583 99.864 430.583 99.448V94.344H432.375V103H430.663V101.304L430.855 101.528C430.652 102.061 430.316 102.472 429.847 102.76C429.377 103.048 428.828 103.192 428.199 103.192ZM436.254 106.536C436.04 106.536 435.827 106.515 435.614 106.472C435.411 106.44 435.224 106.387 435.054 106.312V104.76C435.182 104.792 435.336 104.819 435.518 104.84C435.699 104.872 435.875 104.888 436.046 104.888C436.547 104.888 436.915 104.776 437.15 104.552C437.395 104.339 437.614 104.003 437.806 103.544L438.382 102.232L438.35 103.752L434.606 94.344H436.542L439.31 101.56H438.654L441.406 94.344H443.358L439.534 103.944C439.331 104.456 439.075 104.904 438.766 105.288C438.467 105.683 438.11 105.987 437.694 106.2C437.288 106.424 436.808 106.536 436.254 106.536ZM449.503 103.192C448.639 103.192 447.871 102.995 447.199 102.6C446.537 102.195 446.02 101.651 445.647 100.968C445.273 100.275 445.087 99.5013 445.087 98.648C445.087 97.7733 445.273 97 445.647 96.328C446.031 95.656 446.543 95.128 447.183 94.744C447.823 94.3493 448.548 94.152 449.359 94.152C450.009 94.152 450.591 94.264 451.103 94.488C451.615 94.712 452.047 95.0213 452.399 95.416C452.751 95.8 453.017 96.2427 453.199 96.744C453.391 97.2453 453.487 97.7787 453.487 98.344C453.487 98.4827 453.481 98.6267 453.471 98.776C453.46 98.9253 453.439 99.064 453.407 99.192H446.511V97.752H452.383L451.519 98.408C451.625 97.8853 451.588 97.4213 451.407 97.016C451.236 96.6 450.969 96.2747 450.607 96.04C450.255 95.7947 449.839 95.672 449.359 95.672C448.879 95.672 448.452 95.7947 448.079 96.04C447.705 96.2747 447.417 96.616 447.215 97.064C447.012 97.5013 446.932 98.0347 446.975 98.664C446.921 99.2507 447.001 99.7627 447.215 100.2C447.439 100.637 447.748 100.979 448.143 101.224C448.548 101.469 449.007 101.592 449.519 101.592C450.041 101.592 450.484 101.475 450.847 101.24C451.22 101.005 451.513 100.701 451.727 100.328L453.199 101.048C453.028 101.453 452.761 101.821 452.399 102.152C452.047 102.472 451.62 102.728 451.119 102.92C450.628 103.101 450.089 103.192 449.503 103.192ZM456.251 103V94.344H457.979V96.088L457.819 95.832C458.011 95.2667 458.321 94.8613 458.747 94.616C459.174 94.36 459.686 94.232 460.283 94.232H460.811V95.88H460.059C459.462 95.88 458.977 96.0667 458.603 96.44C458.241 96.8027 458.059 97.3253 458.059 98.008V103H456.251Z" fill="#37F2AD"/>
<defs>
<filter id="filter0_b_3_88561" x="-4" y="340" width="213" height="52" filterUnits="userSpaceOnUse" color-interpolation-filters="sRGB">
<feFlood flood-opacity="0" result="BackgroundImageFix"/>
<feGaussianBlur in="BackgroundImageFix" stdDeviation="2"/>
<feComposite in2="SourceAlpha" operator="in" result="effect1_backgroundBlur_3_88561"/>
<feBlend mode="normal" in="SourceGraphic" in2="effect1_backgroundBlur_3_88561" result="shape"/>
</filter>
<filter id="filter1_d_3_88561" x="104" y="65" width="302" height="302" filterUnits="userSpaceOnUse" color-interpolation-filters="sRGB">
<feFlood flood-opacity="0" result="BackgroundImageFix"/>
<feColorMatrix in="SourceAlpha" type="matrix" values="0 0 0 0 0 0 0 0 0 0 0 0 0 0 0 0 0 0 127 0" result="hardAlpha"/>
<feOffset/>
<feGaussianBlur stdDeviation="4"/>
<feComposite in2="hardAlpha" operator="out"/>
<feColorMatrix type="matrix" values="0 0 0 0 0.215686 0 0 0 0 0.94902 0 0 0 0 0.678431 0 0 0 1 0"/>
<feBlend mode="normal" in2="BackgroundImageFix" result="effect1_dropShadow_3_88561"/>
<feBlend mode="normal" in="SourceGraphic" in2="effect1_dropShadow_3_88561" result="shape"/>
</filter>
<filter id="filter2_b_3_88561" x="300" y="70" width="213" height="52" filterUnits="userSpaceOnUse" color-interpolation-filters="sRGB">
<feFlood flood-opacity="0" result="BackgroundImageFix"/>
<feGaussianBlur in="BackgroundImageFix" stdDeviation="2"/>
<feComposite in2="SourceAlpha" operator="in" result="effect1_backgroundBlur_3_88561"/>
<feBlend mode="normal" in="SourceGraphic" in2="effect1_backgroundBlur_3_88561" result="shape"/>
</filter>
<linearGradient id="paint0_linear_3_88561" x1="172.5" y1="366" x2="53.5" y2="366" gradientUnits="userSpaceOnUse">
<stop stop-color="white"/>
<stop offset="1" stop-color="white" stop-opacity="0.35"/>
</linearGradient>
<linearGradient id="paint1_linear_3_88561" x1="-113" y1="-179.5" x2="672.5" y2="635" gradientUnits="userSpaceOnUse">
<stop stop-color="#37F2AD"/>
<stop offset="1" stop-color="#0E66A8"/>
</linearGradient>
<linearGradient id="paint2_linear_3_88561" x1="113" y1="-13.5" x2="473" y2="562.5" gradientUnits="userSpaceOnUse">
<stop stop-color="#37F2AD"/>
<stop offset="1" stop-color="#0B5CA8" stop-opacity="0.26"/>
</linearGradient>
<linearGradient id="paint3_linear_3_88561" x1="476.5" y1="96" x2="357.5" y2="96" gradientUnits="userSpaceOnUse">
<stop stop-color="white"/>
<stop offset="1" stop-color="white" stop-opacity="0.35"/>
</linearGradient>
</defs>
</svg>
