<svg width="260" height="35" viewBox="0 0 260 35" fill="none" xmlns="http://www.w3.org/2000/svg">
<g clip-path="url(#clip0_3_88782)">
<path d="M43.416 24.8541C42.701 25.2911 41.8668 25.3706 41.2312 25.013C40.4367 24.5364 39.96 23.4638 39.96 21.994V17.5052C39.96 15.3601 39.1258 13.8109 37.6957 13.4137C35.2726 12.6986 33.4453 15.6779 32.77 16.7902L28.4798 23.6624V15.2012C28.4401 13.2548 27.8045 12.1028 26.6128 11.7453C25.8183 11.5069 24.6266 11.6261 23.4746 13.3739L13.9011 28.7074C12.63 26.2842 11.9546 23.583 11.9546 20.842C11.9546 11.5864 19.383 4.07853 28.4798 4.07853C37.5766 4.07853 45.0049 11.5864 45.0049 20.842V20.8818V20.9215C45.0844 22.7091 44.5283 24.1391 43.416 24.8541ZM48.6596 20.842V20.8023V20.7626C48.6198 9.52071 39.5628 0.344482 28.4798 0.344482C17.3571 0.344482 8.30005 9.52071 8.30005 20.842C8.30005 32.1236 17.3571 41.3396 28.4798 41.3396C33.6042 41.3396 38.4505 39.3931 42.1846 35.8577C42.9393 35.1426 42.979 33.9907 42.264 33.2359C41.5887 32.4811 40.4367 32.4414 39.6819 33.1167C39.6819 33.1167 39.6819 33.1167 39.6422 33.1564C36.6232 36.0166 32.5714 37.6452 28.4004 37.6452C23.5143 37.6452 19.1447 35.5002 16.1257 32.0839L24.7458 18.26V24.6555C24.7458 27.7143 25.9375 28.7074 26.9306 28.9854C27.9237 29.2635 29.4332 29.0649 31.0619 26.4828L35.789 18.8161C35.9479 18.5778 36.0671 18.3394 36.226 18.1805V22.0735C36.226 24.9336 37.378 27.2376 39.3642 28.3498C41.1517 29.3827 43.416 29.2635 45.283 28.1115C47.587 26.602 48.8184 23.9802 48.6596 20.842ZM76.7841 13.8506C77.2608 14.1287 77.6977 14.804 77.6977 15.3998C77.6977 16.3532 76.9033 17.1477 75.9896 17.1477C75.7513 17.1477 75.5526 17.0683 75.354 17.0285C74.2815 16.2341 72.9309 15.7176 71.5008 15.7176C68.1243 15.7176 65.8203 18.4586 65.8203 21.8749C65.8203 25.2911 68.164 27.9923 71.5008 27.9923C73.1692 27.9923 74.6787 27.317 75.791 26.2445C76.0691 26.0459 76.4266 25.9267 76.7841 25.9267C77.6977 25.9267 78.4128 26.6417 78.4128 27.5554C78.4128 28.1512 78.0553 28.6676 77.6183 28.9457C75.9896 30.336 73.8048 31.2497 71.5405 31.2497C66.3764 31.2497 62.1657 26.9992 62.1657 21.7557C62.1657 16.5121 66.3764 12.2617 71.5405 12.2617C73.4473 12.2219 75.2746 12.8178 76.7841 13.8506ZM86.2384 17.823C89.7738 17.823 92.7134 20.8023 92.7134 24.4966C92.7134 28.1512 89.7341 31.2894 86.2384 31.2894C82.5441 31.2894 79.4853 28.191 79.4853 24.4966C79.4853 20.8023 82.5441 17.823 86.2384 17.823ZM86.1987 27.9923C87.7479 27.9923 89.0588 26.5225 89.0588 24.5364C89.0588 22.5502 87.7479 21.279 86.1987 21.279C84.5303 21.279 83.1399 22.5104 83.1399 24.5364C83.1399 26.4828 84.5303 27.9923 86.1987 27.9923ZM94.9379 29.2238V19.8489C94.9379 18.8161 95.7324 17.9819 96.7652 17.9819C97.7583 17.9819 98.5925 18.8161 98.5925 19.8489V29.2238C98.5925 30.2566 97.7583 31.0908 96.7652 31.0908C95.7721 31.0908 94.9379 30.2169 94.9379 29.2238ZM94.6599 14.4465C94.6599 13.215 95.6132 12.2617 96.7652 12.2617C97.9569 12.2617 98.9103 13.2548 98.9103 14.4465C98.9103 15.6382 97.9569 16.5916 96.7652 16.5916C95.5735 16.5518 94.6599 15.5985 94.6599 14.4465ZM105.584 24.1391V29.2238C105.584 30.2566 104.75 31.0908 103.757 31.0908C102.764 31.0908 101.929 30.2566 101.929 29.2238V19.412C101.929 18.6175 102.565 17.9819 103.359 17.9819C104.154 17.9819 104.75 18.6572 104.75 19.412C106.22 18.0216 107.53 17.823 108.762 17.823C112.416 17.823 114.045 20.564 114.045 23.7022V29.2238C114.045 30.2566 113.211 31.0908 112.218 31.0908C111.225 31.0908 110.391 30.2566 110.391 29.2238V24.1391C110.391 22.5502 110.192 21.1995 107.888 21.1995C106.259 21.1995 105.584 22.5502 105.584 24.1391ZM125.883 26.0856C125.446 26.0856 125.168 25.887 124.929 25.6089L120.679 21.0009V29.2238C120.679 30.2566 119.845 31.0908 118.852 31.0908C117.859 31.0908 117.024 30.2566 117.024 29.2238V12.937C117.144 12.6589 117.422 12.4603 117.7 12.4603C118.018 12.4603 118.296 12.7384 118.494 12.937L125.287 20.564C125.486 20.8023 125.724 20.9215 125.883 20.9215C126.002 20.9215 126.28 20.8023 126.479 20.564L133.271 12.937C133.47 12.7384 133.708 12.4603 134.066 12.4603C134.384 12.4603 134.662 12.6589 134.741 12.937V29.2238C134.741 30.2566 133.947 31.0908 132.914 31.0908C131.921 31.0908 131.087 30.2566 131.087 29.2238V21.0009L126.836 25.6089C126.518 25.887 126.24 26.0856 125.883 26.0856ZM143.441 27.9923C145.069 27.9923 146.46 26.5225 146.46 24.5364C146.46 22.5502 145.03 21.2393 143.441 21.2393C141.852 21.2393 140.541 22.5899 140.541 24.5364C140.541 26.4431 141.812 27.9923 143.441 27.9923ZM147.334 29.6607L147.254 29.2238C146.539 30.6141 144.275 31.2497 142.845 31.2497C139.429 31.2497 136.886 28.1512 136.886 24.4569C136.886 20.8023 139.468 17.7833 143.044 17.7833C143.639 17.7833 145.705 17.9422 147.294 19.8092L147.373 19.3722C147.373 18.5778 147.969 17.9422 148.764 17.9422C149.558 17.9422 150.194 18.6175 150.194 19.3722V29.621C150.194 30.4155 149.558 31.0511 148.764 31.0511C147.93 31.0908 147.334 30.4155 147.334 29.6607ZM160.244 21.1995H159.847C157.543 21.3187 157.106 22.6296 157.106 24.1391V29.2238C157.106 30.2566 156.272 31.0908 155.279 31.0908C154.285 31.0908 153.451 30.2566 153.451 29.2238V19.412C153.451 18.6175 154.087 17.9819 154.881 17.9819C155.676 17.9819 156.272 18.6572 156.272 19.412C157.622 18.1408 158.735 17.8627 159.847 17.823H160.204C161.078 17.823 161.873 18.5778 161.873 19.5311C161.912 20.4051 161.118 21.1995 160.244 21.1995ZM174.346 28.3498C174.505 28.6279 174.624 28.906 174.624 29.2238C174.624 30.1772 173.75 31.0511 172.797 31.0511C172.161 31.0511 171.605 30.5744 171.168 30.0183L166.957 25.1322V29.1841C166.957 30.2169 166.123 31.0511 165.13 31.0511C164.137 31.0511 163.303 30.2169 163.303 29.1841V14.2876C163.303 13.2548 164.097 12.4206 165.13 12.4206C166.163 12.4206 166.957 13.2548 166.957 14.2876V23.583L171.168 18.9353C171.605 18.4586 172.121 17.9422 172.757 17.9422C173.671 17.9422 174.505 18.7764 174.505 19.7298C174.505 20.0078 174.425 20.3256 174.267 20.564L170.93 24.2186L174.346 28.3498ZM181.496 21.2393C180.503 21.2393 178.875 21.7557 178.875 23.3049H184.158C184.118 21.7557 182.45 21.2393 181.496 21.2393ZM186.263 25.6486H178.875C178.875 27.8334 180.98 28.191 181.894 28.191C182.569 28.191 183.522 28.0718 184.277 27.7143C184.515 27.5554 184.873 27.4362 185.23 27.4362C186.025 27.4362 186.7 28.1115 186.7 28.9457C186.7 29.5018 186.343 29.9785 185.906 30.2566C184.793 31.0908 183.324 31.2894 181.933 31.2894C178.239 31.2894 175.18 29.3032 175.18 24.6555C175.18 21.0009 177.047 17.823 181.417 17.823C184.952 17.823 187.614 20.127 187.693 24.2186C187.693 24.9733 187.058 25.6486 186.263 25.6486ZM196.433 31.2497H195.439C192.659 31.2497 191.03 30.0183 191.03 25.6884V21.1995H190.077C189.203 21.1995 188.448 20.4051 188.448 19.5311C188.448 18.5778 189.242 17.823 190.077 17.823H191.03V14.367C191.03 13.3342 191.825 12.5 192.857 12.5C193.85 12.5 194.685 13.3342 194.685 14.367V17.823H196.194C197.068 17.823 197.823 18.5778 197.823 19.5311C197.823 20.4051 197.028 21.1995 196.194 21.1995H194.685V24.9733C194.685 27.4759 194.804 27.9923 195.916 27.9923H196.433C197.306 27.9923 198.061 28.7074 198.061 29.621C198.061 30.4949 197.306 31.2497 196.433 31.2497ZM214.11 13.8506C214.586 14.1287 215.023 14.804 215.023 15.3998C215.023 16.3532 214.229 17.1477 213.315 17.1477C213.077 17.1477 212.878 17.0683 212.68 17.0285C211.607 16.2341 210.256 15.7176 208.826 15.7176C205.45 15.7176 203.146 18.4586 203.146 21.8749C203.146 25.2911 205.49 27.9923 208.826 27.9923C210.495 27.9923 212.004 27.317 213.117 26.2445C213.395 26.0459 213.752 25.9267 214.11 25.9267C215.023 25.9267 215.738 26.6417 215.738 27.5554C215.738 28.1512 215.381 28.6676 214.944 28.9457C213.315 30.336 211.13 31.2497 208.866 31.2497C203.702 31.2497 199.491 26.9992 199.491 21.7557C199.491 16.5121 203.702 12.2617 208.866 12.2617C210.773 12.2219 212.64 12.8178 214.11 13.8506ZM223.365 27.9923C224.994 27.9923 226.384 26.5225 226.384 24.5364C226.384 22.5502 224.954 21.2393 223.365 21.2393C221.737 21.2393 220.465 22.5899 220.465 24.5364C220.465 26.4431 221.776 27.9923 223.365 27.9923ZM227.258 29.6607L227.179 29.2238C226.464 30.6141 224.2 31.2497 222.769 31.2497C219.353 31.2497 216.811 28.1512 216.811 24.4569C216.811 20.8023 219.393 17.7833 222.968 17.7833C223.564 17.7833 225.63 17.9422 227.219 19.8092L227.298 19.3722C227.298 18.5778 227.894 17.9422 228.688 17.9422C229.483 17.9422 230.118 18.6175 230.118 19.3722V29.621C230.118 30.4155 229.483 31.0511 228.688 31.0511C227.854 31.0908 227.258 30.4155 227.258 29.6607ZM240.089 27.9923C241.718 27.9923 242.989 26.4431 242.989 24.5364C242.989 22.5502 241.678 21.2393 240.089 21.2393C238.46 21.2393 237.07 22.5502 237.07 24.5364C237.07 26.5225 238.46 27.9923 240.089 27.9923ZM237.07 30.1772V34.8249C237.07 35.8577 236.236 36.6919 235.243 36.6919C234.25 36.6919 233.415 35.8577 233.415 34.8249V19.412C233.415 18.6175 234.051 17.9819 234.846 17.9819C235.64 17.9819 236.236 18.6572 236.236 19.5709C237.587 18.1805 239.255 17.823 240.526 17.823C244.061 17.823 246.683 20.8023 246.683 24.4966C246.683 28.1512 244.181 31.2894 240.725 31.2894C239.652 31.2497 238.063 30.9319 237.07 30.1772Z" fill="white"/>
</g>
<defs>
<clipPath id="clip0_3_88782">
<rect width="259" height="33.7653" fill="white" transform="translate(0.275879 0.384277)"/>
</clipPath>
</defs>
</svg>
