<svg width="255" height="32" viewBox="0 0 255 32" fill="none" xmlns="http://www.w3.org/2000/svg">
<path d="M31.0477 17.33H22.2764C22.0141 17.33 21.885 17.01 22.0746 16.8284L29.4204 9.79604C29.5643 9.65886 29.7983 9.7019 29.8857 9.88077C30.8298 11.8214 31.3597 13.9988 31.3597 16.2972C31.3597 16.5514 31.353 16.8042 31.3395 17.0557C31.3314 17.2103 31.2023 17.33 31.0477 17.33Z" fill="#82C341"/>
<path d="M1.9674 15.0585C2.02792 14.3363 2.14089 13.6276 2.30227 12.939C2.32648 12.8341 2.40852 12.7507 2.51342 12.7238L10.3446 10.6742C10.4536 10.646 10.5692 10.6823 10.6419 10.7684L15.1956 16.1923C15.2386 16.2434 15.2629 16.3079 15.2642 16.3752L15.2951 18.726C15.2978 18.921 15.1109 19.0636 14.9239 19.0098L2.17854 15.3625C2.0454 15.3235 1.95529 15.197 1.9674 15.0585Z" fill="#82C341"/>
<path d="M10.2653 19.4698L4.76478 24.4176C4.63298 24.536 4.42587 24.5118 4.32769 24.3638C2.92768 22.2349 2.06427 19.724 1.93247 17.0235C1.92305 16.8231 2.11134 16.6711 2.30365 16.7263L10.1497 18.9722C10.3716 19.0354 10.4361 19.3165 10.2653 19.4698Z" fill="#27AF4B"/>
<path d="M14.7101 13.6263L7.55268 5.10244C7.44778 4.97737 7.46527 4.78774 7.59437 4.68687C9.6211 3.10395 12.0715 2.04016 14.7451 1.69587C14.9172 1.67435 15.0692 1.80884 15.0705 1.98233L15.2239 13.4353C15.2279 13.7097 14.8863 13.8361 14.7101 13.6263Z" fill="#27AF4B"/>
<path d="M16.7088 21.966L19.6527 19.1485C19.7724 19.0342 19.9647 19.0423 20.0736 19.1673L26.6474 26.6973C26.751 26.8157 26.7429 26.9959 26.6272 27.1021C24.0908 29.4489 20.7286 30.9162 17.0302 31.0144C16.8688 31.0184 16.7357 30.8879 16.733 30.7266L16.6187 22.1812C16.6187 22.0992 16.6509 22.0212 16.7088 21.966Z" fill="#82C341"/>
<path d="M21.9228 18.6077H30.8313C31.0115 18.6077 31.1514 18.7704 31.1191 18.9479C30.6538 21.4938 29.5321 23.8137 27.9358 25.7234C27.8215 25.8592 27.6117 25.8592 27.4946 25.7261L21.7023 19.0905C21.5395 18.9022 21.6727 18.6077 21.9228 18.6077Z" fill="#549614"/>
<path d="M28.872 8.55217L17.0787 19.8438C16.8945 20.0199 16.5892 19.8922 16.5852 19.6366L16.4668 10.7484C16.4655 10.6354 16.5287 10.5318 16.6309 10.4821L26.5171 5.64993C26.6274 5.59613 26.7592 5.61631 26.8479 5.70103C27.6239 6.44879 28.3179 7.27992 28.915 8.18099C28.993 8.29799 28.9742 8.454 28.872 8.55217Z" fill="#27AF4B"/>
<path d="M25.2108 4.86587L16.8578 8.94891C16.6655 9.04305 16.4409 8.90453 16.4382 8.6907L16.3467 1.86679C16.344 1.70675 16.4731 1.57495 16.6332 1.57495C16.6345 1.57495 16.6345 1.57495 16.6359 1.57495C19.8515 1.57495 22.829 2.61185 25.2525 4.36826C25.4327 4.49602 25.4085 4.76903 25.2108 4.86587Z" fill="#82C341"/>
<path d="M6.60875 5.96462L9.31733 9.19097C9.45451 9.35505 9.37516 9.60654 9.16805 9.66034L3.3259 11.1895C3.09458 11.25 2.89151 11.02 2.98027 10.7981C3.71861 8.97041 4.81468 7.32429 6.17973 5.94444C6.29943 5.8234 6.49847 5.83416 6.60875 5.96462Z" fill="#549614"/>
<path d="M5.49895 25.4761L11.9866 19.6407C12.0606 19.5735 12.1655 19.5493 12.2623 19.5775L15.1108 20.3925C15.2345 20.4275 15.3206 20.5404 15.3219 20.6682L15.4551 30.6485C15.4578 30.822 15.3085 30.9606 15.1363 30.9431C11.2846 30.5517 7.86593 28.6689 5.47071 25.8823C5.36715 25.7626 5.3806 25.5824 5.49895 25.4761Z" fill="#549614"/>
<path d="M16 0C7.17761 0 0 7.17761 0 16C0 24.8224 7.17761 32 16 32C24.8224 32 32 24.8224 32 16C32 7.17761 24.8224 0 16 0ZM30.4117 17.0329H21.6391C21.3768 17.0329 21.2477 16.7128 21.4373 16.5312L28.7831 9.49887C28.927 9.36169 29.161 9.40472 29.2484 9.58359C30.1925 11.5243 30.7224 13.7016 30.7224 16C30.7224 16.2542 30.7156 16.507 30.7022 16.7585C30.6941 16.9132 30.565 17.0329 30.4117 17.0329ZM1.33008 14.7614C1.3906 14.0392 1.50357 13.3304 1.66496 12.6418C1.68917 12.5369 1.7712 12.4536 1.8761 12.4267L9.70732 10.3771C9.81626 10.3488 9.93192 10.3851 10.0045 10.4712L14.5583 15.8951C14.6013 15.9462 14.6255 16.0108 14.6269 16.078L14.6578 18.4288C14.6605 18.6239 14.4736 18.7664 14.2866 18.7126L1.54123 15.0653C1.40809 15.0277 1.31932 14.8999 1.33008 14.7614ZM9.62932 19.1726L4.12877 24.1204C3.99697 24.2387 3.78986 24.2145 3.69169 24.0666C2.29167 21.9376 1.42826 19.4267 1.29646 16.7262C1.28705 16.5258 1.47533 16.3739 1.66765 16.429L9.51366 18.675C9.73422 18.7395 9.79877 19.0192 9.62932 19.1726ZM14.0728 13.3291L6.9167 4.80659C6.8118 4.68152 6.82929 4.49189 6.95839 4.39102C8.98512 2.8081 11.4355 1.74431 14.1091 1.40002C14.2812 1.3785 14.4332 1.51299 14.4346 1.68648L14.5879 13.1394C14.5919 13.4125 14.249 13.5402 14.0728 13.3291ZM16.0726 21.6687L19.0166 18.8511C19.1363 18.7368 19.3286 18.7449 19.4375 18.87L26.0113 26.3999C26.1148 26.5183 26.1067 26.6985 25.9911 26.8047C23.4547 29.1516 20.0925 30.6188 16.394 30.717C16.2327 30.721 16.0995 30.5906 16.0968 30.4292L15.9825 21.8838C15.9812 21.8018 16.0134 21.7251 16.0726 21.6687ZM21.2867 18.3105H30.1952C30.3754 18.3105 30.5153 18.4732 30.483 18.6508C30.0177 21.1966 28.896 23.5165 27.2997 25.4262C27.1853 25.5621 26.9755 25.5621 26.8585 25.4289L21.0662 18.7933C20.9021 18.605 21.0366 18.3105 21.2867 18.3105ZM28.2357 8.25485L16.4425 19.5464C16.2582 19.7226 15.9529 19.5949 15.9489 19.3393L15.8305 10.451C15.8292 10.3381 15.8924 10.2345 15.9946 10.1848L25.8808 5.35261C25.9911 5.29881 26.1229 5.31899 26.2116 5.40372C26.9876 6.15147 27.6816 6.9826 28.2787 7.88367C28.3554 8.00067 28.3366 8.15802 28.2357 8.25485ZM24.5736 4.56989L16.2206 8.65294C16.0282 8.74708 15.8036 8.60856 15.801 8.39472L15.7095 1.57082C15.7068 1.41078 15.8359 1.27898 15.996 1.27898C15.9973 1.27898 15.9973 1.27898 15.9987 1.27898C19.2143 1.27898 22.1918 2.31588 24.6153 4.07229C24.7955 4.20005 24.7726 4.47306 24.5736 4.56989ZM5.9726 5.66731L8.68118 8.89367C8.81836 9.05775 8.73901 9.30924 8.5319 9.36303L2.68841 10.8935C2.45709 10.954 2.25401 10.724 2.34278 10.5021C3.08111 8.67446 4.17719 7.02698 5.54224 5.64848C5.66328 5.5261 5.86232 5.53686 5.9726 5.66731ZM4.86173 25.1801L11.3494 19.3447C11.4234 19.2775 11.5283 19.2533 11.6251 19.2815L14.4736 20.0965C14.5973 20.1315 14.6834 20.2444 14.6847 20.3722L14.8179 30.3525C14.8205 30.526 14.6713 30.6645 14.4991 30.6471C10.6474 30.2557 7.22871 28.3729 4.83349 25.5863C4.73128 25.4652 4.74473 25.285 4.86173 25.1801Z" fill="#454749"/>
<path d="M59.6988 9.64009C59.8724 10.086 60.1843 10.4909 60.6393 10.8596C61.0944 11.2259 61.7206 11.561 62.5204 11.8622C63.3202 12.1635 64.3475 12.4455 65.6024 12.713C68.1331 13.2914 69.9978 14.094 71.1987 15.1159C72.3996 16.1402 73 17.5525 73 19.3553C73 20.3579 72.8077 21.2689 72.423 22.0932C72.0384 22.9175 71.5083 23.6188 70.8328 24.1972C70.1573 24.7757 69.3434 25.2215 68.3935 25.5324C67.4412 25.8433 66.4022 26 65.2787 26C63.461 26 61.8027 25.6987 60.2993 25.0962C58.7958 24.4937 57.3627 23.561 56 22.3005L57.5902 20.3675C58.7794 21.4786 59.9803 22.3077 61.1905 22.8524C62.4008 23.3971 63.7964 23.6694 65.3749 23.6694C66.9111 23.6694 68.1378 23.3031 69.0573 22.568C69.9767 21.8329 70.4364 20.864 70.4364 19.6638C70.4364 19.107 70.3496 18.613 70.176 18.1792C70.0025 17.7453 69.6999 17.3501 69.266 16.9934C68.8321 16.6367 68.2316 16.3137 67.4623 16.0245C66.693 15.7353 65.7103 15.4557 64.5188 15.1906C63.217 14.9014 62.0842 14.5688 61.1202 14.188C60.1538 13.8096 59.3587 13.3541 58.7301 12.819C58.1015 12.284 57.6348 11.6622 57.3322 10.9488C57.0297 10.2354 56.8772 9.38943 56.8772 8.41092C56.8772 7.4758 57.0602 6.6202 57.4284 5.83932C57.7966 5.06085 58.315 4.38602 58.9858 3.81964C59.6566 3.25085 60.4447 2.80739 61.3547 2.48443C62.2624 2.16148 63.2569 2 64.3405 2C66.0058 2 67.46 2.23619 68.7031 2.70617C69.9462 3.17614 71.1518 3.88712 72.3198 4.83189L70.8281 6.86604C69.7679 5.9767 68.7031 5.3332 67.6312 4.93312C66.5617 4.53304 65.4405 4.333 64.2725 4.333C63.536 4.333 62.8722 4.43422 62.2765 4.63426C61.6807 4.8343 61.1741 5.10183 60.7519 5.43683C60.3297 5.77184 60.0061 6.17192 59.7786 6.63948C59.5511 7.10705 59.4385 7.60836 59.4385 8.14099C59.4385 8.69291 59.5253 9.19422 59.6988 9.64009Z" fill="#37F2AD"/>
<path d="M89.4732 8H92V25.6254H89.4732V22.5572C88.8961 23.511 88.1436 24.3242 87.2108 24.9945C86.2803 25.6648 85.071 26 83.5852 26C82.5418 26 81.6161 25.83 80.8083 25.4899C79.9981 25.1498 79.3129 24.6668 78.7455 24.0408C78.1805 23.4148 77.7477 22.6731 77.4496 21.808C77.1491 20.9455 77 19.9893 77 18.9444V8.00246H79.5605V18.2987C79.5605 19.9351 79.9716 21.2314 80.7915 22.1851C81.6113 23.1388 82.787 23.6169 84.3161 23.6169C85.047 23.6169 85.7298 23.4863 86.3621 23.2251C86.9944 22.9639 87.5377 22.5893 87.9921 22.1013C88.4465 21.6134 88.8072 21.0268 89.074 20.3467C89.3409 19.664 89.4732 18.9148 89.4732 18.0967V8Z" fill="#37F2AD"/>
<path d="M107.519 22.9951C107.202 23.6335 106.777 24.1772 106.246 24.6238C105.713 25.0728 105.083 25.4126 104.353 25.6481C103.624 25.8835 102.836 26 101.986 26C100.766 26 99.5387 25.7694 98.2972 25.3107C97.0557 24.8519 95.9582 24.2306 95 23.4466L96.2722 21.5995C97.1856 22.3155 98.1391 22.8641 99.128 23.2451C100.117 23.6262 101.113 23.8155 102.116 23.8155C103.138 23.8155 103.976 23.5704 104.63 23.0777C105.283 22.5849 105.609 21.915 105.609 21.0631V20.9951C105.609 20.5704 105.496 20.2015 105.267 19.8883C105.038 19.5752 104.729 19.301 104.337 19.0655C103.945 18.8301 103.494 18.6238 102.982 18.4442C102.47 18.2646 101.944 18.0971 101.399 17.9393C100.745 17.7379 100.086 17.5194 99.423 17.284C98.7598 17.0485 98.1603 16.7524 97.6269 16.3932C97.0935 16.0364 96.6592 15.5874 96.3217 15.051C95.9842 14.5146 95.8166 13.8422 95.8166 13.0364V12.9684C95.8166 12.2306 95.9582 11.5534 96.2415 10.9369C96.5247 10.3204 96.9212 9.79612 97.4334 9.35922C97.9455 8.92233 98.5545 8.58738 99.2625 8.35194C99.9706 8.1165 100.738 8 101.564 8C102.609 8 103.664 8.17476 104.731 8.51942C105.798 8.8665 106.766 9.3301 107.637 9.91262L106.494 11.8592C105.711 11.3447 104.889 10.9369 104.03 10.6335C103.171 10.3325 102.326 10.1796 101.5 10.1796C100.499 10.1796 99.7039 10.4199 99.1162 10.9005C98.5285 11.3811 98.2358 11.9806 98.2358 12.6966V12.7646C98.2358 13.1675 98.3562 13.5194 98.5946 13.8228C98.833 14.1262 99.154 14.3883 99.5576 14.6116C99.9611 14.835 100.424 15.0364 100.945 15.216C101.467 15.3956 102.012 15.5752 102.579 15.7524C103.232 15.9539 103.879 16.1772 104.521 16.4248C105.163 16.6723 105.746 16.9854 106.268 17.3641C106.789 17.7451 107.209 18.2039 107.526 18.7403C107.842 19.2767 108 19.9369 108 20.7209V20.7888C107.993 21.6238 107.835 22.3568 107.519 22.9951Z" fill="#37F2AD"/>
<path d="M115.284 20.7388C115.284 21.8188 115.515 22.5722 115.974 22.9988C116.433 23.4255 117.038 23.64 117.784 23.64C118.167 23.64 118.526 23.5961 118.863 23.5059C119.198 23.4157 119.557 23.2597 119.942 23.033V25.2589C119.557 25.5075 119.152 25.6928 118.72 25.8147C118.287 25.9391 117.805 26 117.267 26C116.672 26 116.117 25.9098 115.6 25.7294C115.082 25.549 114.637 25.2637 114.263 24.8688C113.889 24.4763 113.596 23.9643 113.386 23.3353C113.174 22.7063 113.07 21.9529 113.07 21.0753V10.5553H111V8.26118H113.07V3H115.284V8.26118H120V10.5553H115.284V20.7388Z" fill="#37F2AD"/>
<path d="M127.712 10.6413C126.886 10.8772 126.076 11.1861 125.283 11.5655L124.524 9.4471C125.469 8.9996 126.429 8.64451 127.397 8.38671C128.366 8.1289 129.477 8 130.733 8C133.066 8 134.862 8.58857 136.118 9.76571C137.374 10.9428 138 12.6867 138 14.9972V25.6279H135.555V23.0061C134.96 23.7916 134.162 24.4872 133.159 25.0928C132.156 25.6984 130.895 26 129.376 26C128.584 26 127.807 25.8881 127.048 25.6644C126.288 25.4406 125.605 25.0977 124.999 24.638C124.392 24.1784 123.91 23.6117 123.545 22.938C123.182 22.2643 123 21.469 123 20.5497C123 19.6303 123.177 18.818 123.528 18.1103C123.879 17.4049 124.38 16.8139 125.03 16.3445C125.68 15.8727 126.451 15.5152 127.342 15.2671C128.232 15.0215 129.219 14.8974 130.298 14.8974C131.399 14.8974 132.357 14.9655 133.171 15.0993C133.986 15.2331 134.778 15.4131 135.55 15.6368V15.0312C135.55 13.4625 135.103 12.2781 134.212 11.4828C133.322 10.6875 132.07 10.2886 130.463 10.2886C129.458 10.2886 128.538 10.4054 127.712 10.6413ZM126.897 17.7916C126.04 18.4435 125.613 19.3287 125.613 20.4499C125.613 21.0118 125.727 21.5055 125.959 21.9311C126.188 22.3567 126.501 22.7215 126.897 23.0255C127.292 23.3271 127.748 23.5582 128.263 23.7163C128.779 23.8743 129.324 23.9522 129.895 23.9522C130.685 23.9522 131.425 23.8354 132.116 23.5995C132.808 23.3636 133.41 23.0401 133.926 22.6242C134.442 22.2083 134.848 21.7171 135.144 21.1431C135.44 20.5691 135.588 19.9368 135.588 19.2412V17.5582C134.95 17.3782 134.222 17.2104 133.398 17.0547C132.574 16.8991 131.636 16.8188 130.582 16.8188C128.982 16.8164 127.755 17.1398 126.897 17.7916Z" fill="#37F2AD"/>
<path d="M143 4.73461V2H146V4.73461H143ZM143.173 25V8.36912H145.798V25H143.173Z" fill="#37F2AD"/>
<path d="M152.555 25H150V8.35378H152.555V11.2515C153.131 10.3508 153.881 9.58269 154.812 8.94962C155.74 8.31654 156.947 8 158.43 8C159.468 8 160.392 8.1606 161.2 8.48179C162.009 8.80298 162.692 9.25917 163.258 9.85036C163.822 10.4415 164.254 11.1444 164.551 11.9591C164.851 12.776 165 13.6768 165 14.6636V24.9977H162.445V15.2757C162.445 13.7303 162.035 12.506 161.217 11.6053C160.399 10.7045 159.226 10.253 157.7 10.253C156.971 10.253 156.29 10.3764 155.659 10.6231C155.028 10.8698 154.481 11.2236 154.016 11.6844C153.55 12.1453 153.19 12.6992 152.936 13.3416C152.682 13.9863 152.555 14.6939 152.555 15.4666V25Z" fill="#37F2AD"/>
<path d="M186.315 20.4506C185.858 21.5494 185.228 22.5108 184.427 23.3349C183.626 24.1566 182.668 24.8072 181.555 25.2843C180.442 25.7614 179.241 26 177.949 26C176.658 26 175.468 25.7614 174.377 25.2843C173.286 24.8072 172.34 24.1614 171.539 23.3518C170.738 22.5398 170.115 21.5904 169.669 20.5012C169.222 19.412 169 18.2578 169 17.0337C169 15.812 169.222 14.6506 169.669 13.5494C170.113 12.4506 170.738 11.4892 171.539 10.6651C172.34 9.84337 173.291 9.19277 174.394 8.71566C175.495 8.23855 176.704 8 178.017 8C179.308 8 180.505 8.23855 181.606 8.71566C182.706 9.19277 183.66 9.83855 184.461 10.6482C185.262 11.4602 185.885 12.4096 186.331 13.4988C186.776 14.588 187 15.7446 187 16.9663C186.998 18.188 186.771 19.3494 186.315 20.4506ZM183.877 14.3904C183.554 13.5711 183.102 12.8554 182.525 12.2458C181.946 11.6361 181.268 11.1542 180.488 10.8C179.709 10.4458 178.864 10.2675 177.952 10.2675C177.018 10.2675 176.161 10.4386 175.381 10.7831C174.602 11.1277 173.94 11.6024 173.395 12.212C172.85 12.8217 172.42 13.5301 172.109 14.3398C171.797 15.1494 171.64 16.0193 171.64 16.9494C171.64 17.8795 171.802 18.7566 172.126 19.5759C172.449 20.3952 172.893 21.106 173.46 21.7036C174.027 22.3012 174.701 22.7783 175.48 23.1325C176.26 23.4867 177.105 23.6651 178.017 23.6651C178.951 23.6651 179.808 23.494 180.587 23.1494C181.367 22.8048 182.033 22.3349 182.591 21.7349C183.146 21.1373 183.58 20.4337 183.894 19.6241C184.205 18.8145 184.362 17.9446 184.362 17.0145C184.362 16.0843 184.2 15.2096 183.877 14.3904Z" fill="#37F2AD"/>
<path d="M191 25V2H193V25H191Z" fill="#37F2AD"/>
<path d="M214.315 20.4506C213.858 21.5494 213.228 22.5108 212.427 23.3349C211.626 24.1566 210.668 24.8072 209.555 25.2843C208.442 25.7614 207.241 26 205.949 26C204.658 26 203.468 25.7614 202.377 25.2843C201.286 24.8072 200.34 24.1614 199.539 23.3518C198.738 22.5398 198.115 21.5904 197.669 20.5012C197.222 19.412 197 18.2578 197 17.0337C197 15.812 197.222 14.6506 197.669 13.5494C198.113 12.4506 198.738 11.4892 199.539 10.6651C200.34 9.84337 201.291 9.19277 202.394 8.71566C203.495 8.23855 204.704 8 206.017 8C207.308 8 208.505 8.23855 209.606 8.71566C210.706 9.19277 211.66 9.83855 212.461 10.6482C213.262 11.4602 213.885 12.4096 214.331 13.4988C214.776 14.588 215 15.7446 215 16.9663C215 18.188 214.771 19.3494 214.315 20.4506ZM211.877 14.3904C211.554 13.5711 211.102 12.8554 210.525 12.2458C209.946 11.6361 209.268 11.1542 208.488 10.8C207.709 10.4458 206.864 10.2675 205.952 10.2675C205.018 10.2675 204.161 10.4386 203.381 10.7831C202.602 11.1277 201.94 11.6024 201.395 12.212C200.85 12.8217 200.42 13.5301 200.109 14.3398C199.797 15.1494 199.64 16.0193 199.64 16.9494C199.64 17.8795 199.802 18.7566 200.126 19.5759C200.449 20.3952 200.893 21.106 201.46 21.7036C202.027 22.3012 202.701 22.7783 203.48 23.1325C204.26 23.4867 205.105 23.6651 206.017 23.6651C206.951 23.6651 207.808 23.494 208.587 23.1494C209.367 22.8048 210.033 22.3349 210.591 21.7349C211.146 21.1373 211.58 20.4337 211.894 19.6241C212.205 18.8145 212.362 17.9446 212.362 17.0145C212.362 16.0843 212.2 15.2096 211.877 14.3904Z" fill="#37F2AD"/>
<path d="M233.397 25.4728C232.995 26.4709 232.421 27.3053 231.672 27.9761C230.923 28.6446 230.022 29.1494 228.97 29.4906C227.917 29.8294 226.738 30 225.436 30C224.024 30 222.68 29.8087 221.399 29.426C220.119 29.0434 218.914 28.4694 217.786 27.7041L218.926 25.7909C219.902 26.4709 220.922 26.9918 221.986 27.3537C223.05 27.7156 224.189 27.8954 225.403 27.8954C227.27 27.8954 228.758 27.4021 229.864 26.4132C230.971 25.4244 231.524 23.9629 231.524 22.0289V20.0834C230.785 21.04 229.885 21.8583 228.821 22.5383C227.757 23.2184 226.456 23.5595 224.914 23.5595C223.892 23.5595 222.911 23.3843 221.967 23.0339C221.023 22.6836 220.18 22.1741 219.443 21.5034C218.704 20.8326 218.113 20.0212 217.669 19.0645C217.224 18.1079 217 17.0245 217 15.812C217 14.5995 217.221 13.5115 217.669 12.5434C218.113 11.5752 218.704 10.7569 219.443 10.0884C220.18 9.41995 221.028 8.9036 221.983 8.5417C222.939 8.1798 223.916 8 224.914 8C225.695 8 226.416 8.0899 227.079 8.272C227.741 8.4518 228.339 8.69153 228.871 8.98889C229.403 9.28625 229.885 9.63663 230.321 10.04C230.754 10.4434 231.145 10.8699 231.493 11.3148V8.35038H234V21.9667C234 23.306 233.798 24.4746 233.397 25.4728ZM231.069 13.4677C230.721 12.7762 230.26 12.1884 229.685 11.6974C229.111 11.2087 228.454 10.8307 227.715 10.5656C226.976 10.3005 226.206 10.1668 225.403 10.1668C224.601 10.1668 223.845 10.2936 223.141 10.5495C222.435 10.8053 221.816 11.1764 221.286 11.6651C220.755 12.1538 220.336 12.7439 220.032 13.4355C219.728 14.127 219.575 14.8969 219.575 15.7475C219.575 16.5981 219.733 17.368 220.048 18.0595C220.364 18.751 220.785 19.3458 221.317 19.846C221.849 20.3462 222.468 20.7288 223.172 20.9939C223.878 21.259 224.622 21.3927 225.403 21.3927C226.206 21.3927 226.978 21.2613 227.715 20.9939C228.452 20.7288 229.109 20.3508 229.685 19.8621C230.26 19.3734 230.721 18.7833 231.069 18.0918C231.415 17.4002 231.59 16.6303 231.59 15.7798C231.59 14.9315 231.415 14.1593 231.069 13.4677Z" fill="#37F2AD"/>
<path d="M247.919 25.2777C247.202 27.0038 246.402 28.2224 245.52 28.9334C244.64 29.6445 243.567 30 242.305 30C241.609 30 240.977 29.9298 240.413 29.7895C239.847 29.6492 239.281 29.4387 238.717 29.158L239.566 27.1839C239.979 27.3991 240.387 27.5558 240.79 27.6541C241.194 27.7523 241.666 27.7991 242.21 27.7991C242.972 27.7991 243.614 27.5722 244.135 27.1208C244.657 26.667 245.168 25.8484 245.669 24.6626L238 8H240.774L246.909 21.9447L252.325 8H255L247.919 25.2777Z" fill="#37F2AD"/>
</svg>
