<svg width="535" height="414" viewBox="0 0 535 414" fill="none" xmlns="http://www.w3.org/2000/svg">
<g filter="url(#filter0_b_3_88708)">
<rect y="357" width="223" height="44" rx="18" fill="url(#paint0_linear_3_88708)" fill-opacity="0.4"/>
</g>
<path d="M13.3496 384V374.315H16.8726C17.5226 374.315 18.0946 374.436 18.5886 374.679C19.0913 374.913 19.4813 375.26 19.7586 375.719C20.036 376.17 20.1746 376.711 20.1746 377.344C20.1746 377.968 20.0316 378.505 19.7456 378.956C19.4683 379.407 19.0826 379.753 18.5886 379.996C18.0946 380.239 17.5226 380.36 16.8726 380.36H14.8836V384H13.3496ZM14.8836 378.995H16.9116C17.2583 378.995 17.5616 378.926 17.8216 378.787C18.0816 378.648 18.2853 378.458 18.4326 378.215C18.58 377.964 18.6536 377.669 18.6536 377.331C18.6536 376.993 18.58 376.703 18.4326 376.46C18.2853 376.209 18.0816 376.018 17.8216 375.888C17.5616 375.749 17.2583 375.68 16.9116 375.68H14.8836V378.995ZM22.7539 384V374.315H26.2769C26.9269 374.315 27.4989 374.436 27.9929 374.679C28.4869 374.913 28.8726 375.26 29.1499 375.719C29.4359 376.17 29.5789 376.711 29.5789 377.344C29.5789 378.011 29.4099 378.583 29.0719 379.06C28.7426 379.537 28.2963 379.883 27.7329 380.1L29.9689 384H28.2269L25.8479 379.775L26.8489 380.36H24.2879V384H22.7539ZM24.2879 378.995H26.3029C26.6583 378.995 26.9659 378.926 27.2259 378.787C27.4859 378.648 27.6853 378.458 27.8239 378.215C27.9713 377.964 28.0449 377.669 28.0449 377.331C28.0449 376.993 27.9713 376.703 27.8239 376.46C27.6853 376.209 27.4859 376.018 27.2259 375.888C26.9659 375.749 26.6583 375.68 26.3029 375.68H24.2879V378.995ZM36.9658 384.156C36.2638 384.156 35.6095 384.03 35.0028 383.779C34.4048 383.528 33.8761 383.177 33.4168 382.726C32.9661 382.275 32.6108 381.747 32.3508 381.14C32.0995 380.533 31.9738 379.87 31.9738 379.151C31.9738 378.432 32.0995 377.769 32.3508 377.162C32.6108 376.547 32.9661 376.018 33.4168 375.576C33.8675 375.125 34.3961 374.779 35.0028 374.536C35.6095 374.285 36.2638 374.159 36.9658 374.159C37.6765 374.159 38.3308 374.285 38.9288 374.536C39.5355 374.779 40.0641 375.125 40.5148 375.576C40.9741 376.027 41.3295 376.555 41.5808 377.162C41.8321 377.769 41.9578 378.432 41.9578 379.151C41.9578 379.87 41.8278 380.533 41.5678 381.14C41.3165 381.747 40.9655 382.275 40.5148 382.726C40.0641 383.177 39.5355 383.528 38.9288 383.779C38.3221 384.03 37.6678 384.156 36.9658 384.156ZM36.9658 382.752C37.4685 382.752 37.9278 382.661 38.3438 382.479C38.7685 382.297 39.1368 382.046 39.4488 381.725C39.7608 381.396 40.0035 381.014 40.1768 380.581C40.3501 380.139 40.4368 379.662 40.4368 379.151C40.4368 378.64 40.3501 378.167 40.1768 377.734C40.0035 377.301 39.7608 376.919 39.4488 376.59C39.1368 376.261 38.7685 376.005 38.3438 375.823C37.9278 375.641 37.4685 375.55 36.9658 375.55C36.4631 375.55 35.9995 375.641 35.5748 375.823C35.1588 376.005 34.7948 376.261 34.4828 376.59C34.1708 376.919 33.9281 377.301 33.7548 377.734C33.5901 378.167 33.5078 378.64 33.5078 379.151C33.5078 379.662 33.5901 380.139 33.7548 380.581C33.9281 381.014 34.1708 381.396 34.4828 381.725C34.7948 382.046 35.1631 382.297 35.5878 382.479C36.0125 382.661 36.4718 382.752 36.9658 382.752ZM49.3789 384.156C48.6769 384.156 48.0225 384.03 47.4159 383.779C46.8179 383.528 46.2892 383.177 45.8299 382.726C45.3792 382.275 45.0239 381.747 44.7639 381.14C44.5125 380.533 44.3869 379.87 44.3869 379.151C44.3869 378.432 44.5125 377.769 44.7639 377.162C45.0239 376.547 45.3792 376.018 45.8299 375.576C46.2805 375.125 46.8092 374.779 47.4159 374.536C48.0225 374.285 48.6769 374.159 49.3789 374.159C50.0895 374.159 50.7439 374.285 51.3419 374.536C51.9485 374.779 52.4772 375.125 52.9279 375.576C53.3872 376.027 53.7425 376.555 53.9939 377.162C54.2452 377.769 54.3709 378.432 54.3709 379.151C54.3709 379.87 54.2409 380.533 53.9809 381.14C53.7295 381.747 53.3785 382.275 52.9279 382.726C52.4772 383.177 51.9485 383.528 51.3419 383.779C50.7352 384.03 50.0809 384.156 49.3789 384.156ZM49.3789 382.752C49.8815 382.752 50.3409 382.661 50.7569 382.479C51.1815 382.297 51.5499 382.046 51.8619 381.725C52.1739 381.396 52.4165 381.014 52.5899 380.581C52.7632 380.139 52.8499 379.662 52.8499 379.151C52.8499 378.64 52.7632 378.167 52.5899 377.734C52.4165 377.301 52.1739 376.919 51.8619 376.59C51.5499 376.261 51.1815 376.005 50.7569 375.823C50.3409 375.641 49.8815 375.55 49.3789 375.55C48.8762 375.55 48.4125 375.641 47.9879 375.823C47.5719 376.005 47.2079 376.261 46.8959 376.59C46.5839 376.919 46.3412 377.301 46.1679 377.734C46.0032 378.167 45.9209 378.64 45.9209 379.151C45.9209 379.662 46.0032 380.139 46.1679 380.581C46.3412 381.014 46.5839 381.396 46.8959 381.725C47.2079 382.046 47.5762 382.297 48.0009 382.479C48.4255 382.661 48.8849 382.752 49.3789 382.752ZM57.086 384V374.315H63.391V375.68H58.62V378.592H62.871V379.957H58.62V384H57.086ZM73.6562 384.156C72.9542 384.156 72.2999 384.03 71.6932 383.779C71.0952 383.528 70.5666 383.177 70.1072 382.726C69.6566 382.275 69.3012 381.747 69.0412 381.14C68.7899 380.533 68.6642 379.87 68.6642 379.151C68.6642 378.432 68.7899 377.769 69.0412 377.162C69.3012 376.547 69.6566 376.018 70.1072 375.576C70.5579 375.125 71.0866 374.779 71.6932 374.536C72.2999 374.285 72.9542 374.159 73.6562 374.159C74.3669 374.159 75.0212 374.285 75.6192 374.536C76.2259 374.779 76.7546 375.125 77.2052 375.576C77.6646 376.027 78.0199 376.555 78.2712 377.162C78.5226 377.769 78.6482 378.432 78.6482 379.151C78.6482 379.87 78.5182 380.533 78.2582 381.14C78.0069 381.747 77.6559 382.275 77.2052 382.726C76.7546 383.177 76.2259 383.528 75.6192 383.779C75.0126 384.03 74.3582 384.156 73.6562 384.156ZM73.6562 382.752C74.1589 382.752 74.6182 382.661 75.0342 382.479C75.4589 382.297 75.8272 382.046 76.1392 381.725C76.4512 381.396 76.6939 381.014 76.8672 380.581C77.0406 380.139 77.1272 379.662 77.1272 379.151C77.1272 378.64 77.0406 378.167 76.8672 377.734C76.6939 377.301 76.4512 376.919 76.1392 376.59C75.8272 376.261 75.4589 376.005 75.0342 375.823C74.6182 375.641 74.1589 375.55 73.6562 375.55C73.1536 375.55 72.6899 375.641 72.2652 375.823C71.8492 376.005 71.4852 376.261 71.1732 376.59C70.8612 376.919 70.6186 377.301 70.4452 377.734C70.2806 378.167 70.1982 378.64 70.1982 379.151C70.1982 379.662 70.2806 380.139 70.4452 380.581C70.6186 381.014 70.8612 381.396 71.1732 381.725C71.4852 382.046 71.8536 382.297 72.2782 382.479C72.7029 382.661 73.1622 382.752 73.6562 382.752ZM81.3633 384V374.315H87.6683V375.68H82.8973V378.592H87.1483V379.957H82.8973V384H81.3633ZM97.7386 384.156C97.0539 384.156 96.4169 384.03 95.8276 383.779C95.2469 383.528 94.7399 383.181 94.3066 382.739C93.8819 382.288 93.5482 381.76 93.3056 381.153C93.0629 380.546 92.9416 379.879 92.9416 379.151C92.9416 378.432 93.0586 377.769 93.2926 377.162C93.5352 376.547 93.8732 376.018 94.3066 375.576C94.7399 375.125 95.2469 374.779 95.8276 374.536C96.4082 374.285 97.0452 374.159 97.7386 374.159C98.4232 374.159 99.0342 374.276 99.5716 374.51C100.118 374.744 100.577 375.052 100.95 375.433C101.322 375.806 101.591 376.213 101.756 376.655L100.378 377.305C100.17 376.785 99.8359 376.365 99.3766 376.044C98.9259 375.715 98.3799 375.55 97.7386 375.55C97.0972 375.55 96.5296 375.702 96.0356 376.005C95.5416 376.308 95.1559 376.729 94.8786 377.266C94.6099 377.803 94.4756 378.432 94.4756 379.151C94.4756 379.87 94.6099 380.503 94.8786 381.049C95.1559 381.586 95.5416 382.007 96.0356 382.31C96.5296 382.605 97.0972 382.752 97.7386 382.752C98.3799 382.752 98.9259 382.592 99.3766 382.271C99.8359 381.95 100.17 381.53 100.378 381.01L101.756 381.66C101.591 382.093 101.322 382.501 100.95 382.882C100.577 383.263 100.118 383.571 99.5716 383.805C99.0342 384.039 98.4232 384.156 97.7386 384.156ZM103.475 384L106.881 374.315H108.779L112.185 384H110.547L109.806 381.829H105.867L105.113 384H103.475ZM106.309 380.464H109.338L107.622 375.394H108.051L106.309 380.464ZM114.334 384V374.315H117.857C118.507 374.315 119.079 374.436 119.573 374.679C120.067 374.913 120.453 375.26 120.73 375.719C121.016 376.17 121.159 376.711 121.159 377.344C121.159 378.011 120.99 378.583 120.652 379.06C120.323 379.537 119.876 379.883 119.313 380.1L121.549 384H119.807L117.428 379.775L118.429 380.36H115.868V384H114.334ZM115.868 378.995H117.883C118.238 378.995 118.546 378.926 118.806 378.787C119.066 378.648 119.265 378.458 119.404 378.215C119.551 377.964 119.625 377.669 119.625 377.331C119.625 376.993 119.551 376.703 119.404 376.46C119.265 376.209 119.066 376.018 118.806 375.888C118.546 375.749 118.238 375.68 117.883 375.68H115.868V378.995ZM123.84 384V374.315H127.922C128.529 374.315 129.053 374.423 129.495 374.64C129.937 374.848 130.275 375.151 130.509 375.55C130.743 375.94 130.86 376.404 130.86 376.941C130.86 377.409 130.739 377.838 130.496 378.228C130.262 378.609 129.894 378.913 129.391 379.138V378.488C129.833 378.661 130.193 378.882 130.47 379.151C130.747 379.411 130.947 379.706 131.068 380.035C131.198 380.364 131.263 380.711 131.263 381.075C131.263 381.985 130.964 382.7 130.366 383.22C129.777 383.74 128.966 384 127.935 384H123.84ZM125.374 382.635H128.052C128.563 382.635 128.971 382.496 129.274 382.219C129.577 381.933 129.729 381.556 129.729 381.088C129.729 380.611 129.577 380.234 129.274 379.957C128.971 379.671 128.563 379.528 128.052 379.528H125.374V382.635ZM125.374 378.176H127.961C128.377 378.176 128.711 378.059 128.962 377.825C129.213 377.582 129.339 377.266 129.339 376.876C129.339 376.486 129.213 376.183 128.962 375.966C128.711 375.749 128.377 375.641 127.961 375.641H125.374V378.176ZM138.547 384.156C137.845 384.156 137.191 384.03 136.584 383.779C135.986 383.528 135.457 383.177 134.998 382.726C134.547 382.275 134.192 381.747 133.932 381.14C133.681 380.533 133.555 379.87 133.555 379.151C133.555 378.432 133.681 377.769 133.932 377.162C134.192 376.547 134.547 376.018 134.998 375.576C135.449 375.125 135.977 374.779 136.584 374.536C137.191 374.285 137.845 374.159 138.547 374.159C139.258 374.159 139.912 374.285 140.51 374.536C141.117 374.779 141.645 375.125 142.096 375.576C142.555 376.027 142.911 376.555 143.162 377.162C143.413 377.769 143.539 378.432 143.539 379.151C143.539 379.87 143.409 380.533 143.149 381.14C142.898 381.747 142.547 382.275 142.096 382.726C141.645 383.177 141.117 383.528 140.51 383.779C139.903 384.03 139.249 384.156 138.547 384.156ZM138.547 382.752C139.05 382.752 139.509 382.661 139.925 382.479C140.35 382.297 140.718 382.046 141.03 381.725C141.342 381.396 141.585 381.014 141.758 380.581C141.931 380.139 142.018 379.662 142.018 379.151C142.018 378.64 141.931 378.167 141.758 377.734C141.585 377.301 141.342 376.919 141.03 376.59C140.718 376.261 140.35 376.005 139.925 375.823C139.509 375.641 139.05 375.55 138.547 375.55C138.044 375.55 137.581 375.641 137.156 375.823C136.74 376.005 136.376 376.261 136.064 376.59C135.752 376.919 135.509 377.301 135.336 377.734C135.171 378.167 135.089 378.64 135.089 379.151C135.089 379.662 135.171 380.139 135.336 380.581C135.509 381.014 135.752 381.396 136.064 381.725C136.376 382.046 136.744 382.297 137.169 382.479C137.594 382.661 138.053 382.752 138.547 382.752ZM146.254 384V374.315H147.489L152.923 381.816L152.338 381.907V374.315H153.859V384H152.624L147.229 376.447L147.788 376.343V384H146.254ZM164.648 384.156C163.963 384.156 163.326 384.03 162.737 383.779C162.156 383.528 161.649 383.181 161.216 382.739C160.791 382.288 160.457 381.76 160.215 381.153C159.972 380.546 159.851 379.879 159.851 379.151C159.851 378.432 159.968 377.769 160.202 377.162C160.444 376.547 160.782 376.018 161.216 375.576C161.649 375.125 162.156 374.779 162.737 374.536C163.317 374.285 163.954 374.159 164.648 374.159C165.332 374.159 165.943 374.276 166.481 374.51C167.027 374.744 167.486 375.052 167.859 375.433C168.231 375.806 168.5 376.213 168.665 376.655L167.287 377.305C167.079 376.785 166.745 376.365 166.286 376.044C165.835 375.715 165.289 375.55 164.648 375.55C164.006 375.55 163.439 375.702 162.945 376.005C162.451 376.308 162.065 376.729 161.788 377.266C161.519 377.803 161.385 378.432 161.385 379.151C161.385 379.87 161.519 380.503 161.788 381.049C162.065 381.586 162.451 382.007 162.945 382.31C163.439 382.605 164.006 382.752 164.648 382.752C165.289 382.752 165.835 382.592 166.286 382.271C166.745 381.95 167.079 381.53 167.287 381.01L168.665 381.66C168.5 382.093 168.231 382.501 167.859 382.882C167.486 383.263 167.027 383.571 166.481 383.805C165.943 384.039 165.332 384.156 164.648 384.156ZM171.242 384V374.315H174.765C175.415 374.315 175.987 374.436 176.481 374.679C176.975 374.913 177.361 375.26 177.638 375.719C177.924 376.17 178.067 376.711 178.067 377.344C178.067 378.011 177.898 378.583 177.56 379.06C177.231 379.537 176.785 379.883 176.221 380.1L178.457 384H176.715L174.336 379.775L175.337 380.36H172.776V384H171.242ZM172.776 378.995H174.791C175.147 378.995 175.454 378.926 175.714 378.787C175.974 378.648 176.174 378.458 176.312 378.215C176.46 377.964 176.533 377.669 176.533 377.331C176.533 376.993 176.46 376.703 176.312 376.46C176.174 376.209 175.974 376.018 175.714 375.888C175.454 375.749 175.147 375.68 174.791 375.68H172.776V378.995ZM180.748 384V374.315H187.131V375.68H182.282V378.462H186.871V379.827H182.282V382.635H187.131V384H180.748ZM189.556 384V374.315H192.728C193.733 374.315 194.604 374.519 195.341 374.926C196.086 375.325 196.662 375.888 197.07 376.616C197.477 377.344 197.681 378.189 197.681 379.151C197.681 380.104 197.477 380.949 197.07 381.686C196.662 382.414 196.086 382.982 195.341 383.389C194.604 383.796 193.733 384 192.728 384H189.556ZM191.09 382.635H192.754C193.438 382.635 194.032 382.492 194.535 382.206C195.046 381.92 195.44 381.517 195.718 380.997C195.995 380.477 196.134 379.862 196.134 379.151C196.134 378.44 195.991 377.829 195.705 377.318C195.427 376.798 195.037 376.395 194.535 376.109C194.032 375.823 193.438 375.68 192.754 375.68H191.09V382.635ZM200.191 384V374.315H201.725V384H200.191ZM206.449 384V375.68H203.875V374.315H210.505V375.68H207.97V384H206.449Z" fill="white"/>
<g filter="url(#filter1_b_3_88708)">
<rect x="12" y="10" width="205" height="44" rx="18" fill="url(#paint1_linear_3_88708)" fill-opacity="0.4"/>
</g>
<path d="M37.8226 37L34.3906 27.315H36.0416L38.8496 35.583H38.5246L41.3196 27.315H42.9706L39.5386 37H37.8226ZM45.1099 37V27.315H51.4929V28.68H46.6439V31.462H51.2329V32.827H46.6439V35.635H51.4929V37H45.1099ZM53.9175 37V27.315H57.4405C58.0905 27.315 58.6625 27.4363 59.1565 27.679C59.6505 27.913 60.0362 28.2597 60.3135 28.719C60.5995 29.1697 60.7425 29.7113 60.7425 30.344C60.7425 31.0113 60.5735 31.5833 60.2355 32.06C59.9062 32.5367 59.4598 32.8833 58.8965 33.1L61.1325 37H59.3905L57.0115 32.775L58.0125 33.36H55.4515V37H53.9175ZM55.4515 31.995H57.4665C57.8218 31.995 58.1295 31.9257 58.3895 31.787C58.6495 31.6483 58.8488 31.4577 58.9875 31.215C59.1348 30.9637 59.2085 30.669 59.2085 30.331C59.2085 29.993 59.1348 29.7027 58.9875 29.46C58.8488 29.2087 58.6495 29.018 58.3895 28.888C58.1295 28.7493 57.8218 28.68 57.4665 28.68H55.4515V31.995ZM63.4234 37V27.315H64.9574V37H63.4234ZM67.9654 37V27.315H74.2704V28.68H69.4994V31.592H73.7504V32.957H69.4994V37H67.9654ZM76.5572 37V27.315H78.0912V37H76.5572ZM85.6101 37.156C84.9255 37.156 84.2885 37.0303 83.6991 36.779C83.1185 36.5277 82.6115 36.181 82.1781 35.739C81.7535 35.2883 81.4198 34.7597 81.1771 34.153C80.9345 33.5463 80.8131 32.879 80.8131 32.151C80.8131 31.4317 80.9301 30.7687 81.1641 30.162C81.4068 29.5467 81.7448 29.018 82.1781 28.576C82.6115 28.1253 83.1185 27.7787 83.6991 27.536C84.2798 27.2847 84.9168 27.159 85.6101 27.159C86.2948 27.159 86.9058 27.276 87.4431 27.51C87.9891 27.744 88.4485 28.0517 88.8211 28.433C89.1938 28.8057 89.4625 29.213 89.6271 29.655L88.2491 30.305C88.0411 29.785 87.7075 29.3647 87.2481 29.044C86.7975 28.7147 86.2515 28.55 85.6101 28.55C84.9688 28.55 84.4011 28.7017 83.9071 29.005C83.4131 29.3083 83.0275 29.7287 82.7501 30.266C82.4815 30.8033 82.3471 31.4317 82.3471 32.151C82.3471 32.8703 82.4815 33.503 82.7501 34.049C83.0275 34.5863 83.4131 35.0067 83.9071 35.31C84.4011 35.6047 84.9688 35.752 85.6101 35.752C86.2515 35.752 86.7975 35.5917 87.2481 35.271C87.7075 34.9503 88.0411 34.53 88.2491 34.01L89.6271 34.66C89.4625 35.0933 89.1938 35.5007 88.8211 35.882C88.4485 36.2633 87.9891 36.571 87.4431 36.805C86.9058 37.039 86.2948 37.156 85.6101 37.156ZM91.3466 37L94.7526 27.315H96.6506L100.057 37H98.4186L97.6776 34.829H93.7386L92.9846 37H91.3466ZM94.1806 33.464H97.2096L95.4936 28.394H95.9226L94.1806 33.464ZM103.274 37V28.68H100.7V27.315H107.33V28.68H104.795V37H103.274ZM109.477 37V27.315H111.011V37H109.477ZM118.725 37.156C118.023 37.156 117.369 37.0303 116.762 36.779C116.164 36.5277 115.635 36.1767 115.176 35.726C114.725 35.2753 114.37 34.7467 114.11 34.14C113.859 33.5333 113.733 32.8703 113.733 32.151C113.733 31.4317 113.859 30.7687 114.11 30.162C114.37 29.5467 114.725 29.018 115.176 28.576C115.627 28.1253 116.155 27.7787 116.762 27.536C117.369 27.2847 118.023 27.159 118.725 27.159C119.436 27.159 120.09 27.2847 120.688 27.536C121.295 27.7787 121.823 28.1253 122.274 28.576C122.733 29.0267 123.089 29.5553 123.34 30.162C123.591 30.7687 123.717 31.4317 123.717 32.151C123.717 32.8703 123.587 33.5333 123.327 34.14C123.076 34.7467 122.725 35.2753 122.274 35.726C121.823 36.1767 121.295 36.5277 120.688 36.779C120.081 37.0303 119.427 37.156 118.725 37.156ZM118.725 35.752C119.228 35.752 119.687 35.661 120.103 35.479C120.528 35.297 120.896 35.0457 121.208 34.725C121.52 34.3957 121.763 34.0143 121.936 33.581C122.109 33.139 122.196 32.6623 122.196 32.151C122.196 31.6397 122.109 31.1673 121.936 30.734C121.763 30.3007 121.52 29.9193 121.208 29.59C120.896 29.2607 120.528 29.005 120.103 28.823C119.687 28.641 119.228 28.55 118.725 28.55C118.222 28.55 117.759 28.641 117.334 28.823C116.918 29.005 116.554 29.2607 116.242 29.59C115.93 29.9193 115.687 30.3007 115.514 30.734C115.349 31.1673 115.267 31.6397 115.267 32.151C115.267 32.6623 115.349 33.139 115.514 33.581C115.687 34.0143 115.93 34.3957 116.242 34.725C116.554 35.0457 116.922 35.297 117.347 35.479C117.772 35.661 118.231 35.752 118.725 35.752ZM126.432 37V27.315H127.667L133.101 34.816L132.516 34.907V27.315H134.037V37H132.802L127.407 29.447L127.966 29.343V37H126.432ZM143.123 37.156C142.551 37.156 142.048 37.052 141.615 36.844C141.182 36.6273 140.839 36.3283 140.588 35.947C140.345 35.557 140.224 35.1063 140.224 34.595C140.224 34.1617 140.302 33.7847 140.458 33.464C140.614 33.1347 140.809 32.8573 141.043 32.632C141.277 32.398 141.511 32.203 141.745 32.047C141.979 31.891 142.174 31.7697 142.33 31.683L143.123 31.241C143.383 31.0937 143.63 30.9377 143.864 30.773C144.098 30.6083 144.289 30.422 144.436 30.214C144.583 30.006 144.657 29.772 144.657 29.512C144.657 29.2 144.553 28.94 144.345 28.732C144.137 28.5153 143.877 28.407 143.565 28.407C143.253 28.407 142.993 28.511 142.785 28.719C142.577 28.927 142.473 29.1957 142.473 29.525C142.473 29.7503 142.525 29.9713 142.629 30.188C142.742 30.4047 142.872 30.6083 143.019 30.799C143.175 30.981 143.327 31.1543 143.474 31.319L148.674 37H146.841L142.382 32.203C142.174 31.9777 141.966 31.7393 141.758 31.488C141.559 31.228 141.39 30.942 141.251 30.63C141.121 30.318 141.056 29.9713 141.056 29.59C141.056 29.096 141.169 28.667 141.394 28.303C141.628 27.939 141.931 27.6573 142.304 27.458C142.685 27.2587 143.101 27.159 143.552 27.159C144.011 27.159 144.427 27.263 144.8 27.471C145.173 27.6703 145.467 27.9477 145.684 28.303C145.909 28.6583 146.022 29.0613 146.022 29.512C146.022 29.98 145.914 30.383 145.697 30.721C145.48 31.059 145.216 31.345 144.904 31.579C144.601 31.813 144.315 32.0123 144.046 32.177L143.253 32.645C143.045 32.7663 142.824 32.918 142.59 33.1C142.365 33.2733 142.174 33.4813 142.018 33.724C141.862 33.958 141.784 34.2397 141.784 34.569C141.784 34.9763 141.91 35.2927 142.161 35.518C142.421 35.7433 142.759 35.856 143.175 35.856C143.444 35.856 143.682 35.8127 143.89 35.726C144.098 35.6393 144.28 35.5267 144.436 35.388C144.601 35.2493 144.744 35.0977 144.865 34.933C144.995 34.7597 145.112 34.5993 145.216 34.452L146.724 32.242H148.297L146.555 34.946C146.416 35.154 146.252 35.388 146.061 35.648C145.87 35.8993 145.641 36.142 145.372 36.376C145.103 36.6013 144.783 36.7877 144.41 36.935C144.046 37.0823 143.617 37.156 143.123 37.156ZM153.797 37L157.203 27.315H159.101L162.507 37H160.869L160.128 34.829H156.189L155.435 37H153.797ZM156.631 33.464H159.66L157.944 28.394H158.373L156.631 33.464ZM168.029 37.156C167.31 37.156 166.668 37.0043 166.105 36.701C165.55 36.3977 165.113 35.9817 164.792 35.453C164.48 34.9243 164.324 34.322 164.324 33.646V27.315H165.858V33.581C165.858 34.0057 165.949 34.3827 166.131 34.712C166.322 35.0413 166.577 35.297 166.898 35.479C167.227 35.661 167.604 35.752 168.029 35.752C168.462 35.752 168.839 35.661 169.16 35.479C169.489 35.297 169.745 35.0413 169.927 34.712C170.118 34.3827 170.213 34.0057 170.213 33.581V27.315H171.734V33.646C171.734 34.322 171.578 34.9243 171.266 35.453C170.954 35.9817 170.516 36.3977 169.953 36.701C169.398 37.0043 168.757 37.156 168.029 37.156ZM174.657 37V27.315H177.829C178.834 27.315 179.705 27.5187 180.442 27.926C181.187 28.3247 181.763 28.888 182.171 29.616C182.578 30.344 182.782 31.189 182.782 32.151C182.782 33.1043 182.578 33.9493 182.171 34.686C181.763 35.414 181.187 35.9817 180.442 36.389C179.705 36.7963 178.834 37 177.829 37H174.657ZM176.191 35.635H177.855C178.539 35.635 179.133 35.492 179.636 35.206C180.147 34.92 180.541 34.517 180.819 33.997C181.096 33.477 181.235 32.8617 181.235 32.151C181.235 31.4403 181.092 30.8293 180.806 30.318C180.528 29.798 180.138 29.395 179.636 29.109C179.133 28.823 178.539 28.68 177.855 28.68H176.191V35.635ZM185.293 37V27.315H186.827V37H185.293ZM191.55 37V28.68H188.976V27.315H195.606V28.68H193.071V37H191.55Z" fill="white"/>
<g filter="url(#filter2_b_3_88708)">
<rect x="535" y="194" width="205" height="44" rx="18" transform="rotate(-180 535 194)" fill="url(#paint2_linear_3_88708)" fill-opacity="0.4"/>
</g>
<path d="M367.098 178V168.315H370.621C371.271 168.315 371.843 168.436 372.337 168.679C372.84 168.913 373.23 169.26 373.507 169.719C373.785 170.17 373.923 170.711 373.923 171.344C373.923 171.968 373.78 172.505 373.494 172.956C373.217 173.407 372.831 173.753 372.337 173.996C371.843 174.239 371.271 174.36 370.621 174.36H368.632V178H367.098ZM368.632 172.995H370.66C371.007 172.995 371.31 172.926 371.57 172.787C371.83 172.648 372.034 172.458 372.181 172.215C372.329 171.964 372.402 171.669 372.402 171.331C372.402 170.993 372.329 170.703 372.181 170.46C372.034 170.209 371.83 170.018 371.57 169.888C371.31 169.749 371.007 169.68 370.66 169.68H368.632V172.995ZM376.502 178V168.315H382.885V169.68H378.036V172.462H382.625V173.827H378.036V176.635H382.885V178H376.502ZM385.31 178V168.315H388.833C389.483 168.315 390.055 168.436 390.549 168.679C391.043 168.913 391.429 169.26 391.706 169.719C391.992 170.17 392.135 170.711 392.135 171.344C392.135 172.011 391.966 172.583 391.628 173.06C391.299 173.537 390.852 173.883 390.289 174.1L392.525 178H390.783L388.404 173.775L389.405 174.36H386.844V178H385.31ZM386.844 172.995H388.859C389.214 172.995 389.522 172.926 389.782 172.787C390.042 172.648 390.241 172.458 390.38 172.215C390.527 171.964 390.601 171.669 390.601 171.331C390.601 170.993 390.527 170.703 390.38 170.46C390.241 170.209 390.042 170.018 389.782 169.888C389.522 169.749 389.214 169.68 388.859 169.68H386.844V172.995ZM394.816 178V168.315H396.35V178H394.816ZM404.064 178.156C403.362 178.156 402.708 178.03 402.101 177.779C401.503 177.528 400.974 177.177 400.515 176.726C400.064 176.275 399.709 175.747 399.449 175.14C399.198 174.533 399.072 173.87 399.072 173.151C399.072 172.432 399.198 171.769 399.449 171.162C399.709 170.547 400.064 170.018 400.515 169.576C400.966 169.125 401.494 168.779 402.101 168.536C402.708 168.285 403.362 168.159 404.064 168.159C404.775 168.159 405.429 168.285 406.027 168.536C406.634 168.779 407.162 169.125 407.613 169.576C408.072 170.027 408.428 170.555 408.679 171.162C408.93 171.769 409.056 172.432 409.056 173.151C409.056 173.87 408.926 174.533 408.666 175.14C408.415 175.747 408.064 176.275 407.613 176.726C407.162 177.177 406.634 177.528 406.027 177.779C405.42 178.03 404.766 178.156 404.064 178.156ZM404.064 176.752C404.567 176.752 405.026 176.661 405.442 176.479C405.867 176.297 406.235 176.046 406.547 175.725C406.859 175.396 407.102 175.014 407.275 174.581C407.448 174.139 407.535 173.662 407.535 173.151C407.535 172.64 407.448 172.167 407.275 171.734C407.102 171.301 406.859 170.919 406.547 170.59C406.235 170.261 405.867 170.005 405.442 169.823C405.026 169.641 404.567 169.55 404.064 169.55C403.561 169.55 403.098 169.641 402.673 169.823C402.257 170.005 401.893 170.261 401.581 170.59C401.269 170.919 401.026 171.301 400.853 171.734C400.688 172.167 400.606 172.64 400.606 173.151C400.606 173.662 400.688 174.139 400.853 174.581C401.026 175.014 401.269 175.396 401.581 175.725C401.893 176.046 402.261 176.297 402.686 176.479C403.111 176.661 403.57 176.752 404.064 176.752ZM411.771 178V168.315H414.943C415.948 168.315 416.819 168.519 417.556 168.926C418.301 169.325 418.878 169.888 419.285 170.616C419.692 171.344 419.896 172.189 419.896 173.151C419.896 174.104 419.692 174.949 419.285 175.686C418.878 176.414 418.301 176.982 417.556 177.389C416.819 177.796 415.948 178 414.943 178H411.771ZM413.305 176.635H414.969C415.654 176.635 416.247 176.492 416.75 176.206C417.261 175.92 417.656 175.517 417.933 174.997C418.21 174.477 418.349 173.862 418.349 173.151C418.349 172.44 418.206 171.829 417.92 171.318C417.643 170.798 417.253 170.395 416.75 170.109C416.247 169.823 415.654 169.68 414.969 169.68H413.305V176.635ZM422.407 178V168.315H423.941V178H422.407ZM431.46 178.156C430.775 178.156 430.138 178.03 429.549 177.779C428.968 177.528 428.461 177.181 428.028 176.739C427.603 176.288 427.269 175.76 427.027 175.153C426.784 174.546 426.663 173.879 426.663 173.151C426.663 172.432 426.78 171.769 427.014 171.162C427.256 170.547 427.594 170.018 428.028 169.576C428.461 169.125 428.968 168.779 429.549 168.536C430.129 168.285 430.766 168.159 431.46 168.159C432.144 168.159 432.755 168.276 433.293 168.51C433.839 168.744 434.298 169.052 434.671 169.433C435.043 169.806 435.312 170.213 435.477 170.655L434.099 171.305C433.891 170.785 433.557 170.365 433.098 170.044C432.647 169.715 432.101 169.55 431.46 169.55C430.818 169.55 430.251 169.702 429.757 170.005C429.263 170.308 428.877 170.729 428.6 171.266C428.331 171.803 428.197 172.432 428.197 173.151C428.197 173.87 428.331 174.503 428.6 175.049C428.877 175.586 429.263 176.007 429.757 176.31C430.251 176.605 430.818 176.752 431.46 176.752C432.101 176.752 432.647 176.592 433.098 176.271C433.557 175.95 433.891 175.53 434.099 175.01L435.477 175.66C435.312 176.093 435.043 176.501 434.671 176.882C434.298 177.263 433.839 177.571 433.293 177.805C432.755 178.039 432.144 178.156 431.46 178.156ZM445.838 178.156C445.153 178.156 444.516 178.03 443.927 177.779C443.346 177.528 442.839 177.181 442.406 176.739C441.981 176.288 441.647 175.76 441.405 175.153C441.162 174.546 441.041 173.879 441.041 173.151C441.041 172.432 441.158 171.769 441.392 171.162C441.634 170.547 441.972 170.018 442.406 169.576C442.839 169.125 443.346 168.779 443.927 168.536C444.507 168.285 445.144 168.159 445.838 168.159C446.522 168.159 447.133 168.276 447.671 168.51C448.217 168.744 448.676 169.052 449.049 169.433C449.421 169.806 449.69 170.213 449.855 170.655L448.477 171.305C448.269 170.785 447.935 170.365 447.476 170.044C447.025 169.715 446.479 169.55 445.838 169.55C445.196 169.55 444.629 169.702 444.135 170.005C443.641 170.308 443.255 170.729 442.978 171.266C442.709 171.803 442.575 172.432 442.575 173.151C442.575 173.87 442.709 174.503 442.978 175.049C443.255 175.586 443.641 176.007 444.135 176.31C444.629 176.605 445.196 176.752 445.838 176.752C446.479 176.752 447.025 176.592 447.476 176.271C447.935 175.95 448.269 175.53 448.477 175.01L449.855 175.66C449.69 176.093 449.421 176.501 449.049 176.882C448.676 177.263 448.217 177.571 447.671 177.805C447.133 178.039 446.522 178.156 445.838 178.156ZM452.432 178V168.315H453.966V172.579H458.451V168.315H459.972V178H458.451V173.944H453.966V178H452.432ZM462.979 178V168.315H469.362V169.68H464.513V172.462H469.102V173.827H464.513V176.635H469.362V178H462.979ZM476.298 178.156C475.613 178.156 474.976 178.03 474.387 177.779C473.806 177.528 473.299 177.181 472.866 176.739C472.441 176.288 472.107 175.76 471.865 175.153C471.622 174.546 471.501 173.879 471.501 173.151C471.501 172.432 471.618 171.769 471.852 171.162C472.094 170.547 472.432 170.018 472.866 169.576C473.299 169.125 473.806 168.779 474.387 168.536C474.967 168.285 475.604 168.159 476.298 168.159C476.982 168.159 477.593 168.276 478.131 168.51C478.677 168.744 479.136 169.052 479.509 169.433C479.881 169.806 480.15 170.213 480.315 170.655L478.937 171.305C478.729 170.785 478.395 170.365 477.936 170.044C477.485 169.715 476.939 169.55 476.298 169.55C475.656 169.55 475.089 169.702 474.595 170.005C474.101 170.308 473.715 170.729 473.438 171.266C473.169 171.803 473.035 172.432 473.035 173.151C473.035 173.87 473.169 174.503 473.438 175.049C473.715 175.586 474.101 176.007 474.595 176.31C475.089 176.605 475.656 176.752 476.298 176.752C476.939 176.752 477.485 176.592 477.936 176.271C478.395 175.95 478.729 175.53 478.937 175.01L480.315 175.66C480.15 176.093 479.881 176.501 479.509 176.882C479.136 177.263 478.677 177.571 478.131 177.805C477.593 178.039 476.982 178.156 476.298 178.156ZM482.892 178V168.315H484.426V173.567L484.023 173.411L488.404 168.315H490.315L486.441 172.852L486.519 171.76L490.471 178H488.664L485.83 173.567L484.426 175.205V178H482.892ZM495.88 178.156C495.273 178.156 494.71 178.043 494.19 177.818C493.67 177.584 493.228 177.268 492.864 176.869C492.5 176.47 492.231 176.011 492.058 175.491L493.358 174.945C493.592 175.543 493.934 176.002 494.385 176.323C494.836 176.644 495.356 176.804 495.945 176.804C496.292 176.804 496.595 176.752 496.855 176.648C497.115 176.535 497.314 176.379 497.453 176.18C497.6 175.981 497.674 175.751 497.674 175.491C497.674 175.136 497.574 174.854 497.375 174.646C497.176 174.438 496.881 174.273 496.491 174.152L494.671 173.58C493.943 173.355 493.388 173.012 493.007 172.553C492.626 172.085 492.435 171.539 492.435 170.915C492.435 170.369 492.569 169.892 492.838 169.485C493.107 169.069 493.475 168.744 493.943 168.51C494.42 168.276 494.961 168.159 495.568 168.159C496.149 168.159 496.677 168.263 497.154 168.471C497.631 168.67 498.038 168.948 498.376 169.303C498.723 169.658 498.974 170.07 499.13 170.538L497.856 171.097C497.665 170.586 497.366 170.191 496.959 169.914C496.56 169.637 496.097 169.498 495.568 169.498C495.247 169.498 494.966 169.554 494.723 169.667C494.48 169.771 494.29 169.927 494.151 170.135C494.021 170.334 493.956 170.568 493.956 170.837C493.956 171.149 494.056 171.426 494.255 171.669C494.454 171.912 494.758 172.094 495.165 172.215L496.855 172.748C497.626 172.982 498.207 173.32 498.597 173.762C498.987 174.195 499.182 174.737 499.182 175.387C499.182 175.924 499.039 176.401 498.753 176.817C498.476 177.233 498.09 177.562 497.596 177.805C497.102 178.039 496.53 178.156 495.88 178.156Z" fill="white"/>
<path opacity="0.45" fill-rule="evenodd" clip-rule="evenodd" d="M269.617 81.3985C293.116 83.7597 319.291 72.5104 339.157 85.2623C359.008 98.005 361.67 125.361 371.484 146.788C380.375 166.201 388.911 184.821 394.225 205.497C400.99 231.819 423.77 263.289 406.91 284.623C388.957 307.339 348.998 285.339 322.273 296.54C300.472 305.677 292.215 335.221 269.617 342.165C245.088 349.702 218.052 345.346 194.197 335.896C168.417 325.684 136.397 313.199 129.08 286.492C121.36 258.314 157.523 234.695 158.471 205.497C159.371 177.813 127.666 154.387 134.245 127.478C140.749 100.875 165.53 79.2636 191.495 70.4254C216.816 61.8061 242.998 78.7239 269.617 81.3985Z" fill="url(#paint3_linear_3_88708)" fill-opacity="0.8"/>
<path opacity="0.45" fill-rule="evenodd" clip-rule="evenodd" d="M270.48 62.4227C297.608 65.1407 327.824 52.1919 350.757 66.8703C373.673 81.5381 376.746 113.028 388.074 137.691C398.338 160.037 408.191 181.471 414.326 205.27C422.135 235.568 448.433 271.793 428.97 296.351C408.245 322.499 362.118 297.174 331.266 310.068C306.099 320.585 296.567 354.592 270.48 362.586C242.165 371.262 210.954 366.247 183.417 355.37C153.657 343.615 116.693 329.243 108.247 298.502C99.335 266.067 141.081 238.879 142.176 205.27C143.214 173.403 106.615 146.439 114.209 115.464C121.718 84.842 150.325 59.9653 180.298 49.7918C209.528 39.8703 239.752 59.344 270.48 62.4227Z" fill="url(#paint4_linear_3_88708)" fill-opacity="0.7"/>
<path opacity="0.45" fill-rule="evenodd" clip-rule="evenodd" d="M270.872 47.0614C300.885 50.0681 334.316 35.7435 359.688 51.9816C385.042 68.2078 388.442 103.043 400.976 130.327C412.331 155.047 423.233 178.758 430.02 205.086C438.66 238.603 467.756 278.677 446.222 305.844C423.293 334.77 372.258 306.755 338.124 321.018C310.28 332.654 299.734 370.274 270.872 379.117C239.544 388.714 205.013 383.167 174.547 371.134C141.62 358.13 100.724 342.231 91.3795 308.224C81.5195 272.343 127.707 242.266 128.918 205.086C130.066 169.834 89.5739 140.004 97.9764 105.739C106.284 71.8627 137.934 44.3429 171.095 33.0884C203.435 22.1128 236.875 43.6556 270.872 47.0614Z" fill="url(#paint5_linear_3_88708)" fill-opacity="0.6"/>
<path opacity="0.45" fill-rule="evenodd" clip-rule="evenodd" d="M268.772 32.6036C301.425 35.8822 337.794 20.2627 365.397 37.9686C392.98 55.6616 396.679 93.6458 410.314 123.396C422.668 150.35 434.528 176.205 441.912 204.913C451.312 241.46 482.965 285.157 459.538 314.779C434.593 346.32 379.072 315.773 341.938 331.325C311.645 344.012 300.172 385.033 268.772 394.675C234.691 405.141 197.124 399.092 163.979 385.971C128.158 371.791 83.6671 354.456 73.5007 317.374C62.774 278.249 113.022 245.454 114.339 204.913C115.589 166.474 71.5364 133.948 80.6777 96.5852C89.7151 59.6469 124.147 29.6394 160.224 17.3676C195.408 5.39983 231.787 28.89 268.772 32.6036Z" fill="url(#paint6_linear_3_88708)" fill-opacity="0.5"/>
<path opacity="0.45" fill-rule="evenodd" clip-rule="evenodd" d="M269.183 19.9531C304.226 23.4695 343.259 6.717 372.883 25.7072C402.486 44.6837 406.456 85.4232 421.09 117.332C434.348 146.241 447.077 173.971 455.002 204.762C465.09 243.96 499.061 290.826 473.918 322.597C447.147 356.426 387.559 323.663 347.706 340.344C315.195 353.951 302.882 397.947 269.183 408.289C232.606 419.513 192.287 413.026 156.715 398.954C118.271 383.745 70.5216 365.152 59.6106 325.381C48.0984 283.418 102.026 248.243 103.44 204.762C104.781 163.534 57.5025 128.649 67.3132 88.5759C77.0124 48.958 113.966 16.7739 152.685 3.61186C190.445 -9.22402 229.489 15.9701 269.183 19.9531Z" fill="url(#paint7_linear_3_88708)" fill-opacity="0.4"/>
<path opacity="0.45" fill-rule="evenodd" clip-rule="evenodd" d="M269.759 102.181C289.466 104.152 311.416 94.7641 328.075 105.406C344.723 116.04 346.955 138.87 355.185 156.751C362.641 172.952 369.799 188.491 374.255 205.746C379.928 227.712 399.032 253.975 384.893 271.779C369.838 290.736 336.329 272.376 313.917 281.724C295.634 289.349 288.71 314.004 269.759 319.8C249.19 326.09 226.517 322.454 206.513 314.568C184.894 306.046 158.042 295.626 151.906 273.339C145.432 249.824 175.758 230.112 176.553 205.746C177.307 182.642 150.72 163.093 156.237 140.637C161.692 118.435 182.473 100.4 204.247 93.024C225.481 85.831 247.437 99.9494 269.759 102.181Z" fill="url(#paint8_linear_3_88708)" fill-opacity="0.9"/>
<defs>
<filter id="filter0_b_3_88708" x="-4" y="353" width="231" height="52" filterUnits="userSpaceOnUse" color-interpolation-filters="sRGB">
<feFlood flood-opacity="0" result="BackgroundImageFix"/>
<feGaussianBlur in="BackgroundImageFix" stdDeviation="2"/>
<feComposite in2="SourceAlpha" operator="in" result="effect1_backgroundBlur_3_88708"/>
<feBlend mode="normal" in="SourceGraphic" in2="effect1_backgroundBlur_3_88708" result="shape"/>
</filter>
<filter id="filter1_b_3_88708" x="8" y="6" width="213" height="52" filterUnits="userSpaceOnUse" color-interpolation-filters="sRGB">
<feFlood flood-opacity="0" result="BackgroundImageFix"/>
<feGaussianBlur in="BackgroundImageFix" stdDeviation="2"/>
<feComposite in2="SourceAlpha" operator="in" result="effect1_backgroundBlur_3_88708"/>
<feBlend mode="normal" in="SourceGraphic" in2="effect1_backgroundBlur_3_88708" result="shape"/>
</filter>
<filter id="filter2_b_3_88708" x="326" y="146" width="213" height="52" filterUnits="userSpaceOnUse" color-interpolation-filters="sRGB">
<feFlood flood-opacity="0" result="BackgroundImageFix"/>
<feGaussianBlur in="BackgroundImageFix" stdDeviation="2"/>
<feComposite in2="SourceAlpha" operator="in" result="effect1_backgroundBlur_3_88708"/>
<feBlend mode="normal" in="SourceGraphic" in2="effect1_backgroundBlur_3_88708" result="shape"/>
</filter>
<linearGradient id="paint0_linear_3_88708" x1="187.646" y1="379" x2="58.1976" y2="379" gradientUnits="userSpaceOnUse">
<stop stop-color="white"/>
<stop offset="1" stop-color="white" stop-opacity="0.35"/>
</linearGradient>
<linearGradient id="paint1_linear_3_88708" x1="184.5" y1="32" x2="65.5" y2="32" gradientUnits="userSpaceOnUse">
<stop stop-color="white"/>
<stop offset="1" stop-color="white" stop-opacity="0.35"/>
</linearGradient>
<linearGradient id="paint2_linear_3_88708" x1="707.5" y1="216" x2="588.5" y2="216" gradientUnits="userSpaceOnUse">
<stop stop-color="white"/>
<stop offset="1" stop-color="white" stop-opacity="0.35"/>
</linearGradient>
<linearGradient id="paint3_linear_3_88708" x1="0.460527" y1="208.426" x2="265.212" y2="479.844" gradientUnits="userSpaceOnUse">
<stop stop-color="#37F2AD" stop-opacity="0.55"/>
<stop offset="1" stop-color="#0B5CA8"/>
</linearGradient>
<linearGradient id="paint4_linear_3_88708" x1="-40.2298" y1="208.642" x2="264.497" y2="521.938" gradientUnits="userSpaceOnUse">
<stop stop-color="#37F2AD"/>
<stop offset="1" stop-color="#0B5CA8"/>
</linearGradient>
<linearGradient id="paint5_linear_3_88708" x1="-72.8925" y1="208.816" x2="264.21" y2="555.441" gradientUnits="userSpaceOnUse">
<stop stop-color="#37F2AD"/>
<stop offset="1" stop-color="#0B5CA8"/>
</linearGradient>
<linearGradient id="paint6_linear_3_88708" x1="-105.213" y1="208.98" x2="262.385" y2="586.101" gradientUnits="userSpaceOnUse">
<stop stop-color="#37F2AD"/>
<stop offset="1" stop-color="#0B5CA8"/>
</linearGradient>
<linearGradient id="paint7_linear_3_88708" x1="-132.19" y1="209.124" x2="262.066" y2="613.855" gradientUnits="userSpaceOnUse">
<stop stop-color="#37F2AD"/>
<stop offset="1" stop-color="#0B5CA8"/>
</linearGradient>
<linearGradient id="paint8_linear_3_88708" x1="44.0458" y1="208.19" x2="264.96" y2="435.77" gradientUnits="userSpaceOnUse">
<stop stop-color="#37F2AD"/>
<stop offset="1" stop-color="#0B5CA8"/>
</linearGradient>
</defs>
</svg>
